<svg width="73" height="74" viewBox="0 0 73 74" fill="none" xmlns="http://www.w3.org/2000/svg">
<g clip-path="url(#clip0_2_386)">
<path d="M10.3717 24.0356C9.11993 24.0356 8.05786 24.4722 7.18482 25.3452C6.31177 26.2182 5.87512 27.2659 5.87512 28.4886V47.2623C5.87512 48.5156 6.31164 49.5768 7.18482 50.4499C8.05786 51.323 9.11993 51.7596 10.3717 51.7596C11.6225 51.7596 12.6782 51.3231 13.5377 50.4499C14.3955 49.5769 14.8256 48.5156 14.8256 47.2623V28.4886C14.8256 27.2657 14.389 26.2182 13.5159 25.3452C12.6427 24.4722 11.5944 24.0356 10.3717 24.0356Z" fill="#1A3453"/>
<path d="M46.5249 7.18185L49.6248 1.46334C49.8283 1.08475 49.7559 0.794433 49.407 0.590294C49.0283 0.414267 48.7373 0.503463 48.534 0.851576L45.3907 6.6158C42.6249 5.39294 39.6995 4.78039 36.6147 4.78039C33.5293 4.78039 30.6037 5.39307 27.8389 6.6158L24.6955 0.851576C24.4912 0.503463 24.2002 0.415056 23.8224 0.590294C23.4727 0.795353 23.4003 1.08475 23.6046 1.46334L26.7047 7.18185C23.5613 8.78487 21.0577 11.0174 19.195 13.8843C17.3323 16.7527 16.4005 19.8873 16.4005 23.2936H56.785C56.785 19.8881 55.8531 16.7534 53.9905 13.8843C52.1277 11.0174 49.6386 8.78487 46.5249 7.18185ZM28.6026 15.4995C28.2674 15.8355 27.867 16.0028 27.4015 16.0028C26.9352 16.0028 26.5429 15.8355 26.2229 15.4995C25.9029 15.1651 25.7429 14.7662 25.7429 14.2992C25.7429 13.8338 25.9029 13.4342 26.2229 13.099C26.5429 12.7645 26.9361 12.5973 27.4015 12.5973C27.867 12.5973 28.2674 12.7645 28.6026 13.099C28.937 13.435 29.1051 13.8338 29.1051 14.2992C29.1041 14.7655 28.9363 15.1651 28.6026 15.4995ZM47.0048 15.4995C46.6841 15.8355 46.2909 16.0028 45.8263 16.0028C45.3598 16.0028 44.9596 15.8355 44.625 15.4995C44.2899 15.1651 44.1227 14.7662 44.1227 14.2992C44.1227 13.8338 44.2899 13.4342 44.625 13.099C44.9596 12.7645 45.3598 12.5973 45.8263 12.5973C46.2917 12.5973 46.684 12.7645 47.0048 13.099C47.325 13.435 47.4848 13.8338 47.4848 14.2992C47.4848 14.7655 47.3249 15.1651 47.0048 15.4995Z" fill="#1A3453"/>
<path d="M16.5743 53.9411C16.5743 55.2812 17.0398 56.4157 17.9707 57.3467C18.9025 58.2776 20.0369 58.743 21.3762 58.743H24.6072L24.6515 68.6549C24.6515 69.9066 25.088 70.9694 25.961 71.8426C26.8341 72.7158 27.8825 73.1523 29.1044 73.1523C30.3554 73.1523 31.4181 72.7158 32.2913 71.8426C33.1645 70.9694 33.601 69.9067 33.601 68.6549V58.744H39.6259V68.6549C39.6259 69.9066 40.0622 70.9694 40.9354 71.8426C41.8086 72.7158 42.8704 73.1523 44.1223 73.1523C45.3733 73.1523 46.436 72.7158 47.3092 71.8426C48.1823 70.9694 48.6187 69.9067 48.6187 68.6549V58.744H51.8934C53.2029 58.744 54.3228 58.2784 55.2555 57.3474C56.1863 56.4165 56.652 55.282 56.652 53.942V24.8633H16.5743V53.9411Z" fill="#1A3453"/>
<path d="M62.8516 24.0356C61.6288 24.0356 60.5813 24.4657 59.7081 25.3235C58.8351 26.1829 58.3986 27.2385 58.3986 28.4886V47.2623C58.3986 48.5156 58.8349 49.5768 59.7081 50.4499C60.5813 51.3231 61.6296 51.7596 62.8516 51.7596C64.1026 51.7596 65.1653 51.3231 66.0385 50.4499C66.9117 49.5768 67.3481 48.5156 67.3481 47.2623V28.4886C67.3481 27.2384 66.9117 26.1829 66.0385 25.3235C65.1653 24.4657 64.1026 24.0356 62.8516 24.0356Z" fill="#1A3453"/>
</g>
<defs>
<clipPath id="clip0_2_386">
<rect width="72.6503" height="72.6503" fill="white" transform="translate(0.287231 0.50293)"/>
</clipPath>
</defs>
</svg>
