<svg width="73" height="74" viewBox="0 0 73 74" fill="none" xmlns="http://www.w3.org/2000/svg">
<g clip-path="url(#clip0_2_374)">
<path d="M56.2335 41.2256C54.235 31.168 63.7814 25.2693 63.7814 25.2693C63.7814 25.2693 60.062 19.8883 53.8111 18.5039C47.5633 17.1166 44.4363 18.8499 41.3154 20.15C38.1915 21.4532 36.6327 21.4532 36.6327 21.4532C32.1246 21.4532 28.8291 16.6801 20.24 18.8531C14.3227 20.3464 8.09348 27.1773 6.96801 35.3301C5.84253 43.4859 8.27126 53.8927 12.954 61.9582C17.6367 70.0299 22.4068 73.0633 25.7925 73.1506C29.1783 73.2348 32.5579 70.7251 36.6327 70.114C40.7107 69.5091 43.2204 71.5919 47.2203 72.7173C51.2046 73.8398 52.6014 72.7984 57.1906 68.895C61.7922 64.9916 65.9575 53.7962 65.9575 53.7962C65.9575 53.7962 58.2319 51.2894 56.2335 41.2256Z" fill="#1A3453"/>
<path d="M47.3881 11.9973C51.8151 7.4861 50.3156 0.502441 50.3156 0.502441C50.3156 0.502441 44.099 1.59366 39.9337 5.92718C35.7716 10.2639 36.4606 17.1134 36.4606 17.1134C36.4606 17.1134 42.9609 16.5055 47.3881 11.9973Z" fill="#1A3453"/>
</g>
<defs>
<clipPath id="clip0_2_374">
<rect width="72.6503" height="72.6503" fill="white" transform="translate(0 0.50293)"/>
</clipPath>
</defs>
</svg>
