<svg width="649" height="71" viewBox="0 0 649 71" fill="none" xmlns="http://www.w3.org/2000/svg">
<path d="M420.976 55.6333C420.363 55.6597 419.743 55.6778 419.141 55.7173C418.751 55.742 418.584 55.6696 418.323 55.6317C418.236 55.6185 418.143 55.5922 418.063 55.5955C417.455 55.6218 416.848 55.6514 416.24 55.6811C416.054 55.7453 415.937 55.8309 415.652 55.8621C415.373 55.8918 415.044 55.8918 414.734 55.9066C414.325 55.9247 413.916 55.9428 413.507 55.9593C413.302 55.9675 413.135 55.9988 413.067 56.058C413.054 56.0679 413.191 56.0926 413.265 56.1074C413.513 56.1568 413.755 56.2128 414.027 56.2506C414.288 56.2868 414.61 56.2276 414.889 56.2737C415.515 56.3774 415.521 56.3757 415.999 56.356C416.408 56.3379 416.817 56.3181 417.226 56.305C417.307 56.3017 417.4 56.3263 417.486 56.3395C417.747 56.3757 417.914 56.458 418.298 56.4268C418.59 56.4021 418.912 56.3971 419.216 56.384C419.47 56.4317 419.706 56.486 419.978 56.5239C420.232 56.5601 420.307 56.5881 420.171 56.6358C420.047 56.6803 419.873 56.6984 419.644 56.7017C419.439 56.7033 419.234 56.7181 419.03 56.7264C418.924 56.7313 418.825 56.7346 418.726 56.7395C418.336 56.7576 418.336 56.7576 417.623 56.6523C417.344 56.6111 417.028 56.6687 416.761 56.6292C416.581 56.6029 416.426 56.5634 416.253 56.5354C416.178 56.5239 416.061 56.5222 415.968 56.5255C415.658 56.5371 415.348 56.5453 415.05 56.5667C414.84 56.5815 414.716 56.6276 414.74 56.6737C414.747 56.6918 414.895 56.7181 414.982 56.7198C415.18 56.7231 415.391 56.7 415.583 56.7115C415.769 56.7231 415.961 56.756 416.098 56.7922C416.377 56.8679 416.693 56.8004 416.959 56.8202C417.238 56.8416 417.468 56.9074 417.734 56.947C417.802 56.9568 417.933 56.9404 418.038 56.9354C418.342 56.9239 418.646 56.914 418.949 56.9025C419.204 56.9502 419.476 56.993 419.706 57.0474C420.121 57.1461 420.567 57.184 421.107 57.1362C421.41 57.1099 421.708 57.1198 421.949 57.184C422.197 57.2498 422.483 57.2433 422.799 57.2301C423.09 57.2169 423.388 57.1807 423.685 57.2268C424.33 57.3288 424.336 57.3338 425.099 57.2943C425.328 57.2828 425.501 57.2795 425.675 57.3173C425.836 57.3519 426.01 57.3815 426.177 57.4144C426.481 57.4029 426.791 57.3914 427.095 57.3782C427.485 57.3601 427.702 57.3832 427.795 57.4754C427.851 57.5313 427.876 57.5824 428.012 57.6202C428.173 57.6663 428.347 57.6646 428.582 57.6515C428.805 57.64 428.967 57.6219 429.06 57.5626C429.097 57.5379 429.171 57.5149 429.239 57.4951C429.295 57.4803 429.382 57.4573 429.432 57.4605C429.525 57.4671 429.648 57.4852 429.679 57.5066C429.983 57.7058 429.983 57.7075 430.293 57.7651C430.634 57.8293 430.987 57.8869 431.297 57.9593C431.576 58.0235 431.855 57.9955 432.159 57.9955C432.388 57.9955 432.537 58.0383 432.519 58.0811C432.506 58.1058 432.419 58.142 432.345 58.1453C431.737 58.1782 431.124 58.2062 430.51 58.2293C430.436 58.2326 430.343 58.2029 430.256 58.1881C430.082 58.1585 429.927 58.1124 429.741 58.1025C429.556 58.0926 429.339 58.1173 429.134 58.1256C428.929 58.1338 428.713 58.1552 428.527 58.142C428.341 58.1289 428.192 58.0811 428.018 58.0499C427.938 58.035 427.826 58.0136 427.758 58.0186C427.305 58.0581 426.971 58.0038 426.648 57.9313C426.58 57.9165 426.462 57.9066 426.376 57.9099C425.656 57.9379 424.944 57.9708 424.225 58.0021C423.933 58.0153 423.698 57.9577 423.636 57.8605C423.605 57.8062 423.543 57.7519 423.543 57.6976C423.543 57.5988 423.202 57.5445 422.954 57.556C422.545 57.5725 422.129 57.5856 421.726 57.6103C421.398 57.6301 421.119 57.6103 420.896 57.5511C420.635 57.4836 420.338 57.4968 420.04 57.5149C419.817 57.528 419.755 57.5823 419.767 57.719C419.78 57.8293 419.674 57.8638 419.272 57.8819C418.763 57.905 418.249 57.928 417.734 57.9461C417.654 57.9494 417.561 57.9215 417.48 57.9066C417.307 57.877 417.152 57.8293 416.966 57.8194C416.78 57.8079 416.563 57.8326 416.358 57.8424C416.154 57.8507 415.937 57.8737 415.751 57.8622C415.565 57.8507 415.41 57.8013 415.242 57.77C415.162 57.7552 415.063 57.7338 414.982 57.7371C414.573 57.7503 414.164 57.77 413.755 57.7881C413.296 57.8079 413.296 57.8079 412.645 57.7058C412.347 57.6597 412.05 57.6959 411.759 57.7091C411.449 57.7223 411.157 57.7289 410.916 57.663C410.754 57.6202 410.575 57.5939 410.383 57.6021C409.868 57.6219 409.36 57.6466 408.845 57.6663C408.758 57.6696 408.641 57.6614 408.572 57.6466C408.244 57.5774 407.922 57.5231 407.463 57.5577C407.066 57.5873 406.638 57.5889 406.242 57.6169C406.025 57.6317 405.925 57.6844 405.969 57.7256C405.994 57.747 406.124 57.7717 406.211 57.7717C406.409 57.7733 406.626 57.7486 406.812 57.7585C407.196 57.7782 407.388 57.9165 407.891 57.8786C408.188 57.8556 408.498 57.8474 408.808 57.8408C408.889 57.8391 408.975 57.8704 409.062 57.8869C409.31 57.9313 409.527 57.9889 409.887 57.9593C410.184 57.9363 410.5 57.9297 410.804 57.9165C411.288 57.8951 411.288 57.8968 411.914 57.9972C412.211 58.0449 412.509 58.0071 412.8 57.9955C413.017 57.9873 413.221 57.9708 413.395 57.9939C413.662 58.0285 413.854 58.1075 414.182 58.1025C414.492 58.0976 414.796 58.0745 415.106 58.0663C415.298 58.0614 415.478 58.0877 415.633 58.1322C415.794 58.1766 415.968 58.1964 416.178 58.1865C416.482 58.1733 416.792 58.1568 417.102 58.1486C417.189 58.147 417.288 58.1618 417.369 58.175C417.542 58.2046 417.709 58.2392 417.877 58.2704C418.181 58.2606 418.491 58.2573 418.788 58.2375C419.018 58.2227 419.179 58.2293 419.365 58.2622C419.6 58.3067 419.792 58.3857 420.177 58.3478C420.369 58.3297 420.592 58.3346 420.784 58.3182C421.02 58.2968 421.181 58.305 421.348 58.3544C421.664 58.4482 422.061 58.4499 422.47 58.4136C422.917 58.3741 423.251 58.4202 423.586 58.4927C423.939 58.5684 423.939 58.5667 424.212 58.7495C424.293 58.8021 424.522 58.8268 424.714 58.817C425.036 58.8005 425.316 58.8087 425.551 58.8713C425.799 58.9388 426.096 58.9305 426.4 58.9124C426.803 58.8877 427.206 58.8663 427.535 58.9618C427.696 59.0079 427.87 59.0194 428.086 59.0079C428.7 58.9783 429.32 58.9602 429.921 58.924C430.287 58.9009 430.498 58.9536 430.746 58.998C431.08 59.0589 431.446 59.1133 431.446 59.2433C431.446 59.2647 431.533 59.2894 431.607 59.3059C431.769 59.3404 431.942 59.37 432.109 59.403C432.357 59.4524 432.599 59.4935 432.94 59.4672C433.238 59.4458 433.554 59.4392 433.857 59.4244C434.161 59.4096 434.44 59.4013 434.713 59.4639C435.029 59.5347 435.364 59.6022 435.723 59.6548C435.977 59.6927 436.312 59.6285 436.585 59.6795C436.752 59.7108 436.913 59.747 437.093 59.7733C437.168 59.7849 437.286 59.7766 437.385 59.7733C437.589 59.7668 437.8 59.7618 437.998 59.7454C438.228 59.7273 438.401 59.7306 438.575 59.7684C438.736 59.803 438.897 59.8507 439.083 59.8606C439.362 59.8754 439.672 59.8096 439.951 59.8853C440.094 59.9232 440.273 59.9594 440.459 59.9709C440.645 59.9824 440.862 59.9577 441.061 59.9594C441.147 59.9594 441.253 59.9857 441.302 60.0071C441.333 60.0186 441.29 60.0499 441.247 60.0664C441.191 60.0861 441.11 60.1125 441.03 60.1158C440.416 60.1454 439.802 60.1701 439.189 60.1981C438.823 60.2145 438.823 60.2145 438.085 60.1108C437.912 60.0861 437.719 60.0911 437.502 60.1026C437.211 60.1174 436.914 60.1454 436.61 60.1158C436.213 60.0038 435.723 59.9939 435.203 60.0367C434.986 60.0548 434.787 60.0548 434.626 60.0236C434.285 59.961 433.926 59.9034 433.622 59.8293C433.386 59.7717 433.275 59.7668 433.176 59.8458C433.145 59.8705 433.114 59.8968 433.12 59.9199C433.157 60.0022 433.225 60.0828 433.262 60.1651C433.275 60.1882 433.225 60.2145 433.194 60.2392C433.095 60.3084 432.965 60.3034 432.748 60.2458C432.531 60.1882 432.271 60.1503 431.923 60.1767C431.626 60.1997 431.304 60.1964 431.006 60.2211C430.547 60.2573 430.225 60.2046 429.896 60.1339C429.828 60.119 429.711 60.1108 429.624 60.1141C428.7 60.152 427.783 60.1948 426.859 60.2326C426.661 60.2409 426.481 60.2162 426.326 60.1717C426.165 60.1273 425.985 60.1042 425.787 60.1125C424.968 60.147 424.15 60.1783 423.332 60.2211C422.997 60.2392 422.731 60.2178 422.501 60.1602C422.328 60.1174 422.166 60.1042 421.949 60.1092C421.714 60.1141 421.547 60.1306 421.429 60.1783C421.317 60.2244 421.398 60.2524 421.646 60.2886C421.912 60.3281 422.16 60.3791 422.414 60.4252C422.619 60.4186 422.824 60.4055 423.022 60.4071C423.109 60.4071 423.189 60.4367 423.276 60.4532C423.524 60.5009 423.753 60.5487 424.107 60.5223C424.404 60.4993 424.72 60.4944 425.024 60.4795C425.446 60.4614 425.446 60.4614 426.128 60.5651C426.301 60.5915 426.487 60.5898 426.71 60.575C426.902 60.5635 427.101 60.5865 427.237 60.6359C427.293 60.6557 427.274 60.6886 427.157 60.7973C427.157 60.8779 427.287 60.8417 427.33 60.789C427.398 60.7133 427.268 60.6886 427.02 60.7298C426.847 60.7594 426.76 60.8022 426.803 60.8368C426.828 60.8549 426.946 60.8779 427.157 60.7973C427.702 60.6985 428.117 60.687 428.514 60.6606C428.75 60.6458 428.898 60.6524 429.084 60.6952C429.308 60.7462 429.531 60.8005 429.896 60.7742C430.293 60.7446 430.715 60.7413 431.118 60.7166C431.49 60.6935 431.682 60.766 431.917 60.8088C432.202 60.8598 432.519 60.8022 432.779 60.8318C433.052 60.8615 433.244 60.9339 433.56 60.947C434.019 60.9026 434.31 60.9849 434.657 61.0392C434.93 61.0804 435.252 61.0442 435.544 61.0261C435.872 61.0063 436.145 61.0244 436.374 61.0837C436.635 61.1512 436.926 61.1364 437.224 61.1215C437.918 61.0886 437.943 61.0837 438.345 61.1742C438.637 61.2401 438.916 61.2104 439.207 61.2022C439.461 61.2466 439.709 61.2944 439.976 61.3339C440.044 61.3438 440.174 61.3273 440.28 61.3224C440.583 61.3092 440.893 61.296 441.197 61.2829C441.402 61.2746 441.618 61.2499 441.804 61.2598C441.99 61.2713 442.145 61.3191 442.313 61.3504C442.48 61.3816 442.654 61.4129 442.815 61.4458C443.063 61.4952 443.298 61.5364 443.645 61.5117C443.943 61.4903 444.253 61.4837 444.563 61.4689C444.953 61.4508 444.941 61.4557 445.666 61.5545C446.057 61.6088 446.46 61.543 446.856 61.5364C447.055 61.5331 447.247 61.5512 447.383 61.5989C447.439 61.6187 447.421 61.6516 447.439 61.6796C446.416 61.724 445.387 61.7619 444.377 61.8162C443.986 61.8376 443.782 61.7783 443.571 61.729C443.224 61.6499 442.765 61.7652 442.437 61.6631C442.238 61.6022 441.953 61.5676 441.612 61.5973C441.414 61.6137 441.203 61.6121 440.999 61.6269C440.478 61.6631 440.001 61.6648 439.585 61.5512C439.443 61.5117 439.238 61.4903 439.089 61.4524C438.916 61.4113 438.748 61.3882 438.544 61.3964C437.62 61.4359 436.703 61.4754 435.785 61.5182C435.705 61.5215 435.624 61.5462 435.556 61.5643C435.382 61.6104 435.438 61.6467 435.717 61.6763C435.81 61.6862 435.885 61.7076 435.971 61.724C436.139 61.7553 436.294 61.8047 436.48 61.8162C436.666 61.8277 436.883 61.8047 437.087 61.7965C437.292 61.7882 437.509 61.7635 437.695 61.7734C437.881 61.7849 438.036 61.8327 438.209 61.8623C438.29 61.8771 438.389 61.9018 438.47 61.9002C438.879 61.8903 439.282 61.8722 439.691 61.8574C439.945 61.9018 440.162 61.966 440.466 61.9808C440.658 61.9907 440.862 61.9726 441.061 61.9759C441.147 61.9775 441.259 62.0022 441.302 62.0236C441.327 62.0368 441.247 62.0697 441.185 62.0862C440.949 62.1487 440.627 62.1372 440.335 62.1569C440.019 62.1783 439.734 62.1718 439.492 62.1076C439.331 62.0648 439.151 62.0417 438.953 62.05C438.438 62.0714 437.93 62.0961 437.416 62.1142C437.329 62.1175 437.223 62.1026 437.143 62.0911C436.492 61.9907 436.492 61.9874 436.033 62.0088C435.358 62.0401 435.358 62.0401 434.905 61.9528C434.818 61.9364 434.725 61.9051 434.651 61.9068C433.932 61.9331 433.219 61.9594 432.506 61.9973C432.271 62.0088 432.109 62.0088 431.936 61.966C431.787 61.9298 431.614 61.8886 431.428 61.8788C431.235 61.8689 431.025 61.8936 430.82 61.9018C430.616 61.91 430.399 61.9314 430.219 61.9183C430.033 61.9051 429.872 61.859 429.71 61.8261C429.543 61.7915 429.363 61.7931 429.134 61.8063C428.427 61.8442 428.421 61.8393 427.721 61.7372C427.64 61.7257 427.535 61.7125 427.448 61.7158C426.933 61.7355 426.425 61.7602 425.911 61.78C425.712 61.7882 425.52 61.7668 425.384 61.7191C425.328 61.6993 425.347 61.6664 425.309 61.6022C425.266 61.5874 425.315 61.6137 425.328 61.6384C425.421 61.6351 425.533 61.6384 425.601 61.6252C425.774 61.594 425.861 61.5528 425.818 61.5182C425.793 61.5001 425.675 61.4771 425.601 61.4771C425.464 61.4771 425.347 61.5133 425.309 61.6022C424.919 61.6565 424.503 61.6681 424.1 61.6944C423.865 61.7109 423.716 61.7026 423.53 61.6598C423.307 61.6072 423.078 61.5561 422.712 61.5824C422.315 61.6121 421.894 61.617 421.485 61.6401C421.013 61.6664 420.809 61.5182 420.412 61.5215C420.003 61.5248 419.594 61.5528 419.185 61.5726C418.825 61.589 418.825 61.589 418.081 61.482C417.809 61.4425 417.486 61.5001 417.22 61.459C417.04 61.4326 416.885 61.3932 416.712 61.3652C416.637 61.3536 416.519 61.3536 416.426 61.3569C415.912 61.3767 415.391 61.3899 414.895 61.4261C414.331 61.4689 413.903 61.4228 413.501 61.3257C412.992 61.3438 412.478 61.3536 411.976 61.3849C411.61 61.408 411.399 61.3536 411.151 61.3092C411.064 61.2944 410.99 61.2697 410.897 61.2631C410.804 61.2565 410.692 61.2697 410.593 61.2746C410.184 61.2927 409.763 61.301 409.366 61.3306C408.876 61.3685 408.69 61.2335 408.312 61.217C408.058 61.2977 407.922 61.408 407.419 61.4162C407.01 61.4228 406.601 61.4491 406.192 61.4672C405.988 61.4755 405.783 61.4853 405.578 61.4936C405.25 61.5084 405.095 61.5726 405.163 61.6713C405.2 61.7257 405.231 61.78 405.262 61.8343C405.324 61.9314 405.169 62.0137 404.909 62.0253C404.19 62.0565 403.477 62.0895 402.758 62.1174C402.566 62.1257 402.38 62.0977 402.225 62.0532C402.064 62.0088 401.884 61.989 401.685 61.9973C400.966 62.0286 400.254 62.0615 399.535 62.0895C399.454 62.0928 399.349 62.0763 399.268 62.0631C399.094 62.0335 398.927 61.9989 398.76 61.9677C398.351 61.9825 397.948 61.9923 397.545 62.0121C396.894 62.0417 396.894 62.0434 396.416 61.9528C396.33 61.9364 396.243 61.9051 396.162 61.9068C395.852 61.9133 395.549 61.9298 395.239 61.9446C394.328 61.9874 394.327 61.9874 394.061 61.938C393.819 61.8919 393.602 61.836 393.236 61.8623C392.84 61.8919 392.418 61.9018 392.009 61.9183C391.705 61.9298 391.402 61.943 391.098 61.9463C391.017 61.9479 390.931 61.9166 390.844 61.9002C390.596 61.8491 390.354 61.808 390.013 61.836C389.815 61.8524 389.604 61.8557 389.399 61.864C388.866 61.887 388.866 61.887 387.992 61.7882C387.905 61.7783 387.8 61.7668 387.713 61.7718C386.994 61.8014 386.281 61.8343 385.562 61.8623C385.475 61.8656 385.37 61.8557 385.283 61.8475C384.304 61.752 384.304 61.752 383.263 61.7981C382.866 61.8146 382.853 61.8211 382.438 61.7339C382.252 61.696 382.097 61.6779 381.88 61.6895C381.062 61.729 380.238 61.7553 379.425 61.8014C379.06 61.8211 378.849 61.7718 378.601 61.7273C378.514 61.7125 378.421 61.6796 378.347 61.6812C377.529 61.7125 376.71 61.7504 375.892 61.7816C375.818 61.7849 375.725 61.752 375.638 61.7372C375.471 61.7076 375.309 61.6631 375.123 61.6532C374.931 61.6434 374.72 61.6681 374.51 61.6763C373.995 61.6977 373.995 61.696 373.4 61.5989C373.319 61.5858 373.214 61.5676 373.134 61.5709C372.315 61.6039 371.491 61.6318 370.679 61.6796C370.214 61.7059 369.898 61.6582 369.569 61.589C369.501 61.5742 369.383 61.5676 369.297 61.5709C368.373 61.6088 367.455 61.6516 366.532 61.6895C366.34 61.6977 366.154 61.6697 365.999 61.6269C365.751 61.5594 365.459 61.5676 365.15 61.5824C364.437 61.617 364.43 61.6154 364.009 61.5364C363.922 61.5199 363.848 61.4985 363.755 61.4903C363.668 61.482 363.556 61.487 363.463 61.4903C363.054 61.5067 362.645 61.5248 362.236 61.5429C361.827 61.5611 361.411 61.5709 361.009 61.5989C360.513 61.6335 360.277 61.5265 359.93 61.4771C359.422 61.4985 358.901 61.5117 358.399 61.5462C358.015 61.5726 357.835 61.5001 357.581 61.4623C357.494 61.4491 357.401 61.4211 357.32 61.4244C356.397 61.4606 355.473 61.5001 354.556 61.5446C354.332 61.5545 354.184 61.5413 353.998 61.5018C353.582 61.4129 353.564 61.4162 352.87 61.4491C352.566 61.4639 352.274 61.4771 352.014 61.4096C351.785 61.3487 351.506 61.3339 351.177 61.3536C350.774 61.3783 350.359 61.3915 349.95 61.408C349.541 61.4261 349.132 61.4508 348.723 61.459C348.394 61.4672 348.196 61.3899 347.935 61.3504C347.855 61.3388 347.743 61.3372 347.65 61.3405C347.241 61.3553 346.82 61.3668 346.423 61.3948C345.939 61.4294 345.673 61.3388 345.332 61.2862C345.257 61.2746 345.133 61.2812 345.04 61.2862C344.321 61.3158 343.608 61.3487 342.889 61.38C342.635 61.3355 342.375 61.2927 342.121 61.2483C341.712 61.2648 341.302 61.2829 340.893 61.2993C340.583 61.3125 340.267 61.3174 339.976 61.3421C339.598 61.375 339.412 61.2977 339.158 61.2598C339.071 61.2466 338.978 61.2187 338.897 61.222C338.383 61.2401 337.868 61.2598 337.36 61.2878C336.876 61.3158 336.684 61.1676 336.288 61.1693C335.879 61.1709 335.457 61.1923 335.06 61.222C334.602 61.2565 334.279 61.2038 333.951 61.1331C333.882 61.1182 333.765 61.11 333.678 61.1133C333.163 61.1331 332.655 61.1578 332.141 61.1775C332.054 61.1808 331.948 61.1726 331.862 61.1627C330.882 61.0656 330.882 61.0639 330.455 61.0837C330.151 61.0969 329.841 61.1133 329.531 61.1215C329.444 61.1248 329.339 61.11 329.258 61.0968C328.613 60.9964 328.613 60.9948 328.148 61.0145C327.739 61.0326 327.33 61.0507 326.921 61.0689C326.667 61.0244 326.407 60.9816 326.152 60.9372C325.644 60.9586 325.123 60.975 324.621 61.0047C324.386 61.0178 324.231 61.0129 324.051 60.9717C323.828 60.9224 323.605 60.8647 323.233 60.8927C322.836 60.9224 322.415 60.9256 322.012 60.9503C321.528 60.98 321.33 60.8302 320.939 60.8318C320.53 60.8335 320.109 60.8549 319.712 60.8845C319.253 60.9191 318.931 60.8664 318.602 60.7956C318.534 60.7808 318.416 60.7726 318.33 60.7759C317.201 60.8236 316.079 60.8713 314.951 60.9223C314.257 60.9536 314.257 60.9553 312.937 60.8647C312.844 60.8582 312.744 60.8516 312.651 60.8549C312.242 60.8697 311.821 60.8812 311.424 60.9092C310.94 60.9438 310.674 60.8549 310.333 60.8005C310.259 60.789 310.141 60.7956 310.042 60.7989C309.732 60.8104 309.428 60.8252 309.118 60.8384C308.709 60.8565 308.3 60.8746 307.891 60.8927C307.637 60.8499 307.376 60.8055 307.122 60.7627C306.614 60.7841 306.093 60.7956 305.591 60.8302C305.207 60.8565 305.027 60.7874 304.773 60.7479C304.686 60.7347 304.593 60.7067 304.512 60.7084C303.589 60.7446 302.665 60.7824 301.748 60.8285C301.37 60.8483 301.196 60.7742 300.942 60.7363C300.855 60.7248 300.756 60.7034 300.675 60.7067C300.062 60.7298 299.448 60.7577 298.834 60.7857C298.487 60.8022 298.487 60.8022 297.731 60.7001C297.644 60.6886 297.545 60.6771 297.458 60.6804C295.512 60.7627 293.571 60.8499 291.625 60.9322C291.427 60.9405 291.247 60.9158 291.092 60.8713C290.931 60.8269 290.751 60.8038 290.552 60.8121C289.734 60.8466 288.91 60.8779 288.098 60.9207C287.763 60.9388 287.496 60.9174 287.267 60.8598C287.094 60.817 286.932 60.8005 286.715 60.8104C286.306 60.8302 285.897 60.8466 285.488 60.8647C285.079 60.8828 284.67 60.901 284.261 60.9191C283.852 60.9372 283.436 60.9471 283.033 60.975C282.537 61.0096 282.296 60.9075 281.955 60.8565C281.341 60.8812 280.727 60.9059 280.12 60.9322C279.302 60.9668 278.483 61.0047 277.665 61.0376C277.591 61.0409 277.498 61.0112 277.411 60.9964C277.157 60.9553 276.971 60.8977 276.593 60.9158C274.758 61.003 272.911 61.0771 271.07 61.1627C270.685 61.1808 270.518 61.11 270.257 61.0722C270.171 61.0606 270.072 61.0376 269.991 61.0409C268.968 61.082 267.945 61.1281 266.923 61.1726C266.507 61.1907 266.507 61.1907 265.813 61.0886C265.732 61.0771 265.627 61.0623 265.54 61.0656C264.207 61.1215 262.881 61.1808 261.548 61.2384C261.35 61.2466 261.17 61.2236 261.009 61.1792C260.854 61.1347 260.668 61.11 260.476 61.1182C259.248 61.1709 258.015 61.222 256.794 61.2796C256.465 61.296 256.192 61.2812 255.957 61.222C255.789 61.1792 255.622 61.161 255.411 61.1709C253.57 61.2516 251.729 61.329 249.888 61.4146C249.535 61.431 249.287 61.3997 249.064 61.3454C248.884 61.3026 248.729 61.2944 248.506 61.301C248.27 61.3092 248.128 61.3273 247.997 61.3767C247.83 61.4409 247.725 61.5215 247.328 61.5265C246.919 61.5314 246.503 61.5512 246.101 61.5792C245.716 61.6072 245.536 61.5331 245.295 61.4886C245.115 61.4573 244.948 61.4524 244.718 61.4672C244.507 61.4804 244.377 61.5084 244.253 61.561C243.981 61.673 243.956 61.673 243.621 61.6022C243.441 61.5643 243.28 61.5347 243.082 61.5413C242.263 61.5742 241.445 61.6104 240.627 61.6483C240.156 61.6697 240.15 61.673 239.796 61.5907C239.623 61.5495 239.455 61.5298 239.251 61.5396C237.001 61.6384 234.751 61.7339 232.5 61.8376C232.153 61.8541 231.918 61.8195 231.67 61.7701C231.589 61.7536 231.508 61.7306 231.416 61.724C231.323 61.7174 231.217 61.724 231.118 61.7273C229.481 61.7981 227.839 61.8656 226.208 61.9446C225.836 61.9627 225.638 61.91 225.384 61.8672C225.297 61.8524 225.223 61.8294 225.13 61.8228C225.037 61.8179 224.925 61.8294 224.826 61.8343C223.19 61.9051 221.547 61.9726 219.917 62.0516C219.526 62.0697 219.359 62.0006 219.105 61.9644C219.018 61.9512 218.925 61.9265 218.844 61.9298C218.33 61.9479 217.821 61.9726 217.307 61.994C216.08 62.0483 214.852 62.0993 213.625 62.1553C213.154 62.1767 212.949 62.0302 212.552 62.0368C212.038 62.045 211.53 62.0779 211.015 62.101C210.606 62.1191 210.197 62.1356 209.788 62.1553C209.385 62.1734 209.385 62.1734 208.38 62.0779C208.294 62.0697 208.188 62.0582 208.102 62.0615C206.67 62.1224 205.232 62.1833 203.806 62.2491C203.477 62.264 203.204 62.2557 202.969 62.1948C202.802 62.152 202.628 62.1306 202.423 62.1405C200.272 62.2343 198.128 62.3282 195.977 62.4203C195.896 62.4236 195.791 62.4072 195.71 62.394C195.537 62.3644 195.369 62.3298 195.202 62.2985C195.078 62.3364 194.917 62.371 194.836 62.4138C194.725 62.4714 194.576 62.4878 194.34 62.4977C194.105 62.5076 193.956 62.5043 193.77 62.4615C193.547 62.4088 193.317 62.3677 192.952 62.3841C190.701 62.4878 188.451 62.5817 186.201 62.6837C185.829 62.7002 185.656 62.6277 185.395 62.5899C185.308 62.5784 185.209 62.5603 185.129 62.5636C184.205 62.6014 183.288 62.6426 182.364 62.6821C179.804 62.794 177.244 62.901 174.69 63.0195C174.225 63.0409 173.909 62.9998 173.58 62.929C173.512 62.9142 173.394 62.9059 173.308 62.9092C169.725 63.064 166.142 63.2204 162.565 63.3767C162.373 63.385 162.187 63.3586 162.032 63.3158C161.871 63.2714 161.691 63.25 161.492 63.2582C159.856 63.329 158.22 63.3998 156.583 63.4722C156.174 63.4903 156.168 63.492 155.746 63.4129C155.659 63.3965 155.566 63.3652 155.498 63.3685C155.356 63.3767 155.219 63.4179 155.12 63.4739C155.021 63.5331 154.866 63.5496 154.636 63.5611C154.401 63.5726 154.246 63.5677 154.066 63.5282C153.837 63.4788 153.626 63.4311 153.254 63.4475C148.549 63.6582 143.844 63.8607 139.139 64.0698C138.761 64.0862 138.588 64.0171 138.327 63.9792C138.24 63.9677 138.154 63.9512 138.061 63.9479C137.962 63.9446 137.856 63.9545 137.757 63.9595C130.083 64.2936 122.409 64.6294 114.735 64.9636C114.276 64.9834 114.282 64.9834 113.78 65.1348C113.718 65.1529 113.637 65.1776 113.55 65.1809C111.201 65.2862 108.846 65.3883 106.49 65.4904C105.467 65.5348 104.444 65.5809 103.422 65.6237C103.056 65.6385 103.056 65.6385 102.182 65.8163C102.108 65.8311 102.021 65.8509 101.934 65.8542C97.8426 66.0336 93.7513 66.213 89.6539 66.3892C89.3316 66.4023 89.0713 66.432 88.9225 66.511C88.8171 66.5669 88.6807 66.5999 88.4762 66.6097C85.6123 66.7348 82.7485 66.8616 79.8784 66.9834C79.5375 66.9982 79.3329 67.0443 79.1655 67.1135C79.1097 67.1365 79.0601 67.1628 78.9795 67.1793C78.9051 67.1941 78.7936 67.1991 78.7006 67.204C76.2458 67.311 73.7912 67.4213 71.3302 67.5234C70.9645 67.5382 70.8156 67.5991 70.6359 67.6633C70.5739 67.6847 70.5305 67.7143 70.4499 67.7291C70.3693 67.7423 70.2515 67.7423 70.1523 67.7456C68.1067 67.8345 66.0612 67.925 64.0155 68.0139C63.6188 68.0057 63.532 68.1011 63.3398 68.1588C63.2716 68.1785 63.2221 68.2049 63.1416 68.218C63.0548 68.2312 62.943 68.2295 62.8377 68.2328C61.2012 68.3036 59.5647 68.3793 57.922 68.4452C57.5439 68.46 57.4695 68.5439 57.2649 68.6016C57.1967 68.6197 57.1286 68.6477 57.048 68.6526C56.0252 68.7003 55.0024 68.7448 53.9796 68.7876C53.6387 68.8024 53.6387 68.8008 53.0374 68.9637C52.9692 68.9818 52.8885 69.0016 52.8018 69.0065C51.2706 69.0757 49.7334 69.1415 48.1961 69.209C47.9977 69.2172 47.8614 69.2567 47.7622 69.3127C47.663 69.3687 47.5204 69.4049 47.3221 69.4131C46.0947 69.4674 44.8672 69.5234 43.6398 69.5728C43.2989 69.586 43.0758 69.6271 42.927 69.7012C42.8155 69.7572 42.6791 69.7851 42.4621 69.795C41.2348 69.8477 40.0074 69.9053 38.7738 69.9514C38.4143 69.9646 38.2283 70.0205 38.0795 70.0897C37.9617 70.1456 37.8253 70.1654 37.596 70.1753C35.3458 70.2708 33.0895 70.3662 30.8455 70.4716C30.4674 70.4897 30.2751 70.4321 30.0272 70.3909C29.6739 70.3333 29.3454 70.2707 29.3454 70.1423C29.3454 70.1226 29.24 70.0995 29.1656 70.0831C28.6139 69.9596 28.6139 69.9596 28.5271 69.8279C28.4775 69.7473 28.4217 69.665 28.3784 69.5827C28.2978 69.4477 28.0993 69.4131 27.529 69.4378C27.3245 69.446 27.1199 69.4575 26.9154 69.4641C26.6116 69.4757 26.3823 69.4213 26.3265 69.3226C26.2955 69.2682 26.2584 69.2139 26.2274 69.1596C26.5373 69.1464 26.531 69.1448 27.0765 68.9456C27.3059 68.8617 27.306 68.8617 26.8659 68.7777C26.6985 68.7464 26.5373 68.7119 26.3575 68.6822C26.2769 68.6691 26.1716 68.6608 26.0848 68.6641C25.5703 68.6839 25.062 68.7069 24.5537 68.73C23.7355 68.7662 23.7354 68.7662 22.9047 68.5983C22.8365 68.5851 22.7311 68.5604 22.7435 68.5472C22.8117 68.4863 22.9791 68.46 23.1898 68.4534C23.4998 68.4435 23.8035 68.4271 24.1073 68.4139C24.3118 68.4057 24.5164 68.3958 24.7209 68.3876C24.9131 68.325 25.1116 68.2641 25.2913 68.1999C25.5765 68.1011 25.5764 68.0978 25.1859 68.0287C24.9379 67.9826 24.6714 67.9415 24.4172 67.8987C24.1135 67.9118 23.8035 67.9266 23.4998 67.9382C23.1155 67.953 22.9605 67.9217 22.8613 67.8147C22.7745 67.7209 22.8799 67.6402 23.1774 67.6205C23.4812 67.6007 23.7664 67.5876 23.9214 67.5036C24.0702 67.4229 24.3305 67.3917 24.6528 67.3851C24.8574 67.3801 25.062 67.3686 25.2665 67.3587C25.5331 67.3456 25.6757 67.2616 25.6199 67.1678C25.5889 67.1069 25.5269 67.0558 25.2851 67.0427C24.2127 66.9851 24.2003 66.9867 23.6672 66.8748C23.6176 66.8649 23.5805 66.8353 23.5991 66.8205C23.6301 66.7958 23.6983 66.7595 23.7727 66.7546C24.4855 66.7184 25.1984 66.6855 25.9112 66.6608C26.1468 66.6526 26.3204 66.641 26.401 66.5801C26.5125 66.4962 26.4629 66.4188 26.246 66.3612C26.1778 66.3431 26.0661 66.32 25.9917 66.3217C25.1735 66.3513 24.3615 66.3892 23.5432 66.4188C23.4688 66.4221 23.3325 66.3941 23.3015 66.3727C23.2395 66.3332 23.3325 66.2805 23.5494 66.2624C23.8346 66.2377 24.1259 66.2361 24.3181 66.1538C24.5846 66.0369 24.9131 65.9299 25.2107 65.818C25.2603 65.7982 25.341 65.7603 25.3224 65.757C25.1674 65.7208 24.9876 65.6928 24.8264 65.6583C24.5537 65.6007 24.5536 65.52 24.6156 65.4426C24.6652 65.3801 24.8512 65.3554 25.0805 65.3554C25.1797 65.3554 25.3037 65.3554 25.3843 65.3406C25.595 65.3044 25.6632 65.2583 25.5578 65.2237C25.4959 65.2039 25.3843 65.176 25.31 65.1793C23.9834 65.2336 22.6505 65.2863 21.3302 65.3537C20.9397 65.3735 20.76 65.3109 20.5245 65.2665C20.3447 65.2319 20.1772 65.2188 19.9541 65.2434C19.7433 65.2665 19.5388 65.2533 19.4086 65.199C19.3033 65.1546 19.4892 65.1167 19.9913 65.0739C20.0843 65.0657 20.1896 65.0607 20.2578 65.0443C20.9769 64.8665 20.9768 64.8648 21.4728 64.8418C21.9563 64.8204 21.9564 64.8188 22.2105 64.7233C22.3283 64.6788 22.4584 64.6344 22.57 64.5883C22.6134 64.5702 22.6878 64.5373 22.663 64.5274C22.5267 64.4764 22.3406 64.4648 22.1237 64.4764C21.6402 64.5043 21.0699 64.4813 20.8158 64.6377C20.7166 64.6969 20.5616 64.7134 20.3385 64.7233C18.0945 64.8188 15.8504 64.9208 13.6002 65.013C13.2345 65.0278 13.0672 65.0887 12.9247 65.1562C12.8007 65.2122 12.6643 65.2286 12.4287 65.2385C12.1932 65.2484 12.0071 65.2533 11.8707 65.199C11.7902 65.1661 11.8584 65.12 12.0443 65.0739C12.3109 65.0081 12.2613 64.9258 12.1745 64.8484C12.1125 64.7974 11.9203 64.7611 11.7158 64.7644C11.412 64.771 11.1208 64.7891 10.8666 64.7233C10.7178 64.6854 10.5318 64.6591 10.3645 64.6261C10.0421 64.5587 9.71977 64.4895 9.26725 64.534C8.95731 64.5175 8.74035 64.4583 8.49239 64.4122C8.07707 64.3364 8.03988 64.3249 8.33742 64.2443C8.67216 64.1537 8.41176 64.0352 8.59773 63.9463C8.79609 63.8508 9.06893 63.7669 9.31069 63.678C9.37267 63.6549 9.42849 63.6335 9.49048 63.6105C9.3479 63.5776 9.21775 63.5364 9.05038 63.5134C8.83342 63.4837 8.72184 63.4475 8.73423 63.3455C8.69084 63.3307 8.70931 63.3685 8.7589 63.3784C8.81469 63.3883 8.95117 63.38 9.01936 63.3685C9.19293 63.3372 9.27962 63.2961 9.23623 63.2615C9.21143 63.2434 9.09374 63.2204 9.01936 63.2204C8.88298 63.2204 8.76522 63.2566 8.72803 63.3455C8.03376 63.413 7.31458 63.4459 6.59551 63.4722C6.52112 63.4755 6.4282 63.4426 6.34141 63.4261C6.05626 63.3702 6.05623 63.3718 5.21938 63.3553C5.1326 63.3537 5.01488 63.3307 4.97149 63.3076C4.79172 63.2072 4.79797 63.0969 4.71119 62.9899C4.87236 62.9208 5.0334 62.8533 5.20077 62.7858C5.53551 62.6492 5.96952 62.529 6.22987 62.3792C6.17409 62.2985 6.09969 62.2179 6.37244 62.152C7.14729 62.0697 7.14114 62.0697 7.3519 61.9907C7.95319 61.7668 8.54824 61.5413 9.17433 61.3207C9.3417 61.2631 9.34172 61.2318 9.04418 61.2071C8.95119 61.2006 8.85188 61.1989 8.7527 61.2022C8.44276 61.2137 8.13282 61.2433 7.82908 61.2368C7.52533 61.2318 7.30217 61.1594 7.05422 61.115C6.80007 61.0689 6.54593 61.0211 6.29177 60.9734C6.00043 60.9783 5.70914 61.0244 5.41779 60.9503C5.19463 60.8927 4.9157 60.8516 4.66155 60.8038C4.85371 60.6787 5.2133 60.5832 5.49225 60.473C5.7464 60.3725 5.75246 60.3742 6.43433 60.2968C6.75667 60.2606 6.86826 60.0746 6.59551 60.0203C6.26697 59.9544 5.91991 59.8935 5.58517 59.831C5.29382 59.8359 4.99634 59.8804 4.71739 59.8063C4.50043 59.7503 4.25243 59.7124 3.8929 59.7338C3.28541 59.7701 2.66554 59.7882 2.05186 59.8178C1.84109 59.8277 1.61167 59.8211 1.51869 59.7651C1.4567 59.7256 1.63648 59.6713 1.84104 59.6598C2.15098 59.6433 2.4299 59.6236 2.58487 59.5413C2.73364 59.459 3.00636 59.4342 3.3287 59.4227C3.41549 59.4194 3.51474 59.3997 3.55813 59.3799C3.78129 59.2844 4.02926 59.2021 4.50658 59.2054C4.70494 59.1725 4.81025 59.1314 4.74826 59.0918C4.71107 59.0704 4.58096 59.0425 4.50658 59.0458C3.99207 59.0622 3.47759 59.0787 2.97548 59.1083C2.73992 59.1215 2.56006 59.1248 2.41129 59.0754C2.30591 59.0425 2.36169 58.998 2.56005 58.9503C2.73362 58.9091 2.78327 58.8614 2.77087 58.8054C2.73987 58.6754 2.55387 58.6375 1.95878 58.6458C1.53106 58.6523 1.42568 58.6309 1.33269 58.519C1.3079 58.4927 1.24602 58.4564 1.28941 58.4383C1.55596 58.3264 1.72954 58.1881 2.23165 58.1355C2.43001 58.1157 2.64069 58.1157 2.76466 58.0729C2.88864 58.0301 3.00027 57.9807 3.13045 57.9396C3.29162 57.8902 3.40309 57.8441 3.3287 57.8128C3.20473 57.7569 3.00643 57.7519 2.77707 57.7717C2.57871 57.7881 2.36795 57.7898 2.16339 57.7996C1.79766 57.8177 1.50018 57.775 1.45679 57.7025C1.33901 57.5116 1.215 57.3223 1.10962 57.1313C1.09722 57.1083 1.12813 57.0786 1.17772 57.0589C1.35129 56.9897 1.53733 56.9239 1.71709 56.8564C1.92785 56.779 2.26265 56.7939 2.54779 56.779C2.95072 56.7576 2.95058 56.7593 3.48988 56.6012C3.70064 56.5387 4.06639 56.5634 4.28335 56.5074C4.35154 56.4893 4.45692 56.4597 4.43832 56.4432C4.41353 56.4218 4.28962 56.4054 4.19663 56.3955C4.10985 56.3856 4.00449 56.3807 3.91151 56.3856C2.78332 56.4334 1.66136 56.4844 0.533168 56.5305C0.341003 56.5387 0.130236 56.5025 0.062049 56.4515C-0.00613831 56.4037 0.0123977 56.3461 0 56.2918C0.179767 56.2243 0.38425 56.1617 0.539221 56.0893C0.656999 56.0333 0.793398 56.0086 1.02895 56.0053C1.3389 56.0004 1.64267 55.9807 1.98981 55.9658C2.63449 55.7255 3.26673 55.4737 3.961 55.2333C4.23995 55.1362 4.17187 55.0374 4.22766 54.9337C4.28345 54.8382 4.69875 54.8531 4.97769 54.8251C5.20085 54.802 5.27514 54.7494 5.18836 54.7131C5.13877 54.6917 5.02725 54.667 4.94047 54.667C4.7359 54.667 4.53135 54.6819 4.32679 54.6901C4.12222 54.6983 3.88668 54.6934 3.71931 54.7214C3.55814 54.7477 3.4527 54.8037 3.34732 54.8514C3.22954 54.9041 3.07468 54.9222 2.83912 54.9255C2.53538 54.9288 2.23165 54.9436 1.92791 54.9551C1.59317 54.8909 1.24596 54.8284 0.923623 54.7609C0.861634 54.7477 0.84917 54.7099 0.855369 54.6852C0.867766 54.621 0.774808 54.5814 0.570246 54.5502C0.396678 54.5238 0.254092 54.486 0.0929222 54.4531C0.216899 54.4086 0.353322 54.3658 0.452504 54.3181C0.669464 54.2176 0.942243 54.1452 1.41336 54.1485C1.59932 54.0843 1.74805 54.0053 1.98981 53.9609C2.21916 53.9181 2.60971 53.9608 2.78328 53.8637C2.87006 53.816 3.00031 53.7617 3.16768 53.7419C3.43423 53.7106 3.78136 53.7271 3.93633 53.6349C4.02931 53.5823 4.16563 53.5345 4.3454 53.5213C4.54996 53.5065 4.76067 53.5032 4.90944 53.472C4.99003 53.4555 5.07682 53.4292 5.07682 53.4061C5.07682 53.3913 4.95294 53.3683 4.86616 53.3584C4.78557 53.3469 4.68007 53.3386 4.58709 53.3419C4.27715 53.3518 3.97341 53.3699 3.66347 53.3798C3.57668 53.3831 3.47753 53.3715 3.38455 53.3617C3.1118 53.3353 3.13036 53.3024 3.34732 53.2432C3.56428 53.1855 3.71933 53.1114 3.8991 53.044C4.09746 53.0324 4.34538 53.0374 4.48176 53.0061C4.71111 52.9551 4.87224 52.881 5.05821 52.8168C5.26277 52.8069 5.47352 52.8036 5.66568 52.7855C5.74627 52.7789 5.78349 52.7427 5.85168 52.7213C5.97566 52.6802 6.08112 52.6209 6.24849 52.6012C6.52124 52.5715 6.85597 52.583 7.01714 52.4925C7.11012 52.4398 7.25264 52.3839 7.42621 52.3806C7.90972 52.374 8.11429 52.2834 8.36224 52.1978C8.54821 52.1336 8.94495 52.1666 9.14951 52.1024C9.28588 52.0612 9.38513 52.0102 9.5215 51.9707C9.57729 51.9542 9.69503 51.946 9.78801 51.9411C10.2963 51.9164 10.8108 51.8982 11.3191 51.8719C11.3997 51.867 11.4741 51.8423 11.5361 51.8225C11.6663 51.7797 11.7468 51.7205 11.908 51.6925C12.0691 51.6645 12.2985 51.6645 12.4968 51.6563C13.1353 51.6316 13.1849 51.6382 13.4763 51.4982C13.7119 51.3847 14.2884 51.4653 14.4806 51.3402C14.5922 51.2678 14.7966 51.2085 15.1624 51.2003C15.6769 51.1888 16.1852 51.1575 16.6997 51.1361C17.1584 51.1163 17.1522 51.1163 17.6481 50.9632C17.8713 50.8941 18.1999 50.904 18.4912 50.8908C18.8012 50.8777 19.0863 50.8579 19.2351 50.7756C19.3838 50.6949 19.6565 50.6686 19.9727 50.6571C20.264 50.6455 20.5926 50.6538 20.822 50.5879C21.3799 50.4299 21.3737 50.4283 21.7642 50.4118C22.3779 50.3855 22.9916 50.3591 23.6053 50.3311C24.0144 50.313 24.4421 50.3097 24.8264 50.2735C25.1054 50.2472 25.2293 50.155 25.4091 50.0908C25.9174 50.0661 26.4257 50.0414 26.934 50.0184C27.6468 49.9854 28.3659 49.9558 29.085 49.9245C29.3949 49.862 29.4384 49.7237 29.9591 49.7171C30.269 49.7138 30.5728 49.6924 30.8827 49.6793C31.3972 49.6562 31.9055 49.6266 32.42 49.6151C32.8105 49.6068 32.8786 49.5179 33.0832 49.462C33.1514 49.4422 33.2134 49.4142 33.294 49.4093C34.0998 49.3632 34.9304 49.3533 35.7177 49.2858C35.7983 49.2793 35.8727 49.2447 35.8913 49.22C35.9037 49.2068 35.7983 49.1821 35.7301 49.1706C35.6495 49.1575 35.5442 49.1443 35.4574 49.1476C32.8973 49.2579 30.3372 49.3698 27.7771 49.4801C27.4176 49.4966 27.4176 49.4949 26.5435 49.676C26.4691 49.6908 26.3823 49.7072 26.2893 49.7122C25.8801 49.7319 25.4648 49.7435 25.0619 49.7682C24.7334 49.7879 24.4607 49.7682 24.2252 49.7089C24.0578 49.6661 23.8841 49.6529 23.6734 49.6562C23.4378 49.6612 23.2829 49.6793 23.1466 49.7237C22.9668 49.7846 22.8738 49.8636 22.4957 49.8801C20.7538 49.9509 19.0118 50.0299 17.2761 50.1056C17.0344 50.0826 16.9166 50.048 16.9786 50.0069C17.0158 49.9822 17.0902 49.9492 17.1646 49.9459C17.8774 49.9114 18.5965 49.8818 19.3094 49.8488C19.4085 49.8439 19.5449 49.8472 19.6007 49.8307C19.8734 49.7566 19.9727 49.6365 20.4872 49.6282C20.7848 49.6233 21.0885 49.5986 21.3736 49.5756C21.4542 49.569 21.5286 49.5344 21.5472 49.5097C21.5534 49.4965 21.4542 49.4718 21.3798 49.4603C21.1071 49.4126 20.791 49.4702 20.5183 49.4373C20.4253 49.4258 20.295 49.4093 20.2764 49.3896C20.264 49.3714 20.3694 49.3418 20.4438 49.3237C20.512 49.3072 20.6049 49.2924 20.6979 49.2875C21.5161 49.2496 22.3345 49.2101 23.1528 49.1805C23.4875 49.169 23.723 49.1278 23.8718 49.0521C23.9834 48.9961 24.1197 48.9665 24.3305 48.9583C25.7624 48.8974 27.1943 48.8299 28.6325 48.7739C28.992 48.7607 29.178 48.7064 29.3268 48.6356C29.4446 48.5797 29.581 48.5599 29.8103 48.55C31.8621 48.4644 33.9015 48.369 35.9533 48.2866C36.3315 48.2718 36.4431 48.201 36.6353 48.1401C36.7035 48.1187 36.7467 48.0924 36.8335 48.0792C36.9203 48.0661 37.0319 48.0677 37.1373 48.0644C38.7738 47.9936 40.4104 47.9179 42.0531 47.8521C42.4374 47.8373 42.5117 47.7549 42.71 47.6973C42.7782 47.6792 42.8402 47.6496 42.9208 47.6447C44.1482 47.5887 45.3755 47.536 46.6029 47.4817C47.4212 47.4455 48.2394 47.4093 49.0576 47.3747C49.4606 47.3582 49.4606 47.3566 50.0061 47.2002C50.0681 47.1821 50.1549 47.1607 50.2355 47.1557C52.5911 47.0504 54.9404 46.95 57.2959 46.8463C57.4943 46.8381 57.6368 46.8002 57.736 46.7442C57.8352 46.6882 57.9779 46.6504 58.1701 46.6421C60.0111 46.5598 61.8521 46.4792 63.6994 46.4018C64.0341 46.3886 64.2696 46.3491 64.4184 46.2751C64.53 46.2191 64.6664 46.1895 64.8771 46.1812C66.7182 46.1022 68.5593 46.0183 70.4066 45.9425C70.7599 45.9277 70.9334 45.8718 71.107 45.8059C71.169 45.7829 71.2186 45.745 71.293 45.7417C72.2104 45.6956 73.1216 45.6479 74.0452 45.6166C74.4296 45.6034 74.5598 45.5343 74.7148 45.4685C74.8387 45.4158 74.9813 45.3977 75.2169 45.3911C75.7314 45.3763 76.2397 45.3483 76.7418 45.3203C76.8162 45.3154 76.9092 45.2792 76.9154 45.2561C76.9278 45.2133 76.7851 45.1837 76.5496 45.1689C74.0948 45.2759 71.634 45.3829 69.1792 45.4899C68.7763 45.508 68.7763 45.508 68.2308 45.6644C68.1688 45.6825 68.0819 45.7039 67.9952 45.7088C65.6396 45.8125 63.2903 45.9146 60.9347 46.0183C60.7364 46.0265 60.5938 46.0644 60.4946 46.1203C60.3955 46.1763 60.2528 46.2142 60.0606 46.2224C57.8104 46.3212 55.5603 46.4216 53.3039 46.5154C52.9692 46.5286 52.7337 46.5664 52.5849 46.6421C52.4733 46.6981 52.3369 46.7278 52.1262 46.736C49.9752 46.8282 47.8303 46.9253 45.6731 47.0142C45.4561 47.0224 45.2951 46.9747 45.3074 46.9302C45.3136 46.9072 45.4065 46.8693 45.4809 46.866C46.6029 46.8117 47.7188 46.7557 48.847 46.7146C49.2251 46.7014 49.3366 46.629 49.5288 46.5681C49.5907 46.5467 49.6404 46.5187 49.721 46.5072C49.8077 46.494 49.9193 46.4957 50.0247 46.4924C52.684 46.3755 55.3434 46.257 58.0089 46.1467C58.3932 46.1302 58.4675 46.0495 58.6659 45.9919C58.734 45.9722 58.7961 45.9426 58.8767 45.9393C59.6949 45.8998 60.5131 45.8652 61.3314 45.8306C62.7633 45.7681 64.1952 45.7055 65.6334 45.643C66.0487 45.6248 66.0487 45.6248 66.5818 45.4701C66.6438 45.452 66.7306 45.429 66.8112 45.4257C70.5987 45.2594 74.3863 45.0931 78.1738 44.9285C78.3721 44.9203 78.5147 44.8824 78.6139 44.8265C78.713 44.7722 78.8556 44.7326 79.0478 44.7228C84.168 44.4989 89.2821 44.275 94.4023 44.0544C94.7371 44.0396 94.9726 44.005 95.1213 43.9277C95.2267 43.8717 95.3693 43.8421 95.58 43.8322C101.209 43.5869 106.837 43.3417 112.472 43.0947C116.259 42.9301 120.047 42.7622 123.834 42.6009C124.182 42.5861 124.367 42.535 124.541 42.4676C124.597 42.4445 124.653 42.4066 124.727 42.4034C125.539 42.3622 126.351 42.3243 127.163 42.2865C127.417 42.3309 127.671 42.3737 127.926 42.4182C128.118 42.3556 128.304 42.2914 128.496 42.2289C129.723 42.1811 130.932 42.1071 132.172 42.084C132.252 42.0824 132.339 42.1136 132.426 42.1301C133.002 42.2338 133.331 42.2256 133.697 42.0873C133.827 42.0379 133.938 41.9935 134.137 41.9852C134.751 41.9556 135.371 41.9359 135.978 41.9013C136.307 41.8832 136.579 41.8996 136.815 41.9589C136.982 42.0017 137.156 42.0198 137.36 42.0099C138.489 41.9606 139.611 41.9128 140.739 41.8601C140.819 41.8568 140.894 41.8289 140.956 41.8091C141.086 41.7663 141.197 41.7202 141.321 41.6758C141.489 41.7038 141.675 41.7252 141.811 41.7614C141.985 41.8042 142.146 41.8042 142.381 41.7926C146.882 41.5935 151.388 41.3992 155.889 41.1984C156.273 41.1819 156.44 41.2511 156.701 41.2873C156.788 41.3005 156.874 41.3169 156.967 41.3202C157.066 41.3235 157.172 41.3136 157.271 41.3087C160.649 41.1605 164.028 41.014 167.406 40.8659C167.853 40.8461 167.853 40.8461 168.516 40.9482C168.596 40.9613 168.702 40.9762 168.789 40.9712C170.326 40.907 171.863 40.8379 173.394 40.772C173.593 40.7638 173.76 40.7902 173.94 40.828C174.293 40.9021 174.318 40.9021 174.578 40.7934C174.702 40.7424 174.832 40.7111 175.037 40.6963C175.26 40.6799 175.44 40.6848 175.613 40.7144C175.861 40.7556 176.041 40.8247 176.419 40.8066C178.056 40.7292 179.698 40.665 181.329 40.586C181.701 40.5679 181.899 40.6239 182.147 40.665C182.234 40.6799 182.314 40.7029 182.407 40.7078C182.5 40.7128 182.612 40.7013 182.711 40.6963C184.757 40.6074 186.808 40.5202 188.848 40.4247C189.232 40.4066 189.4 40.4774 189.66 40.5136C189.747 40.5268 189.846 40.5498 189.927 40.5465C191.154 40.4955 192.388 40.4412 193.615 40.3868C194.055 40.3671 194.055 40.3687 194.724 40.4691C194.805 40.4823 194.91 40.4955 194.997 40.4922C196.429 40.4313 197.867 40.3687 199.299 40.3062C199.739 40.2864 199.739 40.2864 201.01 40.372C201.103 40.3786 201.202 40.3885 201.295 40.3852C202.932 40.3144 204.574 40.2453 206.211 40.1696C206.539 40.1547 206.812 40.1679 207.048 40.2272C207.215 40.27 207.389 40.2881 207.593 40.2782C209.434 40.1975 211.282 40.1202 213.117 40.0346C213.47 40.0181 213.699 40.0543 213.947 40.1021C214.028 40.1185 214.108 40.1416 214.201 40.1482C214.294 40.1547 214.4 40.1482 214.499 40.1432C216.34 40.0626 218.187 39.9868 220.022 39.8996C220.394 39.8815 220.592 39.9374 220.84 39.9786C220.927 39.9934 221.02 40.023 221.094 40.0214C221.813 39.9934 222.532 39.9687 223.245 39.9276C223.63 39.9045 223.797 39.9802 224.057 40.0165C224.144 40.028 224.243 40.0527 224.324 40.0494C225.861 39.9852 227.399 39.9177 228.93 39.8486C229.147 39.8387 229.308 39.8535 229.481 39.8963C229.711 39.9539 229.977 39.977 230.312 39.9588C231.025 39.921 231.744 39.8947 232.463 39.8634C232.885 39.8453 232.885 39.8453 234.174 39.9309C234.267 39.9375 234.366 39.9473 234.459 39.944C235.686 39.8914 236.92 39.8403 238.141 39.7827C238.47 39.7663 238.743 39.7811 238.978 39.8403C239.145 39.8831 239.313 39.9012 239.524 39.8914C240.652 39.842 241.774 39.7926 242.902 39.7432C243.311 39.7251 243.72 39.6938 244.129 39.6938C244.427 39.6955 244.644 39.7745 244.91 39.814C244.985 39.8255 245.109 39.8124 245.208 39.8091C246.64 39.7465 248.078 39.6889 249.504 39.6181C249.876 39.6 250.074 39.656 250.322 39.6971C250.409 39.7119 250.502 39.7416 250.576 39.7399C251.091 39.7218 251.599 39.6971 252.113 39.6757C252.727 39.6494 253.347 39.6296 253.954 39.5934C254.45 39.5638 254.636 39.707 255.033 39.7119C255.337 39.7169 255.647 39.6889 255.95 39.6757C256.564 39.6494 257.178 39.6198 257.792 39.5967C258.008 39.5885 258.176 39.5621 258.244 39.5029C258.257 39.4913 258.151 39.4667 258.083 39.4518C257.259 39.2839 257.258 39.2839 256.428 39.3201C255.913 39.3432 255.405 39.3662 254.89 39.386C254.804 39.3893 254.705 39.3761 254.618 39.3662C254.37 39.3383 254.395 39.3053 254.605 39.2461C254.816 39.1868 254.977 39.1144 255.157 39.0469C255.411 39.0897 255.659 39.1325 255.913 39.1753C256.118 39.1671 256.323 39.1572 256.527 39.149C257.55 39.1062 258.573 39.0617 259.595 39.0222C259.67 39.0189 259.763 39.0518 259.85 39.0683C260.098 39.116 260.321 39.1572 260.68 39.1391C261.598 39.0913 262.521 39.0568 263.439 39.0156C263.842 38.9975 263.842 38.9975 264.548 39.0996C264.629 39.1111 264.734 39.1243 264.821 39.121C265.745 39.0831 266.662 39.042 267.586 39.0025C267.784 38.9942 267.976 39.0156 268.119 39.0634C268.175 39.0831 268.162 39.116 268.398 39.386C269.129 39.6049 269.631 39.5819 270.14 39.5621C270.357 39.5539 270.549 39.5457 270.691 39.5128C270.766 39.4946 270.859 39.4683 270.859 39.4469C270.859 39.4304 270.722 39.4041 270.636 39.4008C270.022 39.3679 269.439 39.437 268.838 39.4518C268.559 39.4584 268.317 39.4008 268.268 39.307C268.255 39.2806 268.237 39.2527 268.218 39.2263C268.199 39.2 268.187 39.172 268.169 39.1457C267.927 39.1374 267.784 39.1671 267.679 39.223C267.592 39.2691 267.468 39.3218 267.301 39.3465C267.133 39.3728 266.904 39.3679 266.699 39.3761C266.501 39.3844 266.284 39.4058 266.098 39.3942C265.912 39.3811 265.763 39.3333 265.59 39.3037C265.509 39.2889 265.41 39.2675 265.329 39.2708C264.617 39.2988 263.91 39.3267 263.203 39.3629C262.831 39.3827 262.645 39.3136 262.41 39.2708C262.224 39.2379 262.038 39.2461 262.007 39.3218C261.926 39.5029 262.211 39.5786 262.844 39.544C263.364 39.5144 263.835 39.5095 264.245 39.6214C264.3 39.6362 264.431 39.6428 264.511 39.6395C265.019 39.6198 265.521 39.5951 266.03 39.5753C266.123 39.572 266.222 39.5786 266.309 39.5852C267.573 39.6741 267.573 39.6757 268.001 39.656C268.206 39.6461 268.404 39.6379 268.385 39.3876C268.776 39.1193 269.396 39.1012 269.997 39.0617C270.388 39.037 270.555 39.1095 270.809 39.1473C270.896 39.1605 270.989 39.1868 271.07 39.1835C272.402 39.1292 273.729 39.0716 275.055 39.0107C275.279 39.0008 275.44 39.0107 275.613 39.0535C275.836 39.1078 276.084 39.1424 276.438 39.1226C277.144 39.0831 277.863 39.0584 278.582 39.0255C278.948 39.009 278.948 39.009 279.686 39.1111C279.766 39.1226 279.872 39.1358 279.959 39.1325C280.678 39.1045 281.391 39.0699 282.104 39.0403C282.302 39.0321 282.482 39.0551 282.637 39.0996C282.792 39.144 282.978 39.1671 283.17 39.1588C283.889 39.1292 284.602 39.0963 285.314 39.0667C285.401 39.0634 285.507 39.0749 285.587 39.0864C286.343 39.1885 286.343 39.1885 286.691 39.172C287.199 39.1473 287.72 39.1358 288.222 39.1029C288.711 39.0699 288.966 39.1654 289.3 39.2181C290.218 39.1802 291.141 39.149 292.053 39.1029C292.424 39.0831 292.623 39.1374 292.871 39.1802C292.958 39.195 293.044 39.2263 293.125 39.2247C293.435 39.2181 293.739 39.2 294.043 39.1868C294.346 39.1737 294.656 39.1605 294.96 39.1473C295.307 39.1951 295.536 39.307 296.032 39.2691C296.33 39.2461 296.646 39.2411 296.95 39.228C297.253 39.2148 297.563 39.2016 297.867 39.1885C298.072 39.1802 298.282 39.1753 298.481 39.1605C298.847 39.1358 299.026 39.2165 299.287 39.2527C299.374 39.2642 299.473 39.2839 299.553 39.2806C300.167 39.2576 300.787 39.2378 301.388 39.2C301.853 39.1704 302.169 39.2197 302.498 39.2889C302.566 39.3037 302.684 39.3119 302.77 39.3086C303.489 39.2807 304.202 39.2461 304.915 39.2164C305.107 39.2082 305.293 39.2345 305.448 39.2773C305.61 39.3218 305.789 39.3432 305.988 39.335C306.7 39.3053 307.42 39.2724 308.133 39.2428C308.219 39.2395 308.325 39.2527 308.405 39.2658C309.099 39.3679 309.099 39.3695 309.509 39.3498C309.608 39.3448 309.713 39.3415 309.812 39.3366C310.321 39.3136 310.848 39.3053 311.343 39.2658C311.914 39.2214 312.329 39.2774 312.732 39.3712C313.24 39.3514 313.761 39.3399 314.257 39.307C314.629 39.2823 314.827 39.3448 315.075 39.386C315.162 39.4008 315.255 39.4304 315.329 39.4272C316.048 39.3992 316.767 39.3745 317.474 39.3333C317.858 39.3103 318.026 39.3843 318.286 39.4222C318.373 39.4354 318.466 39.4584 318.546 39.4551C318.956 39.442 319.365 39.4222 319.774 39.4041C320.251 39.3827 320.251 39.3843 320.883 39.4848C321.181 39.5325 321.479 39.4946 321.77 39.4831C322.08 39.4699 322.371 39.4601 322.619 39.5276C322.774 39.5704 322.96 39.5967 323.152 39.5901C323.561 39.5753 323.977 39.5605 324.38 39.5358C324.702 39.516 324.981 39.5292 325.216 39.5901C325.384 39.6329 325.557 39.6543 325.762 39.6445C326.679 39.6049 327.603 39.5638 328.52 39.5259C328.601 39.5226 328.713 39.5374 328.787 39.5523C328.961 39.5819 329.128 39.6148 329.295 39.6477C329.698 39.6329 330.114 39.6263 330.51 39.6033C330.932 39.5803 331.316 39.572 331.645 39.6626C331.713 39.6823 331.812 39.7103 331.893 39.7086C332.203 39.702 332.506 39.6856 332.81 39.6724C333.114 39.6593 333.424 39.6461 333.727 39.6329C334.081 39.6741 334.304 39.7926 334.8 39.7547C335.098 39.7317 335.414 39.7267 335.717 39.7136C336.021 39.7004 336.331 39.6856 336.635 39.6741C336.734 39.6708 336.846 39.6625 336.932 39.6691C337.025 39.6757 337.106 39.6988 337.186 39.7152C337.434 39.763 337.664 39.8107 338.017 39.7827C338.315 39.7597 338.631 39.7547 338.935 39.7399C339.35 39.7218 339.35 39.7218 340.038 39.8255C340.317 39.8683 340.633 39.8124 340.9 39.8486C341.079 39.8733 341.234 39.9144 341.408 39.9424C341.482 39.9539 341.6 39.9588 341.687 39.9556C342.096 39.9407 342.511 39.9259 342.914 39.9012C343.243 39.8815 343.516 39.9012 343.745 39.9605C343.912 40.0033 344.08 40.0214 344.29 40.0115C345.313 39.9654 346.336 39.9259 347.353 39.8749C347.7 39.8568 347.979 39.8848 348.171 39.944C348.499 40.0461 348.964 39.9259 349.305 40.0082C349.516 40.0593 349.727 40.1185 350.111 40.0938C350.818 40.051 351.537 40.028 352.25 39.9984C352.504 40.0428 352.758 40.0873 353.018 40.1317C353.427 40.1136 353.837 40.0955 354.246 40.079C354.549 40.0658 354.859 40.051 355.163 40.0395C355.262 40.0362 355.368 40.0296 355.461 40.0379C355.554 40.0461 355.628 40.0675 355.715 40.084C356.143 40.1646 356.142 40.1663 356.849 40.1333C357.153 40.1185 357.444 40.1087 357.698 40.1745C357.934 40.2354 358.213 40.2469 358.535 40.2288C359.143 40.1959 359.757 40.1712 360.376 40.1482C360.569 40.1399 360.748 40.1679 360.909 40.2107C361.151 40.2782 361.449 40.2716 361.753 40.2535C362.155 40.2305 362.552 40.2074 362.893 40.2996C362.961 40.3194 363.067 40.3473 363.141 40.3457C363.649 40.3325 364.164 40.3226 364.66 40.2914C365.156 40.2601 365.397 40.3622 365.738 40.4115C366.247 40.3901 366.761 40.3687 367.269 40.3473C367.369 40.3424 367.486 40.3276 367.573 40.3358C367.939 40.3704 368.15 40.4938 368.652 40.456C368.943 40.4346 369.259 40.428 369.563 40.4231C369.644 40.4214 369.749 40.4494 369.805 40.4708C369.836 40.4823 369.805 40.5136 369.768 40.5301C369.656 40.5761 369.52 40.619 369.42 40.6667C369.408 40.6733 369.526 40.7029 369.594 40.7161C369.761 40.7457 369.954 40.7408 370.177 40.7276C370.369 40.7161 370.567 40.7391 370.704 40.7885C370.759 40.8083 370.741 40.8412 370.623 40.9498C370.623 41.0305 370.753 40.9943 370.797 40.9416C370.865 40.8659 370.735 40.8412 370.487 40.8823C370.313 40.912 370.226 40.9548 370.27 40.9893C370.295 41.0074 370.412 41.0305 370.623 40.9498C371.168 40.8511 371.578 40.833 371.987 40.8149C372.092 40.8099 372.216 40.7934 372.291 40.8033C372.557 40.8428 372.805 40.8906 373.065 40.935C373.363 40.9251 373.642 40.9004 373.933 40.9646C374.342 41.0552 374.361 41.0469 374.758 41.0288C374.962 41.019 375.167 41.0107 375.371 41.0025C375.576 40.9943 375.737 41.019 375.917 41.0568C376.283 41.1342 376.314 41.1342 376.555 41.0288C376.698 40.9646 376.797 40.9432 376.977 40.9729C377.572 41.0733 377.578 41.0799 378.086 41.0502C378.508 41.0255 378.905 41.019 379.215 41.1128C379.425 41.1786 379.494 41.1638 379.661 41.0947C380.107 40.912 380.312 40.9152 381.149 41.0469C381.539 41.1095 381.942 41.042 382.339 41.0338C382.674 41.0272 382.909 41.0667 382.934 41.1704C382.953 41.2346 383.008 41.2807 383.232 41.3021C383.318 41.3103 383.424 41.3218 383.51 41.3186C384.025 41.2988 384.533 41.2758 385.048 41.2527C385.308 41.2412 385.451 41.1638 385.401 41.0618C385.345 40.9531 385.444 40.9136 385.816 40.8823C386.04 40.8642 386.219 40.8675 386.399 40.8972C386.598 40.9301 386.542 40.9597 386.368 41.019C385.953 41.1638 386.002 41.2527 386.536 41.3531C386.721 41.3877 386.87 41.419 386.914 41.47C386.938 41.4963 386.914 41.5309 386.969 41.5507C387.273 41.661 387.695 41.7317 388.166 41.7844C388.618 41.74 388.928 41.814 389.275 41.8733C389.548 41.9194 389.87 41.8799 390.162 41.8634C390.49 41.8453 390.763 41.8585 390.999 41.9194C391.166 41.9622 391.34 41.9819 391.544 41.9737C391.953 41.9556 392.369 41.9441 392.771 41.9178C393.119 41.8947 393.379 41.9276 393.596 41.9836C393.869 42.0544 394.173 42.0066 394.458 42.0165C394.842 42.028 395.034 42.1745 395.536 42.135C395.834 42.112 396.144 42.1038 396.454 42.0972C396.534 42.0955 396.633 42.1235 396.702 42.1433C397.03 42.2338 397.415 42.2289 397.836 42.2025C398.127 42.1844 398.412 42.168 398.698 42.2305C399.169 42.3359 399.69 42.4281 400.185 42.5252C400.254 42.6009 400.204 42.6898 400.557 42.7342C400.743 42.7573 400.917 42.7919 401.059 42.8297C401.233 42.8742 401.394 42.8857 401.617 42.8742C402.02 42.8511 402.442 42.8462 402.839 42.8165C403.204 42.7902 403.434 42.8445 403.657 42.8956C403.836 42.9367 404.004 42.9565 404.221 42.9268C404.444 42.8988 404.605 42.9169 404.785 42.9614C405.039 43.0223 405.058 43.0157 405.901 43.0338C405.988 43.0355 406.093 43.0602 406.142 43.0816C406.167 43.0931 406.112 43.126 406.068 43.1425C406.012 43.1622 405.925 43.1853 405.845 43.1902C404.927 43.233 404.004 43.2709 403.086 43.3137C402.993 43.3186 402.894 43.3301 402.826 43.3466C402.752 43.3647 402.659 43.3894 402.659 43.4124C402.659 43.4289 402.783 43.4487 402.869 43.4602C403.142 43.498 403.465 43.4404 403.731 43.4832C403.911 43.5112 404.06 43.5507 404.239 43.577C404.314 43.5886 404.432 43.5869 404.525 43.5836C404.835 43.5721 405.138 43.5557 405.448 43.5458C405.535 43.5441 405.634 43.5606 405.715 43.5738C406.31 43.6725 406.31 43.6725 406.824 43.6511C407.029 43.6429 407.246 43.6182 407.438 43.6281C407.624 43.638 407.785 43.6824 407.953 43.7104C408.3 43.7697 408.628 43.8273 408.653 43.9557C408.665 44.005 408.87 44.0478 409.074 44.0511C409.273 44.0544 409.484 44.0363 409.688 44.0265C410.172 44.0067 410.172 44.0067 410.798 44.1071C410.971 44.1351 411.157 44.1384 411.38 44.1219C411.467 44.1153 411.573 44.1219 411.666 44.1302C411.969 44.1549 411.969 44.1861 411.771 44.2454C411.492 44.3326 411.517 44.3409 412.298 44.4149C412.595 44.4429 412.825 44.4956 413.073 44.5417C413.476 44.6158 413.47 44.6158 413.203 44.7129C413.141 44.7343 413.085 44.7573 413.023 44.7804C412.843 44.8446 412.701 44.9137 412.329 44.9203C411.92 44.9269 411.511 44.9532 411.102 44.9713C410.705 44.9894 410.599 45.0289 410.637 45.1409C410.68 45.2759 410.761 45.2907 411.474 45.289C411.678 45.289 411.858 45.3022 412.013 45.3466C411.938 45.3993 411.802 45.4405 411.604 45.4503C411.095 45.475 410.581 45.4964 410.073 45.5178C409.663 45.536 409.254 45.5541 408.845 45.5722C408.591 45.5837 408.43 45.6693 408.498 45.7648C408.535 45.8191 408.566 45.8734 408.597 45.9277C408.665 46.0364 408.796 46.0644 409.211 46.0594C409.316 46.0578 409.415 46.0446 409.515 46.0479C409.918 46.0594 410.11 46.196 410.593 46.1681C410.996 46.145 411.418 46.1401 411.814 46.1104C412.18 46.0841 412.385 46.1434 412.639 46.1878C412.726 46.2026 412.819 46.2339 412.893 46.2323C413.408 46.2142 413.922 46.1961 414.424 46.1648C414.66 46.1516 414.802 46.1615 414.988 46.201C415.435 46.2965 415.447 46.2915 416.11 46.2619C416.594 46.2389 416.6 46.2421 417.22 46.3426C417.393 46.3705 417.579 46.3705 417.803 46.3574C418.094 46.3409 418.398 46.3146 418.701 46.3393C418.794 46.3458 418.912 46.3656 418.943 46.387C418.962 46.4018 418.875 46.438 418.801 46.4496C418.255 46.5352 417.617 46.5203 417.021 46.5549C416.835 46.5648 416.649 46.5335 416.494 46.4891C416.333 46.4446 416.16 46.4265 415.949 46.4348C415.54 46.4529 415.125 46.4644 414.722 46.4907C414.375 46.5138 414.133 46.4759 413.891 46.4249C413.81 46.4084 413.717 46.3771 413.637 46.3788C412.719 46.4117 411.796 46.4446 410.885 46.4907C410.519 46.5105 410.308 46.4578 410.06 46.4133C409.973 46.3985 409.887 46.3673 409.806 46.3689C409.496 46.3755 409.192 46.3936 408.882 46.4068C407.754 46.4561 406.632 46.5055 405.504 46.5516C405.43 46.5549 405.337 46.5203 405.25 46.5055C405.082 46.4759 404.909 46.4479 404.735 46.4199C404.425 46.4331 404.122 46.4495 403.812 46.4594C403.589 46.466 403.39 46.4891 403.359 46.5516C403.341 46.5928 403.545 46.6306 403.762 46.6273C403.973 46.624 404.184 46.6043 404.357 46.6257C405.219 46.731 405.219 46.7327 405.758 46.7113C406.229 46.6915 406.18 46.6751 406.595 46.7656C406.775 46.8051 406.936 46.8282 407.141 46.8183C407.649 46.7952 408.163 46.7722 408.678 46.7524C408.758 46.7492 408.864 46.7656 408.944 46.7788C409.552 46.8776 409.552 46.8808 410.054 46.8561C410.711 46.8265 410.736 46.8183 411.176 46.9187C411.48 46.9878 411.759 46.9401 412.05 46.9368C412.385 47.001 412.75 47.0586 413.054 47.1311C413.414 47.2167 413.792 47.2018 414.201 47.1771C414.505 47.159 414.802 47.1524 415.05 47.2199C415.286 47.2825 415.571 47.2891 415.893 47.2726C416.185 47.2578 416.482 47.2265 416.786 47.2627C416.867 47.2726 416.99 47.2973 416.984 47.3121C416.978 47.3352 416.897 47.3681 416.817 47.378C416.247 47.4455 415.621 47.4438 415.019 47.4751C414.939 47.48 414.833 47.4619 414.753 47.4488C414.579 47.4191 414.412 47.3846 414.244 47.3533C413.941 47.3632 413.631 47.3664 413.333 47.3862C413.104 47.401 412.93 47.3994 412.763 47.3599C412.608 47.3237 412.441 47.2792 412.255 47.2677C412.069 47.2562 411.852 47.2809 411.647 47.2907C411.443 47.3006 411.207 47.2957 411.046 47.322C410.885 47.3483 410.785 47.406 410.68 47.452C410.562 47.5031 410.401 47.5196 410.165 47.5245C409.949 47.5294 409.775 47.5228 409.614 47.4767C409.546 47.457 409.453 47.4422 409.36 47.429C409.273 47.4175 409.174 47.3994 409.093 47.4027C408.169 47.4405 407.252 47.4817 406.328 47.5212C405.87 47.5409 405.876 47.5409 404.921 47.4438C404.835 47.4356 404.729 47.4241 404.642 47.4274C404.128 47.4471 403.62 47.4702 403.105 47.4932C402.584 47.5162 402.591 47.513 401.704 47.4092C401.543 47.3895 401.307 47.4158 401.115 47.4125C400.712 47.4043 400.514 47.266 400.043 47.2924C399.64 47.3154 399.218 47.3204 398.815 47.35C398.45 47.3763 398.239 47.3187 397.991 47.2743C397.904 47.2595 397.811 47.2265 397.737 47.2298C396.813 47.266 395.896 47.3072 394.668 47.3121C394.365 47.3121 394.501 47.3467 394.699 47.3582C394.985 47.3763 395.078 47.3418 394.923 47.2759C394.811 47.2298 394.65 47.2068 394.52 47.2183C394.451 47.2249 394.365 47.2562 394.668 47.3121C394.991 47.3747 394.972 47.4092 395.028 47.429C395.164 47.4767 395.357 47.4965 395.555 47.4899C395.865 47.4784 396.169 47.4619 396.479 47.452C396.565 47.4488 396.671 47.4603 396.751 47.4734C397.433 47.5755 397.439 47.5821 398.165 47.5426C398.394 47.5311 398.561 47.5311 398.741 47.5623C398.989 47.6051 399.169 47.6776 399.547 47.6545C400.049 47.6232 400.564 47.6052 401.078 47.587C401.159 47.5838 401.245 47.6134 401.338 47.6265C401.592 47.6661 401.778 47.7401 402.157 47.7089C402.448 47.6842 402.764 47.6776 403.074 47.6726C403.155 47.671 403.279 47.6973 403.316 47.7187C403.39 47.7566 403.297 47.801 403.086 47.8323C403 47.8455 402.882 47.8422 402.783 47.8471C402.374 47.8652 401.964 47.885 401.555 47.8998C401.338 47.908 401.134 47.9327 401.109 47.9936C401.09 48.0348 401.314 48.071 401.524 48.0677C401.834 48.0628 402.144 48.0496 402.442 48.0282C402.969 47.992 403.427 48.0019 403.855 48.1056C404.159 48.178 404.14 48.1517 404.463 48.3657C404.543 48.42 404.785 48.4249 404.996 48.4216C405.504 48.4134 405.74 48.4381 405.696 48.4891C405.64 48.5517 405.461 48.5714 405.231 48.5796C404.822 48.5928 404.413 48.6142 404.004 48.6323C403.905 48.6373 403.793 48.6471 403.7 48.6438C403.607 48.6406 403.52 48.6208 403.44 48.606C403.266 48.5747 403.117 48.527 402.931 48.5154C402.746 48.5039 402.529 48.5286 402.324 48.5385C402.119 48.5467 401.902 48.5714 401.717 48.5599C401.531 48.5484 401.376 48.499 401.208 48.4694C401.128 48.4546 401.028 48.4315 400.948 48.4331C400.539 48.4463 400.13 48.4677 399.721 48.4842C399.218 48.5056 399.218 48.5056 398.611 48.4035C398.437 48.3739 398.258 48.3755 398.028 48.3887C397.532 48.415 397.526 48.4101 396.621 48.3146C396.534 48.3047 396.429 48.2932 396.342 48.2982C395.418 48.336 394.501 48.3772 393.584 48.4167C392.796 48.4512 392.796 48.4513 392.362 48.6159C392.04 48.7377 392.034 48.7377 392.35 48.7937C392.604 48.8397 392.833 48.9072 393.112 48.9319C393.373 48.955 393.695 48.8809 393.98 48.9566C394.123 48.9945 394.309 49.0356 394.489 49.0422C394.774 49.0505 395.078 49.0027 395.35 49.0751C395.487 49.1113 395.691 49.1492 395.865 49.1509C396.169 49.1542 396.479 49.1278 396.782 49.1163C396.875 49.113 396.981 49.113 397.067 49.1212C397.16 49.1311 397.241 49.1509 397.321 49.1673C397.569 49.2233 397.836 49.2496 398.158 49.2216C398.685 49.1756 399.156 49.1986 399.566 49.3039C399.621 49.3188 399.758 49.3204 399.844 49.3138C400.068 49.2974 400.26 49.2957 400.427 49.327C400.495 49.3402 400.594 49.3632 400.582 49.378C400.563 49.4027 400.489 49.4356 400.409 49.4439C399.826 49.4998 399.2 49.5064 398.598 49.5361C398.518 49.5394 398.419 49.5179 398.338 49.5031C398.165 49.4735 398.016 49.4241 397.83 49.4126C397.644 49.4011 397.427 49.4225 397.222 49.4307C397.018 49.4389 396.801 49.4636 396.615 49.4538C396.429 49.4422 396.255 49.4011 396.107 49.3649C395.933 49.3237 395.766 49.3188 395.536 49.3352C395.239 49.3566 394.929 49.3599 394.625 49.3714C394.458 49.3402 394.29 49.3056 394.117 49.276C394.036 49.2611 393.937 49.243 393.85 49.2447C393.441 49.2579 393.032 49.2776 392.623 49.2957C392.214 49.3138 392.214 49.3138 391.519 49.2118C391.439 49.2003 391.333 49.1871 391.247 49.1904C390.732 49.2101 390.224 49.2348 389.709 49.2546C389.511 49.2628 389.331 49.2397 389.17 49.1953C389.015 49.1509 388.829 49.1262 388.637 49.1344C387.819 49.169 387 49.2019 386.182 49.243C385.854 49.2595 385.575 49.2447 385.351 49.1854C385.091 49.1179 384.8 49.1344 384.496 49.1476C383.808 49.1805 383.802 49.1788 383.362 49.0949C383.275 49.0784 383.188 49.0471 383.108 49.0488C382.395 49.0735 381.676 49.0965 380.969 49.136C380.597 49.1574 380.399 49.0998 380.151 49.057C380.064 49.0422 379.971 49.0109 379.897 49.0142C379.382 49.0323 378.867 49.0488 378.365 49.0817C377.863 49.1146 377.671 48.9616 377.293 48.9632C376.778 48.9649 376.27 49.0027 375.762 49.0258C375.353 49.0439 374.944 49.062 374.535 49.0801C374.125 49.0982 373.716 49.113 373.307 49.1344C373.09 49.1459 372.929 49.1311 372.749 49.0899C372.52 49.0356 372.247 48.9928 371.999 48.9435C371.621 48.8727 371.621 48.8727 371.162 48.8924C371.063 48.8974 370.958 48.9006 370.859 48.9056C370.109 48.9418 370.109 48.9385 369.154 48.8348C369.111 48.8299 368.999 48.848 368.956 48.8611C368.825 48.9039 368.708 48.95 368.59 48.9945C368.423 48.9681 368.218 48.9533 368.106 48.9155C367.79 48.8085 367.294 48.955 366.972 48.8496C366.854 48.8101 366.65 48.7755 366.464 48.7657C366.271 48.7558 366.054 48.7788 365.856 48.7887C365.342 48.8134 365.342 48.8118 364.901 48.9583C364.678 49.0307 364.356 49.0175 364.065 49.034C363.761 49.0521 363.47 49.062 363.215 48.9945C362.986 48.9336 362.707 48.9188 362.379 48.9385C361.976 48.9632 361.56 48.978 361.151 48.9928C361.064 48.9961 360.959 48.9879 360.872 48.978C359.924 48.8809 359.924 48.8793 359.465 48.9007C359.26 48.9105 359.05 48.9138 358.851 48.9286C358.517 48.955 358.263 48.9204 358.021 48.8677C357.94 48.8513 357.847 48.82 357.767 48.8216C357.357 48.8299 356.955 48.8447 356.552 48.8595C356.242 48.871 355.932 48.8776 355.634 48.9007C355.138 48.9385 354.897 48.8315 354.556 48.7821C354.047 48.8035 353.533 48.8183 353.025 48.848C352.789 48.8611 352.634 48.8562 352.454 48.8167C352.225 48.7673 352.014 48.7113 351.642 48.736C351.146 48.769 350.626 48.7805 350.117 48.8002C349.776 48.7492 349.528 48.6455 349.039 48.6834C348.741 48.7064 348.425 48.7113 348.121 48.7245C347.712 48.7426 347.303 48.7591 346.894 48.7788C346.454 48.7986 346.46 48.7937 345.784 48.6965C345.394 48.6389 344.991 48.7031 344.594 48.713C344.284 48.7212 344.129 48.7969 344.204 48.8941C344.278 48.9912 344.111 49.0669 343.825 49.0801C343.113 49.1114 342.393 49.1443 341.681 49.1722C341.594 49.1755 341.488 49.164 341.408 49.1525C340.645 49.0488 340.645 49.0505 340.304 49.0653C339.796 49.09 339.275 49.1031 338.773 49.1344C338.426 49.1558 338.172 49.1212 337.949 49.0653C337.775 49.0225 337.614 49.0126 337.391 49.0225C334.936 49.1328 332.481 49.2348 330.033 49.3484C329.667 49.3649 329.457 49.3171 329.209 49.2727C329.122 49.2579 329.041 49.2266 328.954 49.2266C328.75 49.2266 328.545 49.2414 328.341 49.2513C327.423 49.2908 326.506 49.3385 325.582 49.3682C325.192 49.3813 325.086 49.457 324.919 49.5196C324.789 49.5673 324.64 49.5871 324.411 49.5937C324.188 49.6003 324.026 49.592 323.853 49.5492C323.63 49.4933 323.375 49.4587 323.028 49.4817C322.625 49.5081 322.216 49.5196 321.801 49.5377C321.59 49.5459 321.429 49.5756 321.361 49.6348C321.348 49.6447 321.479 49.6694 321.553 49.6842C321.801 49.7336 322.036 49.7912 322.315 49.8258C322.601 49.8603 322.91 49.8208 323.208 49.8109C323.313 49.8077 323.413 49.7978 323.512 49.7994C323.605 49.8011 323.716 49.8093 323.785 49.8241C324.107 49.8982 324.448 49.9492 324.894 49.9048C325.278 49.9262 325.477 50.0628 325.967 50.0266C326.264 50.0052 326.574 49.9953 326.884 49.9871C326.965 49.9855 327.051 50.0151 327.138 50.0299C327.386 50.0711 327.584 50.1369 327.956 50.1089C328.353 50.0793 328.775 50.0743 329.178 50.0513C329.401 50.0381 329.562 50.0497 329.735 50.0925C329.959 50.1468 330.213 50.1879 330.56 50.1616C330.857 50.1385 331.174 50.1336 331.477 50.1188C331.874 50.1007 331.874 50.1023 332.581 50.2044C332.661 50.2159 332.767 50.2291 332.853 50.2258C333.368 50.206 333.876 50.1813 334.391 50.1616C334.589 50.1533 334.781 50.1747 334.918 50.2225C334.973 50.2422 334.955 50.2752 334.973 50.3032C333.951 50.3476 332.928 50.3855 331.911 50.4398C331.527 50.4612 331.353 50.3937 331.099 50.3558C331.012 50.3427 330.919 50.3147 330.839 50.318C330.12 50.346 329.407 50.3756 328.694 50.4118C328.471 50.4233 328.304 50.4167 328.136 50.369C327.708 50.2422 327.188 50.3114 326.704 50.3295C326.332 50.3427 326.215 50.3937 326.258 50.5023C326.314 50.6307 326.537 50.6702 327.107 50.6472C327.312 50.639 327.516 50.6274 327.721 50.6209C327.919 50.6143 328.099 50.6357 328.26 50.6801C328.415 50.7246 328.601 50.7476 328.793 50.741C329.202 50.7262 329.618 50.7114 330.014 50.6867C330.343 50.667 330.616 50.6834 330.845 50.7443C331.099 50.8118 331.397 50.797 331.694 50.7822C332.389 50.7492 332.395 50.7509 332.829 50.8332C332.915 50.8497 333.002 50.881 333.083 50.8793C333.796 50.8546 334.515 50.8332 335.215 50.7937C335.581 50.774 335.792 50.8266 336.034 50.8694C336.12 50.8842 336.207 50.9172 336.288 50.9139C336.802 50.8958 337.317 50.8777 337.819 50.8464C338.054 50.8316 338.197 50.8414 338.389 50.8809C338.848 50.9781 338.86 50.9748 339.511 50.9435C339.709 50.9336 339.926 50.9155 340.112 50.9287C340.298 50.9418 340.447 50.9896 340.621 51.0192C340.701 51.0324 340.8 51.0505 340.887 51.0472C341.296 51.034 341.705 51.0143 342.114 50.9962C342.499 50.9781 342.499 50.9797 343.218 51.0818C343.509 51.1246 343.813 51.0884 344.104 51.0752C344.421 51.0604 344.706 51.0604 344.947 51.1246C345.189 51.1888 345.481 51.1855 345.791 51.1723C346.082 51.1591 346.379 51.1229 346.677 51.1674C347.359 51.2694 347.359 51.2711 347.78 51.2513C348.394 51.2233 349.001 51.197 349.621 51.1723C349.702 51.169 349.807 51.1888 349.888 51.2019C350.061 51.2316 350.21 51.2809 350.396 51.2925C350.582 51.3056 350.799 51.2859 350.997 51.276C351.636 51.2447 351.679 51.2332 352.107 51.3419C352.467 51.4308 352.913 51.3024 353.248 51.4044C353.44 51.462 353.7 51.5081 354.06 51.4801C354.357 51.4571 354.667 51.4505 354.977 51.4373C355.467 51.4159 355.467 51.4176 356.087 51.5164C356.167 51.5295 356.273 51.546 356.353 51.5427C356.762 51.5295 357.178 51.518 357.575 51.4884C358.039 51.4538 358.337 51.5164 358.684 51.5773C358.957 51.625 359.279 51.5855 359.571 51.569C359.887 51.5526 360.172 51.5575 360.407 51.6217C360.655 51.6875 360.947 51.6793 361.257 51.6661C361.548 51.6546 361.845 51.6168 362.143 51.6628C362.781 51.7649 362.781 51.7649 363.246 51.7452C363.656 51.727 364.065 51.7073 364.474 51.6941C364.554 51.6908 364.654 51.7122 364.734 51.7271C364.908 51.7567 365.056 51.8061 365.242 51.8176C365.428 51.8291 365.645 51.8077 365.85 51.7995C366.054 51.7913 366.271 51.7666 366.457 51.7764C366.643 51.7863 366.817 51.8275 366.966 51.8637C367.139 51.9065 367.3 51.9114 367.536 51.895C367.834 51.8736 368.143 51.8686 368.447 51.8571C368.615 51.8884 368.788 51.9196 368.949 51.9542C369.117 51.9904 369.296 51.9871 369.526 51.9756C370.288 51.9361 370.294 51.9411 370.933 52.0431C371.224 52.0892 371.528 52.0513 371.819 52.0398C372.129 52.0267 372.421 52.0201 372.662 52.0859C372.898 52.1485 373.189 52.1567 373.499 52.1369C373.698 52.1238 373.908 52.1156 374.113 52.1106C374.206 52.109 374.318 52.1155 374.386 52.1287C374.714 52.1979 375.037 52.2604 375.489 52.216C375.886 52.2291 376.084 52.3641 376.562 52.3378C376.964 52.3147 377.386 52.3098 377.783 52.2801C378.148 52.2538 378.409 52.2999 378.595 52.3575C378.93 52.4596 379.401 52.3213 379.735 52.4217C379.928 52.4793 380.175 52.5254 380.547 52.5007C380.956 52.4744 381.087 52.509 381.204 52.6127C381.273 52.6719 381.26 52.7197 381.136 52.7658C381.012 52.8135 380.876 52.8053 380.678 52.751C380.448 52.6901 380.176 52.6785 379.847 52.6917C379.525 52.7049 379.326 52.6193 379.06 52.5863C378.793 52.5518 378.477 52.6094 378.198 52.5649C377.541 52.4612 377.541 52.4612 377.095 52.481C376.791 52.4942 376.475 52.5007 376.177 52.5238C375.824 52.5518 375.595 52.5007 375.353 52.4546C375.266 52.4382 375.179 52.4069 375.105 52.4086C374.392 52.4332 373.673 52.4563 372.966 52.4974C372.594 52.5188 372.396 52.4596 372.148 52.4184C372.061 52.4036 371.968 52.374 371.894 52.3773C371.28 52.4003 370.673 52.43 370.059 52.4579C369.941 52.5024 369.811 52.5452 369.699 52.5929C369.582 52.6423 369.421 52.6637 369.185 52.6621C368.794 52.6621 368.41 52.7312 368.02 52.644C367.617 52.5551 367.586 52.56 367.195 52.5814C366.699 52.6094 366.172 52.6028 365.707 52.667C365.627 52.6785 365.54 52.7098 365.54 52.7328C365.534 52.7477 365.664 52.7691 365.745 52.7822C366.017 52.8217 366.333 52.7641 366.606 52.8053C366.786 52.8316 366.935 52.8711 367.115 52.8991C367.189 52.9106 367.3 52.909 367.4 52.9073C367.505 52.9057 367.604 52.8942 367.703 52.8958C367.796 52.8975 367.896 52.9073 367.97 52.9221C368.311 52.9847 368.67 53.0423 368.974 53.1164C369.272 53.1888 369.551 53.1394 369.848 53.1362C371.038 53.2514 371.038 53.253 371.838 53.2168C372.036 53.2086 372.241 53.1987 372.446 53.2004C372.532 53.2004 372.613 53.23 372.7 53.2464C372.948 53.2958 373.183 53.3403 373.53 53.3139C373.828 53.2909 374.144 53.2859 374.448 53.2711C374.857 53.253 374.857 53.253 375.551 53.3567C375.725 53.3831 375.911 53.3798 376.134 53.3666C376.326 53.3551 376.524 53.3798 376.661 53.4275C376.716 53.4473 376.698 53.4802 376.717 53.5082C376.103 53.5345 375.483 53.5526 374.888 53.5921C374.504 53.6168 374.33 53.546 374.076 53.5082C373.989 53.495 373.896 53.467 373.815 53.4703C373.208 53.495 372.601 53.523 371.993 53.5559C371.919 53.5592 371.826 53.5971 371.819 53.6201C371.807 53.6629 371.962 53.7041 372.185 53.7024C372.483 53.7008 372.774 53.6728 373.041 53.7403C373.264 53.7995 373.543 53.8259 373.871 53.7995C374.07 53.7847 374.28 53.7847 374.479 53.7716C375.006 53.732 375.483 53.7403 375.88 53.8522C376.183 53.8818 376.481 53.8539 376.772 53.8391C376.989 53.8275 377.2 53.816 377.355 53.8473C377.684 53.9131 378.006 53.979 378.458 53.9345C378.948 53.9806 379.32 54.0777 379.729 54.1567C379.921 54.1946 380.07 54.216 380.293 54.1913C380.386 54.1814 380.498 54.1814 380.597 54.1765C380.802 54.1683 381.018 54.1436 381.204 54.1534C381.39 54.165 381.545 54.2127 381.713 54.2423C381.793 54.2572 381.886 54.2819 381.967 54.2802C382.277 54.272 382.581 54.2555 382.884 54.2423C383.188 54.2308 383.492 54.2193 383.796 54.2078C384.05 54.2506 384.31 54.2934 384.564 54.3362C384.973 54.3181 385.383 54.3 385.786 54.2835C386.238 54.2637 386.238 54.2654 386.889 54.3675C387.18 54.4135 387.49 54.3839 387.769 54.3625C388.234 54.3279 388.544 54.3905 388.873 54.4564C388.941 54.4695 389.065 54.4777 389.145 54.4712C389.468 54.4481 389.746 54.4662 389.982 54.5271C390.149 54.5699 390.317 54.5897 390.521 54.5815C391.234 54.5502 391.947 54.5173 392.66 54.4893C392.747 54.486 392.846 54.5008 392.926 54.514C393.559 54.6144 393.565 54.6193 394.03 54.593C394.445 54.5699 394.83 54.56 395.158 54.6506C395.226 54.6703 395.332 54.6983 395.406 54.6967C395.914 54.6802 396.429 54.6621 396.931 54.6341C397.16 54.621 397.322 54.6259 397.501 54.6638C397.731 54.7115 397.935 54.7691 398.313 54.7477C399.361 54.6868 399.367 54.6967 400.607 54.8103C400.694 54.8185 400.811 54.8053 400.911 54.7987C401.121 54.7823 401.276 54.8053 401.462 54.8432C401.878 54.9288 401.89 54.9239 402.287 54.9057C402.591 54.8909 402.907 54.8876 403.204 54.8629C403.663 54.8267 403.967 54.8909 404.308 54.9518C404.58 54.9996 404.896 54.9601 405.188 54.9452C405.504 54.9288 405.789 54.9337 406.025 54.9963C406.186 55.0391 406.359 55.0621 406.564 55.0539C407.277 55.0243 407.99 54.9913 408.703 54.9617C408.789 54.9584 408.895 54.9716 408.975 54.9831C409.682 55.0852 409.682 55.0901 410.383 55.0523C410.606 55.0407 410.792 55.0374 410.959 55.072C411.12 55.1049 411.294 55.1362 411.461 55.1675C411.765 55.156 412.075 55.1527 412.372 55.1329C412.602 55.1181 412.763 55.1247 412.943 55.1593C413.178 55.2037 413.376 55.281 413.748 55.2432C413.941 55.2251 414.164 55.23 414.356 55.2136C414.585 55.1922 414.74 55.2053 414.92 55.2481C415.143 55.2992 415.372 55.3518 415.732 55.3255C416.129 55.2959 416.55 55.2909 416.953 55.2679C417.176 55.2547 417.331 55.2679 417.511 55.3107C417.734 55.365 417.989 55.3996 418.336 55.3782C419.042 55.337 419.048 55.3452 419.736 55.449C419.91 55.4753 420.096 55.472 420.319 55.4588C420.511 55.4473 420.71 55.472 420.846 55.5197C420.976 55.5724 420.964 55.6053 420.976 55.6333ZM365.738 40.7869C365.534 40.7951 365.329 40.805 365.032 40.6618C365.013 40.6371 365.026 40.6074 364.982 40.586C364.883 40.5416 364.728 40.5103 364.542 40.5054C364.207 40.4988 363.804 40.5547 363.81 40.5975C363.817 40.6338 363.922 40.665 364.127 40.6947C364.213 40.7062 364.282 40.7259 364.362 40.7391C364.598 40.777 364.784 40.8511 365.125 40.8132C365.063 40.7111 365.094 40.7622 365.125 40.8132C365.094 40.8758 365.187 40.9202 365.41 40.9383C365.472 40.9432 365.565 40.9399 365.614 40.9301C365.807 40.8939 365.838 40.8445 365.695 40.7144C365.67 40.7358 365.689 40.7737 365.745 40.7836C365.8 40.7934 365.937 40.7852 366.005 40.7737C366.178 40.7424 366.265 40.7013 366.222 40.6667C366.197 40.6486 366.079 40.6255 366.005 40.6255C365.875 40.6255 365.757 40.6618 365.738 40.7869ZM415.862 59.8771C415.41 59.9083 414.889 59.8968 414.437 59.961C414.356 59.9725 414.275 60.0022 414.269 60.0252C414.263 60.04 414.387 60.0614 414.461 60.073C414.629 60.0993 414.815 60.0911 415.032 60.0828C415.36 60.0713 415.552 60.147 415.806 60.1849C415.887 60.1964 415.992 60.2046 416.079 60.2013C416.581 60.1816 417.077 60.1602 417.579 60.1372C417.666 60.1322 417.759 60.1207 417.834 60.1059C418.081 60.0581 418.057 60.0269 417.815 59.9907C417.548 59.9511 417.338 59.8853 417.065 59.854C416.674 59.8096 416.278 59.8688 415.862 59.8771ZM380.659 61.0787C380.355 61.0919 380.058 61.1051 379.754 61.1182C379.655 61.1232 379.549 61.1248 379.456 61.1314C379.264 61.1429 379.122 61.1775 379.029 61.2318C379.171 61.2746 379.345 61.2993 379.537 61.2944C379.841 61.2845 380.138 61.2631 380.442 61.2582C380.771 61.2516 380.963 61.3257 381.217 61.3635C381.297 61.375 381.397 61.3767 381.49 61.3783C381.948 61.3849 382.227 61.2993 382.141 61.1792C382.079 61.0853 381.843 61.0294 381.558 61.0409C381.26 61.0524 380.957 61.0656 380.659 61.0787ZM417.982 57.4441C418.057 57.4161 418.137 57.3963 418.174 57.3716C418.286 57.2877 418.243 57.2251 418.038 57.1593C417.79 57.0786 417.486 57.133 417.207 57.1412C417.139 57.1428 417.065 57.1774 417.028 57.1988C417.003 57.2136 417.003 57.2449 417.04 57.2531C417.344 57.319 417.666 57.3799 417.982 57.4441ZM364.207 52.5814C363.91 52.5946 363.606 52.6045 363.308 52.6226C363.234 52.6275 363.166 52.6588 363.122 52.6802C363.042 52.7197 363.129 52.774 363.383 52.7789C363.674 52.7855 363.978 52.7575 364.282 52.7444C364.666 52.7279 364.895 52.667 364.753 52.6143C364.616 52.5633 364.43 52.5534 364.207 52.5814ZM37.9059 49.0636C38.1043 49.0554 38.3088 49.0488 38.5072 49.0373C38.6931 49.0258 38.8358 48.9895 38.9288 48.9352C38.7738 48.8924 38.6002 48.8694 38.4081 48.8743C38.1043 48.8842 37.8068 48.8974 37.5093 48.9138C37.3233 48.9237 37.1436 48.9599 37.1002 49.0159C37.0568 49.0587 37.472 49.0834 37.9059 49.0636ZM337.992 48.8101C338.073 48.8249 338.153 48.8546 338.234 48.8546C338.432 48.8546 338.637 48.8447 338.823 48.8282C338.904 48.8216 338.965 48.792 339.003 48.769C339.027 48.7541 339.021 48.7278 338.984 48.7146C338.804 48.6356 338.085 48.6636 337.967 48.7541C337.955 48.7706 337.986 48.792 337.992 48.8101ZM318.435 39.7959C318.453 39.8222 318.46 39.8486 318.485 39.8749C318.534 39.9243 318.67 39.9605 318.869 39.9852C319.024 39.944 319.104 39.898 319.098 39.8486C319.092 39.8222 319.073 39.7959 319.049 39.7695C318.999 39.7202 318.863 39.684 318.664 39.6593C318.509 39.6988 318.435 39.7449 318.435 39.7959ZM432.308 61.3652C432.252 61.3866 432.196 61.408 432.134 61.4277C432.302 61.4755 432.457 61.4903 432.574 61.4639C432.649 61.4475 432.692 61.4228 432.748 61.4014C432.581 61.3536 432.432 61.3405 432.308 61.3652ZM428.452 61.589C428.533 61.6039 428.607 61.6236 428.694 61.6335C428.837 61.6499 428.967 61.622 429.066 61.5627C428.985 61.5479 428.911 61.5281 428.824 61.5182C428.682 61.5018 428.551 61.5298 428.452 61.589ZM430.894 61.2878C430.851 61.3273 430.938 61.3602 431.167 61.3882C431.223 61.3668 431.297 61.3471 431.335 61.324C431.397 61.2862 431.291 61.2516 431.068 61.2253C431.006 61.245 430.95 61.2664 430.894 61.2878ZM417.809 59.5133C417.765 59.5528 417.852 59.5857 418.081 59.6137C418.137 59.5923 418.212 59.5725 418.249 59.5495C418.311 59.5116 418.205 59.4771 417.982 59.4507C417.92 59.4705 417.865 59.4919 417.809 59.5133ZM399.981 47.8652C399.925 47.8866 399.869 47.908 399.807 47.9278C399.975 47.9755 400.13 47.9903 400.247 47.964C400.322 47.9475 400.365 47.9228 400.421 47.9014C400.254 47.8537 400.105 47.8405 399.981 47.8652ZM382.903 41.6856C383.052 41.6972 383.176 41.6741 383.281 41.6132C383.201 41.5984 383.126 41.5786 383.039 41.5688C382.897 41.5523 382.767 41.5803 382.667 41.6396C382.748 41.656 382.829 41.6708 382.903 41.6856ZM373.834 41.2988C373.778 41.3202 373.723 41.3416 373.661 41.3614C373.828 41.4091 373.983 41.4239 374.101 41.3976C374.175 41.3811 374.218 41.3564 374.274 41.335C374.107 41.2873 373.958 41.2758 373.834 41.2988ZM312.335 39.7942C312.28 39.8156 312.224 39.837 312.162 39.8568C312.329 39.9045 312.484 39.9193 312.602 39.893C312.676 39.8765 312.72 39.8518 312.775 39.8304C312.608 39.7827 312.459 39.7712 312.335 39.7942ZM6.11819 53.1872C6.0376 53.1724 5.95709 53.1576 5.8827 53.1411C5.70294 53.1855 5.64716 53.2267 5.74635 53.258C5.80833 53.2777 5.90125 53.2892 5.98183 53.3041C6.1678 53.2596 6.21117 53.2201 6.11819 53.1872Z" fill="#FFE492"/>
<path d="M240.392 8.87123C239.679 8.9025 238.973 8.942 238.26 8.96175C237.882 8.97163 237.745 9.04241 237.59 9.10826C237.466 9.16094 237.324 9.17739 237.094 9.18727C235.16 9.26793 233.233 9.35353 231.305 9.43749C231.063 9.41609 230.945 9.38152 231.001 9.34037C231.032 9.31568 231.106 9.28111 231.181 9.27782C232.501 9.21691 233.815 9.15435 235.142 9.10661C235.52 9.09344 235.625 9.02101 235.817 8.96175C235.879 8.942 235.929 8.91237 236.01 8.90085C236.09 8.88768 236.208 8.88933 236.313 8.88604C238.446 8.79221 240.578 8.70003 242.711 8.6062C242.952 8.6276 243.07 8.66216 243.014 8.70332C242.983 8.72801 242.909 8.76258 242.835 8.76587C242.016 8.80044 241.204 8.83501 240.392 8.87123Z" fill="#FFE492"/>
<path d="M630.707 17.637C630.385 17.6567 629.976 17.6847 629.641 17.5892C629.48 17.5431 629.306 17.5283 629.096 17.5382C628.792 17.5547 628.482 17.5678 628.172 17.5777C628.092 17.5793 627.986 17.5612 627.906 17.5464C627.732 17.5168 627.583 17.4674 627.397 17.4542C627.211 17.4411 626.988 17.4773 626.796 17.469C626.542 17.4575 626.436 17.4131 626.505 17.3719C626.542 17.3489 626.616 17.316 626.697 17.311C627.844 17.2501 627.85 17.2501 628.172 17.3094C628.42 17.3555 628.649 17.4065 629.003 17.3785C629.3 17.3555 629.616 17.3505 629.92 17.3357C630.342 17.3159 630.342 17.3176 631.024 17.4213C631.197 17.4476 631.383 17.446 631.606 17.4312C631.798 17.4197 631.984 17.446 632.139 17.4904C632.04 17.5464 631.898 17.5826 631.705 17.5925C631.395 17.609 631.092 17.6205 630.707 17.637Z" fill="#FFE492"/>
<path d="M619.296 17.1298C620.077 17.0952 620.864 17.0656 621.645 17.0261C621.968 17.0096 622.222 17.0277 622.445 17.0837C622.687 17.1446 622.96 17.1397 623.257 17.1282C623.443 17.1216 623.623 17.1479 623.747 17.194C623.796 17.2121 623.784 17.245 623.802 17.2714C623.121 17.301 622.433 17.3323 621.745 17.3586C621.664 17.3619 621.565 17.3454 621.49 17.3323C621.323 17.3043 621.18 17.2549 621.001 17.245C620.616 17.222 620.232 17.2664 619.841 17.2746C619.656 17.2779 619.476 17.2533 619.352 17.2088C619.302 17.1874 619.314 17.1561 619.296 17.1298Z" fill="#FFE492"/>
<path d="M337.034 2.97661C337.846 2.9404 338.658 2.90584 339.47 2.86963C339.712 2.89267 339.824 2.92559 339.774 2.96675C339.743 2.99144 339.669 3.02601 339.594 3.0293C337.97 3.10337 336.346 3.17415 334.728 3.24493C334.487 3.22189 334.375 3.18897 334.425 3.14782C334.456 3.12312 334.53 3.08855 334.604 3.08526C335.41 3.0474 336.222 3.01283 337.034 2.97661Z" fill="#FFE492"/>
<path d="M211.903 12.1238C211.537 12.127 211.153 12.188 210.744 12.1419C210.663 12.1336 210.552 12.1073 210.558 12.0925C210.57 12.0678 210.645 12.0365 210.725 12.0266C211.079 11.9855 211.519 11.9805 211.699 11.8653C211.785 11.806 211.946 11.7863 212.163 11.7748C212.393 11.7616 212.554 11.7665 212.734 11.8011C212.969 11.8455 213.168 11.9279 213.54 11.8851C213.558 11.9114 213.601 11.941 213.583 11.9657C213.564 11.9904 213.484 12.0135 213.409 12.0316C213.341 12.048 213.248 12.0628 213.161 12.0678C212.752 12.0875 212.343 12.104 211.903 12.1238Z" fill="#FFE492"/>
<path d="M534.292 11.7931C534.596 11.7799 534.912 11.7733 535.209 11.7503C535.445 11.7322 535.594 11.7437 535.78 11.7832C536.096 11.8523 536.114 11.8458 536.889 11.8556C536.976 11.8573 537.081 11.882 537.131 11.9034C537.162 11.9149 537.119 11.9462 537.081 11.9626C537.026 11.984 536.945 12.012 536.871 12.012C536.381 12.017 535.885 12.1141 535.408 12.0022C535.166 11.9462 534.899 11.9198 534.571 11.9445C534.372 11.9593 534.162 11.9659 533.957 11.9725C533.759 11.9791 533.554 11.961 533.43 11.9116C533.251 11.8392 533.356 11.8112 533.678 11.8161C533.883 11.8194 534.087 11.8013 534.292 11.7931Z" fill="#FFE492"/>
<path d="M646.64 23.1403C647.031 23.1239 647.421 23.1041 647.818 23.091C647.898 23.0877 647.998 23.1058 648.072 23.1173C648.37 23.1667 648.326 23.2506 648.339 23.3247C648.345 23.4021 647.657 23.4646 647.365 23.412C647.043 23.3527 646.752 23.2852 646.305 23.3214C646.132 23.3346 645.927 23.305 645.816 23.2572C645.648 23.1881 645.741 23.1601 646.057 23.165C646.243 23.1683 646.442 23.1502 646.64 23.1403Z" fill="#FFE492"/>
<path d="M449.839 0.734528C450.242 0.716421 450.645 0.68845 451.048 0.686804C451.283 0.685158 451.401 0.73947 451.345 0.778977C451.314 0.803669 451.24 0.838239 451.165 0.841531C450.36 0.881038 449.554 0.913966 448.748 0.950181C448.512 0.927136 448.395 0.892572 448.45 0.853065C448.481 0.828373 448.556 0.79545 448.63 0.790511C449.033 0.767465 449.436 0.752636 449.839 0.734528Z" fill="#FFE492"/>
<path d="M638.91 17.7818C639.301 17.7653 639.697 17.7406 640.088 17.7324C640.292 17.7291 640.454 17.7669 640.479 17.8097C640.491 17.8295 640.392 17.8641 640.311 17.8723C639.753 17.9283 639.152 17.9349 638.569 17.9628C638.383 17.9711 638.185 17.9447 638.073 17.8986C637.906 17.8279 637.999 17.8015 638.315 17.8065C638.513 17.8081 638.712 17.79 638.91 17.7818Z" fill="#FFE492"/>
<path d="M544.535 12.0153C544.734 12.007 544.938 11.9856 545.13 11.9922C545.335 12.0004 545.465 12.0482 545.527 12.0959C545.595 12.1502 545.589 12.2013 545.527 12.2474C545.428 12.3264 545.329 12.3231 545.099 12.2704C544.746 12.1881 544.721 12.198 544.021 12.2013C543.94 12.2013 543.841 12.1766 543.779 12.1552C543.686 12.1222 543.736 12.0712 543.953 12.0416C544.114 12.0202 544.337 12.0235 544.535 12.0153Z" fill="#FFE492"/>
<path d="M624.385 17.2416C624.676 17.2285 624.968 17.2071 625.259 17.2071C625.464 17.2054 625.625 17.2433 625.644 17.2844C625.65 17.3042 625.557 17.3371 625.482 17.347C625.129 17.3914 624.732 17.3947 624.348 17.4096C624.168 17.4161 623.97 17.3898 623.858 17.3437C623.691 17.2746 623.79 17.2433 624.094 17.2532C624.187 17.2565 624.286 17.2466 624.385 17.2416Z" fill="#FFE492"/>
<path d="M578.533 15.2221C578.1 15.2419 577.69 15.2172 577.721 15.1744C577.765 15.1184 577.944 15.0822 578.13 15.0723C578.428 15.0558 578.726 15.0427 579.029 15.0328C579.221 15.0262 579.395 15.0509 579.55 15.0937C579.457 15.1464 579.314 15.1842 579.129 15.1958C578.936 15.2073 578.732 15.2139 578.533 15.2221Z" fill="#FFE492"/>
<path d="M575.692 15.0114C575.983 14.9983 576.274 14.9769 576.566 14.9769C576.77 14.9752 576.932 15.0131 576.95 15.0542C576.956 15.074 576.863 15.1069 576.789 15.1168C576.436 15.1612 576.039 15.1645 575.655 15.1793C575.475 15.1859 575.276 15.1596 575.165 15.1135C574.997 15.0443 575.097 15.0131 575.4 15.023C575.493 15.0262 575.593 15.0164 575.692 15.0114Z" fill="#FFE492"/>
<path d="M541.021 12.0023C541.312 11.9892 541.604 11.9678 541.895 11.9661C542.099 11.9645 542.261 12.0023 542.279 12.0435C542.285 12.0633 542.193 12.0945 542.118 12.1061C541.765 12.1505 541.368 12.1538 540.984 12.1686C540.804 12.1752 540.606 12.1488 540.494 12.1028C540.327 12.0336 540.426 12.0023 540.729 12.0122C540.822 12.0155 540.922 12.0056 541.021 12.0023Z" fill="#FFE492"/>
<path d="M539.387 11.9052C539.697 11.892 539.796 11.8838 539.895 11.8838C540.081 11.8838 540.273 11.9035 540.385 11.9513C540.552 12.0204 540.453 12.0402 540.149 12.0435C539.759 12.0468 539.374 12.0813 538.984 12.0879C538.779 12.0912 538.618 12.0517 538.606 12.0105C538.6 11.9908 538.693 11.9562 538.767 11.9496C539.027 11.9249 539.312 11.9101 539.387 11.9052Z" fill="#FFE492"/>
<path d="M573.166 2.22105C572.967 2.22928 572.757 2.25233 572.571 2.2441C572.323 2.23257 572.224 2.18813 572.286 2.14698C572.323 2.12393 572.391 2.09101 572.465 2.08607C572.862 2.06303 573.265 2.0482 573.662 2.03174C573.897 2.05643 574.003 2.091 573.941 2.13215C573.903 2.1552 573.835 2.18647 573.761 2.19306C573.569 2.20952 573.364 2.21282 573.166 2.22105Z" fill="#FFE492"/>
<path d="M332.588 3.1705C332.78 3.16885 332.954 3.19025 333.102 3.2314C333.009 3.28408 332.873 3.31865 332.687 3.33346C332.594 3.34005 332.489 3.34498 332.39 3.34663C332.197 3.34992 332.024 3.32687 331.875 3.28572C331.968 3.23304 332.111 3.19848 332.29 3.18366C332.383 3.17708 332.489 3.17544 332.588 3.1705Z" fill="#FFE492"/>
<path d="M636.792 17.7753C636.786 17.7275 637.164 17.6732 637.505 17.6748C637.685 17.6765 637.871 17.6995 637.976 17.744C638.137 17.8115 638.044 17.8378 637.74 17.8329C637.554 17.8296 637.356 17.8576 637.17 17.8526C636.959 17.851 636.835 17.8148 636.792 17.7753Z" fill="#FFE492"/>
<path d="M546.332 12.2145C546.326 12.1964 546.295 12.175 546.313 12.1586C546.431 12.068 547.144 12.04 547.33 12.1191C547.361 12.1339 547.374 12.1586 547.349 12.1734C547.312 12.1964 547.243 12.226 547.169 12.2326C546.977 12.2491 546.779 12.2573 546.58 12.259C546.493 12.259 546.413 12.231 546.332 12.2145Z" fill="#FFE492"/>
<path d="M214.108 11.8606C213.376 11.8951 213.364 11.8918 213.494 11.8095C213.612 11.7354 213.829 11.691 214.145 11.691C214.238 11.691 214.337 11.6877 214.418 11.6943C214.504 11.7025 214.628 11.719 214.647 11.7387C214.684 11.7766 214.579 11.8177 214.393 11.8457C214.312 11.8589 214.207 11.8556 214.108 11.8606Z" fill="#FFE492"/>
<path d="M341.746 2.93875C341.529 2.96673 341.343 2.95686 341.207 2.90419C341.071 2.85151 341.288 2.78895 341.666 2.77414C341.765 2.77084 341.87 2.75769 341.963 2.76427C342.056 2.76921 342.149 2.78895 342.205 2.8087C342.304 2.84162 342.242 2.88608 342.044 2.92394C341.963 2.93876 341.845 2.93546 341.746 2.93875Z" fill="#FFE492"/>
<path d="M635.501 17.6519C635.557 17.6305 635.613 17.6091 635.675 17.5894C635.904 17.6173 636.003 17.6503 635.941 17.6881C635.904 17.7112 635.83 17.7309 635.774 17.7523C635.545 17.7243 635.452 17.6898 635.501 17.6519Z" fill="#FFE492"/>
<path d="M223.93 30.6001C223.93 30.5803 224.017 30.5491 224.085 30.5425C224.216 30.531 224.377 30.554 224.488 30.6001C224.643 30.6659 224.55 30.7005 224.265 30.6824C224.067 30.6692 223.93 30.6363 223.93 30.6001Z" fill="#FFE492"/>
<path d="M548.854 10.6821C548.934 10.6969 549.015 10.7117 549.089 10.7282C548.984 10.7891 548.854 10.8154 548.717 10.7989C548.631 10.7891 548.556 10.7693 548.476 10.7545C548.581 10.6936 548.705 10.6705 548.854 10.6821Z" fill="#FFE492"/>
<path d="M546.709 10.6081C546.833 10.5834 546.982 10.5966 547.156 10.6444C547.1 10.6658 547.05 10.6905 546.982 10.7069C546.864 10.7333 546.709 10.7201 546.542 10.6707C546.592 10.6509 546.647 10.6295 546.709 10.6081Z" fill="#FFE492"/>
<path d="M545.067 10.6802C545.148 10.695 545.229 10.7098 545.303 10.7263C545.198 10.7872 545.074 10.8135 544.931 10.7971C544.844 10.7872 544.77 10.7674 544.689 10.7526C544.795 10.6917 544.919 10.667 545.067 10.6802Z" fill="#FFE492"/>
<path d="M543.857 10.5932C543.95 10.6261 543.901 10.6656 543.721 10.7101C543.641 10.6953 543.548 10.6838 543.486 10.664C543.386 10.6327 543.436 10.5916 543.622 10.5471C543.696 10.5636 543.777 10.5784 543.857 10.5932Z" fill="#FFE492"/>
</svg>
