<svg width="174" height="38" viewBox="0 0 174 38" fill="none" xmlns="http://www.w3.org/2000/svg">
<path d="M128.897 28.0975C128.709 28.115 128.52 28.1271 128.336 28.1535C128.216 28.17 128.165 28.1216 128.085 28.0964C128.059 28.0876 128.03 28.07 128.005 28.0722C127.819 28.0898 127.633 28.1095 127.447 28.1293C127.39 28.1722 127.354 28.2293 127.267 28.2501C127.182 28.2699 127.081 28.2699 126.986 28.2798C126.861 28.2919 126.736 28.304 126.61 28.3149C126.548 28.3204 126.496 28.3413 126.476 28.3808C126.472 28.3874 126.513 28.4039 126.536 28.4138C126.612 28.4467 126.686 28.4841 126.77 28.5093C126.849 28.5335 126.948 28.494 127.034 28.5247C127.225 28.5939 127.227 28.5928 127.373 28.5796C127.499 28.5675 127.624 28.5544 127.749 28.5456C127.774 28.5434 127.802 28.5599 127.829 28.5686C127.909 28.5928 127.96 28.6477 128.077 28.6269C128.167 28.6104 128.265 28.6071 128.358 28.5983C128.436 28.6302 128.508 28.6664 128.592 28.6917C128.67 28.7158 128.692 28.7345 128.651 28.7663C128.613 28.796 128.56 28.8081 128.489 28.8103C128.427 28.8114 128.364 28.8213 128.301 28.8267C128.269 28.83 128.239 28.8322 128.208 28.8355C128.089 28.8476 128.089 28.8476 127.871 28.7773C127.785 28.7499 127.688 28.7883 127.607 28.7619C127.552 28.7444 127.504 28.718 127.451 28.6994C127.428 28.6917 127.392 28.6906 127.364 28.6928C127.269 28.7004 127.174 28.7059 127.083 28.7202C127.018 28.7301 126.98 28.7609 126.988 28.7916C126.99 28.8037 127.035 28.8213 127.062 28.8224C127.123 28.8246 127.187 28.8092 127.246 28.8169C127.303 28.8246 127.362 28.8465 127.404 28.8707C127.489 28.9212 127.586 28.8762 127.667 28.8894C127.753 28.9036 127.823 28.9476 127.905 28.9739C127.926 28.9805 127.965 28.9695 127.998 28.9662C128.091 28.9585 128.184 28.952 128.277 28.9443C128.355 28.9761 128.438 29.0047 128.508 29.0409C128.635 29.1068 128.772 29.1321 128.937 29.1002C129.03 29.0827 129.121 29.0892 129.195 29.1321C129.271 29.176 129.359 29.1716 129.455 29.1628C129.545 29.1541 129.636 29.1299 129.727 29.1606C129.924 29.2287 129.926 29.232 130.16 29.2057C130.23 29.198 130.283 29.1958 130.336 29.2211C130.385 29.2441 130.439 29.2639 130.49 29.2858C130.583 29.2782 130.678 29.2705 130.771 29.2617C130.89 29.2496 130.957 29.265 130.985 29.3265C131.002 29.3638 131.01 29.3979 131.052 29.4231C131.101 29.4539 131.154 29.4528 131.226 29.444C131.295 29.4363 131.344 29.4242 131.372 29.3847C131.384 29.3682 131.407 29.3528 131.427 29.3397C131.445 29.3298 131.471 29.3144 131.486 29.3166C131.515 29.321 131.553 29.3331 131.562 29.3473C131.655 29.4802 131.655 29.4814 131.75 29.5198C131.854 29.5626 131.963 29.6011 132.058 29.6494C132.143 29.6922 132.228 29.6736 132.321 29.6736C132.392 29.6736 132.437 29.7021 132.431 29.7307C132.428 29.7471 132.401 29.7713 132.378 29.7735C132.192 29.7955 132.004 29.8141 131.817 29.8295C131.794 29.8317 131.765 29.8119 131.739 29.8021C131.686 29.7823 131.638 29.7515 131.581 29.7449C131.524 29.7383 131.458 29.7548 131.395 29.7603C131.333 29.7658 131.266 29.7801 131.209 29.7713C131.152 29.7625 131.107 29.7307 131.054 29.7098C131.029 29.6999 130.995 29.6856 130.974 29.6889C130.835 29.7153 130.733 29.679 130.634 29.6307C130.613 29.6208 130.577 29.6142 130.551 29.6164C130.33 29.6351 130.112 29.6571 129.892 29.6779C129.803 29.6867 129.731 29.6483 129.712 29.5835C129.702 29.5472 129.683 29.511 129.683 29.4748C129.683 29.4089 129.579 29.3726 129.503 29.3803C129.378 29.3913 129.25 29.4001 129.127 29.4165C129.026 29.4297 128.941 29.4165 128.873 29.377C128.793 29.332 128.702 29.3408 128.611 29.3528C128.542 29.3616 128.523 29.3979 128.527 29.489C128.531 29.5626 128.499 29.5857 128.375 29.5978C128.22 29.6131 128.062 29.6285 127.905 29.6406C127.88 29.6428 127.852 29.6241 127.827 29.6142C127.774 29.5945 127.726 29.5626 127.669 29.556C127.612 29.5483 127.546 29.5648 127.483 29.5714C127.421 29.5769 127.354 29.5923 127.297 29.5846C127.24 29.5769 127.193 29.544 127.142 29.5231C127.117 29.5132 127.087 29.4989 127.062 29.5011C126.937 29.5099 126.811 29.5231 126.686 29.5352C126.546 29.5484 126.546 29.5484 126.346 29.4803C126.255 29.4495 126.164 29.4737 126.075 29.4825C125.98 29.4912 125.891 29.4956 125.817 29.4517C125.768 29.4231 125.713 29.4056 125.654 29.4111C125.496 29.4242 125.341 29.4407 125.183 29.4539C125.156 29.4561 125.12 29.4506 125.1 29.4407C124.999 29.3946 124.9 29.3583 124.76 29.3814C124.638 29.4012 124.507 29.4023 124.386 29.4209C124.319 29.4308 124.289 29.466 124.302 29.4934C124.31 29.5077 124.35 29.5242 124.376 29.5242C124.437 29.5253 124.504 29.5088 124.56 29.5154C124.678 29.5286 124.737 29.6208 124.891 29.5956C124.982 29.5802 125.077 29.5747 125.172 29.5703C125.196 29.5692 125.223 29.5901 125.249 29.6011C125.325 29.6307 125.392 29.6692 125.502 29.6494C125.593 29.634 125.69 29.6296 125.783 29.6208C125.931 29.6066 125.931 29.6077 126.123 29.6747C126.214 29.7065 126.305 29.6812 126.394 29.6736C126.46 29.6681 126.523 29.6571 126.576 29.6725C126.658 29.6955 126.717 29.7482 126.817 29.7449C126.912 29.7416 127.005 29.7263 127.1 29.7208C127.159 29.7175 127.214 29.7351 127.261 29.7647C127.311 29.7944 127.364 29.8075 127.428 29.801C127.521 29.7922 127.616 29.7812 127.711 29.7757C127.738 29.7746 127.768 29.7845 127.793 29.7933C127.846 29.813 127.897 29.8361 127.948 29.857C128.041 29.8504 128.136 29.8482 128.227 29.835C128.298 29.8251 128.347 29.8295 128.404 29.8515C128.476 29.8811 128.535 29.9339 128.653 29.9086C128.711 29.8965 128.78 29.8998 128.839 29.8888C128.911 29.8745 128.96 29.88 129.011 29.913C129.108 29.9756 129.23 29.9767 129.355 29.9525C129.491 29.9262 129.594 29.9569 129.696 30.0053C129.805 30.0558 129.805 30.0547 129.888 30.1766C129.913 30.2117 129.983 30.2282 130.042 30.2216C130.141 30.2106 130.226 30.2161 130.298 30.2579C130.374 30.3029 130.465 30.2974 130.558 30.2853C130.682 30.2688 130.805 30.2546 130.905 30.3183C130.955 30.349 131.008 30.3567 131.074 30.349C131.262 30.3292 131.452 30.3172 131.636 30.293C131.748 30.2776 131.813 30.3128 131.889 30.3424C131.991 30.3831 132.103 30.4193 132.103 30.5061C132.103 30.5204 132.13 30.5368 132.152 30.5478C132.202 30.5709 132.255 30.5906 132.306 30.6126C132.382 30.6456 132.456 30.673 132.561 30.6555C132.652 30.6412 132.748 30.6368 132.841 30.6269C132.934 30.617 133.02 30.6115 133.103 30.6533C133.2 30.7005 133.303 30.7455 133.413 30.7807C133.491 30.8059 133.593 30.7631 133.677 30.7971C133.728 30.818 133.777 30.8422 133.832 30.8597C133.855 30.8674 133.891 30.8619 133.921 30.8597C133.984 30.8553 134.049 30.8521 134.109 30.8411C134.18 30.829 134.233 30.8312 134.286 30.8565C134.335 30.8795 134.385 30.9114 134.441 30.918C134.527 30.9278 134.622 30.8839 134.707 30.9344C134.751 30.9597 134.806 30.9839 134.863 30.9915C134.92 30.9992 134.986 30.9827 135.047 30.9838C135.074 30.9838 135.106 31.0014 135.121 31.0157C135.13 31.0234 135.117 31.0443 135.104 31.0552C135.087 31.0684 135.062 31.086 135.037 31.0882C134.85 31.108 134.662 31.1244 134.474 31.1431C134.362 31.1541 134.362 31.1541 134.136 31.0849C134.083 31.0684 134.024 31.0717 133.957 31.0794C133.868 31.0893 133.777 31.108 133.684 31.0882C133.563 31.0135 133.413 31.0069 133.253 31.0355C133.187 31.0475 133.126 31.0476 133.077 31.0267C132.972 30.9849 132.862 30.9465 132.769 30.8971C132.697 30.8586 132.663 30.8554 132.633 30.9081C132.623 30.9245 132.614 30.9421 132.616 30.9575C132.627 31.0124 132.648 31.0662 132.659 31.1211C132.663 31.1365 132.648 31.1541 132.638 31.1706C132.608 31.2167 132.568 31.2134 132.502 31.175C132.435 31.1365 132.356 31.1113 132.249 31.1288C132.158 31.1442 132.059 31.142 131.968 31.1585C131.828 31.1827 131.729 31.1475 131.629 31.1003C131.608 31.0904 131.572 31.0849 131.545 31.0871C131.262 31.1124 130.981 31.1409 130.699 31.1662C130.638 31.1717 130.583 31.1552 130.535 31.1255C130.486 31.0959 130.431 31.0805 130.37 31.086C130.12 31.1091 129.869 31.1299 129.619 31.1585C129.516 31.1706 129.435 31.1563 129.364 31.1178C129.311 31.0893 129.262 31.0805 129.195 31.0838C129.123 31.0871 129.072 31.0981 129.036 31.1299C129.002 31.1607 129.026 31.1793 129.102 31.2035C129.184 31.2299 129.26 31.2639 129.338 31.2947C129.4 31.2903 129.463 31.2815 129.524 31.2826C129.55 31.2826 129.575 31.3024 129.602 31.3133C129.677 31.3452 129.748 31.3771 129.856 31.3595C129.947 31.3441 130.044 31.3408 130.137 31.3309C130.266 31.3188 130.266 31.3188 130.475 31.388C130.528 31.4056 130.585 31.4045 130.653 31.3946C130.712 31.3869 130.773 31.4023 130.814 31.4353C130.831 31.4484 130.826 31.4704 130.79 31.5429C130.79 31.5967 130.83 31.5726 130.843 31.5374C130.864 31.4869 130.824 31.4704 130.748 31.4979C130.695 31.5176 130.668 31.5462 130.682 31.5693C130.689 31.5813 130.725 31.5967 130.79 31.5429C130.957 31.477 131.084 31.4693 131.205 31.4517C131.277 31.4418 131.323 31.4462 131.38 31.4748C131.448 31.5088 131.517 31.5451 131.629 31.5275C131.75 31.5078 131.879 31.5055 132.003 31.4891C132.116 31.4737 132.175 31.522 132.247 31.5506C132.335 31.5846 132.431 31.5462 132.511 31.566C132.595 31.5857 132.654 31.6341 132.75 31.6428C132.891 31.6132 132.98 31.6681 133.086 31.7044C133.17 31.7318 133.268 31.7076 133.358 31.6956C133.458 31.6824 133.542 31.6945 133.612 31.734C133.692 31.779 133.781 31.7692 133.872 31.7593C134.085 31.7373 134.092 31.734 134.216 31.7944C134.305 31.8383 134.39 31.8186 134.479 31.8131C134.557 31.8427 134.633 31.8746 134.715 31.9009C134.736 31.9075 134.776 31.8966 134.808 31.8933C134.901 31.8845 134.996 31.8757 135.089 31.8669C135.151 31.8614 135.218 31.8449 135.275 31.8515C135.332 31.8592 135.379 31.8911 135.43 31.9119C135.482 31.9328 135.535 31.9537 135.584 31.9756C135.66 32.0086 135.732 32.036 135.838 32.0196C135.93 32.0053 136.024 32.0009 136.119 31.991C136.239 31.9789 136.235 31.9822 136.457 32.0481C136.577 32.0844 136.7 32.0404 136.822 32.036C136.882 32.0338 136.941 32.0459 136.983 32.0778C137 32.091 136.994 32.1129 137 32.1316C136.687 32.1613 136.372 32.1865 136.062 32.2228C135.943 32.237 135.88 32.1975 135.816 32.1645C135.709 32.1118 135.569 32.1887 135.468 32.1206C135.408 32.08 135.32 32.0569 135.216 32.0767C135.155 32.0877 135.091 32.0866 135.028 32.0964C134.869 32.1206 134.722 32.1217 134.595 32.0459C134.552 32.0196 134.489 32.0053 134.443 31.98C134.39 31.9526 134.339 31.9372 134.276 31.9427C133.994 31.969 133.713 31.9954 133.432 32.024C133.407 32.0261 133.382 32.0426 133.361 32.0547C133.308 32.0855 133.325 32.1096 133.411 32.1294C133.439 32.136 133.462 32.1503 133.489 32.1612C133.54 32.1821 133.587 32.2151 133.644 32.2228C133.701 32.2304 133.768 32.2151 133.83 32.2096C133.893 32.2041 133.959 32.1876 134.016 32.1942C134.073 32.2019 134.121 32.2337 134.174 32.2535C134.199 32.2634 134.229 32.2799 134.254 32.2788C134.379 32.2722 134.502 32.2601 134.627 32.2502C134.705 32.2799 134.772 32.3227 134.865 32.3326C134.924 32.3392 134.986 32.3271 135.047 32.3293C135.074 32.3304 135.108 32.3469 135.121 32.3611C135.129 32.3699 135.104 32.3919 135.085 32.4029C135.013 32.4446 134.914 32.4369 134.825 32.4501C134.728 32.4644 134.641 32.46 134.567 32.4172C134.517 32.3886 134.462 32.3732 134.402 32.3787C134.244 32.393 134.088 32.4095 133.931 32.4216C133.904 32.4238 133.872 32.4139 133.847 32.4062C133.648 32.3392 133.648 32.337 133.508 32.3513C133.301 32.3721 133.301 32.3721 133.162 32.3139C133.136 32.3029 133.107 32.2821 133.084 32.2832C132.864 32.3007 132.646 32.3183 132.428 32.3436C132.356 32.3513 132.306 32.3513 132.253 32.3227C132.208 32.2985 132.154 32.2711 132.097 32.2645C132.039 32.2579 131.974 32.2744 131.911 32.2799C131.849 32.2854 131.782 32.2996 131.727 32.2909C131.67 32.2821 131.621 32.2513 131.572 32.2294C131.52 32.2063 131.465 32.2074 131.395 32.2162C131.179 32.2414 131.177 32.2381 130.962 32.17C130.938 32.1623 130.906 32.1536 130.879 32.1558C130.721 32.1689 130.566 32.1854 130.408 32.1986C130.347 32.2041 130.289 32.1898 130.247 32.158C130.23 32.1448 130.236 32.1228 130.224 32.08C130.211 32.0701 130.226 32.0877 130.23 32.1041C130.258 32.1019 130.292 32.1041 130.313 32.0953C130.366 32.0745 130.393 32.047 130.38 32.024C130.372 32.0119 130.336 31.9965 130.313 31.9965C130.272 31.9965 130.236 32.0207 130.224 32.08C130.105 32.1162 129.977 32.1239 129.854 32.1415C129.782 32.1525 129.736 32.147 129.679 32.1184C129.611 32.0833 129.541 32.0492 129.429 32.0668C129.307 32.0866 129.178 32.0899 129.053 32.1052C128.909 32.1228 128.846 32.024 128.725 32.0262C128.599 32.0283 128.474 32.047 128.349 32.0602C128.239 32.0712 128.239 32.0712 128.011 31.9998C127.928 31.9734 127.829 32.0119 127.747 31.9844C127.692 31.9668 127.645 31.9405 127.592 31.9218C127.569 31.9141 127.533 31.9141 127.504 31.9163C127.347 31.9295 127.187 31.9383 127.035 31.9625C126.863 31.991 126.732 31.9603 126.608 31.8955C126.453 31.9075 126.295 31.9141 126.142 31.935C126.03 31.9504 125.965 31.9141 125.889 31.8845C125.862 31.8746 125.84 31.8581 125.811 31.8537C125.783 31.8493 125.749 31.8581 125.718 31.8614C125.593 31.8735 125.464 31.879 125.342 31.8988C125.192 31.924 125.136 31.8339 125.02 31.823C124.942 31.8768 124.9 31.9504 124.746 31.9559C124.621 31.9603 124.496 31.9778 124.371 31.9899C124.308 31.9954 124.245 32.002 124.183 32.0075C124.082 32.0174 124.035 32.0602 124.056 32.1261C124.067 32.1623 124.076 32.1986 124.086 32.2348C124.105 32.2996 124.057 32.3546 123.978 32.3622C123.758 32.3831 123.539 32.4051 123.319 32.4237C123.26 32.4292 123.203 32.4106 123.156 32.3809C123.107 32.3513 123.052 32.3381 122.991 32.3436C122.771 32.3644 122.552 32.3864 122.332 32.4051C122.308 32.4073 122.275 32.3963 122.251 32.3875C122.197 32.3677 122.146 32.3447 122.095 32.3238C121.97 32.3337 121.846 32.3403 121.723 32.3534C121.524 32.3732 121.524 32.3743 121.377 32.3139C121.351 32.3029 121.324 32.2821 121.3 32.2832C121.205 32.2876 121.112 32.2985 121.017 32.3084C120.738 32.337 120.738 32.337 120.656 32.304C120.582 32.2733 120.516 32.2359 120.404 32.2535C120.282 32.2733 120.153 32.2799 120.028 32.2909C119.935 32.2985 119.842 32.3073 119.749 32.3095C119.724 32.3106 119.698 32.2898 119.671 32.2788C119.595 32.2447 119.521 32.2173 119.417 32.2359C119.356 32.2469 119.292 32.2491 119.229 32.2546C119.066 32.27 119.066 32.27 118.798 32.2041C118.772 32.1975 118.739 32.1898 118.713 32.1931C118.493 32.2129 118.274 32.2348 118.054 32.2535C118.028 32.2557 117.995 32.2491 117.969 32.2436C117.669 32.1799 117.669 32.1799 117.35 32.2107C117.228 32.2217 117.225 32.2261 117.097 32.1678C117.041 32.1426 116.993 32.1305 116.927 32.1382C116.676 32.1645 116.424 32.1821 116.175 32.2129C116.063 32.2261 115.999 32.1931 115.923 32.1634C115.896 32.1536 115.868 32.1316 115.845 32.1327C115.594 32.1536 115.344 32.1788 115.093 32.1997C115.07 32.2019 115.042 32.1799 115.015 32.17C114.964 32.1503 114.915 32.1206 114.858 32.114C114.799 32.1074 114.734 32.1239 114.67 32.1294C114.512 32.1437 114.512 32.1426 114.33 32.0778C114.306 32.069 114.273 32.0569 114.249 32.0591C113.998 32.0811 113.746 32.0997 113.497 32.1316C113.355 32.1492 113.258 32.1173 113.157 32.0712C113.136 32.0613 113.1 32.0569 113.074 32.0591C112.791 32.0844 112.51 32.1129 112.227 32.1382C112.168 32.1437 112.111 32.125 112.064 32.0964C111.988 32.0514 111.899 32.0569 111.804 32.0668C111.586 32.0899 111.584 32.0888 111.455 32.036C111.428 32.0251 111.405 32.0108 111.377 32.0053C111.35 31.9998 111.316 32.0031 111.288 32.0053C111.162 32.0163 111.037 32.0283 110.912 32.0404C110.787 32.0525 110.659 32.0591 110.536 32.0778C110.384 32.1008 110.312 32.0294 110.206 31.9965C110.05 32.0108 109.891 32.0196 109.737 32.0426C109.619 32.0602 109.564 32.0119 109.487 31.9866C109.46 31.9778 109.431 31.9592 109.407 31.9614C109.124 31.9855 108.841 32.0119 108.56 32.0415C108.492 32.0481 108.446 32.0393 108.389 32.013C108.262 31.9537 108.257 31.9559 108.044 31.9778C107.951 31.9877 107.862 31.9965 107.782 31.9515C107.712 31.9108 107.626 31.9009 107.526 31.9141C107.402 31.9306 107.275 31.9394 107.15 31.9504C107.025 31.9625 106.9 31.9789 106.774 31.9844C106.674 31.9899 106.613 31.9383 106.533 31.9119C106.509 31.9042 106.474 31.9031 106.446 31.9053C106.321 31.9152 106.192 31.9229 106.07 31.9416C105.922 31.9646 105.84 31.9042 105.736 31.8691C105.713 31.8614 105.675 31.8658 105.647 31.8691C105.427 31.8889 105.208 31.9108 104.988 31.9317C104.91 31.902 104.831 31.8735 104.753 31.8438C104.628 31.8548 104.502 31.8669 104.377 31.8779C104.282 31.8867 104.185 31.89 104.096 31.9064C103.98 31.9284 103.923 31.8768 103.846 31.8515C103.819 31.8427 103.791 31.8241 103.766 31.8263C103.608 31.8383 103.451 31.8515 103.295 31.8702C103.147 31.8889 103.088 31.79 102.967 31.7911C102.842 31.7922 102.713 31.8065 102.591 31.8263C102.451 31.8493 102.352 31.8142 102.251 31.7669C102.23 31.7571 102.194 31.7516 102.168 31.7538C102.01 31.767 101.855 31.7834 101.697 31.7966C101.671 31.7988 101.638 31.7933 101.612 31.7867C101.312 31.7219 101.312 31.7208 101.181 31.734C101.088 31.7428 100.993 31.7538 100.898 31.7593C100.871 31.7615 100.839 31.7516 100.814 31.7428C100.617 31.6758 100.617 31.6747 100.475 31.6879C100.349 31.7 100.224 31.712 100.099 31.7241C100.021 31.6945 99.9414 31.6659 99.8636 31.6363C99.7079 31.6505 99.5485 31.6615 99.3948 31.6813C99.3227 31.6901 99.2752 31.6868 99.2202 31.6593C99.1518 31.6264 99.0835 31.5879 98.9696 31.6066C98.8482 31.6264 98.7191 31.6286 98.5957 31.645C98.4477 31.6648 98.3869 31.5649 98.2674 31.566C98.1421 31.5671 98.013 31.5813 97.8916 31.6011C97.7511 31.6242 97.6524 31.589 97.5518 31.5418C97.5309 31.5319 97.4949 31.5264 97.4683 31.5286C97.1229 31.5605 96.7794 31.5923 96.4339 31.6264C96.2213 31.6472 96.2213 31.6483 95.8171 31.5879C95.7886 31.5835 95.7582 31.5791 95.7297 31.5813C95.6044 31.5912 95.4754 31.5989 95.3539 31.6176C95.2059 31.6406 95.1243 31.5813 95.0199 31.5451C94.9971 31.5374 94.961 31.5418 94.9307 31.544C94.8358 31.5517 94.7428 31.5616 94.6479 31.5704C94.5226 31.5824 94.3973 31.5945 94.2721 31.6066C94.1942 31.578 94.1145 31.5484 94.0367 31.5198C93.8811 31.5341 93.7216 31.5418 93.5679 31.5649C93.4502 31.5824 93.3952 31.5363 93.3174 31.5099C93.2908 31.5012 93.2623 31.4825 93.2377 31.4836C92.9548 31.5078 92.6721 31.533 92.3912 31.5638C92.2754 31.5769 92.2222 31.5275 92.1444 31.5023C92.1178 31.4946 92.0875 31.4803 92.0628 31.4825C91.8749 31.4979 91.687 31.5165 91.4991 31.5352C91.3928 31.5462 91.3928 31.5462 91.1612 31.4781C91.1347 31.4704 91.1043 31.4627 91.0777 31.4649C90.4818 31.5198 89.8877 31.578 89.2917 31.633C89.231 31.6384 89.1759 31.622 89.1285 31.5923C89.0791 31.5627 89.0241 31.5473 88.9633 31.5528C88.7128 31.5758 88.4604 31.5967 88.2117 31.6253C88.1092 31.6374 88.0276 31.6231 87.9574 31.5846C87.9042 31.5561 87.8549 31.5451 87.7885 31.5517C87.6632 31.5649 87.538 31.5758 87.4127 31.5879C87.2874 31.6 87.1622 31.6121 87.0369 31.6242C86.9116 31.6363 86.7845 31.6428 86.6611 31.6615C86.5092 31.6846 86.4352 31.6165 86.3308 31.5824C86.1429 31.5989 85.955 31.6154 85.769 31.633C85.5184 31.656 85.2679 31.6813 85.0174 31.7033C84.9946 31.7054 84.9661 31.6857 84.9396 31.6758C84.8618 31.6483 84.8048 31.6099 84.689 31.622C84.1272 31.6802 83.5616 31.7296 82.9979 31.7867C82.8802 31.7988 82.829 31.7516 82.7493 31.7263C82.7227 31.7186 82.6923 31.7033 82.6677 31.7055C82.3545 31.7329 82.0413 31.7637 81.7282 31.7933C81.601 31.8054 81.601 31.8054 81.3884 31.7373C81.3637 31.7296 81.3314 31.7197 81.3049 31.7219C80.8968 31.7593 80.4906 31.7988 80.0826 31.8372C80.0218 31.8427 79.9668 31.8274 79.9175 31.7977C79.87 31.7681 79.813 31.7516 79.7542 31.7571C79.3784 31.7922 79.0007 31.8263 78.6268 31.8647C78.5262 31.8757 78.4427 31.8658 78.3706 31.8263C78.3193 31.7977 78.2681 31.7856 78.2036 31.7922C77.6398 31.846 77.0761 31.8977 76.5124 31.9548C76.4042 31.9658 76.3283 31.9449 76.26 31.9086C76.205 31.8801 76.1575 31.8746 76.0891 31.879C76.017 31.8845 75.9734 31.8965 75.9335 31.9295C75.8823 31.9723 75.85 32.0262 75.7285 32.0294C75.6033 32.0327 75.4761 32.0459 75.3527 32.0646C75.2351 32.0833 75.18 32.0338 75.106 32.0042C75.051 31.9833 74.9997 31.98 74.9295 31.9899C74.865 31.9987 74.8251 32.0174 74.7871 32.0525C74.7036 32.1272 74.696 32.1272 74.5935 32.08C74.5385 32.0547 74.4891 32.0349 74.4284 32.0393C74.1779 32.0613 73.9273 32.0855 73.6768 32.1107C73.5325 32.125 73.5307 32.1272 73.4225 32.0723C73.3693 32.0448 73.3181 32.0316 73.2554 32.0382C72.5665 32.1041 71.8775 32.1678 71.1885 32.237C71.0822 32.248 71.0101 32.2249 70.9342 32.192C70.9095 32.181 70.8848 32.1656 70.8564 32.1612C70.8279 32.1568 70.7956 32.1612 70.7653 32.1634C70.2642 32.2107 69.7612 32.2557 69.262 32.3084C69.1481 32.3205 69.0874 32.2854 69.0096 32.2568C68.9831 32.2469 68.9602 32.2315 68.9318 32.2272C68.9033 32.2239 68.8691 32.2315 68.8388 32.2348C68.3377 32.2821 67.8347 32.3271 67.3356 32.3798C67.216 32.3919 67.1647 32.3458 67.0869 32.3216C67.0603 32.3128 67.0319 32.2963 67.0072 32.2985C66.8497 32.3106 66.6941 32.3271 66.5365 32.3414C66.1607 32.3776 65.7849 32.4117 65.4091 32.449C65.2648 32.4633 65.2022 32.3655 65.0807 32.3699C64.9232 32.3754 64.7675 32.3974 64.61 32.4128C64.4847 32.4248 64.3595 32.4358 64.2342 32.449C64.1108 32.4611 64.1108 32.4611 63.8034 32.3974C63.7768 32.3919 63.7445 32.3842 63.718 32.3864C63.2795 32.427 62.8392 32.4677 62.4027 32.5116C62.3021 32.5215 62.2185 32.516 62.1464 32.4754C62.0952 32.4468 62.042 32.4325 61.9794 32.4391C61.3208 32.5017 60.6641 32.5643 60.0054 32.6258C59.9808 32.628 59.9485 32.6171 59.9238 32.6083C59.8707 32.5885 59.8194 32.5654 59.7682 32.5446C59.7302 32.5698 59.6809 32.5929 59.6562 32.6214C59.6221 32.6599 59.5765 32.6709 59.5044 32.6775C59.4323 32.6841 59.3867 32.6819 59.3298 32.6533C59.2615 32.6182 59.1912 32.5907 59.0792 32.6017C58.3903 32.6709 57.7013 32.7335 57.0123 32.8016C56.8984 32.8126 56.8453 32.7642 56.7656 32.739C56.739 32.7313 56.7086 32.7192 56.6839 32.7214C56.4011 32.7467 56.1202 32.7741 55.8374 32.8005C55.0536 32.8752 54.2697 32.9466 53.4877 33.0256C53.3454 33.0399 53.2486 33.0124 53.148 32.9652C53.1271 32.9553 53.091 32.9498 53.0645 32.952C51.9674 33.0553 50.8704 33.1596 49.7752 33.264C49.7164 33.2695 49.6594 33.2519 49.612 33.2233C49.5626 33.1937 49.5076 33.1794 49.4469 33.1849C48.9458 33.2321 48.4447 33.2793 47.9437 33.3277C47.8184 33.3398 47.8165 33.3408 47.6874 33.2881C47.6608 33.2771 47.6324 33.2563 47.6115 33.2585C47.5678 33.264 47.5261 33.2914 47.4957 33.3288C47.4653 33.3683 47.4179 33.3793 47.3477 33.387C47.2755 33.3947 47.2281 33.3914 47.1731 33.365C47.1028 33.3321 47.0383 33.3002 46.9244 33.3112C45.4838 33.4518 44.0432 33.5869 42.6026 33.7263C42.4869 33.7373 42.4337 33.6912 42.354 33.6659C42.3274 33.6583 42.3009 33.6473 42.2724 33.6451C42.242 33.6429 42.2098 33.6495 42.1794 33.6528C39.8297 33.8757 37.4799 34.0998 35.1302 34.3227C34.9898 34.3359 34.9917 34.3359 34.8379 34.437C34.8189 34.4491 34.7942 34.4655 34.7677 34.4677C34.0483 34.538 33.3271 34.6061 32.6059 34.6742C32.2927 34.7039 31.9795 34.7346 31.6664 34.7632C31.5544 34.7731 31.5544 34.7731 31.2868 34.8917C31.264 34.9016 31.2374 34.9147 31.2108 34.9169C29.9581 35.0367 28.7054 35.1564 27.4508 35.2739C27.3521 35.2827 27.2724 35.3024 27.2269 35.3552C27.1946 35.3925 27.1529 35.4145 27.0902 35.4211C26.2134 35.5045 25.3365 35.5891 24.4577 35.6704C24.3533 35.6803 24.2907 35.711 24.2394 35.7572C24.2223 35.7725 24.2072 35.7901 24.1825 35.8011C24.1597 35.811 24.1255 35.8143 24.0971 35.8176C23.3455 35.8889 22.5939 35.9625 21.8404 36.0306C21.7284 36.0405 21.6828 36.0812 21.6278 36.124C21.6088 36.1383 21.5955 36.158 21.5708 36.1679C21.5461 36.1767 21.5101 36.1767 21.4797 36.1789C20.8534 36.2382 20.2271 36.2986 19.6007 36.3579C19.4792 36.3524 19.4527 36.4161 19.3938 36.4546C19.3729 36.4678 19.3578 36.4853 19.3331 36.4941C19.3065 36.5029 19.2723 36.5018 19.2401 36.504C18.739 36.5512 18.2379 36.6018 17.735 36.6457C17.6192 36.6556 17.5964 36.7116 17.5338 36.75C17.5129 36.7621 17.492 36.7808 17.4674 36.7841C17.1542 36.8159 16.841 36.8456 16.5279 36.8741C16.4235 36.884 16.4235 36.8829 16.2394 36.9917C16.2185 37.0037 16.1938 37.0169 16.1672 37.0202C15.6984 37.0663 15.2277 37.1103 14.757 37.1553C14.6963 37.1608 14.6545 37.1872 14.6241 37.2245C14.5938 37.2618 14.5501 37.286 14.4894 37.2915C14.1136 37.3277 13.7378 37.3651 13.3619 37.398C13.2576 37.4068 13.1892 37.4343 13.1437 37.4837C13.1095 37.5211 13.0678 37.5397 13.0013 37.5463C12.6255 37.5815 12.2497 37.6199 11.872 37.6507C11.762 37.6594 11.705 37.6968 11.6594 37.7429C11.6234 37.7803 11.5816 37.7934 11.5114 37.8C10.8224 37.8637 10.1316 37.9274 9.44448 37.9977C9.3287 38.0098 9.26985 37.9714 9.19393 37.9439C9.08574 37.9055 8.98518 37.8637 8.98518 37.778C8.98518 37.7649 8.9529 37.7495 8.93013 37.7385C8.76121 37.6561 8.7612 37.6561 8.73463 37.5683C8.71944 37.5145 8.70236 37.4595 8.68908 37.4046C8.6644 37.3146 8.60365 37.2915 8.42903 37.308C8.36639 37.3135 8.30376 37.3211 8.24113 37.3255C8.14813 37.3332 8.07791 37.297 8.06083 37.2311C8.05134 37.1948 8.03997 37.1586 8.03048 37.1224C8.12538 37.1136 8.12345 37.1125 8.29048 36.9796C8.3607 36.9236 8.36073 36.9236 8.22598 36.8676C8.17473 36.8467 8.12537 36.8236 8.07033 36.8038C8.04565 36.7951 8.0134 36.7896 7.98682 36.7918C7.82929 36.8049 7.67366 36.8203 7.51802 36.8357C7.26749 36.8599 7.26746 36.8599 7.01312 36.7478C6.99225 36.739 6.95998 36.7226 6.96377 36.7138C6.98465 36.6731 7.03589 36.6556 7.10042 36.6512C7.19532 36.6446 7.28832 36.6336 7.38133 36.6248C7.44396 36.6193 7.50659 36.6127 7.56923 36.6073C7.62806 36.5655 7.68883 36.5249 7.74387 36.482C7.83118 36.4161 7.83115 36.4139 7.71158 36.3678C7.63566 36.3371 7.55404 36.3096 7.47623 36.281C7.38322 36.2898 7.28833 36.2997 7.19532 36.3074C7.07765 36.3173 7.03019 36.2964 6.99982 36.225C6.97325 36.1624 7.00552 36.1086 7.09662 36.0954C7.18963 36.0823 7.27697 36.0735 7.32442 36.0175C7.36997 35.9636 7.44968 35.9428 7.54837 35.9384C7.61101 35.9351 7.67364 35.9274 7.73628 35.9208C7.81789 35.912 7.86156 35.856 7.84447 35.7934C7.83498 35.7528 7.816 35.7187 7.74197 35.7099C7.41362 35.6715 7.4098 35.6726 7.24657 35.5979C7.23139 35.5913 7.22003 35.5715 7.22572 35.5616C7.23521 35.5452 7.2561 35.521 7.27887 35.5177C7.49714 35.4936 7.7154 35.4716 7.93368 35.4551C8.0058 35.4496 8.05895 35.4419 8.08362 35.4013C8.11779 35.3453 8.1026 35.2937 8.03617 35.2552C8.0153 35.2431 7.9811 35.2278 7.95833 35.2289C7.70779 35.2486 7.45916 35.2739 7.20862 35.2937C7.18585 35.2958 7.14411 35.2772 7.13462 35.2629C7.11564 35.2365 7.14409 35.2014 7.21052 35.1893C7.29783 35.1728 7.38704 35.1717 7.44587 35.1168C7.52749 35.0388 7.62807 34.9675 7.71918 34.8928C7.73436 34.8796 7.75907 34.8543 7.75337 34.8521C7.70592 34.828 7.65087 34.8093 7.60152 34.7862C7.51801 34.7478 7.518 34.694 7.53698 34.6424C7.55216 34.6006 7.6091 34.5841 7.67933 34.5841C7.70969 34.5841 7.74765 34.5841 7.77233 34.5743C7.83686 34.5501 7.85774 34.5193 7.82548 34.4963C7.8065 34.4831 7.77235 34.4644 7.74957 34.4666C7.3434 34.5029 6.9353 34.538 6.53102 34.583C6.41145 34.5962 6.35644 34.5545 6.28432 34.5248C6.22928 34.5018 6.178 34.493 6.10967 34.5095C6.04514 34.5248 5.98253 34.5161 5.94267 34.4798C5.9104 34.4502 5.96733 34.4249 6.12107 34.3963C6.14954 34.3908 6.18179 34.3875 6.20267 34.3766C6.42284 34.2579 6.42283 34.2568 6.57467 34.2415C6.72272 34.2272 6.72275 34.2261 6.80057 34.1624C6.83663 34.1327 6.87646 34.1031 6.91062 34.0723C6.92391 34.0602 6.94671 34.0383 6.93912 34.0317C6.89737 33.9976 6.8404 33.99 6.77397 33.9976C6.62593 34.0163 6.45134 34.0009 6.37352 34.1053C6.34315 34.1448 6.2957 34.1558 6.22737 34.1624C5.54029 34.2261 4.85319 34.2942 4.16421 34.3557C4.05223 34.3656 4.00102 34.4062 3.95736 34.4513C3.9194 34.4886 3.87764 34.4996 3.80551 34.5062C3.73339 34.5128 3.67642 34.5161 3.63466 34.4798C3.60999 34.4578 3.63087 34.4271 3.68781 34.3963C3.76943 34.3524 3.75424 34.2975 3.72766 34.2459C3.70868 34.2118 3.64985 34.1877 3.58721 34.1898C3.49421 34.1942 3.40503 34.2063 3.32721 34.1624C3.28166 34.1371 3.22471 34.1195 3.17346 34.0976C3.07476 34.0525 2.97606 34.0064 2.83751 34.0361C2.74261 34.0251 2.67618 33.9856 2.60026 33.9548C2.47309 33.9043 2.4617 33.8966 2.55281 33.8428C2.6553 33.7824 2.57557 33.7033 2.63251 33.644C2.69325 33.5803 2.77679 33.5243 2.85081 33.465C2.86979 33.4496 2.88688 33.4353 2.90586 33.4199C2.8622 33.398 2.82235 33.3705 2.77111 33.3551C2.70468 33.3354 2.67051 33.3112 2.67431 33.2431C2.66102 33.2332 2.66668 33.2585 2.68186 33.2651C2.69894 33.2716 2.74073 33.2662 2.76161 33.2585C2.81475 33.2376 2.8413 33.2101 2.82801 33.1871C2.82042 33.175 2.78438 33.1596 2.76161 33.1596C2.71985 33.1596 2.6838 33.1838 2.67241 33.2431C2.45983 33.2881 2.23963 33.3101 2.01946 33.3277C1.99668 33.3299 1.96823 33.3079 1.94166 33.2969C1.85435 33.2596 1.85434 33.2607 1.59811 33.2497C1.57153 33.2486 1.53549 33.2332 1.5222 33.2178C1.46716 33.1508 1.46908 33.0772 1.4425 33.0059C1.49185 32.9597 1.54116 32.9147 1.59241 32.8697C1.6949 32.7785 1.82779 32.6983 1.90751 32.5984C1.89042 32.5446 1.86764 32.4907 1.95116 32.4468C2.18841 32.3919 2.18652 32.3919 2.25106 32.3392C2.43516 32.1898 2.61736 32.0393 2.80906 31.8922C2.8603 31.8537 2.86031 31.8329 2.76921 31.8164C2.74074 31.812 2.71033 31.8109 2.67996 31.8131C2.58506 31.8208 2.49016 31.8405 2.39716 31.8361C2.30416 31.8328 2.23583 31.7845 2.15991 31.7549C2.08209 31.7241 2.00428 31.6923 1.92646 31.6604C1.83725 31.6637 1.74806 31.6945 1.65886 31.645C1.59053 31.6066 1.50512 31.5791 1.4273 31.5473C1.48614 31.4638 1.59624 31.4001 1.68165 31.3265C1.75947 31.2595 1.76133 31.2606 1.97011 31.209C2.0688 31.1848 2.10297 31.0607 2.01946 31.0245C1.91886 30.9806 1.8126 30.9399 1.71011 30.8982C1.6209 30.9015 1.52981 30.9311 1.4444 30.8817C1.37797 30.8444 1.30204 30.8191 1.19195 30.8334C1.00595 30.8575 0.816154 30.8696 0.628251 30.8894C0.563719 30.896 0.493472 30.8916 0.465002 30.8543C0.446022 30.8279 0.501068 30.7916 0.563702 30.784C0.658603 30.773 0.744004 30.7598 0.791454 30.7049C0.837006 30.65 0.920509 30.6335 1.01921 30.6258C1.04578 30.6236 1.07617 30.6104 1.08945 30.5972C1.15778 30.5335 1.23371 30.4786 1.37985 30.4808C1.44059 30.4589 1.47284 30.4314 1.45386 30.405C1.44247 30.3908 1.40263 30.3721 1.37985 30.3743C1.22232 30.3853 1.06479 30.3963 0.911052 30.416C0.838928 30.4248 0.783856 30.427 0.738304 30.3941C0.706038 30.3721 0.723118 30.3424 0.783854 30.3106C0.836999 30.2831 0.852199 30.2513 0.848403 30.2139C0.838913 30.1272 0.781962 30.1019 0.599753 30.1074C0.468791 30.1118 0.436523 30.0975 0.408053 30.0228C0.400461 30.0052 0.381514 29.9811 0.3948 29.969C0.476414 29.8943 0.529562 29.8021 0.683301 29.7669C0.744037 29.7537 0.808543 29.7537 0.846503 29.7252C0.884463 29.6966 0.918644 29.6637 0.958502 29.6362C1.00785 29.6033 1.04198 29.5725 1.01921 29.5516C0.981245 29.5143 0.920529 29.511 0.850303 29.5242C0.789567 29.5352 0.725037 29.5363 0.662402 29.5429C0.55042 29.5549 0.459336 29.5264 0.44605 29.4781C0.409988 29.3507 0.372017 29.2243 0.339751 29.0969C0.335955 29.0816 0.345419 29.0618 0.360603 29.0486C0.413747 29.0025 0.470709 28.9585 0.525751 28.9135C0.590284 28.8619 0.692793 28.8718 0.780101 28.8619C0.903471 28.8476 0.903429 28.8487 1.06856 28.7433C1.13309 28.7015 1.24508 28.718 1.31151 28.6807C1.33238 28.6686 1.36465 28.6488 1.35896 28.6378C1.35136 28.6236 1.31342 28.6126 1.28495 28.606C1.25838 28.5994 1.22612 28.5961 1.19765 28.5994C0.852216 28.6313 0.508686 28.6653 0.163249 28.6961C0.104411 28.7015 0.0398767 28.6774 0.0189986 28.6433C-0.00187947 28.6115 0.00379601 28.573 0 28.5368C0.0550422 28.4918 0.117652 28.45 0.165102 28.4017C0.201165 28.3644 0.242928 28.3479 0.315052 28.3457C0.409953 28.3424 0.502964 28.3292 0.609253 28.3193C0.806645 28.159 1.00023 27.9909 1.21281 27.8306C1.29822 27.7658 1.27737 27.6999 1.29445 27.6307C1.31154 27.567 1.43869 27.5769 1.5241 27.5582C1.59243 27.5428 1.61518 27.5077 1.58861 27.4835C1.57342 27.4692 1.53928 27.4527 1.51271 27.4527C1.45007 27.4527 1.38744 27.4626 1.3248 27.4681C1.26217 27.4736 1.19005 27.4703 1.1388 27.489C1.08946 27.5066 1.05717 27.5439 1.0249 27.5758C0.988843 27.6109 0.941426 27.623 0.869302 27.6252C0.776299 27.6274 0.683303 27.6373 0.5903 27.645C0.487808 27.6021 0.381497 27.5604 0.282801 27.5154C0.263821 27.5066 0.260005 27.4813 0.261903 27.4648C0.265699 27.422 0.237236 27.3956 0.174602 27.3748C0.121458 27.3572 0.0777997 27.3319 0.0284516 27.31C0.0664117 27.2803 0.108183 27.2518 0.138551 27.2199C0.204981 27.1529 0.288503 27.1046 0.432751 27.1068C0.489691 27.064 0.53523 27.0112 0.609253 26.9816C0.679479 26.953 0.799059 26.9816 0.852203 26.9168C0.878775 26.8849 0.918655 26.8487 0.969902 26.8355C1.05152 26.8146 1.1578 26.8256 1.20525 26.7641C1.23372 26.729 1.27546 26.6971 1.3305 26.6883C1.39314 26.6784 1.45765 26.6762 1.50321 26.6554C1.52788 26.6444 1.55446 26.6268 1.55446 26.6114C1.55446 26.6016 1.51653 26.5862 1.48995 26.5796C1.46528 26.5719 1.43298 26.5664 1.40451 26.5686C1.30961 26.5752 1.21661 26.5873 1.1217 26.5939C1.09513 26.5961 1.06477 26.5884 1.0363 26.5818C0.952792 26.5642 0.958475 26.5423 1.0249 26.5027C1.09134 26.4643 1.13881 26.4148 1.19385 26.3698C1.25459 26.3621 1.3305 26.3654 1.37225 26.3445C1.44248 26.3105 1.49182 26.2611 1.54876 26.2182C1.61139 26.2116 1.67592 26.2095 1.73476 26.1974C1.75943 26.193 1.77083 26.1688 1.79171 26.1545C1.82967 26.1271 1.86196 26.0875 1.91321 26.0744C1.99672 26.0546 2.09921 26.0623 2.14856 26.0019C2.17703 25.9667 2.22066 25.9294 2.27381 25.9272C2.42185 25.9228 2.48449 25.8624 2.56041 25.8053C2.61735 25.7624 2.73882 25.7844 2.80146 25.7416C2.84322 25.7141 2.8736 25.6801 2.91536 25.6537C2.93244 25.6427 2.96849 25.6372 2.99696 25.6339C3.1526 25.6175 3.31012 25.6054 3.46576 25.5878C3.49044 25.5845 3.51323 25.568 3.53221 25.5549C3.57207 25.5263 3.59671 25.4868 3.64606 25.4681C3.69541 25.4494 3.76563 25.4494 3.82636 25.4439C4.02186 25.4275 4.03706 25.4318 4.12626 25.3385C4.19839 25.2627 4.37492 25.3165 4.43376 25.233C4.46793 25.1847 4.53053 25.1452 4.64252 25.1397C4.80005 25.132 4.95568 25.1111 5.11322 25.0969C5.25367 25.0837 5.25178 25.0837 5.40362 24.9815C5.47195 24.9354 5.57256 24.942 5.66177 24.9332C5.75667 24.9244 5.84397 24.9112 5.88952 24.8563C5.93507 24.8025 6.01857 24.7849 6.11537 24.7772C6.20458 24.7696 6.30519 24.7751 6.37542 24.7311C6.54624 24.6257 6.54435 24.6246 6.66392 24.6136C6.85182 24.596 7.03972 24.5784 7.22762 24.5598C7.35289 24.5477 7.48385 24.5455 7.60152 24.5213C7.68693 24.5038 7.72488 24.4423 7.77993 24.3994C7.93556 24.383 8.09119 24.3665 8.24683 24.3511C8.4651 24.3291 8.68526 24.3094 8.90543 24.2885C9.00033 24.2468 9.01365 24.1545 9.17308 24.1501C9.26798 24.1479 9.36098 24.1336 9.45588 24.1248C9.61341 24.1095 9.76905 24.0897 9.92658 24.082C10.0462 24.0765 10.067 24.0172 10.1296 23.9799C10.1505 23.9667 10.1695 23.948 10.1942 23.9447C10.4409 23.914 10.6952 23.9074 10.9363 23.8623C10.961 23.858 10.9837 23.8349 10.9894 23.8184C10.9932 23.8096 10.961 23.7932 10.9401 23.7855C10.9154 23.7767 10.8832 23.7679 10.8566 23.7701C10.0727 23.8437 9.28885 23.9184 8.50498 23.992C8.39489 24.0029 8.39489 24.0018 8.12728 24.1226C8.1045 24.1325 8.0779 24.1435 8.04943 24.1468C7.92416 24.16 7.797 24.1677 7.67363 24.1842C7.57303 24.1973 7.48955 24.1841 7.41742 24.1446C7.36618 24.1161 7.31301 24.1073 7.24847 24.1095C7.17635 24.1128 7.12893 24.1249 7.08717 24.1545C7.03213 24.1951 7.00365 24.2479 6.88787 24.2588C6.35453 24.3061 5.82116 24.3588 5.28972 24.4093C5.2157 24.3939 5.17964 24.3709 5.19862 24.3434C5.21001 24.3269 5.23279 24.305 5.25557 24.3028C5.47384 24.2797 5.694 24.2599 5.91227 24.238C5.94264 24.2347 5.98439 24.2369 6.00147 24.2259C6.08498 24.1765 6.11539 24.0963 6.27292 24.0908C6.36402 24.0875 6.45701 24.071 6.54432 24.0557C6.569 24.0513 6.59178 24.0282 6.59747 24.0117C6.59937 24.0029 6.569 23.9865 6.54622 23.9788C6.46271 23.9469 6.36593 23.9854 6.28242 23.9634C6.25395 23.9557 6.21407 23.9447 6.20837 23.9315C6.20458 23.9195 6.23684 23.8997 6.25962 23.8876C6.2805 23.8766 6.30895 23.8667 6.33742 23.8634C6.58796 23.8382 6.83853 23.8118 7.08907 23.7921C7.19156 23.7844 7.26367 23.7569 7.30922 23.7064C7.34339 23.669 7.38514 23.6493 7.44967 23.6438C7.88811 23.6031 8.32654 23.5581 8.76688 23.5208C8.87696 23.512 8.93393 23.4757 8.97948 23.4285C9.01554 23.3912 9.0573 23.378 9.12753 23.3714C9.75577 23.3143 10.3802 23.2506 11.0084 23.1957C11.1242 23.1858 11.1584 23.1386 11.2172 23.0979C11.2381 23.0836 11.2514 23.0661 11.2779 23.0573C11.3045 23.0485 11.3387 23.0496 11.3709 23.0474C11.872 23.0002 12.3731 22.9496 12.8761 22.9057C12.9938 22.8958 13.0165 22.8409 13.0772 22.8025C13.0981 22.7904 13.1171 22.7706 13.1418 22.7673C13.5176 22.73 13.8934 22.6948 14.2692 22.6586C14.5197 22.6344 14.7703 22.6103 15.0208 22.5872C15.1442 22.5762 15.1442 22.5751 15.3112 22.4708C15.3302 22.4587 15.3568 22.4444 15.3814 22.4411C16.1027 22.3708 16.822 22.3038 17.5433 22.2346C17.604 22.2292 17.6476 22.2039 17.678 22.1665C17.7084 22.1292 17.7521 22.1039 17.8109 22.0984C18.3746 22.0435 18.9383 21.9897 19.5039 21.9381C19.6064 21.9293 19.6785 21.9029 19.7241 21.8535C19.7582 21.8162 19.8 21.7964 19.8645 21.7909C20.4282 21.7382 20.992 21.6822 21.5576 21.6317C21.6658 21.6218 21.7189 21.5844 21.772 21.5405C21.791 21.5251 21.8062 21.4999 21.829 21.4977C22.1099 21.4669 22.3889 21.4351 22.6717 21.4142C22.7894 21.4054 22.8292 21.3593 22.8767 21.3153C22.9146 21.2802 22.9583 21.2681 23.0304 21.2637C23.188 21.2538 23.3436 21.2352 23.4973 21.2165C23.5201 21.2132 23.5486 21.189 23.5505 21.1737C23.5543 21.1451 23.5106 21.1253 23.4385 21.1155C22.6869 21.1868 21.9334 21.2582 21.1818 21.3296C21.0584 21.3417 21.0584 21.3417 20.8914 21.446C20.8724 21.4581 20.8458 21.4724 20.8192 21.4757C20.098 21.5449 19.3787 21.613 18.6574 21.6822C18.5967 21.6877 18.553 21.7129 18.5227 21.7503C18.4923 21.7876 18.4486 21.8129 18.3898 21.8184C17.7008 21.8843 17.0118 21.9513 16.321 22.0139C16.2185 22.0227 16.1464 22.0479 16.1008 22.0984C16.0666 22.1358 16.0249 22.1556 15.9604 22.1611C15.3017 22.2226 14.645 22.2874 13.9845 22.3467C13.9181 22.3522 13.8687 22.3203 13.8725 22.2906C13.8744 22.2753 13.9029 22.25 13.9256 22.2478C14.2692 22.2116 14.6109 22.1742 14.9563 22.1468C15.0721 22.138 15.1062 22.0897 15.1651 22.049C15.184 22.0347 15.1992 22.0161 15.2239 22.0084C15.2505 21.9996 15.2846 22.0007 15.3169 21.9985C16.1311 21.9205 16.9454 21.8414 17.7616 21.7679C17.8792 21.7569 17.902 21.7031 17.9627 21.6646C17.9836 21.6514 18.0026 21.6317 18.0273 21.6295C18.2778 21.6031 18.5283 21.58 18.7789 21.557C19.2173 21.5152 19.6557 21.4735 20.0961 21.4318C20.2232 21.4197 20.2232 21.4197 20.3865 21.3164C20.4054 21.3044 20.432 21.289 20.4567 21.2868C21.6164 21.1759 22.7761 21.0649 23.9358 20.9551C23.9965 20.9496 24.0402 20.9243 24.0705 20.887C24.1009 20.8508 24.1445 20.8244 24.2034 20.8178C25.7711 20.6684 27.337 20.5191 28.9047 20.3719C29.0072 20.362 29.0793 20.3389 29.1249 20.2873C29.1572 20.25 29.2008 20.2302 29.2653 20.2236C30.9887 20.06 32.7121 19.8963 34.4374 19.7316C35.5971 19.6217 36.7568 19.5097 37.9165 19.4021C38.0228 19.3922 38.0797 19.3581 38.1328 19.3131C38.1499 19.2977 38.167 19.2725 38.1898 19.2703C38.4384 19.2428 38.687 19.2176 38.9357 19.1923C39.0135 19.2219 39.0913 19.2505 39.1691 19.2802C39.228 19.2384 39.2849 19.1956 39.3438 19.1539C39.7196 19.122 40.0897 19.0726 40.4693 19.0572C40.494 19.0561 40.5205 19.077 40.5471 19.088C40.7236 19.1572 40.8242 19.1517 40.9362 19.0594C40.976 19.0265 41.0102 18.9968 41.0709 18.9913C41.2588 18.9715 41.4487 18.9584 41.6347 18.9353C41.7353 18.9232 41.8188 18.9342 41.8909 18.9737C41.9421 19.0023 41.9953 19.0144 42.0579 19.0078C42.4034 18.9748 42.7469 18.943 43.0923 18.9078C43.117 18.9056 43.1398 18.887 43.1587 18.8738C43.1986 18.8452 43.2328 18.8145 43.2707 18.7848C43.322 18.8035 43.3789 18.8178 43.4207 18.8419C43.4738 18.8705 43.5232 18.8705 43.5953 18.8628C44.9732 18.7299 46.3531 18.6003 47.7311 18.4663C47.8487 18.4553 47.9 18.5015 47.9797 18.5256C48.0063 18.5344 48.0328 18.5454 48.0613 18.5476C48.0917 18.5498 48.1239 18.5432 48.1543 18.5399C49.1887 18.441 50.2232 18.3433 51.2576 18.2444C51.3942 18.2313 51.3942 18.2313 51.5973 18.2994C51.622 18.3081 51.6542 18.318 51.6808 18.3147C52.1515 18.2719 52.6222 18.2258 53.091 18.1818C53.1518 18.1764 53.203 18.1939 53.2581 18.2192C53.3663 18.2686 53.3738 18.2686 53.4535 18.1961C53.4915 18.1621 53.5313 18.1412 53.594 18.1313C53.6623 18.1203 53.7174 18.1236 53.7705 18.1434C53.8464 18.1709 53.9015 18.217 54.0173 18.2049C54.5183 18.1533 55.0213 18.1105 55.5205 18.0577C55.6344 18.0457 55.6951 18.083 55.771 18.1105C55.7976 18.1203 55.8223 18.1357 55.8507 18.139C55.8792 18.1423 55.9134 18.1346 55.9437 18.1313C56.5701 18.072 57.1983 18.0138 57.8227 17.9501C57.9404 17.938 57.9917 17.9852 58.0714 18.0094C58.098 18.0182 58.1283 18.0336 58.153 18.0314C58.5288 17.9973 58.9065 17.9611 59.2823 17.9248C59.4171 17.9116 59.4171 17.9127 59.622 17.9797C59.6467 17.9885 59.679 17.9973 59.7056 17.9951C60.144 17.9545 60.5844 17.9127 61.0228 17.871C61.1576 17.8578 61.1576 17.8578 61.5466 17.9149C61.5751 17.9193 61.6055 17.9259 61.634 17.9237C62.135 17.8765 62.638 17.8304 63.1391 17.7799C63.2397 17.77 63.3232 17.7788 63.3953 17.8183C63.4466 17.8468 63.4997 17.8589 63.5623 17.8523C64.126 17.7985 64.6917 17.7469 65.2535 17.6898C65.3616 17.6788 65.4318 17.703 65.5078 17.7348C65.5324 17.7458 65.5571 17.7612 65.5856 17.7656C65.6141 17.77 65.6463 17.7656 65.6767 17.7623C66.2404 17.7085 66.806 17.6579 67.3678 17.5997C67.4817 17.5876 67.5424 17.625 67.6184 17.6524C67.6449 17.6623 67.6734 17.6821 67.6962 17.681C67.9163 17.6623 68.1365 17.6459 68.3548 17.6184C68.4725 17.603 68.5237 17.6535 68.6034 17.6777C68.63 17.6854 68.6604 17.7019 68.685 17.6997C69.1557 17.6568 69.6265 17.6118 70.0953 17.5657C70.1617 17.5591 70.211 17.569 70.2642 17.5975C70.3344 17.636 70.416 17.6513 70.5185 17.6393C70.7368 17.614 70.957 17.5964 71.1771 17.5756C71.3062 17.5635 71.3062 17.5635 71.701 17.6206C71.7295 17.625 71.7598 17.6316 71.7883 17.6294C72.1641 17.5942 72.5418 17.5602 72.9157 17.5218C73.0163 17.5108 73.0998 17.5207 73.1719 17.5602C73.2232 17.5887 73.2744 17.6008 73.3389 17.5942C73.6844 17.5613 74.028 17.5283 74.3734 17.4954C74.4987 17.4833 74.6239 17.4624 74.7492 17.4624C74.8403 17.4635 74.9067 17.5163 74.9883 17.5426C75.0111 17.5503 75.0491 17.5415 75.0794 17.5393C75.5179 17.4976 75.9582 17.4591 76.3948 17.4119C76.5086 17.3998 76.5694 17.4372 76.6453 17.4646C76.6719 17.4745 76.7003 17.4943 76.7231 17.4932C76.8806 17.4811 77.0363 17.4646 77.1938 17.4504C77.3817 17.4328 77.5715 17.4196 77.7575 17.3954C77.9093 17.3757 77.9663 17.4712 78.0878 17.4745C78.1808 17.4778 78.2757 17.4591 78.3687 17.4504C78.5566 17.4328 78.7445 17.413 78.9324 17.3976C78.9988 17.3922 79.0501 17.3746 79.071 17.335C79.0748 17.3273 79.0425 17.3109 79.0216 17.301C78.7692 17.189 78.7691 17.189 78.5148 17.2131C78.3573 17.2285 78.2016 17.2439 78.0441 17.2571C78.0175 17.2593 77.9872 17.2505 77.9606 17.2439C77.8847 17.2252 77.8923 17.2032 77.9568 17.1637C78.0213 17.1242 78.0707 17.0758 78.1257 17.0308C78.2035 17.0594 78.2795 17.0879 78.3573 17.1165C78.4199 17.111 78.4826 17.1044 78.5452 17.0989C78.8584 17.0703 79.1715 17.0407 79.4847 17.0143C79.5075 17.0121 79.5359 17.0341 79.5625 17.0451C79.6384 17.0769 79.7068 17.1044 79.8169 17.0923C80.0978 17.0605 80.3806 17.0374 80.6615 17.0099C80.7848 16.9979 80.7848 16.9979 81.0012 17.0659C81.0259 17.0736 81.0581 17.0824 81.0847 17.0802C81.3675 17.055 81.6484 17.0275 81.9312 17.0012C81.992 16.9957 82.0508 17.0099 82.0945 17.0418C82.1115 17.055 82.1077 17.0769 82.1799 17.2571C82.4038 17.4031 82.5576 17.3878 82.7132 17.3746C82.7796 17.3691 82.8385 17.3636 82.8821 17.3416C82.9049 17.3295 82.9334 17.312 82.9334 17.2977C82.9334 17.2867 82.8916 17.2691 82.8651 17.2669C82.6772 17.245 82.4987 17.2911 82.3146 17.301C82.2292 17.3054 82.1552 17.2669 82.14 17.2043C82.1362 17.1868 82.1305 17.1681 82.1248 17.1505C82.1191 17.1329 82.1154 17.1143 82.1097 17.0967C82.0356 17.0912 81.992 17.111 81.9597 17.1483C81.9331 17.1791 81.8952 17.2142 81.8439 17.2307C81.7927 17.2483 81.7225 17.245 81.6598 17.2505C81.5991 17.256 81.5327 17.2702 81.4757 17.2626C81.4188 17.2538 81.3732 17.2219 81.3201 17.2021C81.2954 17.1923 81.265 17.178 81.2404 17.1802C81.0221 17.1988 80.8057 17.2175 80.5894 17.2417C80.4755 17.2549 80.4185 17.2087 80.3464 17.1802C80.2895 17.1582 80.2325 17.1637 80.223 17.2142C80.1983 17.335 80.2857 17.3856 80.4793 17.3625C80.6387 17.3427 80.7829 17.3394 80.9082 17.4141C80.9253 17.424 80.9651 17.4284 80.9898 17.4262C81.1455 17.413 81.2992 17.3965 81.4548 17.3834C81.4833 17.3812 81.5137 17.3856 81.5403 17.3899C81.9275 17.4493 81.9275 17.4504 82.0584 17.4372C82.121 17.4306 82.1818 17.4251 82.1761 17.2582C82.2956 17.0791 82.4855 17.067 82.6696 17.0407C82.7891 17.0242 82.8404 17.0725 82.9182 17.0978C82.9447 17.1066 82.9732 17.1242 82.9979 17.122C83.406 17.0857 83.8121 17.0473 84.2183 17.0066C84.2867 17 84.336 17.0066 84.3891 17.0352C84.4575 17.0714 84.5334 17.0945 84.6416 17.0813C84.8579 17.055 85.0781 17.0385 85.2983 17.0165C85.4103 17.0055 85.4103 17.0055 85.6361 17.0736C85.6608 17.0813 85.6931 17.0901 85.7196 17.0879C85.9398 17.0692 86.1581 17.0462 86.3764 17.0264C86.4371 17.0209 86.4921 17.0363 86.5396 17.0659C86.587 17.0956 86.644 17.111 86.7028 17.1055C86.923 17.0857 87.1413 17.0638 87.3595 17.044C87.3861 17.0418 87.4184 17.0495 87.443 17.0572C87.6746 17.1253 87.6746 17.1252 87.7809 17.1143C87.9365 17.0978 88.0959 17.0901 88.2497 17.0681C88.3996 17.0462 88.4774 17.1099 88.5799 17.145C88.8608 17.1198 89.1436 17.0989 89.4226 17.0681C89.5365 17.055 89.5973 17.0912 89.6732 17.1198C89.6998 17.1296 89.7263 17.1505 89.751 17.1494C89.8459 17.145 89.9389 17.1329 90.0319 17.1242C90.1249 17.1154 90.2198 17.1066 90.3128 17.0978C90.4191 17.1297 90.4894 17.2043 90.6412 17.1791C90.7323 17.1637 90.8291 17.1604 90.9221 17.1516C91.0151 17.1428 91.11 17.134 91.203 17.1253C91.2656 17.1198 91.3302 17.1165 91.3909 17.1066C91.5029 17.0901 91.5579 17.1439 91.6376 17.1681C91.6642 17.1758 91.6946 17.189 91.7193 17.1868C91.9072 17.1714 92.0969 17.1582 92.2811 17.1329C92.4234 17.1132 92.5202 17.1461 92.6208 17.1923C92.6417 17.2021 92.6777 17.2076 92.7043 17.2054C92.9245 17.1868 93.1427 17.1637 93.361 17.1439C93.4198 17.1384 93.4768 17.156 93.5243 17.1846C93.5736 17.2142 93.6286 17.2285 93.6894 17.223C93.9076 17.2032 94.1278 17.1813 94.3461 17.1615C94.3727 17.1593 94.4049 17.1681 94.4296 17.1769C94.6422 17.245 94.6422 17.2461 94.7675 17.2329C94.7978 17.2296 94.8301 17.2274 94.8605 17.2241C95.0161 17.2087 95.1774 17.2032 95.3293 17.1769C95.5039 17.1472 95.631 17.1846 95.7544 17.2472C95.91 17.234 96.0695 17.2263 96.2213 17.2043C96.3352 17.1879 96.3959 17.2296 96.4719 17.2571C96.4984 17.2669 96.5269 17.2867 96.5497 17.2845C96.7698 17.2658 96.99 17.2494 97.2064 17.2219C97.324 17.2065 97.3753 17.256 97.455 17.2812C97.4816 17.29 97.51 17.3054 97.5347 17.3032C97.66 17.2944 97.7853 17.2812 97.9106 17.2691C98.0567 17.2549 98.0567 17.256 98.2503 17.323C98.3414 17.3548 98.4325 17.3295 98.5217 17.3219C98.6166 17.3131 98.7058 17.3065 98.7817 17.3515C98.8292 17.3801 98.8861 17.3976 98.945 17.3932C99.0702 17.3834 99.1974 17.3735 99.3208 17.357C99.4195 17.3438 99.5049 17.3526 99.577 17.3932C99.6282 17.4218 99.6814 17.4361 99.744 17.4295C100.025 17.4031 100.308 17.3757 100.589 17.3504C100.613 17.3482 100.647 17.3581 100.67 17.368C100.723 17.3878 100.775 17.4097 100.826 17.4317C100.949 17.4218 101.076 17.4174 101.198 17.402C101.327 17.3867 101.445 17.3812 101.545 17.4416C101.566 17.4548 101.596 17.4734 101.621 17.4723C101.716 17.4679 101.809 17.4569 101.902 17.4482C101.995 17.4394 102.09 17.4306 102.183 17.4218C102.291 17.4493 102.359 17.5283 102.511 17.5031C102.602 17.4877 102.699 17.4844 102.792 17.4756C102.885 17.4668 102.98 17.4569 103.073 17.4493C103.104 17.4471 103.138 17.4416 103.164 17.446C103.193 17.4504 103.217 17.4657 103.242 17.4767C103.318 17.5086 103.388 17.5404 103.496 17.5218C103.587 17.5064 103.684 17.5031 103.777 17.4932C103.904 17.4811 103.904 17.4811 104.115 17.5503C104.201 17.5789 104.297 17.5415 104.379 17.5657C104.434 17.5822 104.481 17.6096 104.535 17.6283C104.557 17.636 104.593 17.6393 104.62 17.6371C104.745 17.6272 104.872 17.6173 104.996 17.6008C105.096 17.5876 105.18 17.6008 105.25 17.6404C105.301 17.6689 105.353 17.681 105.417 17.6744C105.73 17.6437 106.044 17.6173 106.355 17.5833C106.461 17.5712 106.546 17.5898 106.605 17.6294C106.706 17.6975 106.848 17.6173 106.953 17.6722C107.017 17.7063 107.082 17.7458 107.199 17.7293C107.416 17.7008 107.636 17.6854 107.854 17.6656C107.932 17.6953 108.01 17.7249 108.09 17.7546C108.215 17.7425 108.34 17.7304 108.465 17.7194C108.558 17.7107 108.653 17.7008 108.746 17.6931C108.777 17.6909 108.809 17.6865 108.837 17.692C108.866 17.6975 108.889 17.7118 108.915 17.7227C109.046 17.7766 109.046 17.7777 109.263 17.7557C109.356 17.7458 109.445 17.7392 109.523 17.7832C109.595 17.8238 109.68 17.8315 109.779 17.8194C109.965 17.7974 110.153 17.781 110.343 17.7656C110.401 17.7601 110.456 17.7788 110.506 17.8073C110.58 17.8523 110.671 17.848 110.764 17.8359C110.887 17.8205 111.009 17.8051 111.113 17.8666C111.134 17.8798 111.166 17.8985 111.189 17.8974C111.345 17.8886 111.502 17.882 111.654 17.8611C111.806 17.8403 111.88 17.9084 111.984 17.9413C112.14 17.927 112.297 17.9127 112.453 17.8985C112.483 17.8952 112.519 17.8853 112.546 17.8908C112.658 17.9139 112.723 17.9962 112.876 17.971C112.966 17.9567 113.062 17.9523 113.155 17.949C113.18 17.9479 113.212 17.9666 113.229 17.9808C113.239 17.9885 113.229 18.0094 113.218 18.0204C113.184 18.0511 113.142 18.0797 113.112 18.1115C113.108 18.1159 113.144 18.1357 113.165 18.1445C113.216 18.1643 113.275 18.161 113.343 18.1522C113.402 18.1445 113.463 18.1599 113.505 18.1928C113.522 18.206 113.516 18.228 113.48 18.3005C113.48 18.3543 113.52 18.3301 113.533 18.295C113.554 18.2444 113.514 18.228 113.438 18.2554C113.385 18.2752 113.358 18.3038 113.372 18.3268C113.379 18.3389 113.415 18.3543 113.48 18.3005C113.647 18.2346 113.772 18.2225 113.897 18.2104C113.93 18.2071 113.968 18.1961 113.99 18.2027C114.072 18.2291 114.148 18.2609 114.228 18.2906C114.319 18.284 114.404 18.2675 114.493 18.3103C114.619 18.3707 114.624 18.3653 114.746 18.3532C114.809 18.3466 114.871 18.3411 114.934 18.3356C114.996 18.3301 115.046 18.3466 115.101 18.3719C115.213 18.4235 115.222 18.4235 115.296 18.3532C115.34 18.3103 115.37 18.2961 115.425 18.3158C115.608 18.3828 115.609 18.3872 115.765 18.3675C115.894 18.351 116.016 18.3466 116.111 18.4092C116.175 18.4531 116.196 18.4432 116.247 18.3971C116.384 18.2752 116.446 18.2774 116.703 18.3653C116.822 18.407 116.946 18.362 117.067 18.3565C117.17 18.3521 117.242 18.3784 117.249 18.4476C117.255 18.4905 117.272 18.5212 117.34 18.5355C117.367 18.541 117.399 18.5487 117.426 18.5465C117.583 18.5333 117.739 18.5179 117.897 18.5025C117.976 18.4949 118.02 18.4432 118.005 18.3751C117.988 18.3027 118.018 18.2763 118.132 18.2554C118.2 18.2433 118.255 18.2455 118.31 18.2653C118.371 18.2873 118.354 18.3071 118.301 18.3466C118.174 18.4432 118.189 18.5025 118.352 18.5695C118.409 18.5926 118.455 18.6135 118.468 18.6475C118.475 18.6651 118.468 18.6882 118.485 18.7013C118.578 18.7749 118.707 18.8222 118.851 18.8573C118.99 18.8277 119.085 18.8771 119.191 18.9166C119.275 18.9474 119.373 18.921 119.462 18.91C119.563 18.8979 119.647 18.9067 119.719 18.9474C119.77 18.9759 119.823 18.9891 119.886 18.9836C120.011 18.9715 120.138 18.9638 120.261 18.9463C120.368 18.9309 120.447 18.9529 120.514 18.9902C120.597 19.0374 120.69 19.0056 120.778 19.0122C120.895 19.0199 120.954 19.1176 121.108 19.0912C121.199 19.0759 121.294 19.0704 121.389 19.066C121.414 19.0649 121.444 19.0836 121.465 19.0967C121.565 19.1571 121.683 19.1538 121.812 19.1363C121.901 19.1242 121.989 19.1132 122.076 19.155C122.22 19.2252 122.38 19.2868 122.532 19.3516C122.552 19.4021 122.537 19.4614 122.645 19.491C122.702 19.5064 122.755 19.5295 122.799 19.5547C122.852 19.5844 122.902 19.5921 122.97 19.5844C123.093 19.569 123.222 19.5657 123.344 19.5459C123.456 19.5284 123.526 19.5646 123.594 19.5987C123.649 19.6261 123.701 19.6393 123.767 19.6195C123.835 19.6009 123.885 19.6129 123.94 19.6426C124.018 19.6832 124.023 19.6789 124.281 19.6909C124.308 19.692 124.34 19.7085 124.355 19.7228C124.363 19.7305 124.346 19.7524 124.333 19.7634C124.316 19.7766 124.289 19.792 124.264 19.7953C123.983 19.8238 123.701 19.8491 123.42 19.8776C123.391 19.8809 123.361 19.8886 123.34 19.8996C123.317 19.9117 123.289 19.9282 123.289 19.9435C123.289 19.9545 123.327 19.9677 123.353 19.9754C123.437 20.0007 123.536 19.9622 123.617 19.9908C123.672 20.0094 123.718 20.0358 123.773 20.0534C123.796 20.0611 123.832 20.06 123.86 20.0578C123.955 20.0501 124.048 20.0391 124.143 20.0325C124.169 20.0314 124.2 20.0424 124.225 20.0512C124.407 20.1171 124.407 20.1171 124.564 20.1028C124.627 20.0973 124.693 20.0808 124.752 20.0874C124.809 20.094 124.858 20.1237 124.91 20.1423C125.016 20.1819 125.117 20.2203 125.124 20.306C125.128 20.3389 125.191 20.3675 125.253 20.3697C125.314 20.3719 125.378 20.3598 125.441 20.3532C125.589 20.34 125.589 20.34 125.781 20.407C125.834 20.4257 125.891 20.4279 125.959 20.4169C125.986 20.4125 126.018 20.4169 126.047 20.4224C126.14 20.4389 126.14 20.4598 126.079 20.4993C125.993 20.5575 126.001 20.563 126.24 20.6124C126.331 20.6311 126.401 20.6662 126.477 20.697C126.601 20.7464 126.599 20.7464 126.517 20.8112C126.498 20.8255 126.481 20.8409 126.462 20.8562C126.407 20.8991 126.364 20.9452 126.25 20.9496C126.124 20.954 125.999 20.9716 125.874 20.9837C125.752 20.9957 125.72 21.0221 125.732 21.0968C125.745 21.1868 125.769 21.1967 125.988 21.1956C126.05 21.1956 126.105 21.2044 126.153 21.2341C126.13 21.2692 126.088 21.2967 126.028 21.3033C125.872 21.3197 125.714 21.334 125.559 21.3483C125.434 21.3604 125.308 21.3725 125.183 21.3845C125.105 21.3922 125.056 21.4493 125.077 21.513C125.088 21.5493 125.098 21.5855 125.107 21.6218C125.128 21.6943 125.168 21.7129 125.295 21.7096C125.327 21.7085 125.358 21.6998 125.388 21.7019C125.511 21.7096 125.57 21.8008 125.718 21.7821C125.842 21.7667 125.971 21.7635 126.092 21.7437C126.204 21.7261 126.267 21.7657 126.345 21.7953C126.371 21.8052 126.4 21.8261 126.422 21.825C126.58 21.8129 126.737 21.8008 126.891 21.7799C126.963 21.7712 127.007 21.7777 127.064 21.8041C127.201 21.8678 127.204 21.8645 127.407 21.8447C127.556 21.8294 127.557 21.8316 127.747 21.8986C127.8 21.9172 127.857 21.9172 127.926 21.9084C128.015 21.8975 128.108 21.8799 128.201 21.8964C128.229 21.9007 128.265 21.9139 128.275 21.9282C128.281 21.9381 128.254 21.9623 128.231 21.9699C128.064 22.0271 127.869 22.0172 127.686 22.0402C127.63 22.0468 127.573 22.026 127.525 21.9963C127.476 21.9667 127.423 21.9546 127.358 21.9601C127.233 21.9721 127.106 21.9798 126.982 21.9974C126.876 22.0128 126.802 21.9875 126.728 21.9535C126.703 21.9425 126.675 21.9216 126.65 21.9227C126.369 21.9447 126.086 21.9667 125.807 21.9974C125.695 22.0106 125.631 21.9754 125.555 21.9458C125.528 21.9359 125.502 21.915 125.477 21.9161C125.382 21.9205 125.289 21.9326 125.194 21.9414C124.849 21.9743 124.505 22.0073 124.16 22.038C124.137 22.0402 124.109 22.0172 124.082 22.0073C124.031 21.9875 123.978 21.9688 123.925 21.9502C123.83 21.959 123.737 21.9699 123.642 21.9765C123.573 21.9809 123.513 21.9963 123.503 22.038C123.498 22.0655 123.56 22.0908 123.627 22.0886C123.691 22.0864 123.756 22.0732 123.809 22.0875C124.073 22.1578 124.073 22.1589 124.238 22.1446C124.382 22.1314 124.367 22.1204 124.494 22.1808C124.549 22.2072 124.598 22.2226 124.661 22.216C124.817 22.2006 124.974 22.1852 125.132 22.172C125.156 22.1698 125.189 22.1808 125.213 22.1896C125.399 22.2555 125.399 22.2577 125.553 22.2412C125.754 22.2215 125.762 22.216 125.897 22.283C125.99 22.3291 126.075 22.2972 126.164 22.295C126.267 22.3379 126.379 22.3763 126.472 22.4247C126.582 22.4818 126.698 22.4719 126.823 22.4554C126.916 22.4433 127.007 22.4389 127.083 22.484C127.155 22.5257 127.242 22.5301 127.341 22.5191C127.43 22.5092 127.521 22.4883 127.614 22.5125C127.639 22.5191 127.677 22.5356 127.675 22.5455C127.673 22.5608 127.648 22.5828 127.624 22.5894C127.449 22.6344 127.258 22.6333 127.073 22.6542C127.049 22.6575 127.016 22.6454 126.992 22.6366C126.939 22.6169 126.887 22.5938 126.836 22.5729C126.743 22.5795 126.648 22.5817 126.557 22.5949C126.487 22.6048 126.434 22.6037 126.383 22.5773C126.335 22.5532 126.284 22.5235 126.227 22.5158C126.17 22.5081 126.104 22.5246 126.041 22.5312C125.978 22.5378 125.906 22.5345 125.857 22.552C125.807 22.5696 125.777 22.6081 125.745 22.6388C125.709 22.6729 125.659 22.6839 125.587 22.6872C125.521 22.6904 125.468 22.686 125.418 22.6553C125.397 22.6421 125.369 22.6322 125.341 22.6234C125.314 22.6158 125.284 22.6037 125.259 22.6059C124.976 22.6311 124.695 22.6586 124.412 22.685C124.272 22.6981 124.274 22.6981 123.982 22.6333C123.955 22.6278 123.923 22.6201 123.896 22.6223C123.739 22.6355 123.583 22.6509 123.425 22.6663C123.266 22.6817 123.268 22.6795 122.996 22.6103C122.947 22.5971 122.875 22.6147 122.816 22.6125C122.693 22.607 122.632 22.5147 122.488 22.5323C122.364 22.5477 122.235 22.551 122.112 22.5707C122 22.5883 121.936 22.5499 121.86 22.5202C121.833 22.5103 121.805 22.4884 121.782 22.4905C121.499 22.5147 121.218 22.5422 120.842 22.5455C120.749 22.5455 120.791 22.5685 120.852 22.5762C120.939 22.5883 120.968 22.5652 120.92 22.5213C120.886 22.4906 120.837 22.4752 120.797 22.4829C120.776 22.4872 120.749 22.5081 120.842 22.5455C120.941 22.5872 120.935 22.6103 120.952 22.6234C120.994 22.6553 121.053 22.6685 121.114 22.6641C121.209 22.6564 121.302 22.6454 121.396 22.6388C121.423 22.6366 121.455 22.6443 121.48 22.6531C121.689 22.7212 121.691 22.7256 121.913 22.6992C121.983 22.6915 122.034 22.6915 122.089 22.7124C122.165 22.741 122.22 22.7893 122.336 22.7739C122.49 22.753 122.647 22.741 122.805 22.7289C122.829 22.7267 122.856 22.7465 122.884 22.7552C122.962 22.7816 123.019 22.831 123.135 22.8102C123.224 22.7937 123.321 22.7893 123.416 22.786C123.441 22.7849 123.479 22.8025 123.49 22.8167C123.513 22.842 123.484 22.8717 123.42 22.8925C123.393 22.9013 123.357 22.8991 123.327 22.9024C123.201 22.9145 123.076 22.9277 122.951 22.9376C122.885 22.9431 122.822 22.9595 122.814 23.0002C122.809 23.0276 122.877 23.0518 122.941 23.0496C123.036 23.0463 123.131 23.0375 123.222 23.0232C123.384 22.9991 123.524 23.0057 123.655 23.0748C123.748 23.1232 123.742 23.1056 123.841 23.2484C123.866 23.2846 123.94 23.2879 124.004 23.2857C124.16 23.2802 124.232 23.2967 124.219 23.3308C124.202 23.3725 124.147 23.3857 124.076 23.3912C123.951 23.4 123.826 23.4142 123.701 23.4263C123.67 23.4296 123.636 23.4362 123.608 23.434C123.579 23.4318 123.553 23.4186 123.528 23.4087C123.475 23.3879 123.429 23.356 123.372 23.3483C123.315 23.3406 123.249 23.3571 123.186 23.3637C123.124 23.3692 123.057 23.3857 123 23.378C122.943 23.3703 122.896 23.3374 122.845 23.3176C122.82 23.3077 122.79 23.2923 122.765 23.2934C122.64 23.3022 122.514 23.3165 122.389 23.3275C122.235 23.3417 122.235 23.3417 122.049 23.2737C121.996 23.2539 121.941 23.255 121.871 23.2638C121.719 23.2813 121.717 23.278 121.44 23.2143C121.414 23.2077 121.381 23.2001 121.355 23.2034C121.072 23.2286 120.791 23.2561 120.51 23.2824C120.269 23.3055 120.269 23.3055 120.136 23.4153C120.037 23.4966 120.036 23.4966 120.132 23.534C120.21 23.5647 120.28 23.6097 120.366 23.6262C120.446 23.6416 120.544 23.5922 120.632 23.6427C120.675 23.6679 120.732 23.6954 120.787 23.6998C120.875 23.7053 120.968 23.6734 121.051 23.7218C121.093 23.7459 121.155 23.7712 121.209 23.7723C121.302 23.7745 121.396 23.7569 121.489 23.7492C121.518 23.747 121.55 23.747 121.577 23.7525C121.605 23.7591 121.63 23.7723 121.655 23.7833C121.731 23.8206 121.812 23.8382 121.911 23.8195C122.072 23.7888 122.216 23.8041 122.342 23.8744C122.359 23.8843 122.401 23.8854 122.427 23.881C122.495 23.87 122.554 23.8689 122.605 23.8898C122.626 23.8986 122.657 23.914 122.653 23.9238C122.647 23.9403 122.624 23.9623 122.6 23.9678C122.421 24.0051 122.23 24.0095 122.046 24.0293C122.021 24.0315 121.991 24.0172 121.966 24.0073C121.913 23.9876 121.867 23.9546 121.81 23.9469C121.753 23.9392 121.687 23.9535 121.624 23.959C121.562 23.9645 121.495 23.981 121.438 23.9744C121.381 23.9667 121.328 23.9392 121.283 23.9151C121.229 23.8876 121.178 23.8843 121.108 23.8953C121.017 23.9096 120.922 23.9118 120.829 23.9195C120.778 23.8986 120.726 23.8755 120.673 23.8558C120.649 23.8459 120.618 23.8338 120.592 23.8349C120.466 23.8437 120.341 23.8568 120.216 23.8689C120.091 23.881 120.091 23.881 119.878 23.8129C119.853 23.8052 119.821 23.7965 119.795 23.7987C119.637 23.8118 119.481 23.8283 119.324 23.8415C119.263 23.847 119.208 23.8316 119.159 23.8019C119.111 23.7723 119.054 23.7558 118.995 23.7613C118.745 23.7844 118.494 23.8063 118.244 23.8338C118.143 23.8448 118.058 23.8349 117.99 23.7954C117.91 23.7503 117.821 23.7613 117.728 23.7701C117.517 23.7921 117.515 23.791 117.38 23.7349C117.354 23.724 117.327 23.7031 117.302 23.7042C117.084 23.7207 116.864 23.736 116.648 23.7624C116.534 23.7767 116.473 23.7382 116.397 23.7097C116.371 23.6998 116.342 23.6789 116.319 23.6811C116.162 23.6932 116.004 23.7042 115.85 23.7262C115.697 23.7481 115.638 23.646 115.522 23.6471C115.365 23.6482 115.209 23.6734 115.053 23.6888C114.928 23.7009 114.803 23.713 114.678 23.7251C114.552 23.7371 114.427 23.747 114.302 23.7613C114.235 23.769 114.186 23.7591 114.131 23.7316C114.061 23.6954 113.977 23.6669 113.901 23.6339C113.785 23.5867 113.785 23.5867 113.645 23.5998C113.615 23.6031 113.582 23.6053 113.552 23.6086C113.322 23.6328 113.322 23.6306 113.03 23.5614C113.017 23.5581 112.983 23.5702 112.969 23.579C112.929 23.6075 112.893 23.6383 112.857 23.6679C112.806 23.6504 112.743 23.6405 112.709 23.6152C112.613 23.5438 112.461 23.6416 112.362 23.5713C112.326 23.5449 112.263 23.5219 112.206 23.5153C112.147 23.5087 112.081 23.5241 112.02 23.5307C111.863 23.5471 111.863 23.546 111.728 23.6438C111.66 23.6921 111.561 23.6833 111.472 23.6943C111.379 23.7064 111.29 23.713 111.212 23.6679C111.142 23.6273 111.056 23.6174 110.956 23.6306C110.832 23.6471 110.705 23.657 110.58 23.6668C110.553 23.669 110.521 23.6636 110.494 23.657C110.204 23.5922 110.204 23.5911 110.063 23.6053C110.001 23.6119 109.936 23.6141 109.876 23.624C109.773 23.6416 109.695 23.6185 109.621 23.5834C109.597 23.5724 109.568 23.5515 109.543 23.5526C109.418 23.5581 109.295 23.568 109.171 23.5779C109.077 23.5856 108.982 23.59 108.891 23.6053C108.739 23.6306 108.665 23.5592 108.56 23.5263C108.405 23.5405 108.247 23.5504 108.091 23.5702C108.019 23.579 107.972 23.5757 107.917 23.5493C107.847 23.5164 107.782 23.479 107.668 23.4955C107.516 23.5175 107.357 23.5252 107.201 23.5383C107.097 23.5043 107.021 23.4351 106.871 23.4604C106.78 23.4757 106.683 23.479 106.59 23.4878C106.465 23.4999 106.34 23.5109 106.214 23.5241C106.08 23.5373 106.081 23.534 105.875 23.4692C105.755 23.4307 105.632 23.4735 105.51 23.4801C105.415 23.4856 105.368 23.5361 105.391 23.6009C105.413 23.6657 105.362 23.7163 105.275 23.7251C105.057 23.7459 104.836 23.7679 104.618 23.7866C104.592 23.7888 104.559 23.7811 104.535 23.7734C104.301 23.7042 104.301 23.7053 104.197 23.7152C104.041 23.7317 103.882 23.7404 103.728 23.7613C103.622 23.7756 103.544 23.7525 103.475 23.7152C103.422 23.6866 103.373 23.68 103.305 23.6866C102.553 23.7602 101.801 23.8283 101.052 23.9041C100.94 23.9151 100.875 23.8832 100.799 23.8536C100.773 23.8437 100.748 23.8228 100.721 23.8228C100.659 23.8228 100.596 23.8327 100.534 23.8393C100.253 23.8656 99.9718 23.8975 99.689 23.9173C99.5694 23.9261 99.5371 23.9766 99.4859 24.0183C99.446 24.0502 99.4005 24.0633 99.3303 24.0677C99.2619 24.0721 99.2126 24.0666 99.1594 24.0381C99.0911 24.0007 99.0133 23.9777 98.907 23.993C98.7837 24.0106 98.6583 24.0183 98.5312 24.0304C98.4666 24.0359 98.4173 24.0557 98.3964 24.0952C98.3926 24.1018 98.4325 24.1183 98.4553 24.1281C98.5312 24.1611 98.6033 24.1995 98.6887 24.2226C98.776 24.2457 98.8709 24.2193 98.962 24.2127C98.9943 24.2105 99.0247 24.2039 99.055 24.205C99.0835 24.2061 99.1177 24.2116 99.1386 24.2215C99.2373 24.2709 99.3416 24.305 99.4783 24.2753C99.596 24.2896 99.6567 24.3808 99.8067 24.3566C99.8978 24.3423 99.9927 24.3357 100.088 24.3302C100.112 24.3291 100.139 24.3489 100.165 24.3588C100.241 24.3862 100.302 24.4302 100.416 24.4115C100.537 24.3917 100.666 24.3884 100.79 24.3731C100.858 24.3643 100.907 24.372 100.961 24.4005C101.029 24.4368 101.107 24.4642 101.213 24.4466C101.304 24.4313 101.401 24.428 101.494 24.4181C101.615 24.406 101.615 24.4071 101.832 24.4752C101.857 24.4829 101.889 24.4917 101.915 24.4895C102.073 24.4763 102.229 24.4598 102.386 24.4466C102.447 24.4412 102.506 24.4554 102.547 24.4873C102.564 24.5005 102.559 24.5224 102.564 24.5411C102.251 24.5708 101.938 24.596 101.627 24.6323C101.509 24.6465 101.456 24.6015 101.378 24.5763C101.352 24.5675 101.323 24.5488 101.298 24.551C101.078 24.5697 100.86 24.5894 100.642 24.6136C100.573 24.6213 100.522 24.6169 100.471 24.585C100.34 24.5005 100.181 24.5466 100.033 24.5587C99.9186 24.5675 99.8826 24.6015 99.8959 24.674C99.913 24.7597 99.9813 24.786 100.156 24.7707C100.219 24.7652 100.281 24.7575 100.344 24.7531C100.405 24.7487 100.46 24.763 100.509 24.7926C100.556 24.8223 100.613 24.8377 100.672 24.8333C100.797 24.8234 100.925 24.8135 101.046 24.797C101.147 24.7838 101.23 24.7948 101.3 24.8355C101.378 24.8805 101.469 24.8706 101.56 24.8607C101.773 24.8388 101.775 24.8399 101.908 24.8948C101.934 24.9058 101.961 24.9266 101.986 24.9255C102.204 24.9091 102.424 24.8948 102.638 24.8684C102.75 24.8552 102.815 24.8904 102.889 24.9189C102.916 24.9288 102.942 24.9508 102.967 24.9486C103.124 24.9365 103.282 24.9244 103.436 24.9036C103.508 24.8937 103.551 24.9003 103.61 24.9266C103.751 24.9914 103.755 24.9892 103.954 24.9683C104.015 24.9618 104.081 24.9497 104.138 24.9585C104.195 24.9673 104.24 24.9991 104.294 25.0189C104.318 25.0277 104.349 25.0397 104.375 25.0375C104.5 25.0288 104.626 25.0156 104.751 25.0035C104.869 24.9914 104.869 24.9925 105.089 25.0606C105.178 25.0892 105.271 25.065 105.36 25.0562C105.457 25.0463 105.544 25.0463 105.618 25.0892C105.692 25.132 105.782 25.1298 105.876 25.121C105.966 25.1122 106.057 25.0881 106.148 25.1177C106.357 25.1858 106.357 25.1869 106.486 25.1737C106.674 25.1551 106.86 25.1375 107.049 25.121C107.074 25.1188 107.106 25.132 107.131 25.1408C107.184 25.1606 107.23 25.1935 107.287 25.2012C107.344 25.21 107.41 25.1968 107.471 25.1902C107.666 25.1693 107.68 25.1617 107.811 25.2341C107.921 25.2935 108.057 25.2078 108.16 25.2759C108.219 25.3143 108.298 25.3451 108.408 25.3264C108.5 25.311 108.594 25.3066 108.689 25.2978C108.839 25.2836 108.839 25.2847 109.029 25.3506C109.054 25.3594 109.086 25.3703 109.111 25.3681C109.236 25.3594 109.363 25.3517 109.485 25.3319C109.627 25.3088 109.718 25.3506 109.824 25.3912C109.908 25.4231 110.007 25.3967 110.096 25.3857C110.193 25.3747 110.28 25.378 110.352 25.4209C110.428 25.4648 110.517 25.4593 110.612 25.4505C110.701 25.4428 110.792 25.4176 110.883 25.4483C111.079 25.5164 111.079 25.5164 111.221 25.5032C111.347 25.4911 111.472 25.478 111.597 25.4692C111.622 25.467 111.652 25.4813 111.677 25.4912C111.73 25.5109 111.775 25.5439 111.832 25.5516C111.889 25.5593 111.956 25.545 112.018 25.5395C112.081 25.534 112.147 25.5175 112.204 25.5241C112.261 25.5307 112.315 25.5582 112.36 25.5823C112.413 25.6109 112.463 25.6142 112.535 25.6032C112.626 25.5889 112.721 25.5856 112.814 25.5779C112.865 25.5988 112.918 25.6197 112.967 25.6427C113.019 25.6669 113.074 25.6647 113.144 25.657C113.377 25.6306 113.379 25.6339 113.575 25.702C113.664 25.7328 113.757 25.7075 113.846 25.6998C113.941 25.691 114.03 25.6867 114.104 25.7306C114.176 25.7723 114.266 25.7778 114.361 25.7646C114.421 25.7558 114.486 25.7504 114.548 25.7471C114.577 25.746 114.611 25.7504 114.632 25.7591C114.733 25.8053 114.831 25.847 114.97 25.8174C115.091 25.8261 115.152 25.9162 115.298 25.8986C115.422 25.8833 115.551 25.88 115.672 25.8602C115.784 25.8426 115.864 25.8734 115.921 25.9118C116.023 25.9799 116.167 25.8877 116.27 25.9547C116.329 25.9931 116.405 26.0238 116.519 26.0074C116.644 25.9898 116.684 26.0129 116.72 26.082C116.741 26.1216 116.737 26.1534 116.699 26.1842C116.661 26.216 116.619 26.2106 116.558 26.1743C116.488 26.1337 116.405 26.126 116.304 26.1348C116.205 26.1436 116.145 26.0865 116.063 26.0645C115.981 26.0414 115.885 26.0799 115.799 26.0502C115.598 25.981 115.598 25.981 115.461 25.9942C115.368 26.003 115.272 26.0074 115.181 26.0227C115.072 26.0414 115.002 26.0074 114.928 25.9766C114.902 25.9656 114.875 25.9448 114.852 25.9459C114.634 25.9623 114.414 25.9777 114.197 26.0052C114.083 26.0194 114.023 25.9799 113.947 25.9525C113.92 25.9426 113.892 25.9228 113.869 25.925C113.681 25.9404 113.495 25.9601 113.307 25.9788C113.271 26.0085 113.231 26.037 113.197 26.0689C113.161 26.1018 113.112 26.1161 113.04 26.115C112.92 26.115 112.802 26.1611 112.683 26.1029C112.559 26.0436 112.55 26.0469 112.43 26.0612C112.278 26.0799 112.117 26.0755 111.975 26.1183C111.95 26.126 111.924 26.1468 111.924 26.1622C111.922 26.1721 111.961 26.1864 111.986 26.1952C112.07 26.2215 112.166 26.1831 112.25 26.2106C112.305 26.2281 112.351 26.2545 112.406 26.2732C112.428 26.2808 112.463 26.2797 112.493 26.2787C112.525 26.2776 112.556 26.2699 112.586 26.271C112.614 26.2721 112.645 26.2786 112.668 26.2885C112.772 26.3303 112.882 26.3687 112.975 26.4181C113.066 26.4665 113.152 26.4335 113.243 26.4313C113.607 26.5082 113.607 26.5093 113.852 26.4851C113.913 26.4796 113.975 26.4731 114.038 26.4742C114.064 26.4742 114.089 26.4939 114.116 26.5049C114.192 26.5378 114.264 26.5675 114.37 26.5499C114.461 26.5346 114.558 26.5313 114.651 26.5214C114.776 26.5093 114.776 26.5093 114.989 26.5785C115.042 26.5961 115.099 26.5939 115.167 26.5851C115.226 26.5774 115.287 26.5939 115.329 26.6257C115.346 26.6389 115.34 26.6609 115.346 26.6795C115.158 26.6971 114.968 26.7092 114.786 26.7356C114.668 26.752 114.615 26.7048 114.537 26.6795C114.511 26.6708 114.482 26.6521 114.457 26.6543C114.271 26.6708 114.085 26.6894 113.899 26.7114C113.877 26.7136 113.848 26.7388 113.846 26.7542C113.842 26.7828 113.89 26.8102 113.958 26.8091C114.049 26.808 114.139 26.7894 114.22 26.8344C114.288 26.8739 114.374 26.8915 114.474 26.8739C114.535 26.8641 114.6 26.8641 114.66 26.8553C114.822 26.8289 114.968 26.8344 115.089 26.9091C115.182 26.9289 115.274 26.9102 115.363 26.9003C115.429 26.8926 115.494 26.8849 115.541 26.9058C115.642 26.9497 115.74 26.9937 115.879 26.964C116.029 26.9948 116.143 27.0596 116.268 27.1123C116.327 27.1375 116.372 27.1518 116.441 27.1353C116.469 27.1288 116.503 27.1287 116.534 27.1255C116.596 27.12 116.663 27.1035 116.72 27.1101C116.777 27.1178 116.824 27.1496 116.875 27.1694C116.9 27.1793 116.929 27.1957 116.953 27.1946C117.048 27.1892 117.141 27.1782 117.234 27.1694C117.327 27.1617 117.42 27.154 117.513 27.1463C117.591 27.1749 117.671 27.2034 117.748 27.232C117.874 27.2199 117.999 27.2078 118.122 27.1968C118.261 27.1837 118.261 27.1848 118.46 27.2529C118.549 27.2836 118.644 27.2638 118.73 27.2496C118.872 27.2265 118.967 27.2682 119.068 27.3122C119.089 27.321 119.126 27.3264 119.151 27.3221C119.25 27.3067 119.335 27.3188 119.407 27.3594C119.459 27.3879 119.51 27.4011 119.572 27.3956C119.791 27.3748 120.009 27.3528 120.227 27.3341C120.254 27.3319 120.284 27.3418 120.309 27.3506C120.502 27.4176 120.504 27.4209 120.647 27.4033C120.774 27.388 120.892 27.3814 120.992 27.4418C121.013 27.4549 121.045 27.4736 121.068 27.4725C121.224 27.4615 121.381 27.4495 121.535 27.4308C121.605 27.422 121.655 27.4253 121.71 27.4506C121.78 27.4824 121.843 27.5209 121.958 27.5066C122.279 27.4659 122.281 27.4725 122.661 27.5483C122.687 27.5538 122.723 27.545 122.754 27.5406C122.818 27.5296 122.866 27.545 122.922 27.5703C123.05 27.6274 123.053 27.6241 123.175 27.612C123.268 27.6021 123.365 27.5999 123.456 27.5835C123.596 27.5593 123.689 27.6021 123.794 27.6428C123.877 27.6746 123.974 27.6483 124.063 27.6384C124.16 27.6274 124.247 27.6307 124.319 27.6724C124.369 27.701 124.422 27.7164 124.485 27.7109C124.703 27.6911 124.921 27.6691 125.139 27.6494C125.166 27.6472 125.198 27.6559 125.223 27.6636C125.439 27.7317 125.439 27.735 125.654 27.7098C125.722 27.7021 125.779 27.6999 125.83 27.7229C125.88 27.7449 125.933 27.7658 125.984 27.7866C126.077 27.779 126.172 27.7768 126.263 27.7636C126.333 27.7537 126.383 27.7581 126.438 27.7812C126.51 27.8108 126.57 27.8624 126.684 27.8372C126.743 27.8251 126.811 27.8284 126.87 27.8174C126.941 27.8031 126.988 27.8119 127.043 27.8405C127.111 27.8745 127.182 27.9096 127.292 27.8921C127.413 27.8723 127.542 27.869 127.666 27.8536C127.734 27.8449 127.781 27.8536 127.836 27.8822C127.905 27.9184 127.983 27.9415 128.089 27.9272C128.305 27.8998 128.307 27.9053 128.518 27.9744C128.571 27.992 128.628 27.9898 128.696 27.981C128.755 27.9734 128.816 27.9898 128.858 28.0217C128.897 28.0568 128.894 28.0788 128.897 28.0975ZM111.984 18.1917C111.922 18.1972 111.859 18.2038 111.768 18.1083C111.762 18.0918 111.766 18.072 111.753 18.0577C111.722 18.0281 111.675 18.0072 111.618 18.0039C111.515 17.9995 111.392 18.0369 111.394 18.0654C111.396 18.0896 111.428 18.1104 111.491 18.1302C111.517 18.1379 111.538 18.1511 111.563 18.1599C111.635 18.1851 111.692 18.2346 111.796 18.2093C111.777 18.1412 111.787 18.1753 111.796 18.2093C111.787 18.251 111.815 18.2807 111.884 18.2928C111.903 18.2961 111.931 18.2939 111.946 18.2873C112.005 18.2631 112.015 18.2302 111.971 18.1434C111.963 18.1577 111.969 18.1829 111.986 18.1895C112.003 18.1961 112.045 18.1906 112.066 18.1829C112.119 18.1621 112.146 18.1346 112.132 18.1115C112.125 18.0995 112.089 18.0841 112.066 18.0841C112.026 18.0841 111.99 18.1083 111.984 18.1917ZM127.332 30.9289C127.193 30.9498 127.034 30.9421 126.895 30.9849C126.87 30.9926 126.846 31.0124 126.844 31.0278C126.842 31.0377 126.88 31.052 126.903 31.0596C126.954 31.0772 127.011 31.0717 127.077 31.0662C127.178 31.0585 127.237 31.1091 127.314 31.1343C127.339 31.142 127.371 31.1475 127.398 31.1453C127.552 31.1321 127.704 31.1179 127.857 31.1025C127.884 31.0992 127.912 31.0915 127.935 31.0816C128.011 31.0497 128.003 31.0289 127.929 31.0047C127.848 30.9784 127.783 30.9344 127.7 30.9136C127.58 30.8839 127.459 30.9234 127.332 30.9289ZM116.553 31.7307C116.46 31.7395 116.369 31.7483 116.276 31.7571C116.245 31.7604 116.213 31.7615 116.185 31.7659C116.126 31.7735 116.082 31.7966 116.054 31.8328C116.097 31.8614 116.15 31.8779 116.209 31.8746C116.302 31.868 116.393 31.8537 116.486 31.8504C116.587 31.846 116.646 31.8955 116.724 31.9207C116.748 31.9284 116.779 31.9295 116.807 31.9306C116.948 31.935 117.033 31.8779 117.006 31.7977C116.987 31.7351 116.915 31.6978 116.828 31.7055C116.737 31.7131 116.644 31.7219 116.553 31.7307ZM127.981 29.3056C128.003 29.2869 128.028 29.2738 128.04 29.2573C128.074 29.2013 128.06 29.1595 127.998 29.1156C127.922 29.0618 127.829 29.098 127.743 29.1035C127.723 29.1046 127.7 29.1277 127.688 29.142C127.681 29.1518 127.681 29.1727 127.692 29.1782C127.785 29.2221 127.884 29.2628 127.981 29.3056ZM111.515 26.0612C111.424 26.07 111.331 26.0766 111.24 26.0886C111.217 26.0919 111.197 26.1128 111.183 26.1271C111.159 26.1534 111.185 26.1897 111.263 26.193C111.352 26.1974 111.445 26.1787 111.538 26.1699C111.656 26.1589 111.726 26.1183 111.682 26.0831C111.641 26.0491 111.584 26.0425 111.515 26.0612ZM11.6063 23.7141C11.667 23.7086 11.7297 23.7042 11.7904 23.6965C11.8473 23.6888 11.891 23.6647 11.9195 23.6284C11.872 23.5998 11.8189 23.5845 11.76 23.5878C11.667 23.5944 11.5759 23.6031 11.4848 23.6141C11.4279 23.6207 11.3729 23.6449 11.3596 23.6822C11.3463 23.7108 11.4734 23.7273 11.6063 23.7141ZM103.489 23.5449C103.513 23.5548 103.538 23.5746 103.563 23.5746C103.624 23.5746 103.686 23.568 103.743 23.557C103.768 23.5526 103.787 23.5329 103.798 23.5175C103.806 23.5076 103.804 23.49 103.792 23.4812C103.737 23.4285 103.517 23.4472 103.481 23.5076C103.477 23.5186 103.487 23.5329 103.489 23.5449ZM97.5006 17.5305C97.5063 17.5481 97.5082 17.5657 97.5158 17.5833C97.531 17.6162 97.5727 17.6404 97.6334 17.6568C97.6809 17.6294 97.7056 17.5986 97.7037 17.5657C97.7018 17.5481 97.6961 17.5305 97.6885 17.513C97.6733 17.48 97.6316 17.4559 97.5708 17.4394C97.5234 17.4657 97.5006 17.4965 97.5006 17.5305ZM132.367 31.9218C132.35 31.9361 132.333 31.9504 132.314 31.9636C132.365 31.9954 132.413 32.0053 132.449 31.9877C132.471 31.9767 132.485 31.9603 132.502 31.946C132.45 31.9141 132.405 31.9053 132.367 31.9218ZM131.186 32.0712C131.211 32.0811 131.234 32.0943 131.26 32.1008C131.304 32.1118 131.344 32.0931 131.374 32.0536C131.35 32.0437 131.327 32.0305 131.3 32.024C131.257 32.013 131.217 32.0316 131.186 32.0712ZM131.934 31.8702C131.921 31.8966 131.948 31.9185 132.018 31.9372C132.035 31.9229 132.058 31.9097 132.069 31.8944C132.088 31.8691 132.056 31.846 131.987 31.8285C131.968 31.8416 131.951 31.8559 131.934 31.8702ZM127.928 30.6862C127.914 30.7126 127.941 30.7345 128.011 30.7532C128.028 30.7389 128.051 30.7257 128.062 30.7104C128.081 30.6851 128.049 30.662 127.981 30.6445C127.962 30.6576 127.945 30.6719 127.928 30.6862ZM122.469 22.9145C122.452 22.9288 122.435 22.9431 122.416 22.9562C122.467 22.9881 122.514 22.998 122.55 22.9804C122.573 22.9694 122.587 22.9529 122.604 22.9387C122.552 22.9068 122.507 22.898 122.469 22.9145ZM117.24 18.7914C117.285 18.7991 117.323 18.7837 117.356 18.7431C117.331 18.7332 117.308 18.72 117.282 18.7134C117.238 18.7024 117.198 18.7211 117.168 18.7607C117.192 18.7716 117.217 18.7815 117.24 18.7914ZM114.463 18.5333C114.446 18.5476 114.429 18.5619 114.41 18.575C114.461 18.6069 114.509 18.6168 114.545 18.5992C114.567 18.5882 114.581 18.5717 114.598 18.5575C114.547 18.5256 114.501 18.5179 114.463 18.5333ZM95.633 17.5294C95.6159 17.5437 95.5988 17.558 95.5798 17.5712C95.6311 17.603 95.6785 17.6129 95.7146 17.5953C95.7373 17.5843 95.7506 17.5679 95.7677 17.5536C95.7165 17.5217 95.6709 17.5141 95.633 17.5294ZM1.87331 26.4654C1.84863 26.4555 1.82398 26.4456 1.80121 26.4346C1.74616 26.4643 1.72909 26.4917 1.75946 26.5126C1.77844 26.5258 1.80688 26.5335 1.83156 26.5433C1.8885 26.5137 1.90178 26.4873 1.87331 26.4654Z" fill="#FFE492"/>
<path d="M98.1087 7.76258C97.9775 7.79104 97.8473 7.82697 97.7161 7.84494C97.6465 7.85392 97.6214 7.91832 97.5928 7.97822C97.57 8.02614 97.5437 8.04111 97.5015 8.0501C97.1454 8.12348 96.7904 8.20135 96.4354 8.27772C96.3909 8.25826 96.3692 8.22681 96.3795 8.18937C96.3852 8.16691 96.3989 8.13546 96.4126 8.13247C96.6557 8.07706 96.8977 8.02015 97.1419 7.97672C97.2116 7.96474 97.231 7.89885 97.2664 7.84494C97.2778 7.82697 97.2869 7.80001 97.3018 7.78953C97.3166 7.77755 97.3383 7.77905 97.3577 7.77606C97.7503 7.6907 98.143 7.60684 98.5357 7.52148C98.5802 7.54095 98.6019 7.5724 98.5916 7.60983C98.5859 7.6323 98.5722 7.66374 98.5585 7.66674C98.4078 7.69819 98.2583 7.72964 98.1087 7.76258Z" fill="#FFE492"/>
<path d="M170.057 15.7369C169.998 15.7549 169.922 15.7804 169.861 15.6935C169.831 15.6516 169.799 15.6381 169.76 15.6471C169.704 15.6621 169.647 15.674 169.59 15.683C169.575 15.6845 169.556 15.668 169.541 15.6546C169.509 15.6276 169.482 15.5827 169.447 15.5707C169.413 15.5587 169.372 15.5917 169.337 15.5842C169.29 15.5737 169.27 15.5333 169.283 15.4958C169.29 15.4749 169.304 15.4449 169.318 15.4404C169.53 15.385 169.531 15.385 169.59 15.4389C169.636 15.4809 169.678 15.5273 169.743 15.5018C169.798 15.4808 169.856 15.4764 169.912 15.4629C169.99 15.4449 169.99 15.4464 170.115 15.5408C170.147 15.5647 170.181 15.5632 170.222 15.5497C170.258 15.5393 170.292 15.5632 170.321 15.6037C170.302 15.6546 170.276 15.6875 170.241 15.6965C170.184 15.7115 170.128 15.722 170.057 15.7369Z" fill="#FFE492"/>
<path d="M167.84 15.2757C167.984 15.2442 168.129 15.2173 168.272 15.1813C168.332 15.1664 168.379 15.1828 168.42 15.2337C168.464 15.2892 168.514 15.2847 168.569 15.2742C168.603 15.2682 168.637 15.2921 168.659 15.3341C168.669 15.3505 168.666 15.3805 168.67 15.4045C168.544 15.4314 168.417 15.4599 168.291 15.4838C168.276 15.4868 168.258 15.4719 168.244 15.4599C168.213 15.4344 168.187 15.3895 168.154 15.3805C168.083 15.3595 168.012 15.4 167.94 15.4074C167.906 15.4104 167.873 15.388 167.85 15.3476C167.841 15.3281 167.843 15.2996 167.84 15.2757Z" fill="#FFE492"/>
<path d="M115.867 2.4003C116.017 2.36736 116.166 2.33592 116.316 2.30298C116.361 2.32394 116.381 2.35389 116.372 2.39133C116.366 2.41379 116.353 2.44524 116.339 2.44823C116.04 2.51562 115.741 2.58001 115.443 2.6444C115.398 2.62343 115.378 2.59349 115.387 2.55605C115.393 2.53359 115.406 2.50214 115.42 2.49914C115.568 2.4647 115.718 2.43325 115.867 2.4003Z" fill="#FFE492"/>
<path d="M92.777 10.7218C92.7097 10.7248 92.6389 10.7802 92.5636 10.7382C92.5488 10.7308 92.5282 10.7068 92.5293 10.6933C92.5316 10.6708 92.5453 10.6424 92.5602 10.6334C92.6252 10.596 92.7063 10.5915 92.7394 10.4867C92.7554 10.4327 92.785 10.4148 92.825 10.4043C92.8672 10.3923 92.8969 10.3968 92.93 10.4282C92.9734 10.4687 93.0099 10.5436 93.0784 10.5046C93.0818 10.5286 93.0898 10.5555 93.0863 10.578C93.0829 10.6005 93.0681 10.6214 93.0544 10.6379C93.0419 10.6529 93.0247 10.6664 93.0087 10.6708C92.9334 10.6888 92.8581 10.7038 92.777 10.7218Z" fill="#FFE492"/>
<path d="M152.134 10.4208C152.19 10.4088 152.248 10.4028 152.303 10.3819C152.346 10.3654 152.373 10.3759 152.408 10.4118C152.466 10.4747 152.469 10.4687 152.612 10.4777C152.628 10.4792 152.647 10.5017 152.656 10.5211C152.662 10.5316 152.654 10.5601 152.647 10.575C152.637 10.5945 152.622 10.62 152.609 10.62C152.518 10.6245 152.427 10.7128 152.339 10.611C152.295 10.5601 152.246 10.5361 152.185 10.5586C152.149 10.572 152.11 10.578 152.072 10.584C152.036 10.59 151.998 10.5735 151.975 10.5286C151.942 10.4627 151.961 10.4373 152.021 10.4418C152.058 10.4448 152.096 10.4283 152.134 10.4208Z" fill="#FFE492"/>
<path d="M172.813 20.7435C172.885 20.7285 172.957 20.7106 173.03 20.6986C173.045 20.6956 173.063 20.7121 173.077 20.7226C173.132 20.7675 173.124 20.8438 173.126 20.9112C173.127 20.9816 173.001 21.0385 172.947 20.9906C172.888 20.9367 172.834 20.8753 172.752 20.9083C172.72 20.9202 172.682 20.8933 172.662 20.8499C172.631 20.787 172.648 20.7615 172.706 20.766C172.74 20.769 172.777 20.7525 172.813 20.7435Z" fill="#FFE492"/>
<path d="M136.575 0.360832C136.649 0.344359 136.723 0.318914 136.797 0.317416C136.841 0.315919 136.862 0.365327 136.852 0.401268C136.846 0.423731 136.833 0.455179 136.819 0.458175C136.67 0.494115 136.522 0.524071 136.374 0.557016C136.33 0.536051 136.309 0.504608 136.319 0.468667C136.325 0.446205 136.338 0.416253 136.352 0.411761C136.426 0.390795 136.5 0.377305 136.575 0.360832Z" fill="#FFE492"/>
<path d="M171.374 15.8691C171.446 15.8541 171.519 15.8316 171.591 15.8242C171.629 15.8212 171.658 15.8556 171.663 15.8945C171.665 15.9125 171.647 15.944 171.632 15.9514C171.53 16.0024 171.419 16.0084 171.311 16.0338C171.277 16.0413 171.241 16.0173 171.22 15.9754C171.189 15.911 171.206 15.8871 171.265 15.8916C171.301 15.8931 171.338 15.8766 171.374 15.8691Z" fill="#FFE492"/>
<path d="M154.028 10.6234C154.065 10.6159 154.103 10.5965 154.138 10.6024C154.176 10.6099 154.2 10.6534 154.211 10.6968C154.224 10.7462 154.222 10.7926 154.211 10.8346C154.193 10.9065 154.174 10.9035 154.132 10.8555C154.067 10.7807 154.063 10.7896 153.934 10.7926C153.919 10.7926 153.9 10.7702 153.889 10.7507C153.872 10.7207 153.881 10.6743 153.921 10.6474C153.951 10.6279 153.992 10.6309 154.028 10.6234Z" fill="#FFE492"/>
<path d="M168.913 15.3779C168.966 15.3659 169.02 15.3465 169.074 15.3465C169.111 15.345 169.141 15.3794 169.144 15.4169C169.146 15.4348 169.128 15.4648 169.115 15.4738C169.05 15.5142 168.977 15.5172 168.906 15.5307C168.873 15.5367 168.836 15.5127 168.816 15.4708C168.785 15.4079 168.803 15.3794 168.859 15.3884C168.876 15.3914 168.894 15.3824 168.913 15.3779Z" fill="#FFE492"/>
<path d="M160.289 13.5404C160.209 13.5583 160.133 13.5359 160.139 13.497C160.147 13.446 160.18 13.4131 160.214 13.4041C160.269 13.3891 160.324 13.3771 160.38 13.3681C160.415 13.3622 160.447 13.3846 160.476 13.4236C160.459 13.4715 160.432 13.5059 160.398 13.5164C160.363 13.5269 160.325 13.5329 160.289 13.5404Z" fill="#FFE492"/>
<path d="M159.768 13.3489C159.822 13.3369 159.875 13.3174 159.929 13.3174C159.967 13.3159 159.996 13.3504 160 13.3878C160.001 13.4058 159.984 13.4357 159.97 13.4447C159.905 13.4851 159.832 13.4881 159.761 13.5016C159.728 13.5076 159.692 13.4836 159.671 13.4417C159.64 13.3788 159.659 13.3504 159.715 13.3594C159.732 13.3624 159.75 13.3534 159.768 13.3489Z" fill="#FFE492"/>
<path d="M153.51 10.6106C153.564 10.5987 153.618 10.5792 153.671 10.5777C153.709 10.5762 153.739 10.6106 153.742 10.6481C153.743 10.6661 153.726 10.6945 153.712 10.705C153.647 10.7454 153.574 10.7484 153.504 10.7619C153.47 10.7679 153.434 10.7439 153.413 10.702C153.383 10.6391 153.401 10.6106 153.457 10.6196C153.474 10.6226 153.492 10.6136 153.51 10.6106Z" fill="#FFE492"/>
<path d="M153.062 10.5229C153.119 10.5109 153.137 10.5034 153.155 10.5034C153.19 10.5034 153.225 10.5214 153.246 10.5648C153.276 10.6277 153.258 10.6457 153.202 10.6487C153.13 10.6517 153.06 10.6831 152.988 10.6891C152.95 10.6921 152.92 10.6562 152.918 10.6187C152.917 10.6008 152.934 10.5693 152.948 10.5633C152.996 10.5409 153.048 10.5274 153.062 10.5229Z" fill="#FFE492"/>
<path d="M159.339 1.71275C159.303 1.72023 159.264 1.7412 159.23 1.73371C159.184 1.72323 159.166 1.6828 159.177 1.64536C159.184 1.6244 159.197 1.59445 159.21 1.58996C159.283 1.56899 159.357 1.5555 159.431 1.54053C159.474 1.56299 159.493 1.59444 159.482 1.63187C159.475 1.65284 159.462 1.68129 159.449 1.68728C159.413 1.70226 159.376 1.70526 159.339 1.71275Z" fill="#FFE492"/>
<path d="M115.036 2.57747C115.071 2.57598 115.103 2.59544 115.13 2.63288C115.113 2.6808 115.088 2.71225 115.054 2.72573C115.037 2.73172 115.017 2.7362 114.999 2.7377C114.964 2.7407 114.932 2.71973 114.904 2.68229C114.921 2.63437 114.948 2.60292 114.981 2.58945C114.998 2.58346 115.017 2.58197 115.036 2.57747Z" fill="#FFE492"/>
<path d="M171.205 15.8629C171.204 15.8194 171.274 15.77 171.336 15.7715C171.369 15.773 171.404 15.794 171.423 15.8344C171.453 15.8958 171.436 15.9198 171.38 15.9153C171.345 15.9123 171.309 15.9377 171.275 15.9332C171.236 15.9317 171.213 15.8988 171.205 15.8629Z" fill="#FFE492"/>
<path d="M154.366 10.8045C154.365 10.788 154.359 10.7686 154.362 10.7536C154.384 10.6712 154.515 10.6458 154.55 10.7177C154.555 10.7311 154.558 10.7536 154.553 10.7671C154.546 10.788 154.534 10.815 154.52 10.821C154.485 10.836 154.448 10.8435 154.412 10.8449C154.396 10.8449 154.381 10.8195 154.366 10.8045Z" fill="#FFE492"/>
<path d="M93.3766 10.4819C93.2419 10.5133 93.2396 10.5103 93.2636 10.4355C93.2853 10.3681 93.3252 10.3277 93.3835 10.3277C93.4006 10.3277 93.4188 10.3247 93.4337 10.3306C93.4496 10.3381 93.4725 10.3531 93.4759 10.3711C93.4828 10.4055 93.4633 10.443 93.4291 10.4684C93.4143 10.4804 93.3949 10.4774 93.3766 10.4819Z" fill="#FFE492"/>
<path d="M116.695 2.36595C116.655 2.39141 116.621 2.38243 116.595 2.33451C116.57 2.28659 116.61 2.22967 116.68 2.2162C116.698 2.2132 116.718 2.20123 116.735 2.20722C116.752 2.21171 116.769 2.22967 116.779 2.24764C116.797 2.27759 116.786 2.31803 116.75 2.35248C116.735 2.36595 116.713 2.36295 116.695 2.36595Z" fill="#FFE492"/>
<path d="M170.965 15.751C170.976 15.7315 170.986 15.7121 170.997 15.6941C171.039 15.7195 171.058 15.7495 171.046 15.7839C171.039 15.8049 171.026 15.8229 171.015 15.8423C170.973 15.8169 170.956 15.7854 170.965 15.751Z" fill="#FFE492"/>
<path d="M95.1758 27.5302C95.1758 27.5122 95.1917 27.4838 95.2042 27.4778C95.2282 27.4673 95.2578 27.4882 95.2783 27.5302C95.3067 27.5901 95.2897 27.6215 95.2373 27.6051C95.2008 27.5931 95.1758 27.5631 95.1758 27.5302Z" fill="#FFE492"/>
<path d="M154.913 9.41057C154.928 9.42404 154.943 9.43753 154.957 9.4525C154.937 9.50791 154.913 9.53186 154.888 9.51688C154.872 9.5079 154.859 9.48993 154.844 9.47645C154.863 9.42104 154.886 9.40008 154.913 9.41057Z" fill="#FFE492"/>
<path d="M154.636 9.34288C154.659 9.32041 154.686 9.33241 154.718 9.37584C154.708 9.3953 154.699 9.41777 154.686 9.43274C154.665 9.4567 154.636 9.44471 154.605 9.39978C154.615 9.38181 154.625 9.36234 154.636 9.34288Z" fill="#FFE492"/>
<path d="M154.192 9.40816C154.207 9.42164 154.222 9.43512 154.236 9.4501C154.216 9.50551 154.194 9.52946 154.167 9.51448C154.152 9.5055 154.138 9.48752 154.123 9.47405C154.142 9.41864 154.165 9.39618 154.192 9.40816Z" fill="#FFE492"/>
<path d="M153.958 9.3288C153.975 9.35875 153.966 9.39469 153.933 9.43512C153.919 9.42164 153.901 9.41117 153.89 9.3932C153.872 9.36475 153.881 9.3273 153.915 9.28687C153.929 9.30184 153.944 9.31532 153.958 9.3288Z" fill="#FFE492"/>
</svg>
