<svg width="50" height="90" viewBox="0 0 50 90" fill="none" xmlns="http://www.w3.org/2000/svg">
<path d="M14.1354 50.7337C13.7982 50.7337 6.3815 50.7337 3.01026 50.7337C1.21226 50.7337 0.650391 50.0595 0.650391 48.3739C0.650391 43.8789 0.650391 39.2715 0.650391 34.7765C0.650391 32.9785 1.32464 32.4167 3.01026 32.4167H14.1354C14.1354 32.0795 14.1354 25.5618 14.1354 22.5277C14.1354 18.0327 14.922 13.7625 17.1695 9.82934C19.5293 5.78384 22.9006 3.08685 27.1708 1.51361C29.9802 0.502232 32.7896 0.0527344 35.8237 0.0527344H46.8364C48.4097 0.0527344 49.0839 0.726983 49.0839 2.30023V15.1109C49.0839 16.6842 48.4097 17.3584 46.8364 17.3584C43.8023 17.3584 40.7682 17.3584 37.7341 17.4708C34.6999 17.4708 33.1267 18.9317 33.1267 22.0782C33.0143 25.4494 33.1267 28.7083 33.1267 32.1919H46.1622C47.9602 32.1919 48.6344 32.8662 48.6344 34.6642V48.2615C48.6344 50.0595 48.0725 50.6214 46.1622 50.6214C42.1167 50.6214 33.4638 50.6214 33.1267 50.6214V87.2555C33.1267 89.1659 32.5648 89.8401 30.5421 89.8401C25.8223 89.8401 21.215 89.8401 16.4952 89.8401C14.8096 89.8401 14.1354 89.1659 14.1354 87.4803C14.1354 75.6809 14.1354 51.0709 14.1354 50.7337Z" fill="#1A3453"/>
</svg>
