<svg width="74" height="74" viewBox="0 0 74 74" fill="none" xmlns="http://www.w3.org/2000/svg">
<g clip-path="url(#clip0_2_292)">
<path d="M66.4806 7.44409C57.3506 -1.68586 42.4951 -1.68572 33.3651 7.44409C27.1294 13.6798 24.9641 22.8716 27.663 31.2091L1.30136 57.5709C0.90207 57.9701 0.677734 58.5115 0.677734 59.0761V71.1182C0.677734 72.294 1.63084 73.2469 2.80644 73.2469H14.8485C15.4132 73.2469 15.9544 73.0226 16.3539 72.6233L19.3649 69.6123C19.8248 69.1523 20.0492 68.5073 19.974 67.8612L19.5983 64.6284L24.0799 64.2059C25.0976 64.11 25.9036 63.3042 25.9995 62.2865L26.4222 57.8043L29.6553 58.1801C30.2589 58.2506 30.8631 58.0593 31.3168 57.6554C31.7703 57.2515 32.0299 56.673 32.0299 56.0656V52.1013H35.9221C36.4824 52.1013 37.02 51.8804 37.4186 51.4865L42.7073 46.2588C51.0468 48.962 60.2431 46.7971 66.4807 40.5594C75.6104 31.4296 75.6104 16.5739 66.4806 7.44409ZM63.4701 37.5491C58.0971 42.922 50.0375 44.599 42.9375 41.8221C42.1539 41.5158 41.2637 41.6994 40.6656 42.2907L35.0476 47.8439H29.901C28.7254 47.8439 27.7723 48.797 27.7723 49.9726V53.6751L24.7528 53.3242C24.1839 53.2582 23.6127 53.4239 23.1675 53.784C22.7225 54.1443 22.4413 54.6686 22.3875 55.2387L21.9259 60.1326L17.0326 60.5937C16.4624 60.6475 15.9381 60.9286 15.5777 61.3737C15.2174 61.8187 15.0516 62.3903 15.1177 62.959L15.626 67.3299L13.9666 68.9896H4.93501V59.9582L31.625 33.2681C32.223 32.6702 32.4104 31.775 32.1024 30.9875C29.3252 23.8873 31.0026 15.828 36.3754 10.4548C43.8456 2.9849 56.0001 2.9849 63.47 10.4548C70.9399 17.9246 70.9399 30.0792 63.4701 37.5491Z" fill="#4F9CF9"/>
<path d="M60.4576 13.4662C57.9676 10.9761 53.9159 10.9762 51.4261 13.4662C48.9361 15.9561 48.9361 20.0077 51.4261 22.4976C53.9159 24.9876 57.9676 24.9879 60.4576 22.4976C62.9475 20.0077 62.9475 15.9561 60.4576 13.4662ZM57.4471 19.4872C56.6172 20.3171 55.2668 20.3173 54.4367 19.4872C53.6067 18.6573 53.6067 17.3068 54.4367 16.4768C55.2689 15.6447 56.615 15.6447 57.4471 16.4768C58.2792 17.3088 58.279 18.6551 57.4471 19.4872Z" fill="#4F9CF9"/>
</g>
<defs>
<clipPath id="clip0_2_292">
<rect width="72.6503" height="72.6503" fill="white" transform="translate(0.675781 0.59668)"/>
</clipPath>
</defs>
</svg>
