<svg width="73" height="74" viewBox="0 0 73 74" fill="none" xmlns="http://www.w3.org/2000/svg">
<path d="M72.8722 73.1527V73.1497H72.8902V46.4215C72.8902 33.3459 70.1036 23.2734 54.9713 23.2734C47.6968 23.2734 42.815 27.3061 40.822 31.1291H40.6116V24.4942H26.2639V73.1497H41.2038V49.0573C41.2038 42.7138 42.3942 36.5798 50.1707 36.5798C57.8331 36.5798 57.9473 43.8191 57.9473 49.4642V73.1527H72.8722Z" fill="#1A3453"/>
<path d="M1.32227 24.3594H16.5029V72.07H1.32227V24.3594Z" fill="#1A3453"/>
<path d="M8.91489 0.50293C4.12607 0.50293 0.240234 4.37065 0.240234 9.13714C0.240234 13.9036 4.12607 17.8522 8.91489 17.8522C13.7037 17.8522 17.5896 13.9036 17.5896 9.13714C17.5865 4.37065 13.7007 0.50293 8.91489 0.50293V0.50293Z" fill="#1A3453"/>
</svg>
