<svg width="385" height="69" viewBox="0 0 385 69" fill="none" xmlns="http://www.w3.org/2000/svg">
<g clip-path="url(#clip0_2_27)">
<path d="M-0.000366211 10.5291V24.1492C-0.000366211 28.2975 5.05425 30.5099 8.14319 27.6061L22.8858 13.986C26.1152 11.0131 24.0091 5.75861 19.5863 5.75861H4.84365C2.17593 5.75861 -0.000366211 7.90188 -0.000366211 10.5291Z" fill="white"/>
<path d="M69.7803 5.75861H55.0377C50.6851 5.75861 48.5088 11.0131 51.7381 13.986L66.4808 27.6061C69.5697 30.4408 74.6244 28.2975 74.6244 24.1492V10.5291C74.6244 7.90188 72.4481 5.75861 69.7803 5.75861Z" fill="white"/>
<path d="M40.6472 39.0139L66.4819 62.9355C69.5709 65.7702 74.6255 63.6269 74.6255 59.4786V45.7202C74.6255 44.4066 74.0639 43.1621 73.081 42.2633L40.6472 12.1884C38.7517 10.46 35.8734 10.46 33.9779 12.1884L1.5441 42.2633C0.561258 43.1621 -0.000366211 44.4066 -0.000366211 45.7202V59.4786C-0.000366211 63.6269 5.05425 65.8393 8.14319 62.9355L33.9779 39.0139C35.8734 37.2854 38.7517 37.2854 40.6472 39.0139Z" fill="white"/>
</g>
<path d="M104.281 55.716L95.8978 24.9122H104.541L109.314 45.6085H109.595L114.569 24.9122H123.052L128.105 45.4882H128.366L133.059 24.9122H141.682L133.32 55.716H124.275L118.981 36.3433H118.6L113.305 55.716H104.281ZM154.783 37.9076V55.716H146.24V14.6443H154.542V30.347H154.903C155.599 28.5287 156.722 27.1048 158.272 26.0754C159.823 25.0325 161.769 24.5111 164.108 24.5111C166.247 24.5111 168.113 24.9791 169.704 25.9149C171.308 26.8374 172.551 28.1677 173.434 29.9058C174.329 31.6305 174.771 33.6961 174.757 36.1027V55.716H166.214V37.6268C166.227 35.7283 165.746 34.2509 164.77 33.1947C163.808 32.1385 162.457 31.6104 160.719 31.6104C159.556 31.6104 158.526 31.8578 157.631 32.3524C156.748 32.8471 156.053 33.5691 155.545 34.5183C155.05 35.4542 154.796 36.584 154.783 37.9076ZM181.481 55.716V24.9122H190.024V55.716H181.481ZM185.772 20.9414C184.502 20.9414 183.413 20.5203 182.503 19.678C181.608 18.8223 181.16 17.7995 181.16 16.6096C181.16 15.4331 181.608 14.4237 182.503 13.5814C183.413 12.7257 184.502 12.2979 185.772 12.2979C187.042 12.2979 188.125 12.7257 189.021 13.5814C189.93 14.4237 190.385 15.4331 190.385 16.6096C190.385 17.7995 189.93 18.8223 189.021 19.678C188.125 20.5203 187.042 20.9414 185.772 20.9414ZM213.252 24.9122V31.3297H194.702V24.9122H213.252ZM198.913 17.5321H207.456V46.2503C207.456 47.0391 207.577 47.6541 207.817 48.0953C208.058 48.5231 208.392 48.8239 208.82 48.9977C209.261 49.1715 209.769 49.2584 210.344 49.2584C210.745 49.2584 211.146 49.225 211.547 49.1582C211.948 49.0779 212.256 49.0178 212.47 48.9777L213.814 55.335C213.386 55.4687 212.784 55.6224 212.009 55.7962C211.233 55.9834 210.291 56.097 209.181 56.1371C207.122 56.2174 205.317 55.9433 203.766 55.3149C202.229 54.6865 201.032 53.7105 200.176 52.3869C199.321 51.0633 198.9 49.3921 198.913 47.3733V17.5321ZM232.524 56.3176C229.356 56.3176 226.628 55.6759 224.342 54.3924C222.069 53.0955 220.318 51.2639 219.088 48.8975C217.858 46.5176 217.243 43.7033 217.243 40.4545C217.243 37.2859 217.858 34.505 219.088 32.1118C220.318 29.7186 222.049 27.8535 224.282 26.5166C226.528 25.1796 229.162 24.5111 232.184 24.5111C234.216 24.5111 236.108 24.8387 237.859 25.4938C239.624 26.1355 241.161 27.1048 242.472 28.4017C243.795 29.6986 244.825 31.3297 245.56 33.295C246.295 35.247 246.663 37.5332 246.663 40.1537V42.5001H220.652V37.2057H238.621C238.621 35.9756 238.354 34.886 237.819 33.9368C237.284 32.9875 236.542 32.2455 235.593 31.7107C234.657 31.1625 233.567 30.8885 232.324 30.8885C231.027 30.8885 229.877 31.1893 228.875 31.7909C227.885 32.3792 227.11 33.1747 226.548 34.1774C225.987 35.1668 225.699 36.2698 225.686 37.4864V42.5201C225.686 44.0443 225.967 45.3612 226.528 46.4709C227.103 47.5805 227.912 48.4362 228.955 49.0378C229.998 49.6395 231.234 49.9403 232.665 49.9403C233.614 49.9403 234.483 49.8066 235.272 49.5392C236.061 49.2718 236.736 48.8707 237.297 48.3359C237.859 47.8011 238.287 47.146 238.581 46.3706L246.482 46.892C246.081 48.7905 245.259 50.4483 244.016 51.8655C242.786 53.2693 241.195 54.3657 239.243 55.1545C237.304 55.9299 235.065 56.3176 232.524 56.3176ZM252.238 67.2674V24.9122H260.661V30.0863H261.042C261.416 29.2574 261.958 28.4151 262.666 27.5594C263.388 26.6904 264.324 25.9684 265.474 25.3935C266.637 24.8053 268.081 24.5111 269.806 24.5111C272.052 24.5111 274.124 25.0994 276.023 26.2759C277.921 27.4391 279.439 29.1972 280.575 31.5503C281.712 33.89 282.28 36.8246 282.28 40.3542C282.28 43.7902 281.725 46.6915 280.615 49.0579C279.519 51.411 278.022 53.1958 276.123 54.4125C274.238 55.6157 272.126 56.2174 269.786 56.2174C268.128 56.2174 266.717 55.9433 265.554 55.3951C264.404 54.847 263.462 54.1584 262.727 53.3295C261.991 52.4872 261.43 51.6382 261.042 50.7826H260.781V67.2674H252.238ZM260.601 40.3141C260.601 42.1458 260.855 43.7434 261.363 45.1071C261.871 46.4709 262.606 47.5337 263.569 48.2958C264.532 49.0445 265.701 49.4189 267.078 49.4189C268.469 49.4189 269.645 49.0378 270.608 48.2758C271.571 47.5003 272.299 46.4307 272.794 45.067C273.302 43.69 273.556 42.1056 273.556 40.3141C273.556 38.5359 273.309 36.9717 272.814 35.6213C272.319 34.271 271.591 33.2148 270.628 32.4527C269.665 31.6906 268.482 31.3096 267.078 31.3096C265.688 31.3096 264.511 31.6773 263.549 32.4126C262.6 33.1479 261.871 34.1908 261.363 35.5411C260.855 36.8915 260.601 38.4825 260.601 40.3141ZM296.759 56.2976C294.794 56.2976 293.042 55.9567 291.505 55.2748C289.967 54.5796 288.751 53.5568 287.855 52.2065C286.973 50.8427 286.531 49.1448 286.531 47.1126C286.531 45.4013 286.846 43.964 287.474 42.8009C288.102 41.6377 288.958 40.7018 290.041 39.9932C291.124 39.2846 292.354 38.7499 293.731 38.3889C295.121 38.0279 296.579 37.7739 298.103 37.6268C299.894 37.4396 301.338 37.2658 302.435 37.1054C303.531 36.9316 304.326 36.6775 304.821 36.3433C305.316 36.0091 305.563 35.5144 305.563 34.8593V34.7389C305.563 33.4688 305.162 32.4861 304.36 31.7909C303.571 31.0957 302.448 30.7481 300.991 30.7481C299.453 30.7481 298.23 31.089 297.321 31.7709C296.412 32.4394 295.81 33.2816 295.516 34.2977L287.614 33.656C288.015 31.7842 288.804 30.1665 289.981 28.8028C291.157 27.4257 292.675 26.3695 294.533 25.6342C296.405 24.8855 298.571 24.5111 301.031 24.5111C302.742 24.5111 304.38 24.7117 305.944 25.1128C307.522 25.5138 308.919 26.1355 310.136 26.9778C311.366 27.8201 312.335 28.9031 313.043 30.2267C313.752 31.5369 314.106 33.1078 314.106 34.9395V55.716H306.004V51.4444H305.764C305.269 52.407 304.607 53.256 303.778 53.9913C302.949 54.7133 301.953 55.2815 300.79 55.6959C299.627 56.097 298.283 56.2976 296.759 56.2976ZM299.206 50.4015C300.463 50.4015 301.572 50.1542 302.535 49.6595C303.498 49.1515 304.253 48.4696 304.801 47.614C305.349 46.7583 305.623 45.789 305.623 44.7061V41.4372C305.356 41.611 304.988 41.7714 304.52 41.9185C304.066 42.0522 303.551 42.1792 302.976 42.2995C302.401 42.4065 301.826 42.5067 301.251 42.6003C300.676 42.6805 300.155 42.7541 299.687 42.8209C298.684 42.968 297.809 43.202 297.06 43.5228C296.311 43.8437 295.73 44.2782 295.315 44.8264C294.901 45.3612 294.694 46.0297 294.694 46.8318C294.694 47.995 295.115 48.8841 295.957 49.4991C296.813 50.1007 297.896 50.4015 299.206 50.4015ZM334.652 56.3176C331.497 56.3176 328.783 55.6492 326.51 54.3122C324.251 52.9618 322.513 51.0901 321.296 48.6969C320.093 46.3037 319.491 43.5496 319.491 40.4344C319.491 37.2792 320.099 34.5117 321.316 32.1318C322.546 29.7387 324.291 27.8736 326.55 26.5366C328.81 25.1863 331.497 24.5111 334.612 24.5111C337.299 24.5111 339.653 24.9991 341.671 25.9751C343.69 26.9511 345.288 28.3215 346.464 30.0863C347.641 31.8511 348.289 33.9234 348.41 36.3032H340.348C340.12 34.7657 339.519 33.529 338.543 32.5931C337.58 31.6439 336.317 31.1692 334.753 31.1692C333.429 31.1692 332.272 31.5302 331.283 32.2522C330.307 32.9608 329.545 33.9969 328.997 35.3606C328.449 36.7243 328.175 38.3755 328.175 40.3141C328.175 42.2795 328.442 43.9507 328.977 45.3277C329.525 46.7048 330.294 47.7543 331.283 48.4763C332.272 49.1983 333.429 49.5593 334.753 49.5593C335.729 49.5593 336.604 49.3587 337.38 48.9576C338.168 48.5565 338.817 47.9749 339.325 47.2129C339.846 46.4374 340.187 45.5082 340.348 44.4253H348.41C348.276 46.7784 347.634 48.8507 346.484 50.6422C345.348 52.4204 343.777 53.8108 341.772 54.8135C339.766 55.8163 337.393 56.3176 334.652 56.3176ZM367.918 56.3176C364.749 56.3176 362.022 55.6759 359.735 54.3924C357.463 53.0955 355.711 51.2639 354.481 48.8975C353.251 46.5176 352.636 43.7033 352.636 40.4545C352.636 37.2859 353.251 34.505 354.481 32.1118C355.711 29.7186 357.443 27.8535 359.675 26.5166C361.921 25.1796 364.555 24.5111 367.577 24.5111C369.609 24.5111 371.501 24.8387 373.252 25.4938C375.017 26.1355 376.555 27.1048 377.865 28.4017C379.188 29.6986 380.218 31.3297 380.953 33.295C381.689 35.247 382.056 37.5332 382.056 40.1537V42.5001H356.045V37.2057H374.014C374.014 35.9756 373.747 34.886 373.212 33.9368C372.677 32.9875 371.935 32.2455 370.986 31.7107C370.05 31.1625 368.961 30.8885 367.717 30.8885C366.42 30.8885 365.271 31.1893 364.268 31.7909C363.278 32.3792 362.503 33.1747 361.941 34.1774C361.38 35.1668 361.093 36.2698 361.079 37.4864V42.5201C361.079 44.0443 361.36 45.3612 361.921 46.4709C362.496 47.5805 363.305 48.4362 364.348 49.0378C365.391 49.6395 366.628 49.9403 368.058 49.9403C369.007 49.9403 369.876 49.8066 370.665 49.5392C371.454 49.2718 372.129 48.8707 372.691 48.3359C373.252 47.8011 373.68 47.146 373.974 46.3706L381.876 46.892C381.475 48.7905 380.652 50.4483 379.409 51.8655C378.179 53.2693 376.588 54.3657 374.636 55.1545C372.697 55.9299 370.458 56.3176 367.918 56.3176Z" fill="white"/>
<defs>
<clipPath id="clip0_2_27">
<rect width="74.6259" height="58.4905" fill="white" transform="translate(-0.00012207 5.75836)"/>
</clipPath>
</defs>
</svg>
