<svg width="200" height="30" viewBox="0 0 200 30" fill="none" xmlns="http://www.w3.org/2000/svg">
<path d="M99.7308 15.9481C99.5854 15.9724 99.4386 15.9891 99.2961 16.0255C99.2036 16.0482 99.164 15.9815 99.1023 15.9466C99.0818 15.9345 99.0597 15.9102 99.0406 15.9132C98.8967 15.9375 98.7528 15.9648 98.6089 15.9921C98.5648 16.0513 98.5369 16.1301 98.4694 16.1589C98.4033 16.1862 98.3255 16.1862 98.252 16.1999C98.1551 16.2166 98.0582 16.2333 97.9613 16.2484C97.9128 16.256 97.8732 16.2848 97.857 16.3394C97.8541 16.3485 97.8864 16.3713 97.904 16.3849C97.9627 16.4304 98.02 16.482 98.0846 16.5169C98.1463 16.5503 98.2227 16.4957 98.2887 16.5381C98.4371 16.6337 98.4385 16.6322 98.5516 16.614C98.6485 16.5973 98.7455 16.5791 98.8424 16.5669C98.8615 16.5639 98.8835 16.5867 98.9041 16.5988C98.9657 16.6322 99.0054 16.708 99.0964 16.6792C99.1655 16.6564 99.2418 16.6519 99.3138 16.6397C99.374 16.6837 99.4298 16.7338 99.4944 16.7687C99.5546 16.802 99.5723 16.8278 99.5399 16.8718C99.5106 16.9128 99.4694 16.9295 99.4151 16.9325C99.3666 16.934 99.3182 16.9476 99.2697 16.9552C99.2448 16.9598 99.2213 16.9628 99.1978 16.9674C99.1052 16.9841 99.1052 16.984 98.9364 16.887C98.8703 16.8491 98.7954 16.9021 98.7322 16.8657C98.6897 16.8415 98.6529 16.8051 98.6118 16.7793C98.5942 16.7687 98.5663 16.7672 98.5443 16.7702C98.4708 16.7808 98.3974 16.7884 98.3269 16.8081C98.277 16.8218 98.2476 16.8642 98.2535 16.9067C98.255 16.9234 98.2902 16.9477 98.3108 16.9492C98.3578 16.9522 98.4077 16.931 98.4532 16.9416C98.4973 16.9522 98.5428 16.9825 98.5751 17.0159C98.6412 17.0857 98.7161 17.0235 98.7792 17.0417C98.8453 17.0614 98.8996 17.1221 98.9628 17.1585C98.9789 17.1676 99.0098 17.1524 99.0347 17.1478C99.1067 17.1372 99.1787 17.1281 99.2506 17.1175C99.3109 17.1615 99.3755 17.2009 99.4298 17.251C99.5282 17.342 99.6339 17.3769 99.7617 17.3329C99.8336 17.3086 99.9041 17.3177 99.9614 17.3769C100.02 17.4375 100.088 17.4315 100.163 17.4193C100.232 17.4072 100.302 17.3738 100.373 17.4163C100.525 17.5103 100.527 17.5149 100.707 17.4785C100.762 17.4679 100.803 17.4649 100.844 17.4997C100.882 17.5316 100.923 17.5589 100.963 17.5892C101.035 17.5786 101.108 17.568 101.18 17.5559C101.273 17.5392 101.324 17.5604 101.346 17.6453C101.359 17.6969 101.365 17.7439 101.398 17.7788C101.436 17.8213 101.477 17.8198 101.533 17.8076C101.586 17.797 101.624 17.7803 101.646 17.7257C101.655 17.703 101.672 17.6817 101.688 17.6635C101.702 17.6499 101.722 17.6287 101.734 17.6317C101.756 17.6378 101.785 17.6544 101.793 17.6741C101.865 17.8577 101.865 17.8592 101.938 17.9123C102.019 17.9714 102.103 18.0245 102.176 18.0912C102.242 18.1504 102.308 18.1246 102.38 18.1246C102.434 18.1246 102.47 18.1641 102.465 18.2035C102.462 18.2263 102.442 18.2596 102.424 18.2626C102.28 18.293 102.135 18.3188 101.989 18.34C101.972 18.343 101.95 18.3157 101.929 18.3021C101.888 18.2748 101.851 18.2323 101.807 18.2232C101.763 18.2141 101.712 18.2369 101.663 18.2444C101.615 18.252 101.564 18.2718 101.52 18.2596C101.475 18.2475 101.44 18.2035 101.399 18.1747C101.38 18.161 101.354 18.1413 101.337 18.1459C101.23 18.1823 101.151 18.1322 101.075 18.0655C101.058 18.0518 101.031 18.0427 101.01 18.0458C100.84 18.0715 100.671 18.1019 100.5 18.1307C100.431 18.1428 100.376 18.0897 100.361 18.0002C100.353 17.9502 100.339 17.9001 100.339 17.8501C100.339 17.7591 100.258 17.709 100.199 17.7197C100.102 17.7348 100.004 17.747 99.9085 17.7697C99.8307 17.7879 99.7646 17.7697 99.7117 17.7151C99.6501 17.6529 99.5796 17.6651 99.5091 17.6817C99.4562 17.6939 99.4415 17.7439 99.4445 17.8698C99.4474 17.9714 99.4224 18.0033 99.327 18.02C99.2066 18.0412 99.0847 18.0624 98.9628 18.0791C98.9437 18.0822 98.9217 18.0564 98.9026 18.0427C98.8615 18.0154 98.8247 17.9714 98.7807 17.9623C98.7366 17.9517 98.6852 17.9745 98.6368 17.9836C98.5883 17.9911 98.5369 18.0124 98.4929 18.0018C98.4488 17.9911 98.4121 17.9457 98.3724 17.9168C98.3533 17.9032 98.3299 17.8835 98.3108 17.8865C98.2138 17.8986 98.1169 17.9168 98.02 17.9335C97.9113 17.9517 97.9113 17.9517 97.7571 17.8577C97.6866 17.8152 97.6162 17.8486 97.5471 17.8607C97.4737 17.8729 97.4047 17.8789 97.3474 17.8182C97.3092 17.7788 97.2666 17.7545 97.2211 17.7621C97.0992 17.7803 96.9788 17.8031 96.8569 17.8213C96.8364 17.8243 96.8085 17.8167 96.7923 17.8031C96.7145 17.7394 96.6381 17.6893 96.5295 17.7212C96.4355 17.7485 96.3341 17.75 96.2402 17.7758C96.1888 17.7894 96.1652 17.838 96.1755 17.8759C96.1814 17.8956 96.2122 17.9184 96.2328 17.9184C96.2798 17.9199 96.3312 17.8971 96.3753 17.9062C96.4663 17.9244 96.5118 18.0518 96.6308 18.0169C96.7013 17.9957 96.7747 17.9881 96.8481 17.982C96.8672 17.9805 96.8877 18.0094 96.9083 18.0245C96.967 18.0655 97.0185 18.1185 97.1036 18.0912C97.1741 18.07 97.249 18.064 97.321 18.0518C97.4355 18.0321 97.4355 18.0336 97.5838 18.1261C97.6543 18.1701 97.7248 18.1352 97.7938 18.1246C97.8452 18.117 97.8937 18.1019 97.9348 18.1231C97.998 18.155 98.0435 18.2278 98.1213 18.2232C98.1947 18.2187 98.2667 18.1974 98.3401 18.1898C98.3857 18.1853 98.4283 18.2096 98.465 18.2505C98.5032 18.2915 98.5443 18.3097 98.5942 18.3006C98.6661 18.2884 98.7396 18.2733 98.813 18.2657C98.8335 18.2642 98.8571 18.2778 98.8762 18.2899C98.9173 18.3172 98.9569 18.3491 98.9966 18.3779C99.0685 18.3688 99.142 18.3658 99.2125 18.3476C99.2668 18.3339 99.305 18.34 99.349 18.3703C99.4048 18.4113 99.4504 18.4841 99.5414 18.4492C99.5869 18.4325 99.6398 18.4371 99.6853 18.4219C99.7411 18.4022 99.7793 18.4098 99.8189 18.4553C99.8938 18.5417 99.9878 18.5432 100.085 18.5099C100.19 18.4735 100.27 18.5159 100.349 18.5827C100.433 18.6525 100.433 18.6509 100.497 18.8193C100.517 18.8678 100.571 18.8906 100.616 18.8815C100.693 18.8663 100.759 18.8739 100.815 18.9315C100.873 18.9937 100.944 18.9861 101.016 18.9694C101.111 18.9467 101.207 18.927 101.285 19.0149C101.323 19.0574 101.364 19.068 101.415 19.0574C101.561 19.0301 101.707 19.0134 101.85 18.9801C101.937 18.9588 101.986 19.0074 102.045 19.0483C102.125 19.1044 102.211 19.1545 102.211 19.2743C102.211 19.294 102.232 19.3168 102.249 19.3319C102.288 19.3638 102.329 19.3911 102.368 19.4214C102.427 19.4669 102.484 19.5048 102.565 19.4806C102.636 19.4609 102.71 19.4548 102.782 19.4411C102.854 19.4275 102.92 19.4199 102.985 19.4775C103.06 19.5428 103.139 19.6049 103.224 19.6535C103.285 19.6884 103.364 19.6292 103.429 19.6762C103.468 19.7051 103.506 19.7384 103.549 19.7627C103.567 19.7733 103.595 19.7657 103.618 19.7627C103.667 19.7566 103.716 19.7521 103.763 19.7369C103.818 19.7202 103.859 19.7233 103.9 19.7581C103.938 19.79 103.976 19.834 104.02 19.8431C104.087 19.8567 104.16 19.7961 104.226 19.8658C104.26 19.9007 104.302 19.9341 104.346 19.9447C104.39 19.9553 104.442 19.9326 104.489 19.9341C104.509 19.9341 104.534 19.9583 104.546 19.9781C104.553 19.9887 104.543 20.0175 104.533 20.0327C104.52 20.0509 104.501 20.0751 104.482 20.0782C104.336 20.1055 104.191 20.1282 104.045 20.154C103.959 20.1692 103.959 20.1692 103.784 20.0736C103.743 20.0509 103.697 20.0554 103.646 20.066C103.577 20.0797 103.506 20.1055 103.434 20.0782C103.34 19.975 103.224 19.9659 103.101 20.0054C103.05 20.022 103.003 20.022 102.965 19.9932C102.884 19.9356 102.799 19.8825 102.727 19.8143C102.671 19.7612 102.644 19.7566 102.621 19.8294C102.614 19.8522 102.606 19.8764 102.608 19.8977C102.616 19.9735 102.633 20.0478 102.641 20.1237C102.644 20.1449 102.633 20.1692 102.625 20.1919C102.602 20.2556 102.571 20.2511 102.52 20.198C102.468 20.1449 102.407 20.11 102.324 20.1343C102.254 20.1555 102.177 20.1525 102.107 20.1752C101.998 20.2086 101.922 20.1601 101.844 20.0949C101.828 20.0812 101.8 20.0736 101.779 20.0767C101.561 20.1115 101.343 20.151 101.124 20.1859C101.077 20.1934 101.035 20.1707 100.998 20.1297C100.96 20.0888 100.917 20.0676 100.87 20.0751C100.677 20.107 100.483 20.1358 100.289 20.1752C100.21 20.1919 100.146 20.1722 100.092 20.1191C100.051 20.0797 100.013 20.0676 99.9614 20.0721C99.9056 20.0767 99.866 20.0918 99.8381 20.1358C99.8116 20.1783 99.8307 20.2041 99.8894 20.2374C99.9526 20.2738 100.011 20.3209 100.072 20.3633C100.12 20.3573 100.168 20.3451 100.215 20.3466C100.236 20.3466 100.255 20.3739 100.276 20.3891C100.334 20.4331 100.389 20.4771 100.472 20.4528C100.543 20.4316 100.618 20.427 100.69 20.4134C100.79 20.3967 100.79 20.3967 100.951 20.4922C100.992 20.5165 101.036 20.515 101.089 20.5013C101.135 20.4907 101.182 20.5119 101.214 20.5574C101.227 20.5756 101.223 20.606 101.195 20.7061C101.195 20.7804 101.226 20.747 101.236 20.6985C101.252 20.6287 101.221 20.606 101.163 20.6439C101.122 20.6712 101.101 20.7107 101.111 20.7425C101.117 20.7592 101.145 20.7804 101.195 20.7061C101.324 20.6151 101.423 20.6045 101.517 20.5802C101.572 20.5666 101.608 20.5726 101.652 20.612C101.705 20.6591 101.757 20.7091 101.844 20.6849C101.938 20.6576 102.038 20.6545 102.133 20.6318C102.221 20.6105 102.267 20.6773 102.323 20.7167C102.39 20.7637 102.465 20.7106 102.527 20.7379C102.592 20.7652 102.637 20.832 102.712 20.8441C102.821 20.8032 102.89 20.879 102.972 20.9291C103.036 20.967 103.113 20.9336 103.182 20.9169C103.26 20.8987 103.324 20.9154 103.379 20.97C103.44 21.0322 103.509 21.0185 103.58 21.0049C103.744 20.9746 103.75 20.97 103.846 21.0534C103.915 21.1141 103.981 21.0868 104.05 21.0792C104.11 21.1202 104.169 21.1641 104.232 21.2005C104.248 21.2096 104.279 21.1945 104.304 21.1899C104.376 21.1778 104.449 21.1657 104.521 21.1535C104.57 21.1459 104.621 21.1232 104.665 21.1323C104.709 21.1429 104.746 21.1869 104.786 21.2157C104.825 21.2445 104.866 21.2733 104.904 21.3037C104.963 21.3492 105.019 21.3871 105.101 21.3644C105.172 21.3446 105.245 21.3386 105.319 21.3249C105.411 21.3082 105.408 21.3128 105.58 21.4038C105.673 21.4538 105.768 21.3932 105.862 21.3871C105.909 21.3841 105.954 21.4008 105.987 21.4447C106 21.4629 105.996 21.4933 106 21.5191C105.758 21.56 105.514 21.5949 105.275 21.6449C105.182 21.6647 105.134 21.6101 105.084 21.5646C105.001 21.4918 104.893 21.5979 104.815 21.5039C104.768 21.4478 104.7 21.4159 104.62 21.4432C104.573 21.4584 104.523 21.4569 104.474 21.4705C104.351 21.5039 104.238 21.5054 104.139 21.4008C104.106 21.3644 104.057 21.3446 104.022 21.3098C103.981 21.2718 103.941 21.2506 103.893 21.2582C103.674 21.2946 103.457 21.331 103.239 21.3704C103.22 21.3734 103.201 21.3962 103.185 21.4129C103.144 21.4554 103.157 21.4887 103.223 21.516C103.245 21.5251 103.263 21.5448 103.283 21.56C103.323 21.5888 103.36 21.6343 103.404 21.6449C103.448 21.6556 103.499 21.6343 103.548 21.6267C103.596 21.6192 103.647 21.5964 103.691 21.6055C103.736 21.6161 103.772 21.6601 103.813 21.6874C103.832 21.7011 103.856 21.7238 103.875 21.7223C103.972 21.7132 104.067 21.6965 104.164 21.6829C104.225 21.7238 104.276 21.783 104.348 21.7966C104.393 21.8057 104.442 21.789 104.489 21.7921C104.509 21.7936 104.536 21.8163 104.546 21.8361C104.552 21.8482 104.533 21.8785 104.518 21.8937C104.462 21.9513 104.386 21.9407 104.317 21.9589C104.242 21.9786 104.175 21.9726 104.117 21.9134C104.079 21.874 104.037 21.8527 103.99 21.8603C103.868 21.88 103.747 21.9028 103.625 21.9195C103.605 21.9225 103.58 21.9089 103.561 21.8982C103.407 21.8057 103.407 21.8027 103.298 21.8224C103.138 21.8512 103.138 21.8512 103.031 21.7708C103.01 21.7557 102.988 21.7269 102.97 21.7284C102.8 21.7526 102.631 21.7769 102.462 21.8118C102.406 21.8224 102.368 21.8224 102.327 21.783C102.292 21.7496 102.251 21.7117 102.207 21.7026C102.161 21.6935 102.111 21.7162 102.063 21.7238C102.014 21.7314 101.963 21.7511 101.92 21.739C101.876 21.7269 101.838 21.6844 101.8 21.6541C101.76 21.6222 101.718 21.6237 101.663 21.6358C101.496 21.6707 101.495 21.6662 101.329 21.5721C101.31 21.5615 101.285 21.5494 101.264 21.5524C101.142 21.5706 101.022 21.5934 100.9 21.6116C100.853 21.6192 100.807 21.5995 100.775 21.5555C100.762 21.5373 100.766 21.5069 100.757 21.4478C100.747 21.4341 100.759 21.4584 100.762 21.4811C100.784 21.4781 100.81 21.4811 100.826 21.469C100.867 21.4402 100.888 21.4023 100.878 21.3704C100.872 21.3537 100.844 21.3325 100.826 21.3325C100.794 21.3325 100.766 21.3659 100.757 21.4478C100.665 21.4978 100.566 21.5084 100.471 21.5327C100.415 21.5479 100.38 21.5403 100.336 21.5009C100.283 21.4523 100.229 21.4053 100.142 21.4296C100.048 21.4569 99.9482 21.4614 99.8512 21.4827C99.7396 21.5069 99.6912 21.3704 99.5972 21.3734C99.5003 21.3765 99.4034 21.4023 99.3064 21.4205C99.2213 21.4356 99.2213 21.4356 99.045 21.337C98.9804 21.3006 98.9041 21.3537 98.8409 21.3158C98.7983 21.2915 98.7616 21.2551 98.7205 21.2294C98.7029 21.2187 98.675 21.2187 98.6529 21.2218C98.5311 21.24 98.4077 21.2521 98.2902 21.2855C98.1566 21.3249 98.0553 21.2825 97.9598 21.193C97.8394 21.2097 97.7175 21.2187 97.5985 21.2476C97.5119 21.2688 97.462 21.2188 97.4032 21.1778C97.3827 21.1642 97.3651 21.1414 97.343 21.1353C97.321 21.1293 97.2945 21.1414 97.271 21.1459C97.1741 21.1626 97.0742 21.1702 96.9803 21.1975C96.8643 21.2324 96.8202 21.108 96.7306 21.0929C96.6704 21.1672 96.6381 21.2688 96.5192 21.2764C96.4222 21.2824 96.3253 21.3067 96.2284 21.3234C96.1799 21.331 96.1315 21.3401 96.083 21.3477C96.0052 21.3613 95.9685 21.4205 95.9846 21.5115C95.9934 21.5615 96.0008 21.6116 96.0081 21.6616C96.0228 21.7511 95.9861 21.827 95.9244 21.8376C95.7541 21.8664 95.5852 21.8967 95.4148 21.9225C95.3693 21.9301 95.3252 21.9043 95.2885 21.8633C95.2503 21.8224 95.2078 21.8042 95.1608 21.8118C94.9904 21.8406 94.8215 21.8709 94.6512 21.8967C94.6321 21.8998 94.6072 21.8846 94.5881 21.8725C94.5469 21.8452 94.5073 21.8133 94.4676 21.7845C94.3707 21.7981 94.2753 21.8072 94.1798 21.8254C94.0256 21.8527 94.0256 21.8542 93.9125 21.7708C93.892 21.7557 93.8714 21.7269 93.8523 21.7284C93.7789 21.7344 93.7069 21.7496 93.6335 21.7633C93.4176 21.8027 93.4176 21.8027 93.3545 21.7572C93.2972 21.7147 93.2458 21.6632 93.1591 21.6874C93.0652 21.7147 92.9653 21.7238 92.8684 21.739C92.7964 21.7496 92.7245 21.7617 92.6525 21.7648C92.6334 21.7663 92.6129 21.7375 92.5923 21.7223C92.5336 21.6753 92.4763 21.6374 92.3955 21.6631C92.3485 21.6783 92.2986 21.6814 92.2501 21.6889C92.1238 21.7102 92.1238 21.7102 91.9168 21.6192C91.8962 21.6101 91.8713 21.5994 91.8507 21.604C91.6804 21.6313 91.5115 21.6616 91.3411 21.6874C91.3206 21.6905 91.2956 21.6813 91.275 21.6738C91.043 21.5858 91.043 21.5858 90.7963 21.6283C90.7023 21.6434 90.6994 21.6495 90.601 21.5691C90.5569 21.5342 90.5202 21.5175 90.4688 21.5282C90.275 21.5646 90.0797 21.5888 89.8873 21.6313C89.8007 21.6495 89.7507 21.604 89.692 21.563C89.6714 21.5494 89.6494 21.5191 89.6318 21.5206C89.4379 21.5494 89.244 21.5843 89.0502 21.6131C89.0326 21.6161 89.0106 21.5858 88.99 21.5721C88.9504 21.5448 88.9122 21.5039 88.8681 21.4948C88.8226 21.4857 88.7727 21.5084 88.7227 21.516C88.6008 21.5357 88.6008 21.5342 88.4598 21.4447C88.4408 21.4326 88.4158 21.4159 88.3967 21.419C88.2029 21.4493 88.0076 21.4751 87.8152 21.5191C87.705 21.5433 87.6301 21.4993 87.5523 21.4356C87.5362 21.422 87.5083 21.4159 87.4877 21.419C87.2689 21.4538 87.0516 21.4933 86.8327 21.5282C86.7872 21.5357 86.7431 21.51 86.7064 21.4705C86.6477 21.4083 86.5787 21.4159 86.5053 21.4296C86.3364 21.4614 86.3349 21.4599 86.235 21.3871C86.2145 21.3719 86.1969 21.3522 86.1748 21.3446C86.1543 21.3371 86.1279 21.3416 86.1058 21.3446C86.0089 21.3598 85.912 21.3765 85.8151 21.3932C85.7181 21.4098 85.6197 21.419 85.5243 21.4447C85.4068 21.4766 85.351 21.378 85.2687 21.3325C85.1483 21.3522 85.025 21.3644 84.906 21.3962C84.815 21.4205 84.7724 21.3537 84.7122 21.3188C84.6916 21.3067 84.6696 21.2809 84.6505 21.284C84.4317 21.3173 84.2129 21.3537 83.9955 21.3947C83.9427 21.4038 83.9074 21.3916 83.8634 21.3552C83.765 21.2733 83.7606 21.2764 83.5961 21.3067C83.5241 21.3204 83.4551 21.3325 83.3934 21.2703C83.3391 21.2142 83.273 21.2005 83.1952 21.2187C83.0997 21.2415 83.0013 21.2536 82.9044 21.2688C82.8075 21.2855 82.7106 21.3082 82.6137 21.3158C82.5358 21.3234 82.4888 21.2521 82.4272 21.2157C82.4081 21.2051 82.3816 21.2036 82.3596 21.2066C82.2627 21.2203 82.1628 21.2309 82.0688 21.2567C81.9543 21.2885 81.8911 21.2051 81.8104 21.1566C81.7928 21.1459 81.7634 21.152 81.7413 21.1566C81.571 21.1839 81.4021 21.2142 81.2318 21.243C81.1715 21.2021 81.1099 21.1626 81.0497 21.1217C80.9527 21.1369 80.8558 21.1535 80.7589 21.1687C80.6855 21.1808 80.6106 21.1854 80.5415 21.2081C80.452 21.2385 80.4079 21.1672 80.3477 21.1323C80.3271 21.1202 80.3051 21.0944 80.286 21.0974C80.1641 21.1141 80.0423 21.1323 79.9218 21.1581C79.8073 21.1839 79.7618 21.0473 79.6678 21.0489C79.5709 21.0504 79.471 21.0701 79.377 21.0974C79.2683 21.1293 79.192 21.0807 79.1141 21.0155C79.098 21.0019 79.0701 20.9943 79.0495 20.9973C78.9276 21.0155 78.8072 21.0383 78.6853 21.0565C78.6648 21.0595 78.6398 21.0519 78.6193 21.0428C78.3872 20.9533 78.3872 20.9518 78.2859 20.97C78.2139 20.9821 78.1405 20.9973 78.0671 21.0049C78.0465 21.0079 78.0215 20.9943 78.0024 20.9821C77.8497 20.8896 77.8497 20.8881 77.7396 20.9063C77.6427 20.923 77.5457 20.9397 77.4488 20.9563C77.3886 20.9154 77.3269 20.876 77.2667 20.835C77.1463 20.8547 77.0229 20.8699 76.904 20.8972C76.8482 20.9093 76.8115 20.9048 76.7689 20.8669C76.716 20.8214 76.6632 20.7683 76.575 20.7941C76.4811 20.8214 76.3812 20.8244 76.2857 20.8471C76.1712 20.8744 76.1242 20.7364 76.0317 20.7379C75.9348 20.7395 75.8349 20.7592 75.7409 20.7865C75.6323 20.8183 75.5559 20.7698 75.4781 20.7046C75.4619 20.6909 75.434 20.6834 75.4134 20.6864C75.1462 20.7304 74.8804 20.7743 74.6131 20.8214C74.4486 20.8502 74.4486 20.8517 74.1358 20.7683C74.1138 20.7622 74.0903 20.7562 74.0683 20.7592C73.9713 20.7728 73.8715 20.7834 73.7775 20.8092C73.6629 20.8411 73.5998 20.7592 73.519 20.7091C73.5014 20.6985 73.4735 20.7046 73.45 20.7076C73.3766 20.7182 73.3046 20.7319 73.2312 20.744C73.1343 20.7607 73.0374 20.7774 72.9404 20.7941C72.8802 20.7546 72.8185 20.7137 72.7583 20.6742C72.6379 20.694 72.5146 20.7046 72.3956 20.7364C72.3046 20.7607 72.262 20.697 72.2018 20.6606C72.1812 20.6485 72.1592 20.6227 72.1401 20.6242C71.9213 20.6576 71.7025 20.6924 71.4851 20.7349C71.3955 20.7531 71.3544 20.6849 71.2942 20.65C71.2737 20.6393 71.2502 20.6196 71.2311 20.6227C71.0857 20.6439 70.9403 20.6697 70.7949 20.6955C70.7127 20.7106 70.7127 20.7106 70.5335 20.6166C70.513 20.606 70.4895 20.5954 70.4689 20.5984C70.0078 20.6742 69.5481 20.7546 69.087 20.8305C69.04 20.838 68.9974 20.8153 68.9607 20.7743C68.9226 20.7334 68.88 20.7122 68.833 20.7197C68.6391 20.7516 68.4438 20.7804 68.2514 20.8199C68.1721 20.8365 68.109 20.8168 68.0546 20.7637C68.0135 20.7243 67.9753 20.7091 67.9239 20.7182C67.827 20.7364 67.7301 20.7516 67.6332 20.7683C67.5363 20.785 67.4393 20.8017 67.3424 20.8183C67.2455 20.835 67.1471 20.8441 67.0516 20.8699C66.9342 20.9018 66.8769 20.8077 66.7961 20.7607C66.6507 20.7835 66.5053 20.8062 66.3614 20.8305C66.1676 20.8623 65.9737 20.8972 65.7799 20.9275C65.7623 20.9306 65.7402 20.9033 65.7197 20.8896C65.6595 20.8517 65.6154 20.7986 65.5258 20.8153C65.0911 20.8957 64.6535 20.9639 64.2174 21.0428C64.1263 21.0595 64.0867 20.9943 64.025 20.9594C64.0044 20.9488 63.9809 20.9275 63.9618 20.9306C63.7195 20.9685 63.4772 21.011 63.2349 21.0519C63.1365 21.0686 63.1365 21.0686 62.9721 20.9745C62.953 20.9639 62.928 20.9503 62.9074 20.9533C62.5917 21.0049 62.2774 21.0595 61.9617 21.1126C61.9147 21.1202 61.8721 21.0989 61.834 21.058C61.7972 21.017 61.7532 20.9943 61.7076 21.0019C61.4169 21.0504 61.1246 21.0974 60.8353 21.1505C60.7575 21.1657 60.6929 21.152 60.6371 21.0974C60.5974 21.058 60.5578 21.0413 60.5079 21.0504C60.0717 21.1247 59.6355 21.196 59.1994 21.2749C59.1157 21.29 59.057 21.2612 59.0041 21.2112C58.9615 21.1717 58.9248 21.1641 58.8719 21.1702C58.8161 21.1778 58.7823 21.1945 58.7515 21.24C58.7119 21.2991 58.6869 21.3735 58.5929 21.378C58.496 21.3826 58.3976 21.4008 58.3021 21.4265C58.2111 21.4523 58.1685 21.3841 58.1112 21.3431C58.0686 21.3143 58.029 21.3098 57.9746 21.3234C57.9247 21.3355 57.8939 21.3613 57.8645 21.4098C57.7999 21.513 57.794 21.513 57.7147 21.4478C57.6721 21.4129 57.6339 21.3856 57.5869 21.3916C57.3931 21.422 57.1992 21.4554 57.0054 21.4902C56.8938 21.51 56.8923 21.513 56.8086 21.4372C56.7675 21.3992 56.7279 21.381 56.6794 21.3901C56.1463 21.4811 55.6133 21.5691 55.0802 21.6647C54.9979 21.6798 54.9421 21.648 54.8834 21.6025C54.8643 21.5873 54.8452 21.5661 54.8232 21.56C54.8012 21.5539 54.7762 21.56 54.7527 21.563C54.365 21.6283 53.9758 21.6905 53.5896 21.7633C53.5015 21.7799 53.4545 21.7314 53.3943 21.692C53.3738 21.6783 53.3561 21.6571 53.3341 21.651C53.312 21.6465 53.2856 21.6571 53.2621 21.6616C52.8744 21.7268 52.4853 21.789 52.0991 21.8618C52.0065 21.8785 51.9669 21.8148 51.9067 21.7815C51.8861 21.7693 51.8641 21.7466 51.845 21.7496C51.7231 21.7663 51.6027 21.789 51.4808 21.8087C51.19 21.8588 50.8992 21.9058 50.6085 21.9574C50.4969 21.9771 50.4484 21.8421 50.3544 21.8482C50.2325 21.8558 50.1121 21.8861 49.9902 21.9073C49.8933 21.924 49.7964 21.9392 49.6995 21.9574C49.604 21.9741 49.604 21.9741 49.3661 21.8861C49.3455 21.8785 49.3206 21.8679 49.3 21.8709C48.9608 21.9271 48.6201 21.9832 48.2823 22.0438C48.2045 22.0575 48.1399 22.0499 48.0841 21.9938C48.0444 21.9544 48.0033 21.9346 47.9549 21.9437C47.4453 22.0302 46.9372 22.1167 46.4276 22.2016C46.4085 22.2046 46.3835 22.1895 46.3644 22.1773C46.3233 22.15 46.2837 22.1182 46.244 22.0894C46.2146 22.1242 46.1765 22.1561 46.1574 22.1955C46.131 22.2486 46.0957 22.2638 46.0399 22.2729C45.9841 22.282 45.9489 22.2789 45.9048 22.2395C45.8519 22.191 45.7976 22.153 45.7109 22.1682C45.1779 22.2638 44.6448 22.3502 44.1117 22.4443C44.0236 22.4594 43.9825 22.3927 43.9208 22.3578C43.9003 22.3472 43.8767 22.3305 43.8576 22.3335C43.6388 22.3684 43.4215 22.4063 43.2027 22.4427C42.5962 22.5459 41.9897 22.6445 41.3847 22.7537C41.2745 22.7734 41.1996 22.7355 41.1218 22.6703C41.1056 22.6566 41.0777 22.649 41.0572 22.6521C40.2084 22.7946 39.3596 22.9387 38.5122 23.0828C38.4667 23.0904 38.4226 23.0661 38.3859 23.0267C38.3477 22.9857 38.3052 22.966 38.2582 22.9736C37.8705 23.0388 37.4828 23.104 37.0951 23.1708C36.9982 23.1875 36.9967 23.189 36.8968 23.1162C36.8763 23.101 36.8543 23.0722 36.8381 23.0752C36.8043 23.0828 36.772 23.1207 36.7485 23.1723C36.725 23.2269 36.6883 23.2421 36.634 23.2527C36.5782 23.2633 36.5415 23.2587 36.4989 23.2223C36.4445 23.1768 36.3946 23.1329 36.3065 23.148C35.1919 23.3422 34.0772 23.5287 32.9626 23.7213C32.873 23.7365 32.8319 23.6728 32.7702 23.6379C32.7497 23.6273 32.7291 23.6121 32.7071 23.6091C32.6836 23.6061 32.6586 23.6152 32.6352 23.6197C30.8171 23.9276 28.9991 24.237 27.181 24.5449C27.0724 24.5631 27.0738 24.5631 26.9549 24.7027C26.9402 24.7194 26.9211 24.7421 26.9005 24.7451C26.344 24.8422 25.7859 24.9362 25.2279 25.0303C24.9856 25.0712 24.7433 25.1137 24.501 25.1531C24.4143 25.1668 24.4143 25.1668 24.2073 25.3306C24.1896 25.3443 24.1691 25.3624 24.1485 25.3655C23.1793 25.5308 22.21 25.6961 21.2393 25.8584C21.163 25.8706 21.1013 25.8979 21.0661 25.9707C21.0411 26.0222 21.0088 26.0526 20.9603 26.0617C20.2819 26.1769 19.6034 26.2937 18.9235 26.406C18.8427 26.4196 18.7942 26.4621 18.7546 26.5258C18.7414 26.547 18.7296 26.5713 18.7105 26.5864C18.6929 26.6001 18.6665 26.6046 18.6445 26.6092C18.0629 26.7078 17.4814 26.8094 16.8984 26.9034C16.8117 26.9171 16.7765 26.9732 16.7339 27.0324C16.7192 27.0521 16.7089 27.0794 16.6898 27.093C16.6707 27.1052 16.6428 27.1052 16.6193 27.1082C16.1347 27.1901 15.6501 27.2735 15.1655 27.3554C15.0715 27.3478 15.051 27.4358 15.0054 27.4889C14.9893 27.5071 14.9776 27.5314 14.9585 27.5435C14.9379 27.5556 14.9114 27.5541 14.8865 27.5571C14.4988 27.6224 14.1111 27.6921 13.7219 27.7528C13.6324 27.7665 13.6147 27.8438 13.5663 27.8969C13.5501 27.9136 13.534 27.9394 13.5149 27.9439C13.2726 27.9879 13.0303 28.0288 12.788 28.0683C12.7072 28.0819 12.7072 28.0804 12.5648 28.2306C12.5486 28.2473 12.5295 28.2655 12.5089 28.27C12.1462 28.3337 11.782 28.3944 11.4178 28.4566C11.3708 28.4642 11.3385 28.5006 11.315 28.5521C11.2915 28.6037 11.2578 28.6371 11.2108 28.6446C10.92 28.6947 10.6292 28.7463 10.3384 28.7918C10.2577 28.8039 10.2048 28.8418 10.1696 28.9101C10.1431 28.9616 10.1108 28.9874 10.0594 28.9965C9.76866 29.0451 9.4779 29.0982 9.18567 29.1406C9.10049 29.1528 9.05642 29.2043 9.02117 29.268C8.99327 29.3196 8.96096 29.3378 8.90662 29.3469C8.37355 29.4349 7.83902 29.5228 7.30741 29.6199C7.21783 29.6366 7.17229 29.5835 7.11355 29.5456C7.02985 29.4925 6.95204 29.4349 6.95204 29.3165C6.95204 29.2983 6.92707 29.2771 6.90944 29.2619C6.77874 29.1482 6.77874 29.1482 6.75818 29.0269C6.74643 28.9525 6.73322 28.8767 6.72294 28.8009C6.70385 28.6765 6.65684 28.6446 6.52173 28.6674C6.47327 28.675 6.42481 28.6856 6.37635 28.6917C6.30439 28.7023 6.25006 28.6522 6.23684 28.5612C6.2295 28.5112 6.2207 28.4611 6.21336 28.4111C6.28679 28.3989 6.2853 28.3974 6.41453 28.2139C6.46887 28.1365 6.46889 28.1365 6.36462 28.0592C6.32497 28.0304 6.28678 27.9985 6.24419 27.9712C6.2251 27.9591 6.20015 27.9515 6.17959 27.9545C6.0577 27.9727 5.93728 27.994 5.81686 28.0152C5.62302 28.0486 5.623 28.0486 5.42621 27.8939C5.41006 27.8817 5.38509 27.859 5.38803 27.8468C5.40418 27.7907 5.44383 27.7664 5.49376 27.7604C5.56719 27.7513 5.63914 27.7361 5.7111 27.724C5.75956 27.7164 5.80802 27.7073 5.85648 27.6997C5.90201 27.6421 5.94902 27.586 5.99161 27.5268C6.05916 27.4358 6.05914 27.4328 5.96662 27.3691C5.90788 27.3266 5.84474 27.2887 5.78453 27.2492C5.71257 27.2614 5.63914 27.275 5.56719 27.2856C5.47614 27.2993 5.43942 27.2705 5.41592 27.1719C5.39536 27.0854 5.42033 27.0111 5.49082 26.9929C5.56278 26.9747 5.63036 26.9626 5.66707 26.8852C5.70232 26.8109 5.76398 26.7821 5.84035 26.776C5.88881 26.7715 5.93727 26.7609 5.98573 26.7518C6.04888 26.7396 6.08266 26.6623 6.06945 26.5758C6.06211 26.5197 6.04741 26.4727 5.99014 26.4606C5.73609 26.4075 5.73313 26.409 5.60684 26.3058C5.59509 26.2967 5.5863 26.2695 5.59071 26.2558C5.59805 26.233 5.61421 26.1997 5.63183 26.1951C5.80071 26.1618 5.96958 26.1314 6.13846 26.1087C6.19427 26.1011 6.23539 26.0905 6.25448 26.0343C6.28092 25.957 6.26917 25.8857 6.21777 25.8326C6.20162 25.8159 6.17516 25.7947 6.15754 25.7962C5.96369 25.8235 5.77132 25.8584 5.57748 25.8857C5.55985 25.8887 5.52756 25.863 5.52022 25.8433C5.50553 25.8069 5.52755 25.7583 5.57895 25.7416C5.6465 25.7189 5.71552 25.7174 5.76104 25.6415C5.82419 25.5338 5.90201 25.4353 5.9725 25.3321C5.98425 25.3139 6.00337 25.279 5.99896 25.276C5.96225 25.2426 5.91965 25.2168 5.88147 25.185C5.81686 25.1319 5.81684 25.0576 5.83153 24.9863C5.84328 24.9287 5.88733 24.9059 5.94167 24.9059C5.96517 24.9059 5.99453 24.9059 6.01363 24.8923C6.06356 24.8589 6.07971 24.8164 6.05475 24.7846C6.04006 24.7664 6.01364 24.7406 5.99602 24.7436C5.68176 24.7937 5.366 24.8422 5.0532 24.9044C4.96068 24.9226 4.91812 24.865 4.86232 24.824C4.81973 24.7922 4.78006 24.78 4.72719 24.8028C4.67726 24.824 4.62882 24.8119 4.59798 24.7618C4.57301 24.7209 4.61706 24.686 4.73601 24.6466C4.75804 24.639 4.78299 24.6344 4.79915 24.6192C4.9695 24.4554 4.96949 24.4539 5.08697 24.4327C5.20152 24.413 5.20155 24.4115 5.26176 24.3235C5.28966 24.2825 5.32047 24.2416 5.34691 24.1991C5.35719 24.1824 5.37483 24.1521 5.36896 24.143C5.33665 24.096 5.29258 24.0854 5.24118 24.096C5.12663 24.1218 4.99155 24.1005 4.93134 24.2446C4.90784 24.2992 4.87112 24.3144 4.81826 24.3235C4.28665 24.4115 3.75502 24.5055 3.22195 24.5904C3.1353 24.6041 3.09568 24.6602 3.0619 24.7224C3.03253 24.774 3.00021 24.7891 2.94441 24.7982C2.88861 24.8073 2.84453 24.8119 2.81222 24.7618C2.79313 24.7315 2.80929 24.689 2.85334 24.6466C2.91649 24.5859 2.90474 24.5101 2.88418 24.4388C2.86949 24.3917 2.82397 24.3584 2.77551 24.3614C2.70355 24.3675 2.63455 24.3842 2.57434 24.3235C2.53909 24.2886 2.49503 24.2643 2.45538 24.234C2.37901 24.1718 2.30265 24.1081 2.19545 24.1491C2.12202 24.1339 2.07062 24.0793 2.01188 24.0368C1.91349 23.9671 1.90468 23.9564 1.97517 23.8821C2.05447 23.7987 1.99278 23.6895 2.03683 23.6076C2.08383 23.5196 2.14846 23.4423 2.20574 23.3604C2.22042 23.3391 2.23364 23.3194 2.24833 23.2982C2.21455 23.2678 2.18372 23.2299 2.14407 23.2087C2.09267 23.1814 2.06624 23.148 2.06917 23.054C2.05889 23.0403 2.06327 23.0752 2.07502 23.0843C2.08823 23.0934 2.12057 23.0858 2.13672 23.0752C2.17784 23.0464 2.19838 23.0085 2.1881 22.9766C2.18222 22.96 2.15434 22.9387 2.13672 22.9387C2.10441 22.9387 2.07651 22.9721 2.0677 23.054C1.90323 23.1162 1.73285 23.1465 1.5625 23.1708C1.54488 23.1738 1.52286 23.1435 1.5023 23.1283C1.43475 23.0767 1.43474 23.0783 1.23649 23.0631C1.21593 23.0616 1.18804 23.0403 1.17776 23.0191C1.13518 22.9266 1.13666 22.825 1.1161 22.7264C1.15428 22.6627 1.19243 22.6005 1.23208 22.5383C1.31138 22.4124 1.4142 22.3017 1.47588 22.1637C1.46266 22.0894 1.44504 22.015 1.50965 21.9544C1.69322 21.8785 1.69176 21.8785 1.74169 21.8057C1.88414 21.5995 2.02511 21.3917 2.17343 21.1884C2.21308 21.1353 2.21309 21.1065 2.1426 21.0838C2.12057 21.0777 2.09704 21.0762 2.07355 21.0792C2.00012 21.0898 1.92669 21.1171 1.85474 21.1111C1.78278 21.1065 1.72991 21.0398 1.67117 20.9988C1.61096 20.9564 1.55075 20.9124 1.49054 20.8684C1.42152 20.8729 1.35252 20.9154 1.28349 20.8471C1.23063 20.7941 1.16455 20.7561 1.10434 20.7122C1.14986 20.5969 1.23505 20.5089 1.30113 20.4073C1.36134 20.3148 1.36278 20.3163 1.52432 20.245C1.60068 20.2116 1.62712 20.0402 1.5625 19.9902C1.48467 19.9295 1.40245 19.8734 1.32315 19.8158C1.25413 19.8203 1.18365 19.8613 1.11757 19.793C1.06617 19.7415 1.00742 19.7066 0.922241 19.7263C0.778325 19.7597 0.631477 19.7763 0.486092 19.8036C0.436162 19.8127 0.381811 19.8067 0.359783 19.7551C0.345097 19.7187 0.387688 19.6687 0.436149 19.658C0.509576 19.6429 0.575652 19.6247 0.612366 19.5488C0.64761 19.473 0.712219 19.4502 0.788582 19.4396C0.809142 19.4366 0.832655 19.4184 0.842935 19.4002C0.895802 19.3122 0.954548 19.2364 1.06762 19.2394C1.11462 19.2091 1.13957 19.1712 1.12488 19.1348C1.11607 19.115 1.08525 19.0893 1.06762 19.0923C0.945736 19.1075 0.823853 19.1226 0.704902 19.1499C0.649098 19.1621 0.606487 19.1651 0.571243 19.1196C0.546278 19.0893 0.559493 19.0483 0.606486 19.0043C0.647605 18.9664 0.659366 18.9224 0.656429 18.8708C0.649086 18.751 0.605022 18.7161 0.464043 18.7237C0.362714 18.7298 0.337748 18.7101 0.31572 18.6069C0.309846 18.5827 0.295186 18.5493 0.305466 18.5326C0.368613 18.4295 0.409734 18.3021 0.528685 18.2535C0.575678 18.2353 0.625588 18.2353 0.654959 18.1959C0.684329 18.1565 0.710776 18.111 0.741615 18.073C0.779797 18.0275 0.806205 17.9851 0.788582 17.9563C0.759212 17.9047 0.712234 17.9002 0.657899 17.9184C0.610906 17.9335 0.560977 17.935 0.512516 17.9441C0.425872 17.9608 0.355399 17.9214 0.345119 17.8546C0.317217 17.6787 0.287838 17.5043 0.262873 17.3283C0.259936 17.3071 0.267258 17.2798 0.279006 17.2616C0.320125 17.1979 0.364198 17.1372 0.406786 17.075C0.456716 17.0038 0.536029 17.0174 0.603582 17.0038C0.699036 16.984 0.699003 16.9856 0.826765 16.8399C0.876695 16.7823 0.963343 16.8051 1.01474 16.7535C1.0309 16.7368 1.05586 16.7095 1.05145 16.6943C1.04558 16.6746 1.01623 16.6595 0.994198 16.6504C0.973639 16.6413 0.948679 16.6367 0.926651 16.6413C0.659379 16.6853 0.393582 16.7323 0.126309 16.7747C0.0807849 16.7823 0.0308535 16.749 0.0146996 16.7019C-0.00145419 16.658 0.00293706 16.6049 0 16.5548C0.0425874 16.4926 0.0910302 16.435 0.127744 16.3682C0.155646 16.3167 0.187959 16.2939 0.243763 16.2909C0.31719 16.2863 0.389155 16.2681 0.471393 16.2545C0.62412 16.0331 0.7739 15.801 0.938375 15.5796C1.00446 15.4901 0.988331 15.3991 1.00155 15.3035C1.01476 15.2155 1.11315 15.2292 1.17923 15.2034C1.2321 15.1822 1.2497 15.1336 1.22914 15.1003C1.21739 15.0806 1.19097 15.0578 1.17041 15.0578C1.12195 15.0578 1.07349 15.0714 1.02503 15.079C0.97657 15.0866 0.920769 15.0821 0.881118 15.1079C0.842936 15.1321 0.817957 15.1837 0.792992 15.2277C0.76509 15.2762 0.728403 15.2929 0.672598 15.2959C0.60064 15.299 0.528687 15.3126 0.456729 15.3232C0.377428 15.2641 0.295173 15.2064 0.21881 15.1443C0.204124 15.1321 0.201171 15.0972 0.20264 15.0745C0.205577 15.0153 0.183555 14.9789 0.135093 14.9501C0.0939745 14.9258 0.0601954 14.891 0.0220136 14.8606C0.0513842 14.8197 0.0837034 14.7802 0.1072 14.7362C0.158598 14.6437 0.223221 14.577 0.334829 14.58C0.378885 14.5209 0.41412 14.4481 0.471393 14.4071C0.525728 14.3677 0.61825 14.4071 0.659369 14.3176C0.679928 14.2736 0.710784 14.2236 0.750435 14.2054C0.813582 14.1766 0.895818 14.1918 0.932531 14.1068C0.954559 14.0583 0.986854 14.0143 1.02944 14.0022C1.0779 13.9885 1.12782 13.9855 1.16306 13.9567C1.18216 13.9415 1.20272 13.9172 1.20272 13.896C1.20272 13.8823 1.17337 13.8611 1.15281 13.852C1.13372 13.8414 1.10873 13.8338 1.0867 13.8368C1.01327 13.8459 0.941315 13.8626 0.867889 13.8717C0.847329 13.8748 0.82384 13.8641 0.801812 13.855C0.737197 13.8308 0.741594 13.8004 0.792992 13.7458C0.844391 13.6928 0.881124 13.6245 0.923711 13.5623C0.970704 13.5517 1.02944 13.5562 1.06174 13.5274C1.11608 13.4804 1.15425 13.4121 1.19831 13.353C1.24677 13.3439 1.2967 13.3409 1.34222 13.3242C1.36131 13.3181 1.37013 13.2847 1.38628 13.265C1.41565 13.2271 1.44064 13.1725 1.48029 13.1543C1.54491 13.127 1.6242 13.1376 1.66239 13.0542C1.68441 13.0057 1.71818 12.9541 1.7593 12.9511C1.87384 12.945 1.9223 12.8616 1.98105 12.7827C2.0251 12.7236 2.11909 12.7539 2.16755 12.6947C2.19986 12.6568 2.22337 12.6098 2.25568 12.5734C2.2689 12.5582 2.29679 12.5507 2.31882 12.5461C2.43923 12.5234 2.56112 12.5067 2.68154 12.4824C2.70063 12.4778 2.71827 12.4551 2.73295 12.4369C2.76379 12.3975 2.78286 12.3429 2.82104 12.3171C2.85922 12.2913 2.91355 12.2913 2.96054 12.2837C3.1118 12.261 3.12356 12.267 3.19258 12.1381C3.24839 12.0334 3.38498 12.1078 3.4305 11.9925C3.45694 11.9258 3.50538 11.8712 3.59202 11.8636C3.71391 11.853 3.83432 11.8241 3.95621 11.8044C4.06488 11.7862 4.06342 11.7862 4.1809 11.6452C4.23377 11.5815 4.31162 11.5906 4.38064 11.5784C4.45406 11.5663 4.52161 11.5481 4.55685 11.4723C4.5921 11.3979 4.65671 11.3737 4.7316 11.363C4.80062 11.3524 4.87847 11.36 4.93281 11.2994C5.06497 11.1538 5.06351 11.1522 5.15603 11.1371C5.30141 11.1128 5.44679 11.0885 5.59218 11.0627C5.6891 11.0461 5.79042 11.043 5.88147 11.0097C5.94756 10.9854 5.97692 10.9005 6.01951 10.8413C6.13992 10.8186 6.26034 10.7958 6.38076 10.7746C6.54964 10.7442 6.71998 10.7169 6.89033 10.6881C6.96376 10.6305 6.97406 10.5031 7.09742 10.497C7.17085 10.494 7.2428 10.4743 7.31623 10.4621C7.43812 10.4409 7.55853 10.4136 7.68042 10.403C7.77294 10.3954 7.78907 10.3135 7.83753 10.2619C7.85368 10.2437 7.86838 10.2179 7.88747 10.2134C8.07838 10.1709 8.27515 10.1618 8.46165 10.0996C8.48074 10.0936 8.49837 10.0617 8.50278 10.039C8.50571 10.0268 8.48075 10.0041 8.46459 9.99346C8.4455 9.98133 8.42055 9.96919 8.39999 9.97222C7.79348 10.0738 7.187 10.177 6.58049 10.2786C6.49532 10.2938 6.49532 10.2922 6.28826 10.4591C6.27064 10.4727 6.25005 10.4879 6.22802 10.4924C6.1311 10.5107 6.03271 10.5213 5.93726 10.544C5.85943 10.5622 5.79483 10.544 5.73903 10.4894C5.69938 10.45 5.65824 10.4379 5.60831 10.4409C5.55251 10.4454 5.51581 10.4621 5.48351 10.5031C5.44092 10.5592 5.41888 10.632 5.3293 10.6472C4.91665 10.7124 4.50396 10.7852 4.09278 10.8549C4.0355 10.8337 4.0076 10.8019 4.02229 10.764C4.0311 10.7412 4.04873 10.7109 4.06635 10.7078C4.23523 10.676 4.40558 10.6487 4.57446 10.6184C4.59795 10.6138 4.63026 10.6168 4.64347 10.6017C4.70809 10.5334 4.73161 10.4227 4.8535 10.4151C4.92399 10.4105 4.99594 10.3878 5.06349 10.3666C5.08258 10.3605 5.10021 10.3286 5.10461 10.3059C5.10608 10.2938 5.08258 10.271 5.06496 10.2604C5.00034 10.2164 4.92547 10.2695 4.86085 10.2392C4.83882 10.2286 4.80796 10.2134 4.80356 10.1952C4.80062 10.1785 4.82559 10.1512 4.84321 10.1345C4.85936 10.1193 4.88138 10.1057 4.90341 10.1011C5.09725 10.0663 5.29113 10.0299 5.48498 10.0026C5.56428 9.99193 5.62007 9.95401 5.65531 9.88424C5.68175 9.83267 5.71405 9.80538 5.76398 9.7978C6.10321 9.74168 6.44243 9.67949 6.78313 9.62792C6.86831 9.61579 6.91238 9.56574 6.94763 9.50052C6.97553 9.44896 7.00784 9.43075 7.06218 9.42165C7.54826 9.34278 8.03139 9.25482 8.51748 9.17898C8.60706 9.16533 8.6335 9.10011 8.67903 9.04399C8.69518 9.02427 8.70544 9 8.726 8.98787C8.74656 8.97574 8.77299 8.97724 8.79795 8.97421C9.18565 8.90899 9.57336 8.83923 9.96252 8.77856C10.0536 8.76491 10.0712 8.68906 10.1182 8.63598C10.1343 8.61929 10.149 8.592 10.1681 8.58745C10.4589 8.53588 10.7496 8.48735 11.0404 8.4373C11.2342 8.40393 11.4281 8.37056 11.6219 8.33871C11.7174 8.32354 11.7174 8.32201 11.8466 8.17792C11.8613 8.16124 11.8819 8.14152 11.901 8.13697C12.459 8.0399 13.0156 7.9474 13.5736 7.85184C13.6206 7.84426 13.6544 7.80936 13.6779 7.75779C13.7014 7.70622 13.7352 7.67134 13.7807 7.66375C14.2169 7.58791 14.653 7.5136 15.0906 7.44232C15.1699 7.43018 15.2257 7.39378 15.261 7.32552C15.2874 7.27396 15.3197 7.24666 15.3696 7.23908C15.8058 7.16628 16.242 7.08891 16.6796 7.01914C16.7633 7.00549 16.8044 6.95393 16.8455 6.89326C16.8602 6.87203 16.8719 6.83714 16.8896 6.83411C17.1069 6.79164 17.3228 6.74765 17.5416 6.71883C17.6326 6.7067 17.6635 6.64299 17.7002 6.58232C17.7296 6.53379 17.7634 6.51711 17.8192 6.51104C17.941 6.49739 18.0615 6.47162 18.1804 6.44583C18.198 6.44128 18.2201 6.40791 18.2215 6.38668C18.2245 6.34724 18.1907 6.31994 18.1349 6.30629C17.5533 6.40488 16.9704 6.50346 16.3888 6.60204C16.2934 6.61873 16.2934 6.61874 16.1641 6.76282C16.1494 6.77951 16.1289 6.79923 16.1083 6.80378C15.5503 6.89933 14.9937 6.99337 14.4357 7.08892C14.3887 7.09651 14.3549 7.13139 14.3314 7.18296C14.3079 7.23453 14.2741 7.26941 14.2286 7.277C13.6955 7.368 13.1624 7.46053 12.6279 7.54698C12.5486 7.55911 12.4928 7.59398 12.4576 7.66375C12.4311 7.71532 12.3988 7.74263 12.3489 7.75022C11.8393 7.83515 11.3312 7.92463 10.8201 8.00653C10.7687 8.01412 10.7306 7.97013 10.7335 7.92918C10.735 7.90794 10.757 7.87308 10.7746 7.87004C11.0404 7.81999 11.3048 7.76841 11.572 7.7305C11.6616 7.71836 11.688 7.65163 11.7335 7.59551C11.7482 7.57579 11.76 7.55 11.7791 7.53939C11.7996 7.52725 11.8261 7.52878 11.851 7.52574C12.481 7.41806 13.1111 7.30885 13.7425 7.20723C13.8336 7.19207 13.8512 7.11774 13.8982 7.06465C13.9143 7.04645 13.929 7.01916 13.9481 7.01612C14.1419 6.97972 14.3358 6.94787 14.5296 6.91602C14.8689 6.85838 15.2081 6.80074 15.5488 6.74311C15.6472 6.72642 15.6472 6.72641 15.7735 6.58384C15.7882 6.56716 15.8087 6.54594 15.8278 6.54291C16.7251 6.38972 17.6224 6.23652 18.5197 6.08485C18.5666 6.07727 18.6004 6.04238 18.6239 5.99082C18.6474 5.94076 18.6812 5.90436 18.7267 5.89526C19.9397 5.68899 21.1512 5.4827 22.3643 5.27946C22.4436 5.26581 22.4993 5.23396 22.5346 5.16267C22.5596 5.1111 22.5933 5.08381 22.6433 5.07471C23.9767 4.84871 25.3101 4.62273 26.645 4.39522C27.5423 4.24354 28.4396 4.08884 29.3368 3.9402C29.4191 3.92655 29.4631 3.87952 29.5042 3.81733C29.5174 3.7961 29.5307 3.76121 29.5483 3.75818C29.7407 3.72026 29.933 3.68538 30.1254 3.6505C30.1856 3.69145 30.2458 3.73089 30.306 3.77184C30.3516 3.71421 30.3956 3.65505 30.4412 3.59742C30.7319 3.55343 31.0183 3.48518 31.312 3.46394C31.3311 3.46243 31.3516 3.49125 31.3722 3.50642C31.5088 3.60197 31.5866 3.59438 31.6733 3.46698C31.7041 3.42148 31.7305 3.38053 31.7775 3.37294C31.9229 3.34564 32.0698 3.32744 32.2137 3.29559C32.2915 3.2789 32.3561 3.29407 32.4119 3.34867C32.4516 3.38811 32.4927 3.4048 32.5412 3.3957C32.8085 3.3502 33.0742 3.30621 33.3415 3.25767C33.3606 3.25464 33.3782 3.22884 33.3929 3.21064C33.4237 3.17121 33.4502 3.12875 33.4796 3.0878C33.5192 3.11358 33.5633 3.1333 33.5956 3.16667C33.6367 3.20611 33.6749 3.2061 33.7307 3.19548C34.7968 3.01196 35.8644 2.83298 36.9306 2.64794C37.0216 2.63278 37.0613 2.69648 37.123 2.72985C37.1435 2.74199 37.1641 2.75715 37.1861 2.76018C37.2096 2.76321 37.2346 2.75412 37.2581 2.74957C38.0584 2.61307 38.8588 2.47807 39.6591 2.34156C39.7649 2.32336 39.7649 2.32336 39.922 2.4174C39.9411 2.42953 39.9661 2.44318 39.9866 2.43863C40.3508 2.37948 40.715 2.31579 41.0777 2.25512C41.1247 2.24753 41.1644 2.2718 41.207 2.30668C41.2907 2.37493 41.2965 2.37494 41.3582 2.27483C41.3876 2.22782 41.4184 2.19898 41.4669 2.18533C41.5197 2.17017 41.5624 2.17473 41.6035 2.20203C41.6622 2.23995 41.7048 2.30365 41.7944 2.28696C42.1821 2.21568 42.5712 2.15653 42.9575 2.08373C43.0456 2.06704 43.0926 2.11861 43.1513 2.15653C43.1719 2.17018 43.1909 2.19141 43.213 2.19596C43.235 2.20051 43.2614 2.18988 43.2849 2.18533C43.7696 2.10343 44.2556 2.02306 44.7388 1.93509C44.8298 1.91841 44.8695 1.98361 44.9312 2.01698C44.9517 2.02911 44.9752 2.05036 44.9943 2.04733C45.2851 2.00031 45.5773 1.95024 45.8681 1.90019C45.9724 1.88199 45.9723 1.88351 46.1309 1.97603C46.15 1.98816 46.175 2.0003 46.1956 1.99726C46.5348 1.94114 46.8755 1.88351 47.2147 1.82587C47.319 1.80767 47.319 1.80767 47.62 1.88654C47.6421 1.89261 47.6656 1.90172 47.6876 1.89869C48.0753 1.83347 48.4644 1.76976 48.8521 1.69999C48.93 1.68634 48.9946 1.69847 49.0504 1.75307C49.09 1.79251 49.1311 1.8092 49.1796 1.8001C49.6158 1.72578 50.0534 1.6545 50.4881 1.57563C50.5718 1.56046 50.6261 1.59381 50.6848 1.6378C50.7039 1.65297 50.723 1.6742 50.7451 1.68027C50.7671 1.68634 50.7921 1.68027 50.8156 1.67572C51.2517 1.6014 51.6893 1.53163 52.124 1.45124C52.2121 1.43456 52.2591 1.48613 52.3179 1.52404C52.3384 1.53769 52.3604 1.565 52.3781 1.56348C52.5484 1.5377 52.7188 1.51495 52.8876 1.47703C52.9787 1.4558 53.0183 1.52556 53.08 1.55893C53.1006 1.56954 53.1241 1.5923 53.1432 1.58927C53.5074 1.53012 53.8716 1.46794 54.2343 1.40423C54.2857 1.39513 54.3239 1.40877 54.365 1.44821C54.4193 1.50129 54.4825 1.52253 54.5618 1.50584C54.7307 1.47096 54.901 1.4467 55.0714 1.41788C55.1712 1.4012 55.1712 1.4012 55.4767 1.48007C55.4987 1.48614 55.5222 1.49523 55.5442 1.4922C55.835 1.44366 56.1272 1.39665 56.4165 1.34356C56.4944 1.32839 56.559 1.34204 56.6148 1.39664C56.6544 1.43608 56.6941 1.45277 56.744 1.44367C57.0113 1.39817 57.2771 1.35266 57.5444 1.30716C57.6413 1.29048 57.7382 1.26165 57.8351 1.26165C57.9056 1.26317 57.957 1.33597 58.0202 1.37237C58.0378 1.38299 58.0672 1.37087 58.0907 1.36783C58.4299 1.3102 58.7706 1.25711 59.1083 1.19189C59.1965 1.17521 59.2435 1.22677 59.3022 1.26469C59.3228 1.27834 59.3448 1.30564 59.3624 1.30413C59.4843 1.28744 59.6047 1.26469 59.7266 1.24497C59.872 1.2207 60.0188 1.2025 60.1627 1.16913C60.2802 1.14183 60.3243 1.27378 60.4183 1.27833C60.4902 1.28288 60.5636 1.25711 60.6356 1.24497C60.781 1.2207 60.9264 1.19341 61.0718 1.17217C61.1232 1.16459 61.1628 1.14031 61.179 1.08571C61.1819 1.07509 61.157 1.05235 61.1408 1.0387C60.9455 0.883992 60.9455 0.883985 60.7487 0.917353C60.6268 0.938587 60.5064 0.959825 60.3845 0.978026C60.3639 0.981059 60.3404 0.968926 60.3199 0.959826C60.2611 0.934041 60.267 0.90371 60.3169 0.849108C60.3669 0.794506 60.405 0.727775 60.4476 0.66559C60.5078 0.705025 60.5666 0.744445 60.6268 0.78388C60.6753 0.776297 60.7237 0.76721 60.7722 0.759626C61.0145 0.720191 61.2568 0.679236 61.4991 0.642835C61.5167 0.639802 61.5388 0.670141 61.5593 0.685308C61.6181 0.729293 61.6709 0.767201 61.7561 0.750517C61.9735 0.706532 62.1923 0.67468 62.4096 0.636762C62.5051 0.620078 62.5051 0.62008 62.6725 0.714117C62.6916 0.724734 62.7165 0.736868 62.7371 0.733835C62.9559 0.69895 63.1732 0.661037 63.392 0.624635C63.439 0.617051 63.4846 0.636768 63.5184 0.680753C63.5316 0.698954 63.5286 0.729283 63.5844 0.978026C63.7577 1.17975 63.8767 1.15853 63.9971 1.14033C64.0485 1.13274 64.094 1.12515 64.1278 1.09482C64.1454 1.07813 64.1674 1.05386 64.1674 1.03414C64.1674 1.01898 64.1351 0.994705 64.1146 0.991671C63.9692 0.961337 63.8311 1.02505 63.6887 1.0387C63.6226 1.04477 63.5653 0.991679 63.5536 0.905226C63.5507 0.880958 63.5462 0.855175 63.5418 0.830908C63.5374 0.80664 63.5345 0.780857 63.5301 0.75659C63.4728 0.749006 63.4391 0.776303 63.4141 0.827871C63.3935 0.87034 63.3641 0.918875 63.3245 0.941626C63.2848 0.965893 63.2305 0.961351 63.1821 0.968935C63.1351 0.976519 63.0837 0.996234 63.0396 0.985617C62.9956 0.973483 62.9603 0.929491 62.9192 0.902189C62.9001 0.888539 62.8766 0.868829 62.8575 0.871862C62.6886 0.897647 62.5212 0.923421 62.3538 0.956789C62.2657 0.97499 62.2216 0.911297 62.1658 0.871862C62.1218 0.841528 62.0777 0.849102 62.0704 0.918871C62.0513 1.08571 62.1188 1.15548 62.2686 1.12363C62.392 1.09632 62.5036 1.09179 62.6005 1.19493C62.6137 1.20858 62.6446 1.21464 62.6637 1.21161C62.7841 1.19341 62.903 1.17065 63.0234 1.15245C63.0455 1.14942 63.069 1.15548 63.0896 1.16154C63.3891 1.24345 63.3891 1.24497 63.4905 1.22677C63.5389 1.21767 63.5859 1.21009 63.5815 0.979544C63.674 0.732317 63.8209 0.715636 63.9633 0.679235C64.0558 0.656484 64.0955 0.723223 64.1557 0.758108C64.1762 0.770242 64.1983 0.794505 64.2174 0.791471C64.5331 0.741419 64.8474 0.688326 65.1616 0.632208C65.2145 0.623107 65.2527 0.632209 65.2938 0.671644C65.3466 0.721696 65.4054 0.753554 65.4891 0.735353C65.6565 0.698952 65.8269 0.676206 65.9972 0.645871C66.0839 0.630704 66.0839 0.630689 66.2586 0.724726C66.2777 0.735343 66.3027 0.747477 66.3232 0.744444C66.4936 0.71866 66.6625 0.686818 66.8314 0.659517C66.8784 0.651933 66.9209 0.673165 66.9576 0.714117C66.9944 0.755068 67.0384 0.7763 67.0839 0.768717C67.2543 0.741416 67.4232 0.711091 67.5921 0.68379C67.6126 0.680756 67.6376 0.691373 67.6567 0.70199C67.8358 0.796027 67.8358 0.796011 67.9181 0.780844C68.0385 0.758093 68.1618 0.747488 68.2808 0.717153C68.3968 0.686819 68.457 0.774781 68.5363 0.823317C68.7537 0.788432 68.9725 0.759622 69.1883 0.717153C69.2764 0.698952 69.3234 0.749 69.3822 0.788435C69.4027 0.802085 69.4233 0.830906 69.4424 0.829389C69.5158 0.823323 69.5878 0.806642 69.6598 0.794508C69.7317 0.782374 69.8051 0.770242 69.8771 0.758108C69.9593 0.802093 70.0137 0.905229 70.1311 0.870344C70.2016 0.84911 70.2765 0.84456 70.3485 0.832426C70.4204 0.820292 70.4939 0.80816 70.5658 0.796026C70.6143 0.788442 70.6642 0.783885 70.7112 0.770235C70.7979 0.747484 70.8404 0.821813 70.9021 0.855181C70.9227 0.865798 70.9462 0.883986 70.9653 0.880953C71.1106 0.859719 71.2575 0.84152 71.3999 0.806635C71.5101 0.779334 71.585 0.824842 71.6628 0.888544C71.679 0.902195 71.7069 0.909777 71.7274 0.906744C71.8978 0.88096 72.0667 0.8491 72.2355 0.821798C72.2811 0.814215 72.3251 0.838482 72.3618 0.877917C72.4 0.918868 72.4426 0.9386 72.4896 0.931017C72.6585 0.903716 72.8288 0.873372 72.9977 0.846071C73.0183 0.843038 73.0432 0.855174 73.0623 0.867308C73.2268 0.961345 73.2268 0.962863 73.3237 0.944662C73.3472 0.940112 73.3722 0.937067 73.3957 0.932517C73.5161 0.911282 73.6409 0.903709 73.7584 0.867308C73.8935 0.826356 73.9919 0.877927 74.0874 0.96438C74.2078 0.94618 74.3311 0.93556 74.4486 0.905226C74.5367 0.882475 74.5837 0.940108 74.6425 0.978026C74.663 0.991676 74.685 1.01898 74.7027 1.01594C74.873 0.99016 75.0434 0.967417 75.2108 0.929499C75.3018 0.908264 75.3415 0.976505 75.4032 1.01139C75.4237 1.02352 75.4457 1.04477 75.4648 1.04173C75.5617 1.0296 75.6587 1.01139 75.7556 0.994708C75.8687 0.97499 75.8687 0.976505 76.0185 1.06903C76.089 1.11301 76.1595 1.07812 76.2285 1.06751C76.3019 1.05537 76.3709 1.04628 76.4297 1.10846C76.4664 1.1479 76.5104 1.17217 76.556 1.1661C76.6529 1.15245 76.7513 1.1388 76.8467 1.11605C76.9231 1.09785 76.9892 1.10998 77.045 1.1661C77.0846 1.20553 77.1258 1.22526 77.1742 1.21616C77.3916 1.17976 77.6104 1.14183 77.8277 1.10694C77.8468 1.10391 77.8732 1.11757 77.8908 1.13122C77.932 1.15852 77.9716 1.18885 78.0113 1.21918C78.1067 1.20553 78.2051 1.19948 78.2991 1.17824C78.399 1.15701 78.49 1.14942 78.5678 1.23284C78.584 1.25104 78.6075 1.27682 78.6266 1.2753C78.7 1.26923 78.772 1.25407 78.8439 1.24193C78.9159 1.2298 78.9893 1.21767 79.0613 1.20553C79.145 1.24345 79.1979 1.35266 79.3153 1.31777C79.3858 1.29654 79.4607 1.29199 79.5327 1.27985C79.6046 1.26772 79.6781 1.25407 79.75 1.24345C79.7735 1.24042 79.7999 1.23283 79.8205 1.2389C79.8425 1.24497 79.8616 1.2662 79.8807 1.28137C79.9394 1.32536 79.9938 1.36935 80.0775 1.34356C80.148 1.32233 80.2229 1.31778 80.2948 1.30413C80.3932 1.28744 80.3932 1.28744 80.5562 1.383C80.6223 1.42243 80.6972 1.37087 80.7604 1.40423C80.8029 1.42699 80.8397 1.4649 80.8808 1.49068C80.8984 1.5013 80.9263 1.50584 80.9469 1.50281C81.0438 1.48916 81.1422 1.47551 81.2376 1.45276C81.3155 1.43456 81.3801 1.45276 81.4344 1.50736C81.4741 1.5468 81.5137 1.56349 81.5636 1.55439C81.8059 1.51192 82.0483 1.47551 82.2891 1.42849C82.3714 1.41181 82.4374 1.4376 82.4829 1.4922C82.5608 1.58624 82.6709 1.47552 82.7517 1.55135C82.8016 1.59837 82.8516 1.65298 82.9426 1.63023C83.11 1.59079 83.2804 1.56954 83.4492 1.54224C83.5095 1.5832 83.5697 1.62416 83.6313 1.66511C83.7283 1.64842 83.8252 1.63173 83.9221 1.61656C83.9941 1.60443 84.0675 1.59078 84.1394 1.58016C84.1629 1.57713 84.1879 1.57106 84.2099 1.57864C84.232 1.58623 84.2496 1.60595 84.2702 1.62112C84.3715 1.69544 84.3715 1.69696 84.5389 1.66663C84.6108 1.65298 84.6799 1.64387 84.7401 1.70454C84.7959 1.76066 84.862 1.77127 84.9383 1.75459C85.0822 1.72425 85.2276 1.70151 85.3745 1.68027C85.42 1.67269 85.4626 1.69847 85.5008 1.73791C85.558 1.80009 85.6286 1.79403 85.7005 1.77734C85.796 1.75611 85.8899 1.73488 85.9707 1.81982C85.9869 1.83802 86.0118 1.86379 86.0295 1.86227C86.1499 1.85014 86.2718 1.84104 86.3892 1.81223C86.5067 1.78341 86.564 1.87744 86.6448 1.92294C86.7652 1.90323 86.8871 1.88351 87.0075 1.86379C87.031 1.85924 87.0589 1.8456 87.0794 1.85318C87.1661 1.88503 87.216 1.99878 87.335 1.9639C87.404 1.94418 87.4789 1.93812 87.5508 1.93357C87.5699 1.93205 87.5949 1.95783 87.6081 1.97754C87.6155 1.98816 87.6081 2.01698 87.5993 2.03214C87.5729 2.07461 87.5406 2.11406 87.5171 2.15804C87.5141 2.16411 87.542 2.1914 87.5582 2.20353C87.5978 2.23084 87.6434 2.2263 87.6962 2.21416C87.7417 2.20354 87.7887 2.22478 87.8211 2.27028C87.8343 2.28848 87.8299 2.31881 87.8019 2.41892C87.8019 2.49324 87.8328 2.45986 87.8431 2.41133C87.8592 2.34156 87.8284 2.31881 87.7696 2.35673C87.7285 2.38403 87.708 2.42347 87.7183 2.45532C87.7241 2.472 87.752 2.49324 87.8019 2.41892C87.9312 2.32791 88.0281 2.31124 88.1251 2.29455C88.15 2.29 88.1794 2.27483 88.197 2.28393C88.2602 2.32033 88.3189 2.36432 88.3806 2.40527C88.4511 2.39617 88.5171 2.37341 88.5862 2.43256C88.6831 2.51598 88.6875 2.5084 88.7815 2.49172C88.8299 2.48262 88.8784 2.47505 88.9269 2.46746C88.9753 2.45988 89.0135 2.48262 89.0561 2.51751C89.1427 2.58879 89.1501 2.58879 89.2073 2.49172C89.2411 2.43256 89.2646 2.41285 89.3072 2.44015C89.4482 2.53267 89.4496 2.53874 89.5701 2.51143C89.6699 2.48868 89.7639 2.48262 89.8373 2.56907C89.8873 2.62974 89.9034 2.61609 89.9431 2.55239C90.0488 2.38403 90.0973 2.38706 90.2955 2.5084C90.388 2.56603 90.4835 2.50385 90.5775 2.49627C90.6568 2.4902 90.7126 2.5266 90.7185 2.62215C90.7229 2.6813 90.7361 2.72378 90.789 2.7435C90.8095 2.75108 90.8345 2.7617 90.855 2.75866C90.9769 2.74046 91.0973 2.71922 91.2192 2.69799C91.2809 2.68737 91.3147 2.6161 91.3029 2.52206C91.2897 2.42196 91.3132 2.38554 91.4013 2.35673C91.4542 2.34004 91.4968 2.34309 91.5394 2.37039C91.5864 2.40072 91.5732 2.42802 91.532 2.48263C91.4336 2.6161 91.4454 2.69799 91.5717 2.79051C91.6157 2.82236 91.651 2.85119 91.6613 2.89821C91.6671 2.92247 91.6613 2.95432 91.6745 2.97253C91.7464 3.07415 91.8463 3.13937 91.9579 3.18791C92.0651 3.14696 92.1385 3.2152 92.2208 3.2698C92.2854 3.31227 92.3617 3.27587 92.4308 3.26071C92.5086 3.24402 92.5732 3.25615 92.629 3.31227C92.6687 3.35171 92.7098 3.3699 92.7582 3.36232C92.8552 3.34563 92.9536 3.33502 93.049 3.31075C93.1312 3.28952 93.1929 3.31986 93.2443 3.37143C93.309 3.43664 93.3809 3.39265 93.4485 3.40175C93.5395 3.41237 93.5851 3.54735 93.704 3.51095C93.7745 3.48972 93.8479 3.48214 93.9213 3.47607C93.9404 3.47455 93.9639 3.50034 93.9801 3.51854C94.0579 3.60196 94.149 3.59741 94.2488 3.57314C94.3178 3.55646 94.3854 3.5413 94.4529 3.59893C94.5645 3.696 94.6879 3.78095 94.8054 3.87043C94.8216 3.9402 94.8098 4.02209 94.8935 4.06304C94.9375 4.08428 94.9787 4.11614 95.0125 4.15103C95.0536 4.19198 95.0917 4.2026 95.1446 4.19198C95.2401 4.17075 95.34 4.16618 95.4339 4.13888C95.5206 4.11461 95.5749 4.16468 95.6278 4.2117C95.6703 4.24962 95.71 4.26781 95.7614 4.24051C95.8143 4.21472 95.8524 4.2314 95.895 4.27235C95.9552 4.32847 95.9597 4.32241 96.1594 4.3391C96.1799 4.34061 96.2049 4.36335 96.2166 4.38307C96.2225 4.39369 96.2093 4.42404 96.199 4.43921C96.1858 4.45741 96.1652 4.47863 96.1461 4.48318C95.9288 4.52261 95.71 4.5575 95.4927 4.59693C95.4706 4.60148 95.4472 4.61211 95.431 4.62728C95.4134 4.64396 95.3913 4.6667 95.3913 4.68793C95.3913 4.7031 95.4207 4.72131 95.4412 4.73193C95.5059 4.76681 95.5822 4.71373 95.6454 4.75316C95.688 4.77895 95.7232 4.81534 95.7658 4.83961C95.7834 4.85022 95.8113 4.84871 95.8334 4.84568C95.9068 4.83506 95.9788 4.8199 96.0522 4.8108C96.0727 4.80928 96.0962 4.82445 96.1153 4.83659C96.2563 4.92759 96.2563 4.92759 96.3782 4.90787C96.4267 4.90029 96.4781 4.87753 96.5236 4.88663C96.5676 4.89573 96.6058 4.93669 96.6455 4.96247C96.7277 5.01707 96.8055 5.07016 96.8114 5.18846C96.8143 5.23396 96.8628 5.27339 96.9112 5.27642C96.9582 5.27946 97.0082 5.26279 97.0566 5.25369C97.1712 5.23549 97.1712 5.23549 97.3195 5.32801C97.3606 5.35379 97.4047 5.35682 97.4575 5.34165C97.4781 5.33559 97.5031 5.34166 97.5251 5.34924C97.5971 5.37199 97.5971 5.4008 97.5501 5.45541C97.484 5.53579 97.4898 5.54338 97.6749 5.61163C97.7454 5.63742 97.7997 5.68596 97.8584 5.72843C97.9539 5.79668 97.9525 5.79667 97.8893 5.88615C97.8746 5.90587 97.8614 5.92711 97.8467 5.94834C97.8041 6.0075 97.7703 6.07119 97.6822 6.07726C97.5853 6.08333 97.4884 6.1076 97.3915 6.12429C97.2975 6.14097 97.2725 6.17736 97.2813 6.2805C97.2916 6.40487 97.3107 6.41852 97.4796 6.41701C97.5281 6.41701 97.5706 6.42914 97.6073 6.47009C97.5897 6.51862 97.5574 6.55654 97.5104 6.56564C97.39 6.58839 97.2681 6.60812 97.1477 6.62783C97.0508 6.64452 96.9539 6.66119 96.8569 6.67788C96.7967 6.6885 96.7585 6.76737 96.7747 6.85534C96.7835 6.90539 96.7908 6.95545 96.7982 7.0055C96.8143 7.1056 96.8452 7.13139 96.9436 7.12684C96.9685 7.12533 96.992 7.11318 97.0155 7.11622C97.111 7.12683 97.1565 7.25272 97.271 7.22693C97.3665 7.2057 97.4664 7.20115 97.5604 7.17385C97.647 7.14958 97.6954 7.2042 97.7557 7.24515C97.7762 7.2588 97.7983 7.2876 97.8159 7.28609C97.9378 7.2694 98.0597 7.25273 98.1786 7.22392C98.2344 7.21178 98.2682 7.22088 98.3122 7.25728C98.418 7.34525 98.4209 7.3407 98.578 7.3134C98.6926 7.29216 98.6941 7.29519 98.8409 7.38772C98.882 7.4135 98.9261 7.41349 98.979 7.40136C99.048 7.38619 99.1199 7.36193 99.1919 7.38468C99.2139 7.39075 99.2418 7.40895 99.2492 7.42867C99.2536 7.44232 99.233 7.47569 99.2154 7.48631C99.0862 7.56518 98.9349 7.55153 98.7939 7.58338C98.7499 7.59248 98.7058 7.56366 98.6691 7.52271C98.6309 7.48175 98.5898 7.46508 98.5399 7.47266C98.4429 7.48934 98.3446 7.49996 98.2491 7.52422C98.1669 7.54546 98.1096 7.51057 98.0523 7.46355C98.0332 7.44838 98.0112 7.41956 97.9921 7.42108C97.7748 7.45141 97.556 7.48176 97.3401 7.52422C97.2534 7.54243 97.2035 7.49389 97.1448 7.45294C97.1242 7.43929 97.1037 7.41047 97.0846 7.41199C97.0111 7.41806 96.9392 7.43474 96.8658 7.44687C96.5985 7.49237 96.3326 7.53787 96.0654 7.58034C96.0478 7.58338 96.0257 7.55152 96.0052 7.53787C95.9655 7.51057 95.9244 7.48478 95.8833 7.459C95.8099 7.47113 95.7379 7.4863 95.6645 7.4954C95.6116 7.50146 95.5646 7.52271 95.5573 7.58034C95.5529 7.61826 95.6013 7.65314 95.6527 7.65011C95.7027 7.64707 95.7526 7.62887 95.7937 7.64859C95.9978 7.74566 95.9978 7.74718 96.1256 7.72746C96.2372 7.70926 96.2254 7.69409 96.3238 7.77751C96.3664 7.81391 96.4046 7.83515 96.4531 7.82605C96.5735 7.80482 96.6954 7.78358 96.8173 7.76538C96.8364 7.76235 96.8613 7.77752 96.8804 7.78965C97.0243 7.88066 97.0243 7.88368 97.1433 7.86093C97.299 7.83363 97.3048 7.82605 97.4091 7.91857C97.4811 7.98227 97.5471 7.93828 97.6161 7.93525C97.6954 7.9944 97.7821 8.0475 97.8541 8.11423C97.9392 8.1931 98.0288 8.17944 98.1257 8.15669C98.1977 8.14 98.2682 8.13394 98.3269 8.19612C98.3827 8.25376 98.4503 8.25984 98.5266 8.24467C98.5957 8.23102 98.6662 8.20219 98.7381 8.23556C98.7572 8.24466 98.7866 8.26742 98.7851 8.28107C98.7836 8.3023 98.7645 8.33264 98.7454 8.34174C98.6103 8.40393 98.462 8.40241 98.3196 8.43122C98.3005 8.43577 98.2755 8.41909 98.2564 8.40695C98.2153 8.37965 98.1757 8.34781 98.136 8.31899C98.0641 8.32809 97.9906 8.33111 97.9202 8.34931C97.8658 8.36297 97.8247 8.36146 97.785 8.32506C97.7483 8.29169 97.7087 8.25073 97.6646 8.24012C97.6206 8.2295 97.5692 8.25225 97.5207 8.26135C97.4723 8.27045 97.4165 8.26589 97.3783 8.29016C97.3401 8.31443 97.3166 8.36752 97.2916 8.40999C97.2637 8.45701 97.2255 8.47218 97.1697 8.47673C97.1183 8.48128 97.0772 8.47521 97.039 8.43274C97.0229 8.41454 97.0008 8.40089 96.9788 8.38875C96.9582 8.37813 96.9348 8.36144 96.9157 8.36448C96.6968 8.39936 96.4795 8.4373 96.2607 8.4737C96.152 8.4919 96.1535 8.49188 95.9273 8.4024C95.9068 8.39481 95.8818 8.3842 95.8613 8.38723C95.7394 8.40543 95.619 8.42667 95.4971 8.44791C95.3737 8.46914 95.3752 8.4661 95.1652 8.37055C95.127 8.35235 95.0712 8.37662 95.0257 8.37359C94.9302 8.366 94.8832 8.2386 94.7716 8.26287C94.6762 8.2841 94.5763 8.28865 94.4808 8.31595C94.3942 8.34022 94.3443 8.28714 94.2855 8.24619C94.265 8.23254 94.2429 8.2022 94.2253 8.20523C94.0065 8.2386 93.7892 8.27652 93.4984 8.28107C93.4264 8.28107 93.4587 8.31293 93.5057 8.32354C93.5733 8.34023 93.5953 8.30837 93.5586 8.24771C93.5322 8.20524 93.494 8.18399 93.4631 8.19461C93.447 8.20067 93.4264 8.2295 93.4984 8.28107C93.5748 8.33871 93.5704 8.37055 93.5836 8.38875C93.6159 8.43274 93.6614 8.45094 93.7084 8.44487C93.7818 8.43425 93.8538 8.41909 93.9272 8.40999C93.9478 8.40695 93.9727 8.41757 93.9918 8.42971C94.1534 8.52374 94.1548 8.52982 94.3267 8.49341C94.381 8.4828 94.4206 8.4828 94.4632 8.51161C94.522 8.55105 94.5646 8.61778 94.6541 8.59654C94.7731 8.56772 94.895 8.55105 95.0169 8.53437C95.0359 8.53134 95.0565 8.55864 95.0785 8.57077C95.1387 8.60717 95.1828 8.67542 95.2724 8.64661C95.3414 8.62385 95.4163 8.61777 95.4897 8.61322C95.5088 8.61171 95.5382 8.63598 95.547 8.6557C95.5646 8.69058 95.5426 8.73154 95.4927 8.76036C95.4721 8.77249 95.4442 8.76946 95.4207 8.77401C95.3238 8.79069 95.2269 8.80888 95.1299 8.82253C95.0785 8.83012 95.0301 8.85288 95.0242 8.909C95.0198 8.94691 95.0727 8.98028 95.1226 8.97724C95.196 8.97269 95.2694 8.96056 95.3399 8.94084C95.4648 8.90747 95.5734 8.91657 95.6748 9.01212C95.7467 9.07886 95.7423 9.0546 95.8187 9.25178C95.8378 9.30183 95.8951 9.30638 95.945 9.30334C96.0654 9.29576 96.1212 9.31851 96.1109 9.36553C96.0977 9.42317 96.0551 9.44136 96.0008 9.44894C95.9038 9.46108 95.8069 9.4808 95.71 9.49749C95.6865 9.50204 95.6601 9.51113 95.638 9.5081C95.616 9.50506 95.5955 9.48687 95.5764 9.47322C95.5353 9.4444 95.5 9.4004 95.4559 9.38979C95.4119 9.37917 95.3605 9.40192 95.312 9.41102C95.2636 9.41861 95.2122 9.44136 95.1681 9.43074C95.1241 9.42013 95.0873 9.37463 95.0477 9.34733C95.0286 9.33368 95.0051 9.31243 94.986 9.31395C94.8891 9.32609 94.7922 9.34581 94.6953 9.36098C94.5763 9.3807 94.5763 9.3807 94.4324 9.28666C94.3913 9.25936 94.3487 9.26088 94.2944 9.27302C94.1769 9.29728 94.1754 9.29272 93.961 9.20475C93.9404 9.19565 93.9154 9.18504 93.8949 9.18959C93.6761 9.22447 93.4587 9.26239 93.2414 9.29879C93.0549 9.33064 93.0549 9.33065 92.9521 9.48232C92.8757 9.59456 92.8743 9.59455 92.9492 9.64612C93.0094 9.68859 93.0637 9.75077 93.1298 9.77352C93.1915 9.79476 93.2678 9.72651 93.3354 9.79628C93.3692 9.83116 93.4132 9.86908 93.4558 9.87515C93.5233 9.88273 93.5953 9.83874 93.6599 9.90548C93.6922 9.93885 93.7407 9.97374 93.7818 9.97526C93.8538 9.97829 93.9272 9.95401 93.9992 9.9434C94.0212 9.94036 94.0462 9.94037 94.0667 9.94795C94.0888 9.95705 94.1078 9.97526 94.1269 9.99042C94.1857 10.042 94.2488 10.0663 94.3252 10.0405C94.45 9.998 94.5616 10.0192 94.6585 10.1163C94.6718 10.13 94.7041 10.1315 94.7246 10.1254C94.7775 10.1102 94.823 10.1087 94.8627 10.1375C94.8788 10.1497 94.9023 10.1709 94.8994 10.1846C94.895 10.2073 94.8773 10.2376 94.8582 10.2452C94.7202 10.2968 94.5719 10.3029 94.4295 10.3302C94.4104 10.3332 94.3869 10.3135 94.3678 10.2998C94.3267 10.2725 94.2914 10.227 94.2474 10.2164C94.2033 10.2058 94.1519 10.2255 94.1034 10.2331C94.055 10.2407 94.0036 10.2634 93.9595 10.2543C93.9155 10.2437 93.8743 10.2058 93.8391 10.1724C93.798 10.1345 93.7583 10.13 93.704 10.1451C93.6335 10.1649 93.5601 10.1679 93.4881 10.1785C93.4485 10.1497 93.4088 10.1178 93.3677 10.0905C93.3486 10.0769 93.3251 10.0602 93.3046 10.0617C93.2076 10.0738 93.1107 10.092 93.0138 10.1087C92.9168 10.1254 92.9169 10.1254 92.7524 10.0314C92.7333 10.0208 92.7083 10.0086 92.6878 10.0117C92.5659 10.0299 92.4454 10.0526 92.3236 10.0708C92.2766 10.0784 92.234 10.0571 92.1958 10.0162C92.1591 9.97524 92.115 9.95249 92.0695 9.96008C91.8757 9.99193 91.6818 10.0223 91.488 10.0602C91.4101 10.0754 91.344 10.0617 91.2912 10.0071C91.2295 9.94492 91.1605 9.96009 91.0885 9.97222C90.9255 10.0026 90.9241 10.001 90.8198 9.92368C90.7992 9.90851 90.7787 9.87969 90.7596 9.88121C90.5907 9.90396 90.4204 9.92519 90.253 9.9616C90.1648 9.98131 90.1178 9.92823 90.0591 9.8888C90.0385 9.87515 90.0165 9.84633 89.9989 9.84936C89.877 9.86604 89.7551 9.88122 89.6361 9.91155C89.5172 9.94189 89.4717 9.80083 89.3821 9.80235C89.2602 9.80387 89.1398 9.83875 89.0194 9.85999C88.9224 9.87667 88.8255 9.89335 88.7286 9.91003C88.6317 9.92672 88.5348 9.94036 88.4378 9.96008C88.3864 9.9707 88.3483 9.95704 88.3057 9.91912C88.2514 9.86907 88.1867 9.82965 88.128 9.78415C88.0384 9.71893 88.0384 9.71892 87.9297 9.73712C87.9062 9.74167 87.8813 9.7447 87.8578 9.74925C87.6801 9.78262 87.6801 9.7796 87.4539 9.68404C87.4436 9.67949 87.4172 9.69618 87.4069 9.70831C87.3761 9.74775 87.3482 9.79021 87.3203 9.83116C87.2807 9.80689 87.2322 9.79324 87.2058 9.75836C87.1309 9.65977 87.0134 9.79476 86.937 9.69769C86.9091 9.66129 86.8606 9.62943 86.8166 9.62033C86.771 9.61123 86.7197 9.63247 86.6727 9.64157C86.5508 9.66432 86.5508 9.66281 86.4465 9.7978C86.3936 9.86453 86.3173 9.85239 86.2483 9.86756C86.1763 9.88424 86.1073 9.89335 86.0471 9.83116C85.9927 9.77504 85.9267 9.7614 85.8488 9.7796C85.7534 9.80235 85.655 9.81599 85.5581 9.82964C85.5375 9.83267 85.5125 9.8251 85.492 9.816C85.2673 9.72651 85.2673 9.725 85.1586 9.74471C85.1101 9.75381 85.0602 9.75684 85.0132 9.77049C84.9339 9.79475 84.8737 9.7629 84.8165 9.71437C84.7974 9.6992 84.7753 9.6704 84.7562 9.67192C84.6593 9.6795 84.5639 9.69315 84.4684 9.7068C84.395 9.71741 84.3215 9.72348 84.2511 9.74471C84.1336 9.7796 84.0763 9.681 83.9955 9.6355C83.8751 9.65521 83.7532 9.66887 83.6328 9.69617C83.577 9.7083 83.5403 9.70376 83.4977 9.66736C83.4434 9.62186 83.3934 9.57029 83.3053 9.59304C83.1878 9.62338 83.0645 9.634 82.9441 9.6522C82.8633 9.60518 82.8046 9.50961 82.6886 9.5445C82.6181 9.56573 82.5432 9.57028 82.4712 9.58241C82.3743 9.5991 82.2774 9.61428 82.1805 9.63248C82.0762 9.65068 82.0776 9.64613 81.9176 9.55664C81.8251 9.50356 81.7296 9.56271 81.6356 9.57181C81.5622 9.57939 81.5255 9.64915 81.5431 9.73864C81.5607 9.82813 81.521 9.8979 81.4535 9.91003C81.2846 9.93885 81.1143 9.96918 80.9454 9.99496C80.9248 9.99799 80.8999 9.98738 80.8808 9.97676C80.7002 9.88121 80.7001 9.88274 80.6194 9.89639C80.499 9.91914 80.3756 9.93126 80.2567 9.96008C80.1744 9.9798 80.1142 9.94796 80.0613 9.89639C80.0202 9.85695 79.982 9.84785 79.9292 9.85695C79.3476 9.95857 78.7661 10.0526 78.186 10.1573C78.0994 10.1724 78.0495 10.1284 77.9907 10.0875C77.9702 10.0738 77.951 10.045 77.9305 10.045C77.882 10.045 77.8336 10.0587 77.7851 10.0678C77.5678 10.1042 77.3504 10.1482 77.1316 10.1755C77.0391 10.1876 77.0141 10.2574 76.9745 10.315C76.9436 10.359 76.9084 10.3772 76.8541 10.3833C76.8012 10.3893 76.763 10.3817 76.7219 10.3423C76.669 10.2907 76.6088 10.2589 76.5266 10.2801C76.4312 10.3044 76.3342 10.315 76.2358 10.3317C76.1859 10.3393 76.1477 10.3666 76.1315 10.4212C76.1286 10.4303 76.1595 10.453 76.1771 10.4667C76.2358 10.5122 76.2916 10.5653 76.3577 10.5971C76.4253 10.629 76.4987 10.5926 76.5692 10.5835C76.5941 10.5804 76.6176 10.5713 76.6411 10.5728C76.6631 10.5744 76.6896 10.5819 76.7058 10.5956C76.7821 10.6638 76.8629 10.7109 76.9686 10.6699C77.0596 10.6896 77.1067 10.8155 77.2227 10.7822C77.2932 10.7624 77.3666 10.7533 77.44 10.7458C77.4591 10.7442 77.4797 10.7715 77.5002 10.7852C77.559 10.8231 77.606 10.8838 77.6941 10.858C77.7881 10.8307 77.8879 10.8261 77.9834 10.8049C78.0362 10.7928 78.0744 10.8034 78.1155 10.8428C78.1684 10.8929 78.2286 10.9308 78.3109 10.9065C78.3813 10.8853 78.4562 10.8807 78.5282 10.8671C78.6222 10.8504 78.6222 10.8519 78.7896 10.946C78.8087 10.9566 78.8336 10.9687 78.8542 10.9657C78.9761 10.9475 79.0965 10.9247 79.2184 10.9065C79.2654 10.8989 79.3109 10.9186 79.3432 10.9626C79.3565 10.9808 79.352 11.0112 79.3564 11.037C79.1141 11.0779 78.8718 11.1128 78.631 11.1629C78.5399 11.1826 78.4988 11.1204 78.4386 11.0855C78.418 11.0734 78.396 11.0476 78.3769 11.0506C78.2066 11.0764 78.0377 11.1037 77.8688 11.1371C77.816 11.1477 77.7763 11.1416 77.7367 11.0976C77.6353 10.9808 77.512 11.0445 77.3974 11.0612C77.3093 11.0734 77.2814 11.1204 77.2917 11.2205C77.3049 11.3388 77.3578 11.3752 77.4929 11.354C77.5413 11.3464 77.5898 11.3358 77.6383 11.3297C77.6852 11.3236 77.7279 11.3433 77.766 11.3843C77.8027 11.4252 77.8468 11.4465 77.8923 11.4404C77.9892 11.4268 78.0876 11.4131 78.1816 11.3904C78.2594 11.3722 78.3241 11.3873 78.3784 11.4434C78.4386 11.5056 78.5091 11.492 78.5796 11.4783C78.7441 11.448 78.7455 11.4495 78.8483 11.5253C78.8689 11.5405 78.8895 11.5693 78.9086 11.5678C79.0774 11.5451 79.2478 11.5254 79.4137 11.4889C79.5004 11.4707 79.5503 11.5193 79.6076 11.5587C79.6281 11.5724 79.6487 11.6027 79.6678 11.5997C79.7897 11.583 79.9115 11.5663 80.0305 11.5375C80.0863 11.5238 80.1201 11.5329 80.1656 11.5693C80.2743 11.6588 80.2772 11.6558 80.4314 11.627C80.4784 11.6179 80.5298 11.6012 80.5738 11.6133C80.6179 11.6254 80.6532 11.6694 80.6943 11.6967C80.7134 11.7089 80.7369 11.7255 80.7574 11.7225C80.8543 11.7104 80.9513 11.6922 81.0482 11.6755C81.1392 11.6588 81.1392 11.6603 81.3096 11.7544C81.3786 11.7938 81.4506 11.7604 81.5196 11.7483C81.5945 11.7347 81.662 11.7347 81.7193 11.7938C81.7766 11.853 81.8456 11.8499 81.919 11.8378C81.9881 11.8257 82.0585 11.7923 82.129 11.8333C82.2906 11.9273 82.2906 11.9288 82.3904 11.9106C82.5358 11.8848 82.6797 11.8605 82.8266 11.8378C82.8457 11.8348 82.8706 11.853 82.8897 11.8651C82.9308 11.8924 82.9661 11.9379 83.0102 11.9485C83.0542 11.9606 83.1056 11.9424 83.1526 11.9333C83.3039 11.9045 83.3141 11.8939 83.4155 11.994C83.5006 12.0759 83.6064 11.9576 83.6857 12.0517C83.7312 12.1047 83.7929 12.1472 83.878 12.1214C83.9485 12.1002 84.022 12.0941 84.0954 12.082C84.2114 12.0623 84.2114 12.0638 84.3583 12.1548C84.3773 12.1669 84.4023 12.1821 84.4214 12.179C84.5183 12.1669 84.6167 12.1563 84.7107 12.129C84.8209 12.0972 84.8913 12.1548 84.9736 12.2109C85.0382 12.2549 85.1146 12.2185 85.1836 12.2033C85.2585 12.1882 85.326 12.1927 85.3818 12.2519C85.4406 12.3125 85.5096 12.3049 85.583 12.2928C85.652 12.2822 85.7225 12.2473 85.793 12.2898C85.9443 12.3838 85.9443 12.3838 86.0544 12.3656C86.1513 12.3489 86.2483 12.3307 86.3452 12.3186C86.3643 12.3156 86.3878 12.3353 86.4068 12.3489C86.448 12.3762 86.4832 12.4217 86.5273 12.4324C86.5713 12.443 86.6227 12.4233 86.6712 12.4157C86.7197 12.4081 86.771 12.3853 86.8151 12.3944C86.8592 12.4035 86.9003 12.4415 86.9355 12.4748C86.9767 12.5143 87.0148 12.5188 87.0706 12.5036C87.1411 12.4839 87.2145 12.4794 87.2865 12.4688C87.3261 12.4976 87.3673 12.5264 87.4055 12.5582C87.4451 12.5916 87.4877 12.5886 87.542 12.5779C87.7226 12.5415 87.7241 12.5461 87.8754 12.6401C87.9444 12.6826 88.0164 12.6477 88.0854 12.6371C88.1588 12.625 88.2278 12.6189 88.2851 12.6796C88.3409 12.7372 88.4099 12.7448 88.4834 12.7266C88.5304 12.7145 88.5803 12.7069 88.6288 12.7023C88.6508 12.7008 88.6772 12.7069 88.6934 12.719C88.7712 12.7827 88.8476 12.8404 88.9548 12.7994C89.0487 12.8115 89.0957 12.9359 89.2088 12.9116C89.3043 12.8904 89.4041 12.8858 89.4981 12.8585C89.5848 12.8343 89.6464 12.8768 89.6905 12.9298C89.7698 13.0239 89.8814 12.8965 89.9607 12.989C90.0062 13.0421 90.065 13.0845 90.1531 13.0618C90.25 13.0375 90.2808 13.0694 90.3087 13.1649C90.3249 13.2195 90.322 13.2635 90.2926 13.306C90.2632 13.35 90.2309 13.3424 90.1839 13.2923C90.1296 13.2362 90.065 13.2256 89.9871 13.2377C89.9108 13.2499 89.8638 13.171 89.8006 13.1407C89.7375 13.1088 89.6626 13.1619 89.5965 13.1209C89.4409 13.0254 89.4409 13.0254 89.3351 13.0436C89.2632 13.0557 89.1883 13.0618 89.1178 13.083C89.0341 13.1088 88.9797 13.0618 88.9225 13.0193C88.9019 13.0042 88.8813 12.9753 88.8637 12.9768C88.6948 12.9996 88.5245 13.0208 88.3571 13.0588C88.269 13.0785 88.222 13.0239 88.1632 12.986C88.1427 12.9723 88.1206 12.945 88.103 12.948C87.9576 12.9693 87.8137 12.9966 87.6683 13.0224C87.6404 13.0633 87.6096 13.1027 87.5831 13.1467C87.5552 13.1922 87.5171 13.2119 87.4613 13.2104C87.3688 13.2104 87.2777 13.2741 87.1852 13.1937C87.0897 13.1118 87.0824 13.1164 86.9899 13.1361C86.8724 13.1619 86.7476 13.1558 86.6374 13.215C86.6183 13.2256 86.5978 13.2544 86.5978 13.2756C86.5963 13.2893 86.6271 13.309 86.6462 13.3211C86.7109 13.3576 86.7857 13.3045 86.8503 13.3424C86.8929 13.3667 86.9282 13.403 86.9708 13.4288C86.9884 13.4394 87.0148 13.4379 87.0383 13.4364C87.0633 13.4349 87.0868 13.4243 87.1103 13.4258C87.1323 13.4273 87.1558 13.4364 87.1735 13.4501C87.2542 13.5077 87.3394 13.5608 87.4113 13.629C87.4818 13.6958 87.5479 13.6503 87.6184 13.6472C87.9003 13.7534 87.9004 13.7549 88.0898 13.7216C88.1368 13.714 88.1853 13.7049 88.2337 13.7064C88.2543 13.7064 88.2734 13.7337 88.2939 13.7489C88.3527 13.7944 88.4085 13.8353 88.4907 13.811C88.5612 13.7898 88.6361 13.7853 88.7081 13.7716C88.805 13.7549 88.805 13.7549 88.9695 13.8505C89.0106 13.8748 89.0546 13.8717 89.1075 13.8596C89.153 13.849 89.2 13.8717 89.2323 13.9157C89.2455 13.9339 89.2411 13.9642 89.2455 13.99C89.1001 14.0143 88.9533 14.031 88.8123 14.0674C88.7213 14.0901 88.6801 14.0249 88.6199 13.99C88.5994 13.9779 88.5774 13.9521 88.5583 13.9551C88.4144 13.9779 88.2704 14.0037 88.1265 14.034C88.1089 14.037 88.0869 14.0719 88.0854 14.0932C88.0825 14.1326 88.1192 14.1705 88.172 14.169C88.2425 14.1675 88.3116 14.1417 88.3747 14.2039C88.4276 14.2585 88.4936 14.2828 88.5715 14.2585C88.6185 14.2448 88.6684 14.2448 88.7154 14.2327C88.8402 14.1963 88.9533 14.2039 89.0473 14.307C89.1192 14.3343 89.1897 14.3085 89.2588 14.2949C89.3102 14.2843 89.3601 14.2736 89.3968 14.3025C89.4746 14.3631 89.551 14.4238 89.6582 14.3829C89.7742 14.4253 89.8623 14.5148 89.9593 14.5876C90.0048 14.6225 90.04 14.6422 90.0929 14.6195C90.1149 14.6104 90.1413 14.6104 90.1648 14.6058C90.2133 14.5982 90.2647 14.5755 90.3087 14.5846C90.3528 14.5952 90.3895 14.6392 90.4292 14.6665C90.4483 14.6801 90.4703 14.7029 90.4894 14.7014C90.5628 14.6938 90.6348 14.6786 90.7067 14.6665C90.7787 14.6559 90.8506 14.6453 90.9226 14.6346C90.9828 14.6741 91.0445 14.7135 91.1047 14.7529C91.2016 14.7363 91.2986 14.7196 91.394 14.7044C91.5012 14.6862 91.5012 14.6877 91.6554 14.7818C91.7244 14.8242 91.7978 14.7969 91.8639 14.7772C91.9741 14.7454 92.0475 14.803 92.1253 14.8637C92.1415 14.8758 92.1708 14.8834 92.1899 14.8773C92.2663 14.8561 92.3324 14.8728 92.3882 14.9289C92.4278 14.9683 92.4675 14.9865 92.5159 14.9789C92.6848 14.9501 92.8537 14.9198 93.0226 14.894C93.0431 14.891 93.0666 14.9046 93.0857 14.9167C93.2355 15.0093 93.237 15.0138 93.3471 14.9895C93.4455 14.9683 93.5366 14.9592 93.6144 15.0426C93.6306 15.0608 93.6555 15.0866 93.6731 15.0851C93.7936 15.0699 93.9155 15.0533 94.0344 15.0275C94.0888 15.0153 94.1269 15.0199 94.1695 15.0548C94.2239 15.0988 94.2723 15.1518 94.3619 15.1321C94.6101 15.076 94.6115 15.0851 94.9053 15.1897C94.9258 15.1973 94.9537 15.1852 94.9772 15.1791C95.0271 15.164 95.0638 15.1852 95.1079 15.2201C95.2063 15.299 95.2092 15.2944 95.3032 15.2777C95.3752 15.2641 95.4501 15.261 95.5206 15.2383C95.6292 15.2049 95.7012 15.2641 95.782 15.3202C95.8466 15.3642 95.9215 15.3278 95.9905 15.3141C96.0654 15.299 96.1329 15.3035 96.1887 15.3611C96.2269 15.4006 96.268 15.4218 96.3165 15.4142C96.4854 15.3869 96.6543 15.3566 96.8232 15.3293C96.8437 15.3263 96.8687 15.3384 96.8878 15.349C97.0552 15.443 97.0552 15.4476 97.2211 15.4127C97.274 15.4021 97.318 15.3991 97.3577 15.4309C97.3959 15.4613 97.437 15.4901 97.4766 15.5189C97.5486 15.5083 97.622 15.5052 97.6925 15.487C97.7469 15.4734 97.785 15.4795 97.8276 15.5113C97.8834 15.5523 97.9304 15.6235 98.0185 15.5886C98.064 15.572 98.1169 15.5765 98.1624 15.5614C98.2168 15.5416 98.2535 15.5538 98.2961 15.5932C98.349 15.6402 98.4033 15.6888 98.4884 15.6645C98.5824 15.6372 98.6823 15.6326 98.7777 15.6114C98.8306 15.5993 98.8673 15.6114 98.9099 15.6508C98.9628 15.7009 99.023 15.7327 99.1053 15.713C99.2727 15.6751 99.2741 15.6827 99.4371 15.7782C99.4782 15.8025 99.5223 15.7995 99.5752 15.7873C99.6207 15.7767 99.6677 15.7995 99.7 15.8435C99.7308 15.892 99.7279 15.9223 99.7308 15.9481ZM86.6448 2.26876C86.5963 2.27635 86.5478 2.28544 86.4773 2.15349C86.4729 2.13074 86.4759 2.10344 86.4656 2.08373C86.4421 2.04277 86.4054 2.01396 86.3614 2.00941C86.2821 2.00334 86.1866 2.0549 86.188 2.09433C86.1895 2.1277 86.2145 2.15652 86.2629 2.18382C86.2835 2.19443 86.2997 2.21264 86.3188 2.22477C86.3746 2.25966 86.4186 2.32792 86.4994 2.29303C86.4847 2.199 86.492 2.24602 86.4994 2.29303C86.492 2.35067 86.5141 2.39162 86.5669 2.40831C86.5816 2.41286 86.6037 2.40982 86.6154 2.40072C86.6609 2.36735 86.6683 2.32186 86.6345 2.20203C86.6286 2.22175 86.633 2.25663 86.6462 2.26573C86.6595 2.27483 86.6917 2.26725 86.7079 2.25663C86.749 2.22782 86.7696 2.1899 86.7593 2.15804C86.7534 2.14136 86.7255 2.12013 86.7079 2.12013C86.6771 2.12013 86.6492 2.15349 86.6448 2.26876ZM98.5193 19.8582C98.4121 19.8871 98.2887 19.8764 98.1815 19.9356C98.1625 19.9462 98.1434 19.9735 98.1419 19.9947C98.1404 20.0084 98.1698 20.0281 98.1874 20.0387C98.2271 20.063 98.2711 20.0554 98.3225 20.0478C98.4004 20.0372 98.4459 20.107 98.5061 20.1419C98.5252 20.1525 98.5501 20.1601 98.5707 20.157C98.6896 20.1388 98.8071 20.1191 98.9261 20.0979C98.9466 20.0933 98.9687 20.0827 98.9863 20.0691C99.045 20.0251 99.0392 19.9963 98.9819 19.9629C98.9187 19.9265 98.8688 19.8658 98.8042 19.837C98.7117 19.7961 98.6177 19.8507 98.5193 19.8582ZM90.1795 20.9655C90.1076 20.9776 90.037 20.9897 89.9651 21.0019C89.9416 21.0064 89.9166 21.0079 89.8946 21.014C89.8491 21.0246 89.8153 21.0564 89.7933 21.1065C89.8271 21.1459 89.8682 21.1687 89.9137 21.1641C89.9857 21.155 90.0562 21.1353 90.1281 21.1308C90.2059 21.1247 90.2515 21.193 90.3117 21.2278C90.3308 21.2385 90.3543 21.24 90.3763 21.2415C90.485 21.2476 90.551 21.1687 90.5305 21.058C90.5158 20.9715 90.46 20.92 90.3925 20.9306C90.322 20.9412 90.25 20.9533 90.1795 20.9655ZM99.0215 17.6165C99.0392 17.5907 99.0583 17.5725 99.0671 17.5498C99.0935 17.4724 99.0832 17.4148 99.0347 17.3541C98.976 17.2798 98.9041 17.3299 98.838 17.3374C98.8218 17.339 98.8042 17.3708 98.7954 17.3905C98.7895 17.4042 98.7895 17.433 98.7983 17.4406C98.8703 17.5013 98.9466 17.5574 99.0215 17.6165ZM86.282 13.1361C86.2116 13.1482 86.1396 13.1573 86.0691 13.174C86.0515 13.1786 86.0353 13.2074 86.025 13.2271C86.006 13.2635 86.0265 13.3136 86.0867 13.3181C86.1557 13.3242 86.2277 13.2984 86.2996 13.2863C86.3907 13.2711 86.445 13.215 86.4113 13.1664C86.379 13.1194 86.3349 13.1103 86.282 13.1361ZM8.98005 9.89487C9.02704 9.88729 9.0755 9.88121 9.12249 9.8706C9.16655 9.85998 9.20035 9.82661 9.22238 9.77656C9.18567 9.73713 9.14453 9.71589 9.09901 9.72044C9.02705 9.72954 8.95657 9.74167 8.88608 9.75684C8.84202 9.76594 8.79945 9.79931 8.78917 9.85088C8.77889 9.89031 8.87725 9.91307 8.98005 9.89487ZM80.0716 9.66129C80.0907 9.67494 80.1098 9.70224 80.1289 9.70224C80.1759 9.70224 80.2244 9.69314 80.2684 9.67797C80.2875 9.6719 80.3022 9.6446 80.311 9.62337C80.3168 9.60972 80.3154 9.58546 80.3066 9.57332C80.264 9.50052 80.0936 9.5263 80.0657 9.60972C80.0628 9.62489 80.0702 9.6446 80.0716 9.66129ZM75.4384 1.35569C75.4428 1.37996 75.4443 1.40422 75.4502 1.42849C75.4619 1.47399 75.4942 1.50737 75.5412 1.53012C75.5779 1.4922 75.597 1.44974 75.5955 1.40423C75.5941 1.37997 75.5897 1.35568 75.5838 1.33142C75.572 1.28591 75.5397 1.25256 75.4928 1.22981C75.456 1.26621 75.4384 1.30867 75.4384 1.35569ZM102.415 21.2294C102.402 21.2491 102.389 21.2688 102.374 21.287C102.414 21.331 102.451 21.3446 102.478 21.3204C102.496 21.3052 102.506 21.2824 102.52 21.2627C102.48 21.2187 102.445 21.2066 102.415 21.2294ZM101.502 21.4356C101.521 21.4493 101.539 21.4675 101.559 21.4766C101.593 21.4918 101.624 21.466 101.647 21.4114C101.628 21.3977 101.611 21.3795 101.59 21.3704C101.556 21.3552 101.525 21.381 101.502 21.4356ZM102.08 21.1581C102.07 21.1945 102.091 21.2248 102.145 21.2506C102.158 21.2309 102.176 21.2127 102.185 21.1914C102.199 21.1566 102.174 21.1247 102.122 21.1004C102.107 21.1186 102.094 21.1384 102.08 21.1581ZM98.9804 19.523C98.9701 19.5595 98.9907 19.5898 99.045 19.6156C99.0582 19.5958 99.0759 19.5776 99.0847 19.5564C99.0994 19.5215 99.0744 19.4897 99.0215 19.4654C99.0069 19.4836 98.9936 19.5033 98.9804 19.523ZM94.7569 8.79069C94.7437 8.8104 94.7305 8.83012 94.7158 8.84832C94.7555 8.89231 94.7922 8.90596 94.8201 8.88169C94.8377 8.86652 94.848 8.84377 94.8612 8.82405C94.8215 8.78007 94.7863 8.76794 94.7569 8.79069ZM90.7111 3.09689C90.7464 3.10751 90.7757 3.08628 90.8007 3.03016C90.7816 3.01651 90.764 2.99831 90.7434 2.98921C90.7096 2.97404 90.6788 2.99983 90.6553 3.05443C90.6744 3.0696 90.6935 3.08324 90.7111 3.09689ZM88.5627 2.74046C88.5495 2.76018 88.5362 2.7799 88.5216 2.7981C88.5612 2.84208 88.5979 2.85573 88.6258 2.83146C88.6434 2.81629 88.6537 2.79354 88.6669 2.77383C88.6273 2.72984 88.592 2.71923 88.5627 2.74046ZM73.9934 1.35417C73.9802 1.37389 73.9669 1.39361 73.9523 1.41181C73.9919 1.45579 74.0286 1.46944 74.0565 1.44517C74.0742 1.43 74.0844 1.40725 74.0976 1.38753C74.058 1.34355 74.0228 1.33294 73.9934 1.35417ZM1.44942 13.6943C1.43033 13.6806 1.41126 13.667 1.39363 13.6518C1.35105 13.6928 1.33783 13.7307 1.36133 13.7595C1.37602 13.7777 1.39803 13.7883 1.41712 13.802C1.46117 13.761 1.47145 13.7246 1.44942 13.6943Z" fill="#FFE492"/>
<path d="M19.3693 9.65082C19.0536 9.67974 18.7408 9.71626 18.4251 9.73452C18.2577 9.74365 18.1974 9.8091 18.1287 9.86999C18.0739 9.9187 18.0107 9.93391 17.9092 9.94305C17.0528 10.0176 16.1992 10.0968 15.3456 10.1744C15.2386 10.1546 15.1864 10.1227 15.2111 10.0846C15.2249 10.0618 15.2578 10.0298 15.2907 10.0268C15.8753 9.97045 16.4572 9.91261 17.0445 9.86846C17.212 9.85629 17.2587 9.78932 17.3437 9.73452C17.3712 9.71626 17.3932 9.68886 17.4288 9.6782C17.4645 9.66603 17.5167 9.66755 17.5633 9.66451C18.5075 9.57775 19.4517 9.49252 20.3958 9.40576C20.5029 9.42555 20.555 9.45751 20.5303 9.49556C20.5166 9.51839 20.4837 9.55036 20.4507 9.5534C20.0884 9.58536 19.7288 9.61733 19.3693 9.65082Z" fill="#FFE492"/>
<path d="M192.19 17.7559C192.047 17.7742 191.866 17.8 191.718 17.7118C191.647 17.6691 191.57 17.6555 191.477 17.6646C191.342 17.6798 191.205 17.692 191.068 17.7011C191.032 17.7026 190.985 17.6859 190.95 17.6722C190.873 17.6448 190.807 17.5991 190.725 17.587C190.642 17.5748 190.543 17.6083 190.458 17.6007C190.346 17.59 190.299 17.5489 190.329 17.5109C190.346 17.4895 190.379 17.4591 190.414 17.4545C190.922 17.3982 190.925 17.3982 191.068 17.453C191.177 17.4956 191.279 17.5428 191.435 17.5169C191.567 17.4956 191.707 17.4911 191.842 17.4774C192.028 17.4591 192.028 17.4606 192.33 17.5565C192.407 17.5809 192.489 17.5793 192.588 17.5657C192.673 17.555 192.756 17.5793 192.824 17.6204C192.78 17.6722 192.717 17.7057 192.632 17.7148C192.495 17.73 192.36 17.7407 192.19 17.7559Z" fill="#FFE492"/>
<path d="M187.139 17.2868C187.485 17.2549 187.833 17.2275 188.179 17.1909C188.322 17.1757 188.434 17.1925 188.533 17.2442C188.64 17.3005 188.761 17.296 188.893 17.2853C188.975 17.2792 189.054 17.3036 189.109 17.3462C189.131 17.3629 189.126 17.3934 189.134 17.4177C188.832 17.4451 188.528 17.474 188.223 17.4984C188.187 17.5014 188.143 17.4862 188.11 17.474C188.036 17.4482 187.973 17.4025 187.893 17.3934C187.723 17.3721 187.553 17.4132 187.38 17.4208C187.298 17.4238 187.218 17.401 187.163 17.3599C187.141 17.3401 187.147 17.3112 187.139 17.2868Z" fill="#FFE492"/>
<path d="M62.1587 4.19951C62.5182 4.16602 62.8777 4.13407 63.2373 4.10059C63.3443 4.1219 63.3937 4.15233 63.3718 4.19038C63.3581 4.21322 63.3251 4.24518 63.2922 4.24822C62.5731 4.31672 61.854 4.38216 61.1377 4.44761C61.0306 4.4263 60.9812 4.39586 61.0032 4.35781C61.0169 4.33498 61.0498 4.30301 61.0828 4.29997C61.4396 4.26496 61.7991 4.23299 62.1587 4.19951Z" fill="#FFE492"/>
<path d="M6.75584 12.6585C6.5939 12.6615 6.42377 12.7178 6.24262 12.6752C6.20694 12.6676 6.15752 12.6432 6.16027 12.6295C6.16576 12.6067 6.1987 12.5778 6.23438 12.5687C6.39082 12.5306 6.58571 12.526 6.66531 12.4195C6.70373 12.3647 6.7751 12.3465 6.87116 12.3358C6.97271 12.3236 7.04405 12.3282 7.12365 12.3601C7.22794 12.4012 7.31579 12.4773 7.48047 12.4378C7.4887 12.4621 7.50787 12.4895 7.49963 12.5123C7.4914 12.5352 7.45578 12.5565 7.42284 12.5732C7.39265 12.5885 7.35144 12.6021 7.31301 12.6067C7.13186 12.625 6.95071 12.6402 6.75584 12.6585Z" fill="#FFE492"/>
<path d="M149.5 12.3525C149.635 12.3403 149.775 12.3342 149.906 12.3129C150.011 12.2962 150.077 12.3068 150.159 12.3433C150.299 12.4073 150.307 12.4012 150.65 12.4103C150.689 12.4118 150.735 12.4347 150.757 12.4544C150.771 12.4651 150.752 12.494 150.735 12.5093C150.711 12.529 150.675 12.5549 150.642 12.5549C150.425 12.5595 150.206 12.6493 149.994 12.5458C149.887 12.494 149.769 12.4697 149.624 12.4925C149.536 12.5062 149.443 12.5123 149.352 12.5184C149.264 12.5245 149.174 12.5077 149.119 12.4621C149.039 12.3951 149.086 12.3692 149.228 12.3738C149.319 12.3768 149.41 12.3601 149.5 12.3525Z" fill="#FFE492"/>
<path d="M199.241 22.8444C199.414 22.8291 199.587 22.8109 199.763 22.7987C199.798 22.7957 199.842 22.8124 199.875 22.8231C200.007 22.8687 199.988 22.9463 199.993 23.0148C199.996 23.0864 199.691 23.1442 199.562 23.0955C199.42 23.0407 199.291 22.9783 199.093 23.0118C199.016 23.024 198.926 22.9966 198.876 22.9524C198.802 22.8885 198.843 22.8626 198.983 22.8672C199.066 22.8702 199.153 22.8535 199.241 22.8444Z" fill="#FFE492"/>
<path d="M112.103 2.12717C112.282 2.11043 112.46 2.08456 112.638 2.08304C112.743 2.08152 112.795 2.13174 112.77 2.16827C112.756 2.1911 112.724 2.22307 112.691 2.22611C112.334 2.26264 111.977 2.29309 111.62 2.32657C111.516 2.30526 111.464 2.2733 111.488 2.23677C111.502 2.21394 111.535 2.1835 111.568 2.17893C111.746 2.15762 111.925 2.14391 112.103 2.12717Z" fill="#FFE492"/>
<path d="M195.819 17.8896C195.992 17.8744 196.167 17.8515 196.34 17.8439C196.431 17.8409 196.502 17.8759 196.513 17.9155C196.519 17.9337 196.475 17.9657 196.439 17.9733C196.192 18.0251 195.926 18.0312 195.668 18.057C195.586 18.0646 195.498 18.0403 195.448 17.9977C195.374 17.9322 195.415 17.9079 195.555 17.9124C195.643 17.914 195.731 17.8972 195.819 17.8896Z" fill="#FFE492"/>
<path d="M154.036 12.5576C154.124 12.55 154.215 12.5302 154.3 12.5363C154.39 12.5439 154.448 12.5881 154.475 12.6322C154.506 12.6824 154.503 12.7296 154.475 12.7722C154.432 12.8453 154.388 12.8423 154.286 12.7935C154.13 12.7174 154.119 12.7266 153.808 12.7296C153.773 12.7296 153.729 12.7068 153.701 12.687C153.66 12.6565 153.682 12.6094 153.778 12.582C153.85 12.5622 153.948 12.5652 154.036 12.5576Z" fill="#FFE492"/>
<path d="M189.392 17.3899C189.521 17.3777 189.65 17.358 189.779 17.358C189.87 17.3564 189.941 17.3914 189.949 17.4295C189.952 17.4478 189.911 17.4782 189.878 17.4873C189.722 17.5284 189.546 17.5315 189.376 17.5452C189.296 17.5513 189.208 17.5269 189.159 17.4843C189.085 17.4204 189.129 17.3914 189.263 17.4006C189.304 17.4036 189.348 17.3945 189.392 17.3899Z" fill="#FFE492"/>
<path d="M169.087 15.5232C168.895 15.5415 168.714 15.5186 168.727 15.4791C168.747 15.4273 168.826 15.3938 168.908 15.3847C169.04 15.3695 169.172 15.3573 169.306 15.3481C169.391 15.3421 169.468 15.3649 169.537 15.4045C169.496 15.4532 169.433 15.4882 169.35 15.4988C169.265 15.5095 169.175 15.5156 169.087 15.5232Z" fill="#FFE492"/>
<path d="M167.832 15.3279C167.961 15.3157 168.09 15.2959 168.219 15.2959C168.309 15.2944 168.381 15.3294 168.389 15.3675C168.392 15.3857 168.35 15.4162 168.317 15.4253C168.161 15.4664 167.985 15.4695 167.815 15.4832C167.736 15.4892 167.648 15.4649 167.598 15.4223C167.524 15.3583 167.568 15.3294 167.703 15.3386C167.744 15.3416 167.788 15.3325 167.832 15.3279Z" fill="#FFE492"/>
<path d="M152.478 12.5453C152.607 12.5331 152.736 12.5133 152.865 12.5118C152.956 12.5102 153.027 12.5453 153.035 12.5833C153.038 12.6016 152.997 12.6305 152.964 12.6412C152.807 12.6823 152.632 12.6853 152.462 12.699C152.382 12.7051 152.294 12.6807 152.245 12.6381C152.171 12.5742 152.215 12.5453 152.349 12.5544C152.39 12.5574 152.434 12.5483 152.478 12.5453Z" fill="#FFE492"/>
<path d="M151.756 12.4563C151.893 12.4441 151.937 12.4365 151.981 12.4365C152.064 12.4365 152.149 12.4548 152.198 12.4989C152.272 12.5629 152.228 12.5811 152.094 12.5842C151.921 12.5872 151.751 12.6192 151.578 12.6253C151.487 12.6283 151.416 12.5918 151.41 12.5537C151.408 12.5355 151.449 12.5035 151.482 12.4974C151.597 12.4746 151.723 12.4609 151.756 12.4563Z" fill="#FFE492"/>
<path d="M166.71 3.50122C166.622 3.50883 166.529 3.53014 166.447 3.52253C166.337 3.51187 166.293 3.47078 166.32 3.43273C166.337 3.41142 166.367 3.38098 166.4 3.37641C166.576 3.3551 166.754 3.34139 166.93 3.32617C167.034 3.349 167.081 3.38096 167.053 3.41902C167.037 3.44033 167.007 3.46925 166.974 3.47533C166.889 3.49055 166.798 3.49361 166.71 3.50122Z" fill="#FFE492"/>
<path d="M60.1907 4.37948C60.2758 4.37795 60.3526 4.39774 60.4184 4.43579C60.3773 4.4845 60.3169 4.51646 60.2346 4.53016C60.1934 4.53625 60.1467 4.54081 60.1028 4.54233C60.0177 4.54538 59.9409 4.52407 59.875 4.48602C59.9162 4.43731 59.9793 4.40535 60.0589 4.39165C60.1 4.38556 60.1468 4.38404 60.1907 4.37948Z" fill="#FFE492"/>
<path d="M194.887 17.8839C194.884 17.8398 195.051 17.7895 195.202 17.791C195.282 17.7926 195.364 17.8139 195.411 17.855C195.482 17.9174 195.441 17.9417 195.307 17.9372C195.224 17.9341 195.136 17.96 195.054 17.9554C194.961 17.9539 194.906 17.9204 194.887 17.8839Z" fill="#FFE492"/>
<path d="M154.829 12.7419C154.826 12.7252 154.813 12.7054 154.821 12.6902C154.873 12.6065 155.189 12.5806 155.271 12.6537C155.285 12.6674 155.29 12.6902 155.279 12.7039C155.263 12.7252 155.233 12.7526 155.2 12.7587C155.115 12.7739 155.027 12.7815 154.939 12.783C154.901 12.783 154.865 12.7572 154.829 12.7419Z" fill="#FFE492"/>
<path d="M7.7294 12.4144C7.40553 12.4463 7.40004 12.4433 7.45768 12.3672C7.50983 12.2987 7.60591 12.2576 7.74589 12.2576C7.78706 12.2576 7.83095 12.2546 7.86663 12.2606C7.90506 12.2683 7.95999 12.2835 7.96822 12.3017C7.98469 12.3367 7.93799 12.3748 7.85565 12.4007C7.81996 12.4128 7.77332 12.4098 7.7294 12.4144Z" fill="#FFE492"/>
<path d="M64.2491 4.16497C64.153 4.19084 64.0707 4.18172 64.0103 4.13301C63.9499 4.0843 64.046 4.02646 64.2134 4.01276C64.2573 4.00971 64.304 3.99755 64.3452 4.00364C64.3863 4.0082 64.4276 4.02645 64.4523 4.04472C64.4962 4.07516 64.4687 4.11627 64.3809 4.15127C64.3452 4.16497 64.293 4.16192 64.2491 4.16497Z" fill="#FFE492"/>
<path d="M194.314 17.7693C194.339 17.7495 194.364 17.7297 194.391 17.7114C194.493 17.7373 194.537 17.7677 194.509 17.8027C194.493 17.8241 194.46 17.8423 194.435 17.8621C194.334 17.8362 194.292 17.8043 194.314 17.7693Z" fill="#FFE492"/>
<path d="M12.082 29.7425C12.082 29.7242 12.1205 29.6953 12.1506 29.6892C12.2083 29.6786 12.2796 29.6999 12.329 29.7425C12.3976 29.8034 12.3565 29.8354 12.2303 29.8186C12.1424 29.8064 12.082 29.776 12.082 29.7425Z" fill="#FFE492"/>
<path d="M155.947 11.3249C155.982 11.3386 156.018 11.3523 156.051 11.3675C156.004 11.4239 155.947 11.4482 155.886 11.433C155.848 11.4238 155.815 11.4056 155.779 11.3919C155.826 11.3356 155.881 11.3143 155.947 11.3249Z" fill="#FFE492"/>
<path d="M155.002 11.2559C155.057 11.2331 155.123 11.2453 155.199 11.2894C155.175 11.3092 155.153 11.332 155.123 11.3472C155.07 11.3716 155.002 11.3594 154.928 11.3137C154.95 11.2955 154.974 11.2757 155.002 11.2559Z" fill="#FFE492"/>
<path d="M154.275 11.323C154.31 11.3367 154.346 11.3504 154.379 11.3656C154.332 11.4219 154.278 11.4463 154.214 11.4311C154.176 11.4219 154.143 11.4037 154.107 11.39C154.154 11.3337 154.209 11.3108 154.275 11.323Z" fill="#FFE492"/>
<path d="M153.736 11.2428C153.777 11.2733 153.755 11.3098 153.675 11.3509C153.64 11.3372 153.598 11.3265 153.571 11.3083C153.527 11.2794 153.549 11.2413 153.631 11.2002C153.664 11.2154 153.7 11.2291 153.736 11.2428Z" fill="#FFE492"/>
</svg>
