<svg width="258" height="48" viewBox="0 0 258 48" fill="none" xmlns="http://www.w3.org/2000/svg">
<path d="M241.322 25.2572C240.97 25.2971 240.615 25.3245 240.27 25.3844C240.046 25.4218 239.95 25.3121 239.801 25.2547C239.751 25.2348 239.698 25.1949 239.652 25.1999C239.304 25.2398 238.955 25.2846 238.607 25.3295C238.501 25.4267 238.433 25.5564 238.27 25.6038C238.11 25.6486 237.921 25.6486 237.744 25.6711C237.509 25.6985 237.275 25.7259 237.04 25.7509C236.923 25.7633 236.827 25.8107 236.788 25.9004C236.781 25.9154 236.859 25.9528 236.902 25.9752C237.044 26.05 237.182 26.1348 237.339 26.1921C237.488 26.247 237.673 26.1572 237.833 26.227C238.192 26.3841 238.195 26.3816 238.469 26.3517C238.703 26.3243 238.938 26.2944 239.172 26.2744C239.218 26.2694 239.272 26.3068 239.321 26.3268C239.471 26.3816 239.567 26.5063 239.787 26.4589C239.954 26.4215 240.139 26.414 240.313 26.3941C240.459 26.4664 240.594 26.5486 240.75 26.606C240.896 26.6608 240.938 26.7032 240.86 26.7755C240.789 26.8428 240.69 26.8703 240.558 26.8753C240.441 26.8777 240.324 26.9002 240.206 26.9126C240.146 26.9201 240.089 26.9251 240.032 26.9326C239.808 26.96 239.808 26.96 239.4 26.8004C239.24 26.7381 239.059 26.8254 238.906 26.7655C238.803 26.7257 238.714 26.6658 238.614 26.6234C238.572 26.606 238.504 26.6035 238.451 26.6085C238.273 26.6259 238.096 26.6384 237.925 26.6708C237.804 26.6932 237.733 26.7631 237.747 26.8329C237.751 26.8603 237.836 26.9002 237.886 26.9027C238 26.9077 238.12 26.8727 238.231 26.8902C238.337 26.9076 238.447 26.9575 238.526 27.0124C238.685 27.127 238.867 27.0248 239.019 27.0547C239.179 27.0872 239.311 27.1869 239.464 27.2467C239.503 27.2617 239.577 27.2367 239.638 27.2293C239.812 27.2118 239.986 27.1969 240.16 27.1794C240.306 27.2517 240.462 27.3165 240.594 27.3988C240.832 27.5484 241.088 27.6057 241.397 27.5334C241.571 27.4935 241.741 27.5085 241.88 27.6057C242.022 27.7054 242.186 27.6955 242.367 27.6755C242.534 27.6556 242.704 27.6007 242.875 27.6705C243.245 27.8251 243.248 27.8326 243.685 27.7728C243.817 27.7553 243.916 27.7503 244.016 27.8077C244.108 27.86 244.207 27.9049 244.303 27.9548C244.478 27.9373 244.655 27.9199 244.829 27.8999C245.053 27.8725 245.178 27.9074 245.231 28.047C245.263 28.1318 245.277 28.209 245.355 28.2664C245.448 28.3362 245.547 28.3337 245.682 28.3137C245.81 28.2963 245.902 28.2689 245.956 28.1791C245.977 28.1417 246.02 28.1068 246.059 28.0769C246.091 28.0545 246.141 28.0196 246.169 28.0246C246.222 28.0345 246.293 28.0619 246.311 28.0943C246.485 28.396 246.485 28.3985 246.663 28.4858C246.858 28.583 247.061 28.6703 247.239 28.7799C247.398 28.8772 247.558 28.8348 247.732 28.8348C247.864 28.8348 247.949 28.8996 247.939 28.9645C247.932 29.0019 247.882 29.0567 247.839 29.0617C247.491 29.1115 247.139 29.1539 246.787 29.1888C246.745 29.1938 246.691 29.1489 246.642 29.1265C246.542 29.0816 246.453 29.0118 246.347 28.9968C246.24 28.9819 246.116 29.0193 245.998 29.0318C245.881 29.0442 245.757 29.0767 245.65 29.0567C245.544 29.0368 245.458 28.9645 245.359 28.9171C245.313 28.8946 245.249 28.8622 245.21 28.8697C244.95 28.9296 244.758 28.8473 244.574 28.7376C244.534 28.7151 244.467 28.7002 244.417 28.7052C244.005 28.7476 243.596 28.7974 243.184 28.8448C243.017 28.8647 242.882 28.7775 242.846 28.6304C242.829 28.5481 242.793 28.4658 242.793 28.3836C242.793 28.234 242.598 28.1517 242.456 28.1692C242.221 28.1941 241.983 28.214 241.752 28.2514C241.564 28.2813 241.404 28.2514 241.276 28.1617C241.127 28.0595 240.956 28.0794 240.786 28.1068C240.658 28.1268 240.622 28.209 240.629 28.416C240.636 28.583 240.576 28.6354 240.345 28.6628C240.053 28.6977 239.759 28.7326 239.464 28.76C239.417 28.765 239.364 28.7226 239.318 28.7002C239.218 28.6553 239.13 28.583 239.023 28.568C238.916 28.5506 238.792 28.588 238.675 28.6029C238.557 28.6154 238.433 28.6503 238.327 28.6329C238.22 28.6154 238.131 28.5406 238.035 28.4933C237.989 28.4708 237.932 28.4384 237.886 28.4434C237.651 28.4633 237.417 28.4933 237.182 28.5207C236.919 28.5506 236.919 28.5506 236.546 28.396C236.376 28.3262 236.205 28.3811 236.038 28.401C235.86 28.421 235.693 28.4309 235.555 28.3312C235.462 28.2664 235.359 28.2265 235.249 28.239C234.954 28.2689 234.663 28.3063 234.368 28.3362C234.318 28.3412 234.251 28.3287 234.212 28.3063C234.023 28.2016 233.839 28.1193 233.576 28.1716C233.348 28.2165 233.103 28.219 232.876 28.2614C232.751 28.2838 232.694 28.3636 232.719 28.426C232.733 28.4584 232.808 28.4958 232.858 28.4958C232.971 28.4983 233.096 28.4608 233.202 28.4758C233.423 28.5057 233.533 28.7151 233.821 28.6578C233.991 28.6229 234.169 28.6104 234.347 28.6005C234.393 28.598 234.443 28.6453 234.492 28.6703C234.634 28.7376 234.759 28.8248 234.965 28.7799C235.136 28.745 235.317 28.7351 235.491 28.7152C235.768 28.6827 235.768 28.6852 236.127 28.8373C236.298 28.9096 236.468 28.8523 236.635 28.8348C236.759 28.8224 236.877 28.7974 236.976 28.8323C237.129 28.8847 237.239 29.0043 237.427 28.9968C237.605 28.9894 237.779 28.9545 237.957 28.942C238.067 28.9345 238.17 28.9744 238.259 29.0417C238.351 29.1091 238.451 29.139 238.572 29.124C238.746 29.1041 238.923 29.0791 239.101 29.0667C239.151 29.0642 239.208 29.0866 239.254 29.1066C239.353 29.1514 239.449 29.2038 239.545 29.2511C239.719 29.2362 239.897 29.2312 240.068 29.2013C240.199 29.1789 240.292 29.1888 240.398 29.2387C240.533 29.306 240.643 29.4257 240.864 29.3683C240.974 29.3409 241.102 29.3484 241.212 29.3235C241.347 29.291 241.439 29.3035 241.535 29.3783C241.717 29.5204 241.944 29.5229 242.178 29.468C242.434 29.4082 242.626 29.478 242.818 29.5877C243.021 29.7024 243.021 29.6999 243.177 29.9766C243.223 30.0564 243.355 30.0938 243.465 30.0789C243.65 30.0539 243.81 30.0664 243.945 30.1611C244.087 30.2634 244.257 30.2509 244.431 30.2235C244.662 30.1861 244.893 30.1537 245.082 30.2983C245.174 30.3681 245.274 30.3855 245.398 30.368C245.75 30.3232 246.105 30.2958 246.45 30.2409C246.659 30.206 246.78 30.2858 246.922 30.3531C247.114 30.4454 247.324 30.5276 247.324 30.7246C247.324 30.757 247.374 30.7944 247.416 30.8193C247.509 30.8717 247.608 30.9165 247.704 30.9664C247.846 31.0412 247.985 31.1035 248.18 31.0636C248.351 31.0312 248.532 31.0212 248.706 30.9988C248.88 30.9764 249.04 30.9639 249.197 31.0586C249.378 31.1658 249.57 31.2681 249.776 31.3478C249.921 31.4052 250.113 31.308 250.27 31.3853C250.366 31.4326 250.458 31.4875 250.561 31.5273C250.604 31.5448 250.671 31.5323 250.728 31.5273C250.845 31.5174 250.966 31.5099 251.08 31.485C251.211 31.4576 251.311 31.4625 251.41 31.5199C251.503 31.5722 251.595 31.6445 251.702 31.6595C251.862 31.6819 252.039 31.5822 252.199 31.6969C252.281 31.7542 252.384 31.8091 252.491 31.8265C252.597 31.844 252.722 31.8066 252.835 31.8091C252.885 31.8091 252.945 31.849 252.974 31.8814C252.992 31.8988 252.967 31.9462 252.942 31.9711C252.91 32.001 252.864 32.0409 252.817 32.0459C252.466 32.0908 252.114 32.1282 251.762 32.1706C251.552 32.1955 251.552 32.1955 251.13 32.0384C251.03 32.001 250.92 32.0085 250.796 32.026C250.629 32.0484 250.458 32.0908 250.284 32.0459C250.057 31.8764 249.776 31.8614 249.477 31.9262C249.353 31.9537 249.239 31.9537 249.147 31.9063C248.951 31.8116 248.745 31.7243 248.571 31.6121C248.436 31.5249 248.372 31.5174 248.315 31.6371C248.298 31.6745 248.28 31.7143 248.283 31.7492C248.305 31.8739 248.344 31.996 248.365 32.1207C248.372 32.1556 248.344 32.1955 248.326 32.2329C248.269 32.3376 248.195 32.3301 248.07 32.2429C247.946 32.1556 247.796 32.0983 247.597 32.1382C247.427 32.1731 247.242 32.1681 247.072 32.2055C246.809 32.2603 246.624 32.1805 246.436 32.0733C246.396 32.0509 246.329 32.0384 246.279 32.0434C245.75 32.1008 245.224 32.1656 244.694 32.2229C244.581 32.2354 244.478 32.198 244.389 32.1307C244.296 32.0634 244.193 32.0285 244.08 32.0409C243.61 32.0933 243.141 32.1407 242.672 32.2055C242.48 32.2329 242.328 32.2005 242.196 32.1132C242.097 32.0484 242.004 32.0285 241.88 32.0359C241.745 32.0434 241.649 32.0684 241.582 32.1407C241.518 32.2105 241.564 32.2528 241.706 32.3077C241.859 32.3675 242.001 32.4448 242.146 32.5146C242.264 32.5047 242.381 32.4847 242.495 32.4872C242.544 32.4872 242.591 32.5321 242.64 32.557C242.783 32.6293 242.914 32.7016 243.117 32.6617C243.287 32.6268 243.468 32.6193 243.642 32.5969C243.884 32.5695 243.884 32.5695 244.275 32.7265C244.374 32.7664 244.481 32.7639 244.609 32.7415C244.719 32.724 244.833 32.7589 244.911 32.8337C244.943 32.8636 244.932 32.9135 244.865 33.0781C244.865 33.2002 244.939 33.1454 244.964 33.0656C245.003 32.9509 244.929 32.9135 244.787 32.9758C244.687 33.0207 244.637 33.0855 244.662 33.1379C244.677 33.1653 244.744 33.2002 244.865 33.0781C245.178 32.9285 245.416 32.911 245.643 32.8711C245.778 32.8487 245.863 32.8587 245.97 32.9235C246.098 33.0008 246.226 33.0831 246.436 33.0432C246.663 32.9983 246.905 32.9933 247.136 32.9559C247.349 32.921 247.459 33.0307 247.594 33.0955C247.757 33.1728 247.939 33.0855 248.088 33.1304C248.244 33.1753 248.354 33.285 248.536 33.3049C248.799 33.2376 248.966 33.3623 249.165 33.4445C249.321 33.5069 249.506 33.452 249.673 33.4246C249.861 33.3947 250.017 33.4221 250.149 33.5119C250.298 33.6141 250.465 33.5916 250.636 33.5692C251.034 33.5193 251.048 33.5118 251.279 33.649C251.446 33.7487 251.606 33.7038 251.773 33.6914C251.918 33.7587 252.061 33.831 252.213 33.8908C252.253 33.9058 252.327 33.8808 252.388 33.8734C252.562 33.8534 252.739 33.8335 252.913 33.8135C253.031 33.8011 253.155 33.7637 253.262 33.7786C253.368 33.7961 253.457 33.8684 253.553 33.9157C253.649 33.9631 253.749 34.0105 253.841 34.0603C253.983 34.1351 254.118 34.1975 254.317 34.1601C254.488 34.1277 254.665 34.1177 254.843 34.0952C255.067 34.0678 255.06 34.0753 255.475 34.2249C255.699 34.3072 255.93 34.2074 256.158 34.1975C256.271 34.1925 256.382 34.2199 256.46 34.2922C256.492 34.3221 256.481 34.372 256.492 34.4144C255.905 34.4817 255.316 34.539 254.736 34.6213C254.512 34.6537 254.395 34.5639 254.274 34.4891C254.075 34.3695 253.812 34.544 253.624 34.3894C253.51 34.2972 253.347 34.2448 253.152 34.2897C253.038 34.3146 252.917 34.3121 252.8 34.3346C252.501 34.3894 252.228 34.3919 251.99 34.2199C251.908 34.1601 251.791 34.1277 251.705 34.0703C251.606 34.008 251.51 33.9731 251.393 33.9855C250.863 34.0454 250.337 34.1052 249.811 34.17C249.765 34.175 249.719 34.2124 249.68 34.2398C249.58 34.3096 249.612 34.3645 249.772 34.4094C249.825 34.4243 249.868 34.4567 249.918 34.4817C250.014 34.529 250.103 34.6038 250.209 34.6213C250.316 34.6387 250.44 34.6038 250.558 34.5914C250.675 34.5789 250.799 34.5415 250.906 34.5565C251.012 34.5739 251.101 34.6462 251.201 34.6911C251.247 34.7135 251.304 34.7509 251.35 34.7484C251.584 34.7335 251.815 34.706 252.05 34.6836C252.196 34.7509 252.32 34.8482 252.494 34.8706C252.604 34.8856 252.722 34.8581 252.835 34.8631C252.885 34.8656 252.949 34.903 252.974 34.9354C252.988 34.9554 252.942 35.0052 252.906 35.0302C252.771 35.1249 252.587 35.1074 252.42 35.1373C252.238 35.1698 252.075 35.1598 251.936 35.0626C251.844 34.9977 251.741 34.9628 251.627 34.9753C251.332 35.0077 251.041 35.0451 250.746 35.0725C250.696 35.0775 250.636 35.0551 250.589 35.0376C250.216 34.8856 250.216 34.8806 249.953 34.913C249.566 34.9604 249.566 34.9603 249.307 34.8282C249.257 34.8033 249.204 34.7559 249.161 34.7584C248.749 34.7983 248.34 34.8382 247.932 34.8955C247.796 34.913 247.704 34.913 247.605 34.8482C247.519 34.7933 247.42 34.731 247.313 34.716C247.203 34.7011 247.082 34.7385 246.965 34.7509C246.848 34.7634 246.723 34.7958 246.62 34.7759C246.514 34.7559 246.421 34.6861 246.329 34.6363C246.233 34.5839 246.13 34.5864 245.998 34.6063C245.593 34.6637 245.59 34.6562 245.188 34.5016C245.142 34.4842 245.082 34.4642 245.032 34.4692C244.737 34.4991 244.446 34.5365 244.151 34.5664C244.037 34.5789 243.927 34.5465 243.849 34.4742C243.817 34.4443 243.827 34.3944 243.806 34.2972C243.781 34.2747 243.809 34.3146 243.817 34.352C243.87 34.3471 243.934 34.352 243.973 34.3321C244.072 34.2847 244.122 34.2224 244.097 34.17C244.083 34.1426 244.016 34.1077 243.973 34.1077C243.895 34.1077 243.827 34.1625 243.806 34.2972C243.582 34.3794 243.344 34.3969 243.113 34.4368C242.978 34.4617 242.893 34.4493 242.786 34.3844C242.658 34.3047 242.527 34.2274 242.317 34.2673C242.09 34.3121 241.848 34.3196 241.613 34.3545C241.343 34.3944 241.226 34.17 240.999 34.175C240.764 34.18 240.53 34.2224 240.295 34.2523C240.089 34.2772 240.089 34.2772 239.663 34.1152C239.506 34.0553 239.322 34.1426 239.169 34.0803C239.066 34.0404 238.977 33.9806 238.877 33.9382C238.835 33.9207 238.767 33.9207 238.714 33.9257C238.419 33.9556 238.12 33.9756 237.836 34.0304C237.513 34.0952 237.268 34.0254 237.037 33.8783C236.745 33.9058 236.45 33.9207 236.163 33.9681C235.953 34.003 235.832 33.9207 235.69 33.8534C235.64 33.831 235.598 33.7936 235.544 33.7836C235.491 33.7736 235.427 33.7936 235.37 33.801C235.135 33.8285 234.894 33.841 234.666 33.8858C234.386 33.9432 234.279 33.7387 234.062 33.7138C233.917 33.836 233.839 34.003 233.551 34.0154C233.316 34.0254 233.082 34.0653 232.847 34.0927C232.73 34.1052 232.613 34.1202 232.495 34.1326C232.307 34.1551 232.218 34.2523 232.257 34.4019C232.279 34.4842 232.296 34.5664 232.314 34.6487C232.35 34.7958 232.261 34.9205 232.112 34.9379C231.699 34.9853 231.291 35.0351 230.878 35.0775C230.768 35.09 230.662 35.0476 230.573 34.9803C230.48 34.913 230.377 34.883 230.264 34.8955C229.852 34.9429 229.443 34.9928 229.031 35.0351C228.985 35.0401 228.924 35.0152 228.878 34.9952C228.778 34.9504 228.682 34.898 228.587 34.8507C228.352 34.8731 228.121 34.888 227.89 34.9179C227.517 34.9628 227.517 34.9653 227.243 34.8282C227.194 34.8033 227.144 34.7559 227.098 34.7584C226.92 34.7684 226.746 34.7933 226.568 34.8158C226.046 34.8806 226.046 34.8806 225.893 34.8058C225.754 34.736 225.63 34.6512 225.42 34.6911C225.193 34.736 224.951 34.7509 224.717 34.7759C224.543 34.7933 224.369 34.8133 224.194 34.8182C224.148 34.8207 224.099 34.7734 224.049 34.7484C223.907 34.6711 223.768 34.6088 223.573 34.6512C223.459 34.6761 223.338 34.6811 223.221 34.6936C222.915 34.7285 222.915 34.7285 222.414 34.5789C222.364 34.5639 222.304 34.5465 222.254 34.554C221.842 34.5988 221.433 34.6487 221.021 34.6911C220.971 34.6961 220.911 34.6811 220.861 34.6686C220.3 34.524 220.3 34.5241 219.703 34.5939C219.475 34.6188 219.468 34.6288 219.23 34.4966C219.124 34.4393 219.035 34.4119 218.91 34.4293C218.441 34.4891 217.969 34.529 217.503 34.5989C217.294 34.6288 217.173 34.554 217.031 34.4866C216.981 34.4642 216.928 34.4144 216.885 34.4169C216.416 34.4642 215.947 34.5216 215.478 34.5689C215.435 34.5739 215.382 34.5241 215.332 34.5016C215.236 34.4567 215.144 34.3894 215.037 34.3745C214.927 34.3595 214.806 34.3969 214.685 34.4094C214.39 34.4418 214.39 34.4393 214.049 34.2922C214.003 34.2723 213.943 34.2448 213.897 34.2498C213.427 34.2997 212.955 34.3421 212.489 34.4144C212.223 34.4543 212.042 34.3819 211.853 34.2772C211.814 34.2548 211.747 34.2448 211.697 34.2498C211.167 34.3072 210.642 34.372 210.112 34.4293C210.002 34.4418 209.895 34.3994 209.806 34.3346C209.664 34.2324 209.497 34.2448 209.32 34.2673C208.911 34.3196 208.907 34.3171 208.666 34.1975C208.616 34.1725 208.573 34.1401 208.52 34.1277C208.47 34.1152 208.406 34.1227 208.353 34.1277C208.119 34.1526 207.884 34.18 207.65 34.2074C207.415 34.2348 207.177 34.2498 206.946 34.2922C206.662 34.3446 206.527 34.1825 206.328 34.1077C206.036 34.1401 205.738 34.1601 205.45 34.2124C205.23 34.2523 205.127 34.1426 204.981 34.0853C204.931 34.0653 204.878 34.0229 204.832 34.0279C204.302 34.0828 203.773 34.1426 203.247 34.2099C203.119 34.2249 203.034 34.2049 202.927 34.1451C202.689 34.0105 202.678 34.0155 202.28 34.0653C202.106 34.0878 201.939 34.1077 201.79 34.0055C201.658 33.9132 201.499 33.8908 201.31 33.9207C201.079 33.9581 200.841 33.9781 200.607 34.003C200.372 34.0304 200.138 34.0678 199.903 34.0803C199.715 34.0927 199.601 33.9756 199.452 33.9157C199.406 33.8983 199.342 33.8958 199.288 33.9008C199.054 33.9232 198.812 33.9407 198.585 33.983C198.308 34.0354 198.155 33.8983 197.959 33.8185C197.917 33.8011 197.846 33.811 197.792 33.8185C197.38 33.8634 196.971 33.9132 196.559 33.9606C196.414 33.8933 196.264 33.8285 196.119 33.7612C195.884 33.7861 195.65 33.8135 195.415 33.8384C195.237 33.8584 195.056 33.8659 194.889 33.9033C194.672 33.9531 194.566 33.836 194.42 33.7786C194.37 33.7587 194.317 33.7163 194.271 33.7213C193.976 33.7487 193.681 33.7786 193.39 33.821C193.112 33.8634 193.002 33.639 192.775 33.6415C192.54 33.644 192.299 33.6764 192.071 33.7213C191.808 33.7736 191.623 33.6938 191.435 33.5866C191.396 33.5642 191.329 33.5517 191.279 33.5567C190.984 33.5866 190.693 33.624 190.398 33.654C190.348 33.6589 190.287 33.6465 190.238 33.6315C189.676 33.4844 189.676 33.4819 189.431 33.5119C189.257 33.5318 189.079 33.5567 188.902 33.5692C188.852 33.5742 188.791 33.5517 188.745 33.5318C188.376 33.3797 188.376 33.3772 188.109 33.4071C187.875 33.4346 187.64 33.462 187.406 33.4894C187.26 33.4221 187.111 33.3573 186.965 33.29C186.674 33.3224 186.375 33.3473 186.087 33.3922C185.952 33.4121 185.863 33.4047 185.76 33.3423C185.632 33.2675 185.504 33.1803 185.291 33.2227C185.064 33.2675 184.822 33.2725 184.591 33.3099C184.314 33.3548 184.2 33.1279 183.976 33.1304C183.742 33.1329 183.5 33.1653 183.273 33.2102C183.01 33.2625 182.825 33.1828 182.637 33.0756C182.598 33.0531 182.53 33.0407 182.48 33.0457C181.834 33.118 181.191 33.1902 180.544 33.2675C180.146 33.3149 180.146 33.3174 179.389 33.1803C179.336 33.1703 179.279 33.1603 179.225 33.1653C178.991 33.1878 178.749 33.2052 178.522 33.2476C178.245 33.2999 178.092 33.1653 177.896 33.083C177.854 33.0656 177.786 33.0756 177.729 33.0805C177.552 33.098 177.378 33.1205 177.2 33.1404C176.965 33.1678 176.731 33.1952 176.496 33.2227C176.351 33.1578 176.201 33.0905 176.056 33.0257C175.764 33.0581 175.466 33.0756 175.178 33.1279C174.958 33.1678 174.855 33.0631 174.709 33.0033C174.659 32.9833 174.606 32.9409 174.56 32.9434C174.03 32.9983 173.501 33.0556 172.975 33.1254C172.758 33.1553 172.659 33.0431 172.513 32.9858C172.463 32.9683 172.406 32.936 172.36 32.9409C172.008 32.9758 171.657 33.0182 171.305 33.0606C171.106 33.0855 171.106 33.0855 170.672 32.931C170.623 32.9135 170.566 32.8961 170.516 32.901C169.4 33.0257 168.288 33.1578 167.172 33.2825C167.058 33.295 166.955 33.2576 166.867 33.1903C166.774 33.1229 166.671 33.088 166.557 33.1005C166.088 33.1529 165.616 33.2002 165.15 33.2651C164.958 33.2925 164.806 33.26 164.674 33.1728C164.575 33.108 164.482 33.083 164.358 33.098C164.123 33.1279 163.889 33.1528 163.654 33.1803C163.42 33.2077 163.185 33.2351 162.951 33.2626C162.716 33.29 162.478 33.3049 162.247 33.3473C161.963 33.3997 161.824 33.2451 161.629 33.1678C161.277 33.2052 160.925 33.2426 160.577 33.2825C160.108 33.3348 159.639 33.3922 159.17 33.4421C159.127 33.447 159.074 33.4022 159.024 33.3797C158.878 33.3174 158.772 33.2301 158.555 33.2576C157.503 33.3897 156.444 33.5019 155.389 33.6315C155.169 33.659 155.073 33.5517 154.923 33.4944C154.874 33.4769 154.817 33.4421 154.771 33.447C154.184 33.5094 153.598 33.5792 153.012 33.6465C152.774 33.6739 152.774 33.6739 152.376 33.5193C152.329 33.5019 152.269 33.4794 152.219 33.4844C151.455 33.5692 150.695 33.6589 149.931 33.7462C149.817 33.7587 149.714 33.7238 149.622 33.6565C149.533 33.5891 149.426 33.5517 149.316 33.5642C148.612 33.644 147.905 33.7213 147.205 33.8085C147.017 33.8335 146.861 33.811 146.726 33.7213C146.63 33.6565 146.534 33.629 146.413 33.644C145.358 33.7661 144.302 33.8833 143.247 34.013C143.044 34.0379 142.902 33.9905 142.774 33.9083C142.671 33.8434 142.582 33.831 142.454 33.8409C142.319 33.8534 142.238 33.8808 142.163 33.9556C142.067 34.0528 142.007 34.175 141.779 34.1825C141.545 34.19 141.307 34.2199 141.076 34.2623C140.855 34.3047 140.752 34.1925 140.614 34.1252C140.511 34.0778 140.415 34.0703 140.283 34.0927C140.162 34.1127 140.088 34.1551 140.017 34.2348C139.86 34.4044 139.846 34.4044 139.654 34.2972C139.551 34.2398 139.459 34.195 139.345 34.2049C138.876 34.2548 138.407 34.3096 137.938 34.367C137.668 34.3994 137.664 34.4044 137.462 34.2797C137.362 34.2174 137.266 34.1875 137.149 34.2024C135.859 34.352 134.569 34.4966 133.279 34.6537C133.08 34.6786 132.945 34.6263 132.803 34.5515C132.757 34.5265 132.711 34.4916 132.658 34.4817C132.604 34.4717 132.544 34.4817 132.487 34.4866C131.549 34.5938 130.607 34.6961 129.673 34.8158C129.459 34.8432 129.346 34.7634 129.2 34.6986C129.15 34.6761 129.108 34.6412 129.054 34.6313C129.001 34.6238 128.937 34.6412 128.88 34.6487C127.942 34.7559 127 34.8581 126.066 34.9778C125.842 35.0052 125.746 34.9005 125.6 34.8457C125.551 34.8257 125.497 34.7883 125.451 34.7933C125.156 34.8207 124.865 34.8581 124.57 34.8905C123.866 34.9728 123.163 35.0501 122.459 35.1349C122.189 35.1673 122.072 34.9454 121.844 34.9553C121.549 34.9678 121.258 35.0177 120.963 35.0526C120.729 35.08 120.494 35.105 120.259 35.1349C120.029 35.1623 120.028 35.1623 119.453 35.0177C119.403 35.0052 119.343 34.9878 119.293 34.9928C118.472 35.085 117.648 35.1772 116.83 35.277C116.642 35.2994 116.486 35.2869 116.351 35.1947C116.255 35.1299 116.155 35.0975 116.038 35.1124C114.805 35.2545 113.575 35.3966 112.342 35.5363C112.296 35.5412 112.236 35.5163 112.19 35.4964C112.09 35.4515 111.994 35.3991 111.898 35.3518C111.827 35.4091 111.735 35.4615 111.689 35.5263C111.625 35.6135 111.539 35.6385 111.404 35.6534C111.269 35.6684 111.184 35.6634 111.077 35.5986C110.949 35.5188 110.818 35.4565 110.608 35.4814C109.318 35.6385 108.028 35.7806 106.739 35.9351C106.525 35.9601 106.426 35.8504 106.277 35.793C106.227 35.7756 106.17 35.7482 106.124 35.7532C105.594 35.8105 105.068 35.8728 104.539 35.9327C103.071 36.1022 101.604 36.2642 100.14 36.4437C99.8734 36.4762 99.6921 36.4138 99.5038 36.3066C99.4647 36.2842 99.3972 36.2717 99.3475 36.2767C97.2936 36.5111 95.2396 36.7479 93.1893 36.9847C93.0791 36.9972 92.9725 36.9573 92.8837 36.8925C92.7913 36.8252 92.6883 36.7928 92.5746 36.8052C91.6364 36.9124 90.6984 37.0197 89.7603 37.1293C89.5257 37.1568 89.5221 37.1592 89.2805 37.0396C89.2308 37.0146 89.1775 36.9673 89.1384 36.9723C89.0567 36.9847 88.9785 37.0471 88.9216 37.1318C88.8647 37.2216 88.7759 37.2465 88.6444 37.264C88.5094 37.2814 88.4206 37.2739 88.3175 37.2141C88.1861 37.1393 88.0652 37.067 87.852 37.0919C85.1549 37.4111 82.4579 37.7177 79.7608 38.0343C79.544 38.0592 79.4445 37.9546 79.2953 37.8972C79.2455 37.8798 79.1958 37.8548 79.1425 37.8498C79.0856 37.8448 79.0252 37.8598 78.9684 37.8673C74.5692 38.3734 70.1701 38.882 65.7709 39.3881C65.5079 39.418 65.5115 39.418 65.2236 39.6474C65.1881 39.6748 65.1419 39.7122 65.0921 39.7172C63.7454 39.8767 62.3951 40.0313 61.0448 40.1859C60.4585 40.2532 59.8722 40.323 59.2858 40.3878C59.0762 40.4102 59.0762 40.4103 58.5751 40.6795C58.5325 40.702 58.4827 40.7319 58.433 40.7368C56.0877 41.0086 53.7424 41.2803 51.3935 41.5471C51.2088 41.567 51.0595 41.6119 50.9743 41.7316C50.9139 41.8164 50.8357 41.8662 50.7184 41.8812C49.0767 42.0706 47.4351 42.2626 45.7898 42.4471C45.5944 42.4695 45.4771 42.5394 45.3811 42.6441C45.3492 42.679 45.3207 42.7188 45.2745 42.7438C45.2319 42.7662 45.1679 42.7737 45.1146 42.7812C43.7075 42.9432 42.3003 43.1103 40.8896 43.2649C40.68 43.2873 40.5946 43.3795 40.4916 43.4768C40.456 43.5092 40.4312 43.554 40.385 43.5765C40.3388 43.5964 40.2713 43.5964 40.2144 43.6014C39.0418 43.736 37.8692 43.8732 36.6965 44.0078C36.4691 43.9953 36.4193 44.1399 36.3092 44.2272C36.2701 44.2571 36.2417 44.297 36.1955 44.3169C36.1458 44.3369 36.0817 44.3344 36.0213 44.3394C35.0832 44.4466 34.1451 44.5613 33.2034 44.661C32.9867 44.6834 32.944 44.8106 32.8268 44.8978C32.7877 44.9252 32.7486 44.9676 32.7024 44.9751C32.1161 45.0474 31.5298 45.1147 30.9435 45.1795C30.7481 45.202 30.748 45.1995 30.4034 45.4463C30.3643 45.4737 30.318 45.5037 30.2683 45.5111C29.3906 45.6158 28.5094 45.7156 27.6281 45.8178C27.5144 45.8302 27.4362 45.8901 27.3794 45.9748C27.3225 46.0596 27.2408 46.1144 27.1271 46.1269C26.4235 46.2092 25.7199 46.2939 25.0163 46.3687C24.8208 46.3887 24.6929 46.451 24.6077 46.5632C24.5437 46.648 24.4655 46.6903 24.3412 46.7053C23.6376 46.7851 22.934 46.8724 22.2269 46.9422C22.0208 46.9621 21.9141 47.0469 21.8288 47.1516C21.7613 47.2363 21.6831 47.2663 21.5517 47.2812C20.2618 47.4258 18.9683 47.5704 17.682 47.73C17.4652 47.7574 17.355 47.6701 17.2129 47.6078C17.0104 47.5205 16.8221 47.4258 16.8221 47.2313C16.8221 47.2014 16.7617 47.1665 16.719 47.1416C16.4028 46.9546 16.4027 46.9546 16.353 46.7552C16.3246 46.633 16.2926 46.5084 16.2677 46.3837C16.2215 46.1793 16.1078 46.1269 15.7809 46.1643C15.6636 46.1768 15.5463 46.1942 15.4291 46.2042C15.2549 46.2216 15.1235 46.1394 15.0915 45.9898C15.0737 45.9075 15.0524 45.8252 15.0347 45.743C15.2124 45.723 15.2088 45.7206 15.5215 45.4189C15.6529 45.2917 15.653 45.2917 15.4007 45.1646C15.3048 45.1172 15.2123 45.0648 15.1093 45.02C15.0631 45 15.0027 44.9876 14.953 44.9925C14.658 45.0225 14.3666 45.0574 14.0753 45.0923C13.6062 45.1471 13.6062 45.1471 13.13 44.8928C13.0909 44.8729 13.0305 44.8355 13.0376 44.8155C13.0767 44.7233 13.1726 44.6834 13.2934 44.6734C13.4711 44.6585 13.6452 44.6335 13.8193 44.6136C13.9366 44.6011 14.0539 44.5862 14.1711 44.5737C14.2813 44.479 14.3951 44.3867 14.4981 44.2895C14.6616 44.1399 14.6615 44.1349 14.4376 44.0302C14.2955 43.9604 14.1427 43.8981 13.997 43.8333C13.8229 43.8532 13.6452 43.8756 13.4711 43.8931C13.2508 43.9155 13.1619 43.8682 13.1051 43.7061C13.0553 43.564 13.1158 43.4418 13.2863 43.4119C13.4604 43.382 13.624 43.3621 13.7128 43.2349C13.7981 43.1128 13.9473 43.0654 14.1321 43.0554C14.2494 43.0479 14.3666 43.0305 14.4839 43.0155C14.6367 42.9956 14.7184 42.8684 14.6864 42.7263C14.6687 42.6341 14.6331 42.5568 14.4945 42.5369C13.8798 42.4496 13.8727 42.4521 13.5671 42.2826C13.5386 42.2676 13.5174 42.2227 13.528 42.2003C13.5458 42.1629 13.5849 42.108 13.6275 42.1006C14.0362 42.0457 14.4448 41.9959 14.8534 41.9585C14.9885 41.946 15.088 41.9285 15.1342 41.8363C15.1981 41.7091 15.1697 41.592 15.0454 41.5047C15.0063 41.4773 14.9422 41.4424 14.8996 41.4449C14.4305 41.4898 13.9651 41.5471 13.496 41.592C13.4534 41.597 13.3752 41.5546 13.3575 41.5222C13.3219 41.4623 13.3752 41.3826 13.4996 41.3551C13.663 41.3177 13.83 41.3152 13.9402 41.1906C14.093 41.0136 14.2813 40.8515 14.4519 40.682C14.4803 40.6521 14.5265 40.5947 14.5159 40.5897C14.4271 40.5349 14.324 40.4925 14.2316 40.4402C14.0752 40.3529 14.0752 40.2308 14.1107 40.1136C14.1392 40.0188 14.2458 39.9814 14.3773 39.9814C14.4341 39.9814 14.5052 39.9814 14.5514 39.959C14.6722 39.9042 14.7113 39.8343 14.6509 39.782C14.6153 39.7521 14.5514 39.7097 14.5088 39.7147C13.7483 39.797 12.9843 39.8767 12.2274 39.9789C12.0035 40.0089 11.9006 39.9141 11.7655 39.8468C11.6625 39.7944 11.5665 39.7745 11.4385 39.8119C11.3177 39.8468 11.2005 39.8269 11.1259 39.7446C11.0655 39.6773 11.1721 39.6199 11.4599 39.5551C11.5132 39.5427 11.5736 39.5352 11.6127 39.5102C12.0249 39.241 12.0248 39.2385 12.3091 39.2036C12.5863 39.1712 12.5864 39.1687 12.732 39.0241C12.7996 38.9568 12.8741 38.8895 12.9381 38.8196C12.963 38.7922 13.0057 38.7424 12.9914 38.7274C12.9133 38.6501 12.8066 38.6327 12.6823 38.6501C12.4051 38.6925 12.0782 38.6576 11.9325 38.8944C11.8757 38.9842 11.7868 39.0091 11.6589 39.0241C10.3726 39.1687 9.08616 39.3233 7.79625 39.4629C7.5866 39.4853 7.49071 39.5776 7.40898 39.6798C7.33791 39.7645 7.25972 39.7895 7.12469 39.8044C6.98966 39.8194 6.883 39.8269 6.80483 39.7446C6.75863 39.6947 6.79773 39.6249 6.90433 39.5551C7.05713 39.4554 7.02869 39.3307 6.97894 39.2136C6.94341 39.1363 6.83325 39.0814 6.71599 39.0864C6.54187 39.0964 6.3749 39.1238 6.22921 39.0241C6.14393 38.9668 6.03731 38.9268 5.94136 38.877C5.75658 38.7748 5.5718 38.6701 5.31239 38.7374C5.13472 38.7125 5.01035 38.6227 4.86821 38.5529C4.63013 38.4382 4.60881 38.4208 4.77938 38.2986C4.97126 38.1615 4.82199 37.982 4.92859 37.8473C5.0423 37.7027 5.19871 37.5756 5.33729 37.441C5.37283 37.4061 5.40482 37.3737 5.44036 37.3388C5.35863 37.2889 5.28402 37.2266 5.18808 37.1917C5.0637 37.1468 4.99974 37.0919 5.00685 36.9374C4.98197 36.9149 4.99256 36.9723 5.02099 36.9872C5.05297 37.0022 5.1312 36.9897 5.17029 36.9723C5.26979 36.9249 5.31948 36.8626 5.29461 36.8102C5.2804 36.7828 5.21293 36.7479 5.17029 36.7479C5.09212 36.7479 5.02461 36.8027 5.00329 36.9374C4.6053 37.0396 4.19304 37.0895 3.78084 37.1293C3.73819 37.1343 3.68492 37.0845 3.63518 37.0595C3.47172 36.9748 3.4717 36.9772 2.99198 36.9523C2.94223 36.9498 2.87475 36.9149 2.84988 36.88C2.74683 36.728 2.75041 36.5609 2.70066 36.3989C2.79305 36.2941 2.88537 36.1919 2.98131 36.0897C3.1732 35.8828 3.42199 35.7008 3.57124 35.4739C3.53926 35.3518 3.49661 35.2296 3.65296 35.1299C4.09714 35.0052 4.09362 35.0052 4.21443 34.8856C4.55912 34.5465 4.90023 34.2049 5.25913 33.8709C5.35507 33.7836 5.35508 33.7362 5.18452 33.6988C5.13122 33.6889 5.07429 33.6864 5.01743 33.6914C4.83976 33.7088 4.66209 33.7537 4.48797 33.7437C4.31385 33.7362 4.18593 33.6265 4.04379 33.5592C3.8981 33.4894 3.75241 33.4171 3.60672 33.3448C3.43971 33.3523 3.27273 33.4221 3.10571 33.3099C2.97779 33.2227 2.81789 33.1603 2.6722 33.088C2.78236 32.8985 2.98849 32.7539 3.1484 32.5869C3.29409 32.4348 3.29756 32.4373 3.68844 32.3202C3.87322 32.2653 3.93719 31.9836 3.78084 31.9013C3.5925 31.8016 3.39355 31.7093 3.20166 31.6146C3.03465 31.6221 2.86412 31.6894 2.70422 31.5772C2.57984 31.4925 2.43768 31.4351 2.23158 31.4675C1.88334 31.5224 1.52801 31.5498 1.17621 31.5947C1.0554 31.6096 0.92388 31.5997 0.870579 31.5149C0.835044 31.4551 0.938101 31.3728 1.05537 31.3553C1.23304 31.3304 1.39293 31.3005 1.48176 31.1758C1.56704 31.0512 1.72338 31.0138 1.90816 30.9963C1.95791 30.9913 2.0148 30.9614 2.03968 30.9315C2.1676 30.7869 2.30975 30.6623 2.58337 30.6672C2.69708 30.6174 2.75745 30.555 2.72191 30.4952C2.70059 30.4628 2.62601 30.4204 2.58337 30.4254C2.28843 30.4503 1.9935 30.4753 1.70567 30.5202C1.57064 30.5401 1.46754 30.5451 1.38225 30.4703C1.32185 30.4204 1.35382 30.3531 1.46753 30.2808C1.56703 30.2185 1.59549 30.1462 1.58838 30.0614C1.57062 29.8644 1.46399 29.8071 1.12286 29.8196C0.877672 29.8296 0.817259 29.7971 0.763958 29.6276C0.749744 29.5877 0.714272 29.5329 0.739146 29.5054C0.891944 29.3359 0.991448 29.1265 1.27928 29.0467C1.39299 29.0168 1.51376 29.0168 1.58483 28.952C1.6559 28.8872 1.71989 28.8124 1.79451 28.75C1.8869 28.6752 1.9508 28.6055 1.90816 28.5581C1.83709 28.4733 1.72342 28.4658 1.59194 28.4958C1.47823 28.5207 1.35742 28.5232 1.24015 28.5381C1.0305 28.5656 0.85997 28.5007 0.835096 28.391C0.767581 28.1018 0.696491 27.8151 0.636082 27.5259C0.628975 27.491 0.646694 27.4462 0.675121 27.4162C0.774618 27.3115 0.881263 27.2118 0.984313 27.1096C1.10513 26.9924 1.29705 27.0149 1.46051 26.9924C1.69148 26.96 1.6914 26.9625 2.00055 26.7231C2.12137 26.6284 2.33103 26.6658 2.4554 26.5811C2.49449 26.5536 2.5549 26.5088 2.54424 26.4838C2.53003 26.4514 2.459 26.4265 2.40569 26.4115C2.35595 26.3966 2.29555 26.3891 2.24225 26.3966C1.59552 26.4689 0.952364 26.5462 0.305635 26.616C0.195478 26.6284 0.0746572 26.5736 0.0355692 26.4963C-0.00351875 26.424 0.00710691 26.3367 0 26.2544C0.10305 26.1522 0.220269 26.0575 0.309105 25.9478C0.376621 25.863 0.454811 25.8256 0.589842 25.8206C0.767515 25.8132 0.941651 25.7833 1.14064 25.7608C1.5102 25.3968 1.87263 25.0154 2.27062 24.6514C2.43052 24.5043 2.3915 24.3547 2.42348 24.1976C2.45546 24.053 2.69353 24.0755 2.85343 24.0331C2.98136 23.9982 3.02394 23.9184 2.97419 23.8636C2.94577 23.8312 2.88184 23.7938 2.83209 23.7938C2.71483 23.7938 2.59757 23.8162 2.4803 23.8287C2.36304 23.8411 2.22801 23.8337 2.13207 23.8761C2.03968 23.9159 1.97924 24.0007 1.91883 24.073C1.85131 24.1528 1.76254 24.1802 1.62751 24.1852C1.45339 24.1902 1.27928 24.2126 1.10516 24.2301C0.913276 24.1328 0.714241 24.0381 0.529461 23.9359C0.493926 23.9159 0.486781 23.8586 0.490335 23.8212C0.497442 23.724 0.444154 23.6641 0.32689 23.6168C0.227393 23.5769 0.145657 23.5195 0.0532671 23.4697C0.124336 23.4024 0.20254 23.3375 0.259395 23.2652C0.383766 23.1131 0.540135 23.0035 0.810198 23.0085C0.916801 22.9112 1.00206 22.7916 1.14064 22.7242C1.27212 22.6594 1.496 22.7242 1.5955 22.5771C1.64525 22.5048 1.71991 22.4226 1.81585 22.3926C1.96865 22.3453 2.16764 22.3702 2.25648 22.2306C2.30978 22.1508 2.38792 22.0785 2.49097 22.0586C2.60824 22.0361 2.72902 22.0312 2.81431 21.9838C2.8605 21.9589 2.91026 21.919 2.91026 21.8841C2.91026 21.8616 2.83924 21.8267 2.7895 21.8118C2.7433 21.7943 2.68282 21.7819 2.62952 21.7868C2.45185 21.8018 2.27773 21.8292 2.10006 21.8442C2.05031 21.8492 1.99347 21.8317 1.94017 21.8168C1.78382 21.7769 1.79446 21.727 1.91883 21.6373C2.0432 21.55 2.13209 21.4378 2.23514 21.3356C2.34885 21.3181 2.49096 21.3256 2.56914 21.2782C2.70062 21.201 2.79298 21.0888 2.89959 20.9915C3.01685 20.9766 3.13766 20.9716 3.24782 20.9442C3.29401 20.9342 3.31535 20.8793 3.35444 20.8469C3.42551 20.7846 3.48597 20.6949 3.58191 20.6649C3.73826 20.6201 3.93014 20.6375 4.02253 20.5004C4.07583 20.4206 4.15753 20.3359 4.25703 20.3309C4.5342 20.3209 4.65147 20.1838 4.7936 20.0541C4.90021 19.9569 5.12764 20.0068 5.2449 19.9095C5.32308 19.8472 5.37997 19.7699 5.45814 19.7101C5.49012 19.6851 5.55761 19.6727 5.61092 19.6652C5.9023 19.6278 6.19723 19.6004 6.48861 19.5605C6.5348 19.553 6.57748 19.5156 6.61301 19.4857C6.68764 19.4209 6.73378 19.3311 6.82617 19.2888C6.91856 19.2464 7.05002 19.2464 7.16373 19.2339C7.52974 19.1965 7.55819 19.2065 7.7252 18.9946C7.86023 18.8225 8.19075 18.9447 8.3009 18.7552C8.36487 18.6455 8.48208 18.5558 8.69173 18.5433C8.98667 18.5259 9.27804 18.4785 9.57298 18.4461C9.83594 18.4162 9.83239 18.4162 10.1167 18.1843C10.2446 18.0796 10.433 18.0946 10.6 18.0746C10.7776 18.0547 10.9411 18.0248 11.0264 17.9001C11.1117 17.778 11.268 17.738 11.4492 17.7206C11.6162 17.7031 11.8046 17.7156 11.9361 17.6159C12.2559 17.3766 12.2523 17.3741 12.4762 17.3491C12.828 17.3092 13.1798 17.2693 13.5316 17.227C13.7661 17.1995 14.0113 17.1946 14.2316 17.1397C14.3915 17.0998 14.4625 16.9602 14.5656 16.863C14.857 16.8256 15.1484 16.7882 15.4397 16.7533C15.8484 16.7034 16.2606 16.6585 16.6728 16.6112C16.8504 16.5164 16.8754 16.307 17.1739 16.297C17.3515 16.2921 17.5257 16.2597 17.7033 16.2397C17.9983 16.2048 18.2896 16.1599 18.5846 16.1425C18.8084 16.13 18.8475 15.9954 18.9647 15.9106C19.0038 15.8807 19.0394 15.8383 19.0856 15.8308C19.5475 15.761 20.0237 15.7461 20.475 15.6439C20.5211 15.6339 20.5638 15.5815 20.5745 15.5441C20.5816 15.5242 20.5212 15.4868 20.4821 15.4693C20.4359 15.4494 20.3755 15.4295 20.3257 15.4344C18.8582 15.6015 17.3906 15.771 15.923 15.9381C15.7169 15.963 15.7169 15.9605 15.2159 16.2347C15.1733 16.2572 15.1235 16.2821 15.0702 16.2896C14.8356 16.3195 14.5976 16.3369 14.3666 16.3743C14.1783 16.4043 14.022 16.3743 13.8869 16.2846C13.791 16.2197 13.6914 16.1998 13.5706 16.2048C13.4356 16.2123 13.3468 16.2397 13.2686 16.307C13.1656 16.3993 13.1123 16.5189 12.8955 16.5439C11.897 16.6511 10.8984 16.7707 9.90343 16.8854C9.76484 16.8505 9.69733 16.7982 9.73287 16.7358C9.75419 16.6984 9.79685 16.6486 9.83949 16.6436C10.2481 16.5912 10.6603 16.5464 11.069 16.4965C11.1258 16.489 11.204 16.494 11.236 16.4691C11.3923 16.3569 11.4492 16.1749 11.7442 16.1624C11.9147 16.1549 12.0888 16.1175 12.2523 16.0826C12.2985 16.0727 12.3411 16.0203 12.3518 15.9829C12.3554 15.963 12.2985 15.9256 12.2559 15.9081C12.0995 15.8358 11.9183 15.9231 11.762 15.8732C11.7087 15.8558 11.634 15.8308 11.6233 15.8009C11.6162 15.7735 11.6766 15.7286 11.7193 15.7012C11.7584 15.6763 11.8116 15.6538 11.8649 15.6463C12.334 15.589 12.8031 15.5292 13.2722 15.4843C13.4641 15.4668 13.5991 15.4045 13.6844 15.2898C13.7483 15.2051 13.8265 15.1602 13.9473 15.1477C14.7681 15.0555 15.589 14.9533 16.4134 14.8685C16.6195 14.8486 16.7261 14.7663 16.8114 14.6591C16.8789 14.5743 16.9571 14.5444 17.0886 14.5294C18.2648 14.3998 19.4338 14.2552 20.61 14.1306C20.8268 14.1081 20.8908 14.0009 21.0009 13.9087C21.04 13.8763 21.0648 13.8364 21.1146 13.8164C21.1643 13.7965 21.2283 13.799 21.2887 13.794C22.2268 13.6868 23.165 13.5721 24.1067 13.4724C24.327 13.4499 24.3695 13.3253 24.4833 13.238C24.5223 13.2106 24.5579 13.1657 24.6041 13.1582C25.3077 13.0735 26.0112 12.9937 26.7148 12.9114C27.1839 12.8566 27.6529 12.8017 28.122 12.7494C28.353 12.7244 28.353 12.7219 28.6657 12.4851C28.7012 12.4577 28.751 12.4253 28.7972 12.4178C30.1475 12.2582 31.4942 12.1062 32.8445 11.9491C32.9583 11.9366 33.04 11.8793 33.0968 11.7945C33.1537 11.7097 33.2355 11.6524 33.3456 11.6399C34.401 11.5153 35.4564 11.3931 36.5153 11.2759C36.7072 11.256 36.8422 11.1962 36.9275 11.084C36.9914 10.9992 37.0696 10.9543 37.1904 10.9419C38.2458 10.8222 39.3012 10.695 40.3601 10.5804C40.5627 10.5579 40.6621 10.4732 40.7616 10.3735C40.7972 10.3385 40.8256 10.2812 40.8683 10.2762C41.3942 10.2064 41.9165 10.1341 42.446 10.0867C42.6663 10.0668 42.7409 9.96208 42.8298 9.86235C42.9008 9.78258 42.9826 9.75516 43.1176 9.74519C43.4126 9.72275 43.7039 9.68038 43.9918 9.638C44.0344 9.63052 44.0877 9.57567 44.0913 9.54077C44.0984 9.47595 44.0166 9.43106 43.8816 9.40862C42.4744 9.57068 41.0637 9.73271 39.6566 9.89477C39.4256 9.92219 39.4256 9.9222 39.1129 10.159C39.0773 10.1865 39.0275 10.2189 38.9778 10.2264C37.6275 10.3834 36.2808 10.538 34.9305 10.6951C34.8167 10.7075 34.735 10.7649 34.6782 10.8496C34.6213 10.9344 34.5395 10.9917 34.4294 11.0042C33.1395 11.1538 31.8496 11.3059 30.5561 11.448C30.3643 11.4679 30.2292 11.5252 30.144 11.6399C30.08 11.7247 30.0018 11.7696 29.881 11.7821C28.648 11.9217 27.4184 12.0687 26.1818 12.2034C26.0574 12.2158 25.9651 12.1435 25.9722 12.0762C25.9758 12.0413 26.029 11.984 26.0716 11.979C26.7148 11.8967 27.3545 11.812 28.0012 11.7496C28.218 11.7297 28.2819 11.62 28.3921 11.5278C28.4276 11.4953 28.456 11.453 28.5022 11.4355C28.552 11.4156 28.6159 11.4181 28.6763 11.4131C30.2008 11.2361 31.7253 11.0566 33.2532 10.8895C33.4736 10.8646 33.5161 10.7424 33.6298 10.6552C33.6689 10.6253 33.7045 10.5804 33.7507 10.5754C34.2197 10.5156 34.6888 10.4632 35.1578 10.4109C35.9787 10.3161 36.7995 10.2214 37.6239 10.1266C37.862 10.0992 37.862 10.0992 38.1676 9.86485C38.2031 9.83743 38.2529 9.80255 38.2991 9.79756C40.4703 9.54576 42.6415 9.29395 44.8126 9.04464C44.9263 9.03218 45.0081 8.97484 45.0649 8.89007C45.1218 8.8078 45.2035 8.74796 45.3136 8.73301C48.2488 8.39394 51.1804 8.05487 54.1155 7.7208C54.3074 7.69836 54.4424 7.646 54.5277 7.52882C54.5881 7.44406 54.6698 7.39919 54.7907 7.38423C58.0172 7.01276 61.2437 6.6413 64.4738 6.26733C66.645 6.01802 68.8162 5.76373 70.9873 5.5194C71.1863 5.49697 71.2929 5.41967 71.3924 5.31745C71.4244 5.28255 71.4564 5.2252 71.499 5.22021C71.9645 5.15789 72.43 5.10056 72.8955 5.04321C73.0412 5.11053 73.1869 5.17536 73.3326 5.24267C73.4427 5.14794 73.5494 5.0507 73.6595 4.95596C74.3631 4.88366 75.056 4.77147 75.7667 4.73657C75.8129 4.73408 75.8626 4.78145 75.9124 4.80638C76.2428 4.96345 76.4312 4.95098 76.6408 4.74156C76.7155 4.66677 76.7794 4.59946 76.8931 4.58699C77.2449 4.54211 77.6003 4.51219 77.9486 4.45984C78.1369 4.43242 78.2932 4.45734 78.4282 4.54709C78.5242 4.61191 78.6237 4.63935 78.741 4.62439C79.3877 4.5496 80.0309 4.47729 80.6776 4.39751C80.7238 4.39253 80.7664 4.35013 80.8019 4.32021C80.8765 4.25539 80.9405 4.1856 81.0116 4.11829C81.1076 4.16067 81.2142 4.19308 81.2923 4.24793C81.3918 4.31275 81.4842 4.31274 81.6192 4.29529C84.199 3.99362 86.7824 3.69944 89.3622 3.39528C89.5825 3.37035 89.6785 3.47507 89.8277 3.52992C89.8775 3.54987 89.9272 3.57478 89.9805 3.57977C90.0374 3.58476 90.0978 3.56981 90.1546 3.56233C92.0913 3.33795 94.0279 3.11605 95.9646 2.89167C96.2204 2.86176 96.2204 2.86176 96.6006 3.01633C96.6468 3.03627 96.7072 3.05871 96.757 3.05124C97.6382 2.954 98.5195 2.8493 99.3972 2.74958C99.5109 2.73712 99.6069 2.777 99.7099 2.83434C99.9125 2.94653 99.9266 2.94654 100.076 2.78199C100.147 2.70471 100.222 2.65732 100.339 2.63488C100.467 2.60995 100.57 2.61745 100.669 2.66233C100.811 2.72466 100.915 2.82935 101.131 2.80193C102.069 2.68475 103.011 2.58753 103.946 2.46786C104.159 2.44044 104.273 2.5252 104.415 2.58752C104.464 2.60996 104.511 2.64487 104.564 2.65235C104.617 2.65983 104.681 2.64236 104.738 2.63488C105.911 2.50025 107.087 2.36814 108.256 2.22354C108.476 2.19612 108.572 2.3033 108.721 2.35815C108.771 2.37809 108.828 2.41301 108.874 2.40803C109.578 2.33074 110.285 2.24845 110.989 2.16618C111.241 2.13626 111.241 2.13875 111.625 2.29083C111.671 2.31077 111.731 2.33072 111.781 2.32574C112.602 2.23349 113.426 2.13875 114.247 2.04402C114.499 2.0141 114.499 2.0141 115.228 2.14375C115.281 2.15372 115.338 2.1687 115.391 2.16371C116.329 2.05651 117.271 1.95178 118.209 1.8371C118.397 1.81466 118.554 1.8346 118.689 1.92435C118.785 1.98917 118.884 2.01661 119.002 2.00165C120.057 1.87949 121.116 1.76232 122.168 1.63268C122.37 1.60775 122.502 1.66258 122.644 1.73487C122.69 1.75981 122.736 1.79472 122.79 1.80469C122.843 1.81466 122.903 1.80468 122.96 1.7972C124.016 1.67504 125.074 1.56036 126.126 1.42823C126.339 1.4008 126.453 1.48557 126.595 1.54789C126.645 1.57033 126.698 1.61521 126.741 1.61272C127.153 1.57033 127.565 1.53295 127.974 1.47062C128.194 1.43572 128.29 1.55038 128.44 1.60523C128.489 1.62268 128.546 1.6601 128.592 1.65511C129.474 1.55788 130.355 1.45567 131.233 1.35096C131.357 1.336 131.449 1.35842 131.549 1.42324C131.68 1.5105 131.833 1.5454 132.025 1.51798C132.434 1.46064 132.846 1.42076 133.258 1.37339C133.5 1.34596 133.5 1.34597 134.239 1.47561C134.292 1.48559 134.349 1.50053 134.402 1.49555C135.106 1.41577 135.813 1.33849 136.513 1.25123C136.701 1.2263 136.858 1.24873 136.993 1.33848C137.089 1.4033 137.185 1.43074 137.305 1.41578C137.952 1.34099 138.595 1.26619 139.242 1.1914C139.477 1.16397 139.711 1.11659 139.946 1.11659C140.116 1.11909 140.241 1.23875 140.393 1.29858C140.436 1.31603 140.507 1.29611 140.564 1.29113C141.385 1.19639 142.209 1.10912 143.026 1.00192C143.24 0.974496 143.353 1.05926 143.496 1.12158C143.545 1.14402 143.599 1.1889 143.641 1.18641C143.936 1.15898 144.228 1.12158 144.522 1.08917C144.874 1.04928 145.23 1.01937 145.578 0.964517C145.862 0.919642 145.969 1.13653 146.196 1.14401C146.37 1.15149 146.548 1.10912 146.722 1.08917C147.074 1.04928 147.426 1.00441 147.777 0.969508C147.902 0.957043 147.998 0.917136 148.037 0.827385C148.044 0.809933 147.984 0.772553 147.944 0.750115C147.472 0.495819 147.472 0.495807 146.996 0.550655C146.701 0.585558 146.409 0.620468 146.114 0.650385C146.065 0.655371 146.008 0.635428 145.958 0.620469C145.816 0.578086 145.83 0.528229 145.951 0.438478C146.072 0.348727 146.164 0.23904 146.267 0.136823C146.413 0.201644 146.555 0.266441 146.701 0.331262C146.818 0.318796 146.935 0.30386 147.053 0.291394C147.639 0.226574 148.225 0.159255 148.812 0.099421C148.854 0.0944348 148.907 0.144304 148.957 0.169235C149.099 0.241535 149.227 0.303845 149.433 0.276421C149.959 0.204121 150.489 0.151766 151.015 0.0894389C151.246 0.0620148 151.246 0.0620173 151.651 0.216589C151.697 0.234041 151.757 0.253987 151.807 0.249001C152.337 0.191659 152.862 0.129339 153.392 0.0695051C153.506 0.0570396 153.616 0.0894486 153.698 0.161748C153.729 0.191665 153.722 0.241518 153.857 0.650385C154.277 0.981966 154.565 0.94708 154.856 0.917163C154.98 0.904698 155.09 0.89222 155.172 0.842358C155.215 0.814934 155.268 0.775038 155.268 0.742628C155.268 0.717697 155.19 0.6778 155.14 0.672814C154.788 0.622952 154.454 0.727677 154.11 0.750115C153.95 0.760087 153.811 0.672828 153.783 0.530721C153.776 0.490832 153.765 0.448452 153.754 0.408562C153.744 0.368673 153.737 0.326293 153.726 0.286403C153.587 0.273938 153.506 0.318806 153.445 0.403571C153.395 0.473378 153.324 0.553157 153.228 0.590553C153.132 0.630443 153.001 0.622977 152.884 0.635442C152.77 0.647908 152.646 0.680314 152.539 0.662863C152.432 0.642918 152.347 0.570606 152.248 0.52573C152.201 0.503292 152.145 0.470894 152.098 0.475881C151.69 0.518263 151.285 0.56063 150.88 0.615478C150.666 0.645395 150.56 0.540701 150.425 0.475881C150.318 0.426019 150.212 0.438468 150.194 0.553151C150.148 0.827391 150.311 0.942067 150.674 0.889712C150.972 0.844837 151.242 0.83738 151.477 1.00691C151.509 1.02935 151.583 1.03932 151.629 1.03433C151.921 1.00441 152.209 0.967014 152.5 0.937097C152.553 0.932111 152.61 0.942067 152.66 0.95204C153.385 1.08667 153.385 1.08917 153.63 1.05926C153.747 1.0443 153.861 1.03183 153.85 0.65288C154.074 0.246506 154.43 0.219087 154.774 0.159253C154.998 0.121856 155.094 0.231557 155.24 0.288899C155.289 0.308843 155.343 0.348725 155.389 0.343739C156.153 0.261467 156.913 0.174197 157.674 0.0819523C157.802 0.0669937 157.894 0.0819547 157.994 0.146775C158.121 0.229047 158.264 0.281413 158.466 0.251496C158.871 0.191662 159.283 0.154274 159.696 0.104412C159.905 0.0794811 159.905 0.0794556 160.328 0.234027C160.374 0.251479 160.435 0.271425 160.485 0.266439C160.897 0.224056 161.305 0.171717 161.714 0.126841C161.828 0.114376 161.931 0.149276 162.02 0.216589C162.109 0.283903 162.215 0.318802 162.325 0.306337C162.738 0.261461 163.146 0.211615 163.555 0.166739C163.605 0.161753 163.665 0.179204 163.711 0.196655C164.145 0.351227 164.145 0.351202 164.344 0.326271C164.635 0.288874 164.934 0.271442 165.221 0.22158C165.502 0.171718 165.648 0.316306 165.84 0.396085C166.366 0.338743 166.895 0.291387 167.417 0.22158C167.631 0.191663 167.744 0.273928 167.886 0.338748C167.936 0.361186 167.986 0.40856 168.032 0.406067C168.21 0.396094 168.384 0.368675 168.558 0.34873C168.732 0.328786 168.91 0.308843 169.084 0.288899C169.283 0.361198 169.414 0.530726 169.699 0.473385C169.869 0.438482 170.05 0.431002 170.225 0.411058C170.399 0.391113 170.576 0.371171 170.751 0.351226C170.868 0.33876 170.989 0.33127 171.102 0.308832C171.312 0.271436 171.415 0.393612 171.564 0.44846C171.614 0.465912 171.671 0.495809 171.717 0.490823C172.069 0.45592 172.424 0.426005 172.769 0.368664C173.035 0.323788 173.217 0.398591 173.405 0.503301C173.444 0.525739 173.512 0.538203 173.561 0.533217C173.973 0.490834 174.382 0.438465 174.791 0.393589C174.901 0.381124 175.008 0.421012 175.096 0.485832C175.189 0.553146 175.292 0.58558 175.405 0.573115C175.814 0.528239 176.226 0.478363 176.635 0.433487C176.685 0.428501 176.745 0.448449 176.791 0.468394C177.189 0.622966 177.189 0.625461 177.424 0.595544C177.481 0.588065 177.541 0.583059 177.598 0.57558C177.889 0.540677 178.191 0.528228 178.476 0.468394C178.803 0.40108 179.041 0.485849 179.272 0.627956C179.563 0.598038 179.862 0.580583 180.146 0.530721C180.359 0.493325 180.473 0.588058 180.615 0.650385C180.665 0.672823 180.718 0.717699 180.761 0.712712C181.173 0.67033 181.585 0.632947 181.99 0.570619C182.21 0.535716 182.306 0.647885 182.456 0.705226C182.505 0.72517 182.559 0.760092 182.605 0.755106C182.839 0.735161 183.074 0.705229 183.308 0.677805C183.582 0.645395 183.582 0.647886 183.944 0.799964C184.115 0.872264 184.286 0.814921 184.453 0.797469C184.63 0.777524 184.797 0.762571 184.939 0.864787C185.028 0.929608 185.135 0.969499 185.245 0.959526C185.48 0.937088 185.718 0.914661 185.949 0.877265C186.133 0.847348 186.293 0.867282 186.428 0.959526C186.524 1.02435 186.624 1.05678 186.741 1.04182C187.267 0.981983 187.796 0.919633 188.322 0.862292C188.369 0.857306 188.432 0.879752 188.475 0.90219C188.575 0.947066 188.671 0.996916 188.767 1.04678C188.997 1.02434 189.236 1.01439 189.463 0.97949C189.705 0.944587 189.925 0.932118 190.113 1.06924C190.152 1.09916 190.209 1.14151 190.255 1.13902C190.433 1.12905 190.607 1.10413 190.781 1.08418C190.955 1.06424 191.133 1.04429 191.307 1.02435C191.51 1.08668 191.638 1.26618 191.922 1.20884C192.093 1.17393 192.274 1.16645 192.448 1.14651C192.622 1.12656 192.8 1.10413 192.974 1.08668C193.031 1.08169 193.095 1.06922 193.144 1.07919C193.198 1.08916 193.244 1.12407 193.29 1.149C193.432 1.2213 193.564 1.29361 193.766 1.25123C193.937 1.21633 194.118 1.20884 194.292 1.18641C194.53 1.15898 194.53 1.15899 194.925 1.31605C195.085 1.38087 195.266 1.29611 195.419 1.35096C195.522 1.38836 195.61 1.45067 195.71 1.49305C195.753 1.5105 195.82 1.51797 195.87 1.51299C196.104 1.49055 196.342 1.46812 196.573 1.43072C196.762 1.40081 196.918 1.43072 197.05 1.52047C197.146 1.58529 197.241 1.61273 197.362 1.59777C197.949 1.52797 198.535 1.46811 199.118 1.39083C199.317 1.3634 199.477 1.4058 199.587 1.49555C199.775 1.65012 200.042 1.46813 200.237 1.59278C200.358 1.67007 200.479 1.75982 200.699 1.72243C201.104 1.65761 201.516 1.62268 201.925 1.57781C202.071 1.64512 202.216 1.71245 202.366 1.77976C202.6 1.75234 202.835 1.7249 203.069 1.69997C203.243 1.68002 203.421 1.65759 203.595 1.64014C203.652 1.63515 203.712 1.62517 203.766 1.63764C203.819 1.65011 203.862 1.68252 203.911 1.70745C204.157 1.82962 204.156 1.83212 204.562 1.78226C204.736 1.75982 204.903 1.74486 205.048 1.84459C205.183 1.93683 205.343 1.95427 205.528 1.92685C205.876 1.87699 206.228 1.83959 206.584 1.80469C206.694 1.79222 206.797 1.83461 206.889 1.89943C207.028 2.00164 207.198 1.99167 207.372 1.96425C207.603 1.92935 207.831 1.89445 208.026 2.03406C208.065 2.06398 208.126 2.10634 208.168 2.10385C208.46 2.0839 208.755 2.06896 209.039 2.02159C209.323 1.97422 209.462 2.12878 209.657 2.20358C209.949 2.17117 210.244 2.13875 210.535 2.10634C210.592 2.09886 210.659 2.07644 210.709 2.08891C210.919 2.14126 211.04 2.32824 211.327 2.2709C211.494 2.23849 211.676 2.22853 211.85 2.22105C211.896 2.21855 211.956 2.26092 211.988 2.29333C212.006 2.31078 211.988 2.35814 211.967 2.38307C211.903 2.45288 211.825 2.51772 211.768 2.59002C211.761 2.59999 211.828 2.64485 211.868 2.66479C211.963 2.70967 212.074 2.70221 212.202 2.68226C212.312 2.66481 212.425 2.69971 212.504 2.77451C212.536 2.80442 212.525 2.85428 212.457 3.01882C212.457 3.14099 212.532 3.08613 212.557 3.00635C212.596 2.89166 212.521 2.85427 212.379 2.9166C212.28 2.96147 212.23 3.0263 212.255 3.07866C212.269 3.10608 212.337 3.14099 212.457 3.01882C212.77 2.86924 213.005 2.84183 213.239 2.8144C213.3 2.80692 213.371 2.78198 213.413 2.79694C213.566 2.85677 213.708 2.92908 213.857 2.99639C214.028 2.98144 214.188 2.94402 214.355 3.04125C214.589 3.17837 214.6 3.16591 214.828 3.13849C214.945 3.12353 215.062 3.11109 215.179 3.09862C215.297 3.08615 215.389 3.12354 215.492 3.18088C215.702 3.29806 215.719 3.29805 215.858 3.13849C215.94 3.04126 215.997 3.00886 216.1 3.05373C216.441 3.20581 216.444 3.21577 216.736 3.1709C216.977 3.1335 217.205 3.12353 217.382 3.26564C217.503 3.36536 217.542 3.34293 217.638 3.23822C217.894 2.96148 218.011 2.96646 218.491 3.16591C218.715 3.26065 218.946 3.15844 219.173 3.14597C219.365 3.136 219.5 3.19583 219.515 3.35289C219.525 3.45012 219.557 3.51994 219.685 3.55235C219.735 3.56482 219.795 3.58226 219.845 3.57727C220.14 3.54736 220.431 3.51245 220.726 3.47754C220.875 3.46009 220.957 3.34294 220.929 3.18837C220.897 3.02382 220.954 2.96397 221.167 2.9166C221.295 2.88917 221.398 2.89418 221.501 2.93906C221.615 2.98892 221.583 3.03379 221.483 3.12354C221.245 3.34294 221.274 3.47754 221.579 3.62962C221.686 3.68197 221.771 3.72936 221.796 3.80665C221.81 3.84654 221.796 3.89889 221.828 3.92881C222.002 4.09585 222.244 4.20306 222.514 4.28284C222.773 4.21553 222.951 4.32769 223.15 4.41745C223.306 4.48725 223.491 4.42743 223.658 4.4025C223.846 4.37508 224.003 4.39502 224.138 4.48726C224.234 4.55208 224.333 4.58199 224.45 4.56952C224.685 4.5421 224.923 4.52465 225.154 4.48476C225.353 4.44986 225.502 4.49973 225.626 4.58449C225.783 4.6917 225.957 4.61939 226.12 4.63434C226.341 4.6518 226.451 4.87367 226.739 4.81384C226.909 4.77894 227.087 4.76648 227.265 4.7565C227.311 4.75401 227.368 4.7964 227.407 4.82632C227.595 4.96344 227.815 4.95595 228.057 4.91606C228.224 4.88864 228.387 4.86372 228.551 4.95846C228.821 5.11802 229.12 5.25764 229.404 5.40473C229.443 5.51941 229.414 5.65402 229.617 5.72133C229.724 5.75623 229.823 5.80861 229.905 5.86595C230.004 5.93326 230.097 5.95072 230.225 5.93327C230.456 5.89836 230.697 5.89086 230.925 5.84598C231.134 5.80609 231.266 5.88839 231.394 5.96568C231.497 6.02801 231.593 6.05791 231.717 6.01303C231.845 5.97065 231.937 5.99806 232.04 6.06538C232.186 6.15762 232.197 6.14767 232.68 6.17509C232.73 6.17758 232.79 6.21496 232.819 6.24737C232.833 6.26482 232.801 6.31471 232.776 6.33964C232.744 6.36956 232.694 6.40444 232.648 6.41192C232.122 6.47674 231.593 6.53408 231.067 6.5989C231.014 6.60638 230.957 6.62385 230.918 6.64878C230.875 6.67621 230.822 6.71358 230.822 6.74848C230.822 6.77341 230.893 6.80334 230.942 6.82079C231.099 6.87813 231.284 6.79088 231.436 6.8557C231.539 6.89808 231.625 6.9579 231.728 6.99779C231.77 7.01524 231.838 7.01276 231.891 7.00777C232.069 6.99032 232.243 6.9654 232.421 6.95044C232.47 6.94794 232.527 6.97289 232.573 6.99283C232.915 7.14242 232.915 7.14241 233.21 7.11C233.327 7.09753 233.451 7.06013 233.561 7.07509C233.668 7.09005 233.76 7.15736 233.856 7.19975C234.055 7.2895 234.244 7.37675 234.258 7.57122C234.265 7.64601 234.382 7.71082 234.499 7.7158C234.613 7.72079 234.734 7.69339 234.851 7.67843C235.128 7.64852 235.128 7.64851 235.487 7.80059C235.587 7.84297 235.693 7.84795 235.821 7.82302C235.871 7.81305 235.932 7.82303 235.985 7.8355C236.159 7.87289 236.159 7.92025 236.045 8.01C235.885 8.14214 235.899 8.15461 236.347 8.2668C236.518 8.30918 236.649 8.38896 236.791 8.45877C237.022 8.57096 237.019 8.57094 236.866 8.71803C236.831 8.75044 236.799 8.78535 236.763 8.82026C236.66 8.91749 236.578 9.02219 236.365 9.03216C236.13 9.04214 235.896 9.08204 235.661 9.10947C235.434 9.13689 235.374 9.1967 235.395 9.36623C235.42 9.57066 235.466 9.59311 235.875 9.59062C235.992 9.59062 236.095 9.61055 236.184 9.67787C236.141 9.75765 236.063 9.81997 235.949 9.83493C235.658 9.87233 235.363 9.90475 235.072 9.93716C234.837 9.96458 234.603 9.992 234.368 10.0194C234.222 10.0369 234.13 10.1665 234.169 10.3111C234.19 10.3934 234.208 10.4757 234.226 10.5579C234.265 10.7225 234.34 10.7649 234.578 10.7574C234.638 10.7549 234.695 10.7349 234.752 10.7399C234.983 10.7574 235.093 10.9643 235.37 10.9219C235.601 10.887 235.843 10.8795 236.07 10.8347C236.28 10.7948 236.397 10.8846 236.543 10.9519C236.592 10.9743 236.646 11.0216 236.688 11.0192C236.983 10.9917 237.278 10.9643 237.566 10.917C237.701 10.897 237.783 10.912 237.889 10.9718C238.145 11.1164 238.152 11.1089 238.533 11.064C238.81 11.0291 238.813 11.0341 239.169 11.1862C239.268 11.2286 239.375 11.2286 239.503 11.2086C239.67 11.1837 239.844 11.1438 240.018 11.1812C240.071 11.1912 240.139 11.2211 240.157 11.2535C240.167 11.276 240.118 11.3308 240.075 11.3483C239.762 11.4779 239.396 11.4555 239.055 11.5078C238.948 11.5228 238.842 11.4754 238.753 11.4081C238.661 11.3408 238.561 11.3134 238.44 11.3258C238.206 11.3533 237.968 11.3707 237.737 11.4106C237.538 11.4455 237.399 11.3881 237.26 11.3109C237.214 11.2859 237.161 11.2385 237.115 11.241C236.589 11.2909 236.059 11.3408 235.537 11.4106C235.327 11.4405 235.207 11.3607 235.064 11.2934C235.015 11.271 234.965 11.2236 234.919 11.2261C234.741 11.2361 234.567 11.2635 234.389 11.2834C233.743 11.3582 233.099 11.433 232.453 11.5028C232.41 11.5078 232.357 11.4555 232.307 11.433C232.211 11.3881 232.112 11.3458 232.012 11.3034C231.834 11.3233 231.66 11.3482 231.483 11.3632C231.355 11.3732 231.241 11.4081 231.223 11.5028C231.212 11.5652 231.33 11.6225 231.454 11.6175C231.575 11.6125 231.696 11.5826 231.795 11.615C232.289 11.7746 232.289 11.7771 232.598 11.7447C232.868 11.7147 232.84 11.6898 233.078 11.8269C233.181 11.8867 233.274 11.9217 233.391 11.9067C233.682 11.8718 233.977 11.8369 234.272 11.807C234.318 11.802 234.379 11.8269 234.425 11.8469C234.773 11.9965 234.773 12.0014 235.061 11.964C235.438 11.9192 235.452 11.9067 235.704 12.0588C235.878 12.1635 236.038 12.0912 236.205 12.0862C236.397 12.1834 236.607 12.2707 236.781 12.3804C236.987 12.51 237.204 12.4876 237.438 12.4502C237.612 12.4228 237.783 12.4128 237.925 12.515C238.06 12.6097 238.223 12.6197 238.408 12.5948C238.575 12.5724 238.746 12.525 238.92 12.5798C238.966 12.5948 239.037 12.6322 239.034 12.6546C239.03 12.6895 238.984 12.7394 238.938 12.7544C238.611 12.8566 238.252 12.8541 237.907 12.9015C237.861 12.9089 237.801 12.8815 237.754 12.8616C237.655 12.8167 237.559 12.7643 237.463 12.717C237.289 12.7319 237.111 12.7369 236.941 12.7668C236.809 12.7893 236.71 12.7868 236.614 12.7269C236.525 12.6721 236.429 12.6048 236.322 12.5873C236.216 12.5699 236.091 12.6073 235.974 12.6222C235.857 12.6372 235.722 12.6297 235.629 12.6696C235.537 12.7095 235.48 12.7967 235.42 12.8665C235.352 12.9438 235.26 12.9688 235.125 12.9763C235 12.9837 234.901 12.9738 234.809 12.9039C234.77 12.874 234.716 12.8516 234.663 12.8316C234.613 12.8142 234.556 12.7868 234.51 12.7917C233.981 12.8491 233.455 12.9114 232.925 12.9713C232.662 13.0012 232.666 13.0012 232.119 12.8541C232.069 12.8416 232.008 12.8242 231.959 12.8291C231.664 12.8591 231.372 12.894 231.077 12.9289C230.779 12.9638 230.783 12.9588 230.274 12.8017C230.182 12.7718 230.047 12.8117 229.937 12.8067C229.706 12.7942 229.592 12.5848 229.322 12.6247C229.091 12.6596 228.849 12.6671 228.618 12.712C228.409 12.7519 228.288 12.6646 228.146 12.5973C228.096 12.5749 228.043 12.525 228 12.53C227.471 12.5848 226.945 12.6472 226.241 12.6546C226.067 12.6546 226.145 12.707 226.259 12.7245C226.422 12.7519 226.476 12.6995 226.387 12.5998C226.323 12.53 226.231 12.4951 226.156 12.5125C226.117 12.5225 226.067 12.5699 226.241 12.6546C226.426 12.7494 226.415 12.8017 226.447 12.8316C226.526 12.9039 226.636 12.9339 226.749 12.9239C226.927 12.9064 227.101 12.8815 227.279 12.8665C227.329 12.8616 227.389 12.879 227.435 12.899C227.826 13.0535 227.83 13.0635 228.245 13.0037C228.377 12.9862 228.473 12.9862 228.576 13.0336C228.718 13.0984 228.821 13.2081 229.038 13.1732C229.326 13.1258 229.621 13.0984 229.916 13.071C229.962 13.066 230.011 13.1109 230.065 13.1308C230.21 13.1907 230.317 13.3029 230.534 13.2555C230.701 13.2181 230.882 13.2081 231.06 13.2006C231.106 13.1981 231.177 13.238 231.198 13.2704C231.241 13.3278 231.188 13.3951 231.067 13.4425C231.017 13.4624 230.95 13.4574 230.893 13.4649C230.658 13.4923 230.424 13.5222 230.189 13.5447C230.065 13.5571 229.948 13.5945 229.933 13.6868C229.923 13.7491 230.051 13.8039 230.171 13.799C230.349 13.7915 230.527 13.7715 230.697 13.7391C230.999 13.6843 231.262 13.6992 231.507 13.8563C231.682 13.966 231.671 13.9261 231.856 14.2502C231.902 14.3325 232.04 14.34 232.161 14.335C232.453 14.3225 232.588 14.3599 232.563 14.4372C232.531 14.5319 232.428 14.5618 232.296 14.5743C232.062 14.5943 231.827 14.6267 231.593 14.6541C231.536 14.6616 231.472 14.6765 231.419 14.6715C231.365 14.6666 231.316 14.6366 231.269 14.6142C231.17 14.5668 231.085 14.4945 230.978 14.4771C230.871 14.4596 230.747 14.497 230.63 14.512C230.512 14.5244 230.388 14.5618 230.282 14.5444C230.175 14.5269 230.086 14.4522 229.99 14.4073C229.944 14.3849 229.887 14.3499 229.841 14.3524C229.606 14.3724 229.372 14.4048 229.137 14.4297C228.849 14.4621 228.849 14.4621 228.501 14.3076C228.402 14.2627 228.299 14.2652 228.167 14.2851C227.883 14.325 227.879 14.3175 227.361 14.1729C227.311 14.158 227.25 14.1405 227.201 14.148C226.671 14.2053 226.145 14.2677 225.619 14.3275C225.168 14.3798 225.168 14.3799 224.919 14.6292C224.735 14.8137 224.731 14.8137 224.912 14.8984C225.058 14.9682 225.189 15.0704 225.349 15.1078C225.499 15.1427 225.683 15.0306 225.847 15.1452C225.929 15.2026 226.035 15.2649 226.138 15.2749C226.302 15.2873 226.476 15.215 226.632 15.3247C226.71 15.3796 226.828 15.4369 226.927 15.4394C227.101 15.4444 227.279 15.4045 227.453 15.3871C227.506 15.3821 227.567 15.3821 227.616 15.3945C227.67 15.4095 227.716 15.4394 227.762 15.4644C227.904 15.5491 228.057 15.589 228.242 15.5466C228.544 15.4768 228.814 15.5117 229.048 15.6713C229.08 15.6937 229.159 15.6962 229.208 15.6862C229.336 15.6613 229.446 15.6588 229.542 15.7062C229.581 15.7261 229.638 15.761 229.631 15.7835C229.621 15.8208 229.578 15.8707 229.532 15.8832C229.198 15.9679 228.839 15.9779 228.494 16.0228C228.448 16.0278 228.391 15.9954 228.345 15.9729C228.245 15.9281 228.16 15.8533 228.053 15.8358C227.947 15.8184 227.823 15.8508 227.705 15.8632C227.588 15.8757 227.464 15.9131 227.357 15.8982C227.25 15.8807 227.151 15.8184 227.066 15.7635C226.966 15.7012 226.87 15.6937 226.739 15.7187C226.568 15.7511 226.391 15.756 226.216 15.7735C226.12 15.7261 226.024 15.6738 225.925 15.6289C225.879 15.6064 225.822 15.579 225.772 15.5815C225.538 15.6015 225.303 15.6314 225.069 15.6588C224.834 15.6862 224.834 15.6862 224.436 15.5317C224.39 15.5142 224.329 15.4943 224.28 15.4993C223.985 15.5292 223.693 15.5666 223.398 15.5965C223.285 15.6089 223.182 15.574 223.089 15.5067C223.001 15.4394 222.894 15.402 222.784 15.4145C222.315 15.4668 221.846 15.5167 221.377 15.579C221.188 15.604 221.028 15.5815 220.9 15.4918C220.751 15.3896 220.584 15.4145 220.41 15.4344C220.016 15.4843 220.012 15.4818 219.76 15.3546C219.71 15.3297 219.66 15.2823 219.614 15.2848C219.205 15.3222 218.793 15.3571 218.388 15.417C218.175 15.4494 218.061 15.3621 217.919 15.2973C217.869 15.2749 217.816 15.2275 217.773 15.2325C217.478 15.2599 217.183 15.2849 216.896 15.3347C216.608 15.3846 216.498 15.1527 216.281 15.1552C215.986 15.1577 215.695 15.2151 215.403 15.25C215.169 15.2774 214.934 15.3048 214.7 15.3322C214.465 15.3596 214.231 15.3821 213.996 15.4145C213.872 15.4319 213.779 15.4095 213.676 15.3472C213.545 15.2649 213.388 15.2001 213.246 15.1253C213.03 15.0181 213.029 15.0181 212.767 15.048C212.71 15.0555 212.649 15.0605 212.592 15.0679C212.162 15.1228 212.162 15.1178 211.615 14.9607C211.59 14.9533 211.526 14.9807 211.501 15.0006C211.427 15.0655 211.359 15.1353 211.292 15.2026C211.196 15.1627 211.079 15.1402 211.015 15.0829C210.833 14.9209 210.549 15.1427 210.364 14.9832C210.297 14.9233 210.18 14.871 210.073 14.856C209.963 14.8411 209.838 14.876 209.725 14.8909C209.43 14.9283 209.43 14.9258 209.178 15.1477C209.05 15.2574 208.865 15.2375 208.698 15.2624C208.524 15.2898 208.357 15.3048 208.211 15.2026C208.08 15.1103 207.92 15.0879 207.731 15.1178C207.5 15.1552 207.262 15.1776 207.028 15.2001C206.978 15.2051 206.918 15.1926 206.868 15.1776C206.324 15.0306 206.324 15.0281 206.061 15.0605C205.944 15.0754 205.823 15.0804 205.709 15.1028C205.517 15.1427 205.372 15.0904 205.233 15.0106C205.187 14.9857 205.134 14.9383 205.087 14.9408C204.853 14.9533 204.622 14.9757 204.391 14.9982C204.213 15.0156 204.036 15.0256 203.865 15.0605C203.581 15.1178 203.442 14.9557 203.247 14.881C202.955 14.9134 202.661 14.9358 202.369 14.9807C202.234 15.0006 202.145 14.9932 202.042 14.9333C201.911 14.8585 201.79 14.7738 201.577 14.8112C201.292 14.861 200.994 14.8785 200.703 14.9084C200.507 14.8311 200.365 14.674 200.084 14.7314C199.914 14.7663 199.732 14.7738 199.558 14.7937C199.324 14.8211 199.089 14.8461 198.855 14.876C198.603 14.9059 198.606 14.8984 198.219 14.7513C197.995 14.6641 197.764 14.7613 197.536 14.7763C197.359 14.7887 197.27 14.9034 197.313 15.0505C197.355 15.1976 197.259 15.3123 197.096 15.3322C196.687 15.3796 196.275 15.4294 195.866 15.4718C195.817 15.4768 195.756 15.4594 195.71 15.4419C195.273 15.2848 195.273 15.2874 195.077 15.3098C194.786 15.3472 194.488 15.3671 194.2 15.4145C194.001 15.4469 193.855 15.3946 193.727 15.3098C193.628 15.245 193.535 15.23 193.407 15.245C192 15.412 190.593 15.5666 189.189 15.7386C188.98 15.7635 188.859 15.6912 188.717 15.6239C188.667 15.6015 188.621 15.5541 188.571 15.5541C188.454 15.5541 188.337 15.5766 188.219 15.5915C187.693 15.6513 187.167 15.7236 186.638 15.7685C186.414 15.7885 186.354 15.9031 186.258 15.9979C186.183 16.0702 186.098 16.1001 185.966 16.1101C185.839 16.12 185.746 16.1076 185.647 16.0427C185.519 15.958 185.373 15.9056 185.174 15.9405C184.943 15.9804 184.708 15.9979 184.47 16.0253C184.35 16.0378 184.257 16.0826 184.218 16.1724C184.211 16.1873 184.286 16.2248 184.328 16.2472C184.47 16.322 184.605 16.4092 184.765 16.4616C184.929 16.514 185.106 16.4541 185.277 16.4391C185.337 16.4341 185.394 16.4192 185.451 16.4217C185.504 16.4242 185.568 16.4367 185.608 16.4591C185.792 16.5713 185.988 16.6486 186.244 16.5813C186.464 16.6137 186.578 16.8206 186.858 16.7657C187.029 16.7333 187.207 16.7184 187.384 16.7059C187.43 16.7034 187.48 16.7483 187.53 16.7707C187.672 16.8331 187.786 16.9328 187.999 16.8904C188.226 16.8455 188.468 16.8381 188.699 16.8031C188.827 16.7832 188.919 16.8007 189.019 16.8655C189.147 16.9477 189.292 17.0101 189.491 16.9702C189.662 16.9353 189.843 16.9278 190.017 16.9053C190.245 16.8779 190.245 16.8804 190.65 17.035C190.696 17.0524 190.756 17.0724 190.806 17.0674C191.101 17.0375 191.393 17.0001 191.687 16.9702C191.801 16.9577 191.911 16.9901 191.99 17.0624C192.021 17.0923 192.011 17.1422 192.021 17.1846C191.435 17.2519 190.849 17.3092 190.266 17.3915C190.046 17.4239 189.946 17.3217 189.801 17.2644C189.751 17.2444 189.698 17.202 189.651 17.207C189.239 17.2494 188.83 17.2943 188.422 17.3491C188.294 17.3666 188.198 17.3566 188.102 17.2843C187.857 17.0923 187.558 17.197 187.281 17.2245C187.068 17.2444 187 17.3217 187.025 17.4863C187.057 17.6807 187.185 17.7406 187.512 17.7056C187.629 17.6932 187.747 17.6757 187.864 17.6657C187.978 17.6558 188.081 17.6882 188.173 17.7555C188.262 17.8228 188.368 17.8577 188.479 17.8477C188.713 17.8253 188.951 17.8029 189.179 17.7655C189.367 17.7356 189.523 17.7605 189.655 17.8527C189.801 17.9549 189.971 17.9325 190.142 17.9101C190.54 17.8602 190.543 17.8627 190.792 17.9874C190.842 18.0123 190.892 18.0597 190.938 18.0572C191.346 18.0198 191.759 17.9874 192.16 17.9275C192.37 17.8976 192.491 17.9774 192.629 18.0422C192.679 18.0646 192.729 18.1145 192.775 18.1095C193.07 18.0821 193.365 18.0547 193.653 18.0073C193.788 17.9849 193.869 17.9998 193.979 18.0596C194.242 18.2067 194.249 18.2018 194.623 18.1544C194.736 18.1394 194.861 18.112 194.967 18.132C195.074 18.1519 195.159 18.2242 195.259 18.2691C195.305 18.289 195.362 18.3164 195.411 18.3115C195.646 18.2915 195.88 18.2616 196.115 18.2342C196.335 18.2068 196.335 18.2093 196.748 18.3638C196.915 18.4286 197.089 18.3738 197.256 18.3538C197.437 18.3314 197.6 18.3314 197.739 18.4286C197.878 18.5259 198.045 18.5209 198.222 18.5009C198.389 18.481 198.56 18.4262 198.73 18.4935C199.121 18.648 199.121 18.6505 199.363 18.6206C199.715 18.5782 200.063 18.5383 200.418 18.5009C200.464 18.4959 200.525 18.5259 200.571 18.5458C200.671 18.5907 200.756 18.6655 200.862 18.6829C200.969 18.7029 201.093 18.673 201.207 18.658C201.573 18.6106 201.598 18.5932 201.843 18.7577C202.049 18.8924 202.305 18.6979 202.497 18.8525C202.607 18.9397 202.756 19.0095 202.963 18.9671C203.133 18.9322 203.311 18.9223 203.488 18.9023C203.769 18.8699 203.769 18.8724 204.125 19.022C204.171 19.042 204.231 19.0669 204.277 19.0619C204.512 19.0419 204.75 19.0245 204.977 18.9796C205.244 18.9273 205.414 19.022 205.613 19.1143C205.77 19.1866 205.955 19.1267 206.122 19.1018C206.303 19.0768 206.466 19.0843 206.601 19.1815C206.743 19.2813 206.91 19.2688 207.088 19.2489C207.255 19.2314 207.426 19.1741 207.596 19.2439C207.962 19.3984 207.962 19.3984 208.229 19.3685C208.463 19.3411 208.698 19.3112 208.932 19.2913C208.979 19.2863 209.035 19.3187 209.082 19.3411C209.181 19.386 209.266 19.4608 209.373 19.4782C209.48 19.4957 209.604 19.4633 209.721 19.4508C209.838 19.4383 209.963 19.4009 210.069 19.4159C210.176 19.4309 210.276 19.4932 210.361 19.548C210.46 19.6129 210.553 19.6203 210.688 19.5954C210.858 19.563 211.036 19.5555 211.21 19.5381C211.306 19.5854 211.406 19.6328 211.498 19.6851C211.594 19.74 211.697 19.735 211.828 19.7176C212.265 19.6577 212.269 19.6652 212.635 19.8198C212.802 19.8896 212.976 19.8322 213.143 19.8148C213.321 19.7948 213.488 19.7849 213.626 19.8846C213.761 19.9793 213.929 19.9918 214.106 19.9619C214.22 19.9419 214.341 19.9295 214.458 19.922C214.511 19.9195 214.575 19.9295 214.614 19.9494C214.803 20.0541 214.987 20.1489 215.247 20.0816C215.474 20.1015 215.588 20.3059 215.862 20.2661C216.093 20.2312 216.334 20.2237 216.562 20.1788C216.771 20.1389 216.921 20.2087 217.027 20.296C217.219 20.4505 217.489 20.2411 217.681 20.3932C217.791 20.4805 217.933 20.5503 218.146 20.5129C218.381 20.473 218.456 20.5253 218.523 20.6824C218.562 20.7721 218.555 20.8444 218.484 20.9143C218.413 20.9866 218.335 20.9741 218.221 20.8918C218.09 20.7996 217.933 20.7821 217.745 20.802C217.56 20.822 217.446 20.6924 217.294 20.6425C217.141 20.5902 216.96 20.6774 216.8 20.6101C216.423 20.453 216.423 20.453 216.167 20.483C215.993 20.5029 215.812 20.5129 215.641 20.5478C215.439 20.5902 215.307 20.5129 215.169 20.4431C215.119 20.4181 215.069 20.3708 215.026 20.3732C214.618 20.4106 214.206 20.4456 213.801 20.5079C213.587 20.5403 213.474 20.4505 213.332 20.3882C213.282 20.3658 213.228 20.3209 213.186 20.3259C212.834 20.3608 212.486 20.4057 212.134 20.448C212.066 20.5154 211.992 20.5802 211.928 20.6525C211.86 20.7273 211.768 20.7597 211.633 20.7572C211.409 20.7572 211.189 20.8619 210.965 20.7298C210.734 20.5951 210.716 20.6026 210.492 20.635C210.208 20.6774 209.906 20.6674 209.639 20.7647C209.593 20.7821 209.544 20.8295 209.544 20.8644C209.54 20.8868 209.615 20.9192 209.661 20.9392C209.817 20.999 209.998 20.9118 210.155 20.9741C210.258 21.014 210.343 21.0738 210.446 21.1162C210.489 21.1336 210.553 21.1312 210.61 21.1287C210.67 21.1262 210.727 21.1087 210.784 21.1112C210.837 21.1137 210.894 21.1287 210.937 21.1511C211.132 21.2458 211.338 21.3331 211.512 21.4453C211.683 21.555 211.843 21.4802 212.013 21.4752C212.695 21.6497 212.696 21.6522 213.154 21.5974C213.268 21.5849 213.385 21.5699 213.502 21.5724C213.552 21.5724 213.598 21.6173 213.648 21.6422C213.79 21.717 213.925 21.7843 214.124 21.7444C214.295 21.7095 214.476 21.7021 214.65 21.6796C214.884 21.6522 214.884 21.6522 215.282 21.8093C215.382 21.8492 215.488 21.8442 215.616 21.8242C215.727 21.8068 215.84 21.8442 215.918 21.9165C215.95 21.9464 215.94 21.9963 215.95 22.0386C215.599 22.0785 215.243 22.106 214.902 22.1658C214.682 22.2032 214.582 22.096 214.437 22.0386C214.387 22.0187 214.334 21.9763 214.287 21.9813C213.939 22.0187 213.591 22.0611 213.243 22.1109C213.2 22.1159 213.147 22.1733 213.143 22.2082C213.136 22.273 213.225 22.3353 213.353 22.3328C213.523 22.3303 213.69 22.2879 213.843 22.3902C213.971 22.4799 214.131 22.5198 214.319 22.4799C214.433 22.4575 214.554 22.4575 214.668 22.4375C214.97 22.3777 215.243 22.3902 215.471 22.5597C215.645 22.6046 215.815 22.5622 215.982 22.5398C216.107 22.5223 216.228 22.5048 216.316 22.5522C216.505 22.6519 216.69 22.7517 216.949 22.6843C217.23 22.7542 217.443 22.9012 217.677 23.0209C217.788 23.0783 217.873 23.1107 218.001 23.0733C218.054 23.0583 218.118 23.0583 218.175 23.0508C218.292 23.0384 218.417 23.001 218.523 23.0159C218.63 23.0334 218.719 23.1057 218.815 23.1506C218.861 23.173 218.914 23.2104 218.96 23.2079C219.138 23.1954 219.312 23.1705 219.486 23.1506C219.66 23.1331 219.834 23.1157 220.008 23.0982C220.154 23.163 220.303 23.2279 220.449 23.2927C220.684 23.2653 220.918 23.2378 221.149 23.2129C221.409 23.183 221.408 23.1855 221.782 23.34C221.949 23.4098 222.126 23.365 222.286 23.3325C222.553 23.2802 222.73 23.3749 222.919 23.4747C222.958 23.4946 223.029 23.5071 223.075 23.4971C223.26 23.4622 223.42 23.4896 223.555 23.5819C223.651 23.6467 223.747 23.6766 223.864 23.6641C224.273 23.6168 224.681 23.5669 225.09 23.5245C225.14 23.5195 225.196 23.542 225.243 23.5619C225.605 23.714 225.609 23.7215 225.875 23.6816C226.113 23.6467 226.334 23.6317 226.522 23.7688C226.561 23.7988 226.621 23.8411 226.664 23.8387C226.955 23.8137 227.25 23.7863 227.538 23.7439C227.67 23.724 227.762 23.7315 227.865 23.7888C227.997 23.8611 228.114 23.9484 228.331 23.916C228.931 23.8237 228.935 23.8386 229.645 24.0107C229.695 24.0231 229.763 24.0032 229.82 23.9932C229.94 23.9683 230.029 24.0032 230.136 24.0605C230.374 24.1902 230.381 24.1827 230.608 24.1553C230.783 24.1328 230.964 24.1279 231.134 24.0905C231.397 24.0356 231.571 24.1328 231.767 24.2251C231.923 24.2974 232.104 24.2375 232.271 24.2151C232.453 24.1902 232.616 24.1976 232.751 24.2924C232.844 24.3572 232.943 24.3921 233.06 24.3797C233.469 24.3348 233.878 24.2849 234.286 24.24C234.336 24.2351 234.396 24.255 234.443 24.2724C234.848 24.427 234.848 24.4345 235.249 24.3772C235.377 24.3597 235.484 24.3547 235.58 24.4071C235.672 24.4569 235.772 24.5043 235.868 24.5517C236.042 24.5342 236.219 24.5292 236.39 24.4993C236.521 24.4769 236.614 24.4869 236.717 24.5392C236.852 24.6065 236.966 24.7237 237.179 24.6663C237.289 24.6389 237.417 24.6464 237.527 24.6215C237.658 24.5891 237.747 24.609 237.85 24.6738C237.978 24.7511 238.11 24.8309 238.316 24.791C238.543 24.7461 238.785 24.7387 239.016 24.7037C239.144 24.6838 239.233 24.7038 239.336 24.7686C239.464 24.8508 239.609 24.9032 239.808 24.8708C240.213 24.8085 240.217 24.8209 240.611 24.978C240.711 25.0179 240.818 25.0129 240.945 24.993C241.056 24.9755 241.169 25.0129 241.247 25.0852C241.322 25.165 241.315 25.2148 241.322 25.2572ZM209.657 2.77201C209.54 2.78448 209.423 2.79943 209.252 2.58253C209.241 2.54514 209.249 2.50027 209.224 2.46786C209.167 2.40055 209.078 2.35318 208.971 2.3457C208.78 2.33573 208.549 2.42048 208.552 2.4853C208.556 2.54015 208.616 2.58751 208.733 2.63238C208.783 2.64983 208.822 2.67976 208.868 2.6997C209.003 2.75704 209.11 2.86925 209.305 2.81191C209.27 2.65734 209.288 2.73462 209.305 2.81191C209.288 2.90665 209.341 2.97396 209.469 3.00139C209.504 3.00887 209.558 3.00387 209.586 2.98891C209.696 2.93406 209.714 2.85928 209.632 2.66233C209.618 2.69474 209.629 2.75206 209.661 2.76702C209.693 2.78198 209.771 2.76953 209.81 2.75208C209.91 2.70471 209.959 2.64237 209.934 2.59002C209.92 2.5626 209.853 2.52769 209.81 2.52769C209.735 2.52769 209.668 2.58254 209.657 2.77201ZM238.39 31.6844C238.131 31.7318 237.833 31.7143 237.573 31.8116C237.527 31.829 237.481 31.8739 237.477 31.9088C237.474 31.9312 237.545 31.9637 237.587 31.9811C237.683 32.021 237.79 32.0085 237.914 31.996C238.103 31.9786 238.213 32.0933 238.359 32.1506C238.405 32.1681 238.465 32.1805 238.515 32.1755C238.803 32.1456 239.087 32.1132 239.375 32.0783C239.424 32.0709 239.478 32.0534 239.521 32.031C239.663 31.9587 239.648 31.9113 239.51 31.8564C239.357 31.7966 239.236 31.6969 239.08 31.6495C238.856 31.5822 238.629 31.6719 238.39 31.6844ZM218.21 33.5044C218.036 33.5243 217.866 33.5443 217.692 33.5642C217.635 33.5717 217.574 33.5742 217.521 33.5841C217.411 33.6016 217.329 33.6539 217.276 33.7362C217.358 33.801 217.457 33.8384 217.567 33.831C217.741 33.816 217.912 33.7836 218.086 33.7761C218.274 33.7661 218.385 33.8783 218.53 33.9357C218.576 33.9531 218.633 33.9556 218.687 33.9581C218.95 33.9681 219.109 33.8385 219.06 33.6565C219.024 33.5144 218.889 33.4296 218.726 33.447C218.555 33.4645 218.381 33.4844 218.21 33.5044ZM239.606 27.9996C239.648 27.9572 239.695 27.9273 239.716 27.8899C239.78 27.7628 239.755 27.668 239.638 27.5683C239.496 27.4461 239.322 27.5284 239.162 27.5409C239.123 27.5434 239.08 27.5957 239.059 27.6281C239.044 27.6506 239.044 27.698 239.066 27.7104C239.24 27.8102 239.425 27.9024 239.606 27.9996ZM208.78 20.635C208.609 20.655 208.435 20.6699 208.264 20.6974C208.222 20.7048 208.183 20.7522 208.158 20.7846C208.112 20.8444 208.161 20.9267 208.307 20.9342C208.474 20.9442 208.648 20.9018 208.822 20.8818C209.042 20.8569 209.174 20.7647 209.092 20.6849C209.014 20.6076 208.908 20.5926 208.78 20.635ZM21.7293 15.3073C21.843 15.2948 21.9603 15.2848 22.074 15.2674C22.1806 15.2499 22.2624 15.1951 22.3157 15.1128C22.2269 15.048 22.1273 15.0131 22.0172 15.0206C21.8431 15.0355 21.6725 15.0555 21.5019 15.0804C21.3953 15.0954 21.2923 15.1502 21.2675 15.235C21.2426 15.2998 21.4806 15.3372 21.7293 15.3073ZM193.752 14.9233C193.798 14.9458 193.844 14.9907 193.891 14.9907C194.004 14.9907 194.122 14.9757 194.228 14.9508C194.274 14.9408 194.31 14.8959 194.331 14.861C194.345 14.8386 194.342 14.7987 194.321 14.7788C194.218 14.6591 193.805 14.7015 193.738 14.8386C193.731 14.8635 193.748 14.8959 193.752 14.9233ZM182.541 1.27116C182.552 1.31105 182.555 1.35094 182.569 1.39083C182.598 1.46562 182.676 1.52048 182.79 1.55787C182.878 1.49555 182.925 1.42575 182.921 1.35096C182.918 1.31107 182.907 1.27115 182.893 1.23126C182.864 1.15647 182.786 1.10164 182.672 1.06425C182.584 1.12408 182.541 1.19388 182.541 1.27116ZM247.818 33.9382C247.786 33.9706 247.754 34.003 247.718 34.0329C247.814 34.1052 247.903 34.1276 247.971 34.0878C248.013 34.0628 248.038 34.0254 248.07 33.993C247.974 33.9207 247.889 33.9008 247.818 33.9382ZM245.608 34.2772C245.654 34.2997 245.696 34.3296 245.746 34.3446C245.828 34.3695 245.902 34.3271 245.959 34.2373C245.913 34.2149 245.871 34.185 245.821 34.17C245.739 34.1451 245.664 34.1875 245.608 34.2772ZM247.008 33.821C246.983 33.8808 247.033 33.9307 247.164 33.9731C247.196 33.9407 247.239 33.9108 247.26 33.8759C247.295 33.8185 247.235 33.7662 247.107 33.7263C247.072 33.7562 247.04 33.7886 247.008 33.821ZM239.506 31.1334C239.481 31.1933 239.531 31.2431 239.663 31.2855C239.695 31.2531 239.737 31.2232 239.759 31.1883C239.794 31.1309 239.734 31.0786 239.606 31.0387C239.57 31.0686 239.538 31.101 239.506 31.1334ZM229.287 13.4923C229.255 13.5247 229.223 13.5571 229.187 13.5871C229.283 13.6594 229.372 13.6818 229.439 13.6419C229.482 13.617 229.507 13.5796 229.539 13.5472C229.443 13.4749 229.358 13.4549 229.287 13.4923ZM219.497 4.13323C219.582 4.15068 219.653 4.11579 219.714 4.02355C219.667 4.00111 219.625 3.97119 219.575 3.95623C219.493 3.9313 219.419 3.97369 219.362 4.06345C219.408 4.08838 219.454 4.11079 219.497 4.13323ZM214.298 3.54736C214.266 3.57977 214.234 3.61218 214.199 3.6421C214.295 3.7144 214.383 3.73683 214.451 3.69694C214.494 3.67201 214.518 3.63461 214.55 3.6022C214.454 3.5299 214.369 3.51246 214.298 3.54736ZM179.044 1.26867C179.012 1.30108 178.98 1.33349 178.945 1.36341C179.041 1.43571 179.13 1.45814 179.197 1.41825C179.24 1.39332 179.265 1.35592 179.297 1.32351C179.201 1.25121 179.115 1.23376 179.044 1.26867ZM3.50721 21.5525C3.46102 21.53 3.41486 21.5076 3.37222 21.4827C3.26917 21.55 3.2372 21.6123 3.29406 21.6597C3.32959 21.6896 3.38285 21.7071 3.42905 21.7295C3.53565 21.6622 3.56051 21.6023 3.50721 21.5525Z" fill="#FFE492"/>
<path d="M24.1169 12.749C23.7082 12.7964 23.3031 12.8562 22.8945 12.8861C22.6777 12.9011 22.5996 13.0083 22.5108 13.108C22.4397 13.1878 22.358 13.2127 22.2265 13.2277C21.1178 13.3499 20.0127 13.4795 18.9075 13.6067C18.7689 13.5742 18.7014 13.5219 18.7334 13.4596C18.7512 13.4222 18.7938 13.3698 18.8365 13.3648C19.5934 13.2726 20.3467 13.1778 21.1071 13.1055C21.3239 13.0856 21.3843 12.9759 21.4945 12.8861C21.53 12.8562 21.5584 12.8114 21.6046 12.7939C21.6508 12.774 21.7183 12.7765 21.7788 12.7715C23.0011 12.6294 24.2236 12.4898 25.4459 12.3477C25.5845 12.3801 25.652 12.4324 25.6201 12.4947C25.6023 12.5321 25.5596 12.5845 25.517 12.5895C25.0479 12.6418 24.5824 12.6942 24.1169 12.749Z" fill="#FFE492"/>
<path d="M247.864 26.025C247.679 26.055 247.445 26.0973 247.253 25.9527C247.161 25.8829 247.061 25.8605 246.94 25.8755C246.766 25.9004 246.589 25.9203 246.411 25.9353C246.365 25.9378 246.304 25.9103 246.258 25.8879C246.159 25.843 246.073 25.7683 245.967 25.7483C245.86 25.7284 245.732 25.7832 245.622 25.7707C245.476 25.7533 245.416 25.686 245.455 25.6237C245.476 25.5888 245.519 25.5389 245.565 25.5314C246.223 25.4392 246.226 25.4392 246.411 25.5289C246.553 25.5987 246.684 25.676 246.887 25.6336C247.058 25.5987 247.239 25.5912 247.413 25.5688C247.655 25.5389 247.655 25.5414 248.045 25.6984C248.145 25.7383 248.252 25.7358 248.379 25.7134C248.49 25.696 248.596 25.7358 248.685 25.8032C248.628 25.8879 248.546 25.9428 248.436 25.9577C248.259 25.9827 248.085 26.0001 247.864 26.025Z" fill="#FFE492"/>
<path d="M241.322 25.2572C241.77 25.2048 242.221 25.16 242.669 25.1001C242.854 25.0752 243 25.1026 243.127 25.1874C243.266 25.2796 243.422 25.2722 243.593 25.2547C243.7 25.2447 243.803 25.2846 243.874 25.3544C243.902 25.3818 243.895 25.4317 243.906 25.4716C243.515 25.5165 243.12 25.5638 242.726 25.6037C242.68 25.6087 242.623 25.5838 242.58 25.5639C242.484 25.5215 242.403 25.4467 242.299 25.4317C242.079 25.3968 241.859 25.4641 241.635 25.4766C241.528 25.4816 241.425 25.4442 241.354 25.3769C241.326 25.3445 241.333 25.2971 241.322 25.2572Z" fill="#FFE492"/>
<path d="M79.5163 3.82121C79.9818 3.76636 80.4473 3.71403 80.9128 3.65918C81.0514 3.69408 81.1153 3.74394 81.0869 3.80626C81.0691 3.84366 81.0265 3.89602 80.9838 3.901C80.0528 4.01319 79.1219 4.12038 78.1944 4.22758C78.0558 4.19268 77.9919 4.14283 78.0203 4.0805C78.0381 4.0431 78.0807 3.99075 78.1234 3.98576C78.5853 3.92842 79.0508 3.87605 79.5163 3.82121Z" fill="#FFE492"/>
<path d="M7.78586 17.6759C7.57621 17.6809 7.35594 17.7731 7.12141 17.7033C7.07522 17.6909 7.01124 17.651 7.01479 17.6285C7.0219 17.5911 7.06455 17.5438 7.11074 17.5288C7.31329 17.4665 7.56561 17.459 7.66866 17.2845C7.71841 17.1947 7.8108 17.1648 7.93517 17.1474C8.06664 17.1274 8.15901 17.1349 8.26206 17.1872C8.39709 17.2546 8.51081 17.3792 8.72402 17.3144C8.73468 17.3543 8.75949 17.3992 8.74883 17.4365C8.73817 17.4739 8.69205 17.5089 8.64941 17.5363C8.61033 17.5612 8.55697 17.5836 8.50722 17.5911C8.2727 17.621 8.03816 17.646 7.78586 17.6759Z" fill="#FFE492"/>
<path d="M192.594 17.1741C192.768 17.1542 192.949 17.1442 193.12 17.1093C193.255 17.0819 193.34 17.0993 193.447 17.1592C193.628 17.2639 193.638 17.2539 194.083 17.2689C194.132 17.2714 194.193 17.3088 194.221 17.3412C194.239 17.3586 194.214 17.406 194.193 17.4309C194.161 17.4634 194.115 17.5057 194.072 17.5057C193.791 17.5132 193.507 17.6603 193.233 17.4908C193.095 17.406 192.942 17.3661 192.754 17.4035C192.64 17.4259 192.519 17.4359 192.402 17.4459C192.288 17.4559 192.171 17.4284 192.1 17.3536C191.997 17.2439 192.057 17.2016 192.242 17.2091C192.359 17.214 192.476 17.1866 192.594 17.1741Z" fill="#FFE492"/>
<path d="M256.996 34.36C257.22 34.3351 257.444 34.3052 257.671 34.2853C257.717 34.2803 257.774 34.3077 257.817 34.3252C257.988 34.4 257.963 34.5271 257.97 34.6393C257.973 34.7564 257.579 34.8512 257.412 34.7714C257.227 34.6817 257.06 34.5795 256.804 34.6343C256.705 34.6542 256.588 34.6094 256.524 34.5371C256.428 34.4324 256.481 34.39 256.662 34.3974C256.769 34.4024 256.882 34.375 256.996 34.36Z" fill="#FFE492"/>
<path d="M144.182 0.426338C144.413 0.398914 144.644 0.356552 144.875 0.354059C145.01 0.351566 145.077 0.433822 145.045 0.493657C145.027 0.531053 144.985 0.583409 144.942 0.588395C144.48 0.64823 144.018 0.6981 143.556 0.752948C143.421 0.718045 143.354 0.665698 143.386 0.605864C143.404 0.568468 143.446 0.518605 143.489 0.511125C143.72 0.476222 143.951 0.453762 144.182 0.426338Z" fill="#FFE492"/>
<path d="M252.565 26.2441C252.789 26.2191 253.016 26.1817 253.24 26.1692C253.357 26.1643 253.45 26.2216 253.464 26.2864C253.471 26.3163 253.414 26.3687 253.368 26.3812C253.048 26.4659 252.703 26.4759 252.369 26.5183C252.263 26.5308 252.149 26.4909 252.085 26.4211C251.989 26.3139 252.042 26.274 252.224 26.2815C252.337 26.2839 252.451 26.2565 252.565 26.2441Z" fill="#FFE492"/>
<path d="M198.464 17.5114C198.578 17.4989 198.695 17.4665 198.805 17.4765C198.922 17.489 198.997 17.5613 199.033 17.6336C199.072 17.7158 199.068 17.7931 199.033 17.8629C198.976 17.9826 198.919 17.9776 198.787 17.8978C198.585 17.7732 198.571 17.7881 198.169 17.7931C198.123 17.7931 198.066 17.7557 198.03 17.7233C197.977 17.6734 198.006 17.5962 198.13 17.5513C198.222 17.5189 198.35 17.5239 198.464 17.5114Z" fill="#FFE492"/>
<path d="M244.24 25.4264C244.407 25.4065 244.574 25.3741 244.741 25.3741C244.858 25.3716 244.951 25.4289 244.961 25.4913C244.965 25.5212 244.912 25.5711 244.869 25.586C244.666 25.6533 244.439 25.6583 244.219 25.6807C244.116 25.6907 244.002 25.6508 243.938 25.581C243.842 25.4763 243.899 25.4289 244.073 25.4439C244.126 25.4489 244.183 25.4339 244.24 25.4264Z" fill="#FFE492"/>
<path d="M217.955 22.3679C217.706 22.3978 217.471 22.3604 217.489 22.2956C217.514 22.2109 217.617 22.156 217.724 22.141C217.894 22.1161 218.065 22.0961 218.239 22.0812C218.349 22.0712 218.449 22.1086 218.537 22.1734C218.484 22.2532 218.402 22.3106 218.296 22.328C218.186 22.3455 218.068 22.3554 217.955 22.3679Z" fill="#FFE492"/>
<path d="M216.324 22.049C216.491 22.0291 216.658 21.9967 216.825 21.9967C216.942 21.9942 217.035 22.0515 217.045 22.1138C217.049 22.1437 216.996 22.1936 216.953 22.2086C216.75 22.2759 216.523 22.2809 216.303 22.3033C216.2 22.3133 216.086 22.2734 216.022 22.2036C215.926 22.0989 215.983 22.0515 216.157 22.0665C216.21 22.0715 216.267 22.0565 216.324 22.049Z" fill="#FFE492"/>
<path d="M196.449 17.491C196.616 17.471 196.783 17.4386 196.95 17.4361C197.067 17.4336 197.16 17.491 197.17 17.5533C197.174 17.5832 197.121 17.6306 197.078 17.6481C196.875 17.7154 196.648 17.7204 196.428 17.7428C196.325 17.7528 196.211 17.7129 196.147 17.6431C196.051 17.5383 196.108 17.491 196.282 17.5059C196.335 17.5109 196.392 17.496 196.449 17.491Z" fill="#FFE492"/>
<path d="M195.514 17.3444C195.692 17.3245 195.749 17.312 195.806 17.312C195.912 17.312 196.022 17.3419 196.086 17.4142C196.182 17.5189 196.126 17.5489 195.951 17.5539C195.728 17.5589 195.507 17.6112 195.283 17.6212C195.166 17.6262 195.074 17.5663 195.067 17.504C195.063 17.4741 195.116 17.4217 195.159 17.4117C195.308 17.3743 195.472 17.3519 195.514 17.3444Z" fill="#FFE492"/>
<path d="M214.877 2.67734C214.763 2.6898 214.643 2.72471 214.536 2.71224C214.394 2.69479 214.337 2.62749 214.373 2.56516C214.394 2.53026 214.433 2.4804 214.476 2.47292C214.703 2.43801 214.934 2.41556 215.161 2.39062C215.296 2.42802 215.357 2.48037 215.321 2.5427C215.3 2.5776 215.261 2.62497 215.218 2.63494C215.108 2.65987 214.991 2.66487 214.877 2.67734Z" fill="#FFE492"/>
<path d="M76.9673 4.11586C77.0774 4.11336 77.1769 4.14577 77.2622 4.2081C77.2089 4.28788 77.1307 4.34023 77.0241 4.36267C76.9708 4.37264 76.9104 4.38011 76.8536 4.3826C76.7434 4.38759 76.6439 4.35269 76.5586 4.29036C76.6119 4.21058 76.6936 4.15823 76.7966 4.13579C76.8499 4.12582 76.9104 4.12334 76.9673 4.11586Z" fill="#FFE492"/>
<path d="M251.351 26.2342C251.347 26.1619 251.564 26.0796 251.759 26.0821C251.862 26.0846 251.969 26.1195 252.029 26.1868C252.122 26.289 252.068 26.3289 251.894 26.3214C251.788 26.3164 251.674 26.3588 251.567 26.3513C251.447 26.3488 251.376 26.294 251.351 26.2342Z" fill="#FFE492"/>
<path d="M199.494 17.8129C199.49 17.7854 199.472 17.753 199.483 17.7281C199.55 17.591 199.959 17.5486 200.066 17.6683C200.083 17.6907 200.091 17.7281 200.076 17.7505C200.055 17.7854 200.016 17.8303 199.973 17.8403C199.863 17.8652 199.749 17.8777 199.636 17.8802C199.586 17.8802 199.54 17.8378 199.494 17.8129Z" fill="#FFE492"/>
<path d="M9.05014 17.2766C8.63083 17.3289 8.62373 17.3239 8.69835 17.1993C8.76587 17.0871 8.89026 17.0198 9.07148 17.0198C9.12478 17.0198 9.18162 17.0148 9.22781 17.0248C9.27756 17.0373 9.34867 17.0622 9.35933 17.0921C9.38065 17.1494 9.32019 17.2118 9.21359 17.2541C9.16739 17.2741 9.107 17.2691 9.05014 17.2766Z" fill="#FFE492"/>
<path d="M82.2164 3.76457C82.092 3.80695 81.9855 3.792 81.9073 3.71222C81.8291 3.63244 81.9535 3.53769 82.1702 3.51526C82.2271 3.51027 82.2875 3.49034 82.3408 3.50031C82.3941 3.50779 82.4474 3.53768 82.4794 3.5676C82.5363 3.61746 82.5007 3.6848 82.387 3.74214C82.3408 3.76457 82.2732 3.75958 82.2164 3.76457Z" fill="#FFE492"/>
<path d="M250.61 26.0469C250.642 26.0145 250.674 25.9821 250.709 25.9521C250.841 25.9945 250.898 26.0444 250.862 26.1017C250.841 26.1366 250.798 26.1666 250.766 26.199C250.635 26.1566 250.582 26.1042 250.61 26.0469Z" fill="#FFE492"/>
<path d="M14.6797 45.6581C14.6797 45.6282 14.7294 45.5808 14.7685 45.5709C14.8431 45.5534 14.9355 45.5883 14.9995 45.6581C15.0883 45.7578 15.035 45.8102 14.8716 45.7828C14.7579 45.7628 14.6797 45.713 14.6797 45.6581Z" fill="#FFE492"/>
<path d="M200.94 15.4921C200.987 15.5146 201.033 15.537 201.076 15.5619C201.015 15.6542 200.94 15.6941 200.862 15.6691C200.813 15.6542 200.77 15.6243 200.724 15.6018C200.784 15.5096 200.855 15.4747 200.94 15.4921Z" fill="#FFE492"/>
<path d="M199.711 15.3798C199.782 15.3424 199.868 15.3624 199.967 15.4347C199.935 15.4671 199.907 15.5045 199.868 15.5294C199.8 15.5693 199.711 15.5493 199.615 15.4745C199.644 15.4446 199.676 15.4122 199.711 15.3798Z" fill="#FFE492"/>
<path d="M198.769 15.4896C198.816 15.512 198.862 15.5345 198.905 15.5594C198.844 15.6517 198.773 15.6915 198.691 15.6666C198.642 15.6516 198.599 15.6217 198.553 15.5993C198.613 15.507 198.684 15.4696 198.769 15.4896Z" fill="#FFE492"/>
<path d="M198.076 15.3574C198.129 15.4073 198.101 15.4671 197.998 15.5344C197.951 15.512 197.898 15.4945 197.863 15.4646C197.806 15.4173 197.834 15.3549 197.941 15.2876C197.983 15.3125 198.03 15.335 198.076 15.3574Z" fill="#FFE492"/>
</svg>
