<svg width="170" height="26" viewBox="0 0 170 26" fill="none" xmlns="http://www.w3.org/2000/svg">
<path d="M138.018 11.1759C137.816 11.1929 137.613 11.2047 137.416 11.2303C137.288 11.2463 137.233 11.1994 137.148 11.1748C137.119 11.1663 137.089 11.1492 137.062 11.1513C136.863 11.1684 136.664 11.1876 136.465 11.2068C136.404 11.2485 136.365 11.304 136.272 11.3243C136.18 11.3435 136.073 11.3435 135.971 11.3531C135.837 11.3648 135.703 11.3766 135.569 11.3873C135.502 11.3926 135.447 11.4129 135.424 11.4513C135.42 11.4577 135.465 11.4737 135.489 11.4833C135.571 11.5154 135.65 11.5517 135.739 11.5762C135.825 11.5997 135.93 11.5613 136.022 11.5912C136.227 11.6584 136.229 11.6574 136.386 11.6446C136.52 11.6328 136.654 11.62 136.788 11.6115C136.814 11.6093 136.845 11.6253 136.873 11.6339C136.959 11.6574 137.014 11.7108 137.14 11.6905C137.235 11.6745 137.341 11.6713 137.44 11.6627C137.524 11.6937 137.601 11.7289 137.69 11.7535C137.774 11.7769 137.798 11.7951 137.753 11.8261C137.713 11.8549 137.656 11.8666 137.581 11.8688C137.514 11.8698 137.447 11.8794 137.379 11.8848C137.345 11.888 137.312 11.8901 137.28 11.8933C137.152 11.9051 137.152 11.9051 136.918 11.8367C136.827 11.81 136.723 11.8474 136.636 11.8218C136.577 11.8047 136.526 11.7791 136.469 11.7609C136.445 11.7535 136.406 11.7524 136.376 11.7545C136.274 11.762 136.172 11.7673 136.075 11.7812C136.006 11.7908 135.965 11.8207 135.973 11.8506C135.975 11.8624 136.024 11.8794 136.052 11.8805C136.117 11.8826 136.186 11.8677 136.249 11.8752C136.31 11.8826 136.373 11.904 136.418 11.9275C136.51 11.9766 136.613 11.9328 136.701 11.9456C136.792 11.9595 136.867 12.0022 136.955 12.0278C136.977 12.0342 137.02 12.0236 137.054 12.0204C137.154 12.0129 137.253 12.0065 137.353 11.999C137.436 12.03 137.526 12.0577 137.601 12.093C137.737 12.157 137.883 12.1816 138.06 12.1506C138.16 12.1335 138.257 12.1399 138.337 12.1816C138.418 12.2243 138.511 12.22 138.615 12.2115C138.711 12.2029 138.808 12.1794 138.906 12.2093C139.117 12.2755 139.119 12.2787 139.369 12.2531C139.444 12.2456 139.501 12.2435 139.558 12.2681C139.611 12.2905 139.668 12.3097 139.723 12.331C139.822 12.3236 139.924 12.3161 140.023 12.3076C140.152 12.2958 140.223 12.3108 140.253 12.3705C140.271 12.4068 140.28 12.4399 140.324 12.4645C140.377 12.4944 140.434 12.4933 140.511 12.4848C140.584 12.4773 140.637 12.4656 140.668 12.4271C140.68 12.4111 140.704 12.3962 140.727 12.3834C140.745 12.3737 140.773 12.3588 140.79 12.3609C140.82 12.3652 140.861 12.3769 140.871 12.3908C140.971 12.52 140.971 12.5211 141.072 12.5584C141.184 12.6001 141.3 12.6374 141.401 12.6844C141.493 12.7261 141.584 12.7079 141.684 12.7079C141.759 12.7079 141.808 12.7357 141.802 12.7634C141.798 12.7795 141.769 12.8029 141.745 12.8051C141.546 12.8264 141.344 12.8446 141.143 12.8595C141.119 12.8616 141.088 12.8424 141.06 12.8328C141.003 12.8136 140.952 12.7837 140.891 12.7773C140.83 12.7709 140.759 12.7869 140.692 12.7923C140.625 12.7976 140.554 12.8115 140.493 12.8029C140.432 12.7944 140.383 12.7634 140.326 12.7431C140.3 12.7335 140.263 12.7197 140.241 12.7229C140.093 12.7485 139.983 12.7133 139.877 12.6663C139.855 12.6567 139.816 12.6503 139.788 12.6524C139.552 12.6705 139.318 12.6919 139.083 12.7122C138.987 12.7207 138.91 12.6834 138.889 12.6204C138.879 12.5851 138.859 12.5499 138.859 12.5147C138.859 12.4506 138.747 12.4154 138.666 12.4229C138.532 12.4335 138.396 12.4421 138.264 12.4581C138.156 12.4709 138.064 12.4581 137.991 12.4197C137.906 12.3759 137.808 12.3844 137.711 12.3962C137.638 12.4047 137.617 12.4399 137.621 12.5286C137.625 12.6001 137.591 12.6225 137.459 12.6342C137.292 12.6492 137.123 12.6641 136.955 12.6759C136.928 12.678 136.898 12.6599 136.871 12.6503C136.814 12.631 136.764 12.6001 136.703 12.5937C136.642 12.5862 136.571 12.6022 136.504 12.6086C136.436 12.614 136.365 12.6289 136.304 12.6214C136.243 12.614 136.193 12.5819 136.138 12.5617C136.111 12.552 136.079 12.5382 136.052 12.5403C135.918 12.5488 135.784 12.5617 135.65 12.5734C135.5 12.5862 135.5 12.5862 135.286 12.52C135.189 12.4901 135.091 12.5136 134.996 12.5222C134.894 12.5307 134.798 12.535 134.719 12.4923C134.666 12.4645 134.607 12.4474 134.544 12.4528C134.376 12.4656 134.209 12.4816 134.04 12.4944C134.012 12.4965 133.973 12.4912 133.951 12.4816C133.843 12.4367 133.738 12.4015 133.587 12.4239C133.457 12.4431 133.317 12.4442 133.187 12.4624C133.116 12.472 133.083 12.5061 133.097 12.5328C133.105 12.5467 133.148 12.5627 133.177 12.5627C133.242 12.5638 133.313 12.5478 133.374 12.5542C133.5 12.567 133.563 12.6567 133.727 12.6321C133.825 12.6172 133.927 12.6118 134.028 12.6076C134.055 12.6065 134.083 12.6268 134.111 12.6375C134.193 12.6663 134.264 12.7036 134.382 12.6844C134.479 12.6695 134.583 12.6652 134.683 12.6567C134.841 12.6428 134.841 12.6439 135.046 12.709C135.144 12.7399 135.241 12.7154 135.337 12.7079C135.408 12.7026 135.475 12.6919 135.532 12.7068C135.619 12.7293 135.682 12.7805 135.79 12.7773C135.892 12.7741 135.991 12.7592 136.093 12.7538C136.156 12.7506 136.215 12.7677 136.266 12.7965C136.319 12.8254 136.375 12.8382 136.445 12.8318C136.544 12.8232 136.646 12.8125 136.747 12.8072C136.776 12.8061 136.808 12.8157 136.835 12.8243C136.892 12.8435 136.947 12.8659 137.001 12.8862C137.101 12.8798 137.203 12.8777 137.3 12.8649C137.375 12.8552 137.428 12.8595 137.489 12.8809C137.566 12.9097 137.629 12.9609 137.755 12.9364C137.818 12.9246 137.892 12.9278 137.955 12.9172C138.032 12.9033 138.085 12.9086 138.14 12.9407C138.243 13.0015 138.373 13.0026 138.507 12.9791C138.654 12.9535 138.763 12.9834 138.873 13.0303C138.989 13.0795 138.989 13.0784 139.078 13.1969C139.105 13.231 139.18 13.2471 139.243 13.2407C139.349 13.23 139.44 13.2353 139.517 13.2759C139.599 13.3197 139.696 13.3143 139.796 13.3026C139.928 13.2866 140.06 13.2727 140.168 13.3346C140.221 13.3645 140.278 13.372 140.349 13.3645C140.55 13.3453 140.753 13.3335 140.95 13.3101C141.07 13.2951 141.139 13.3293 141.22 13.3581C141.33 13.3976 141.45 13.4328 141.45 13.5172C141.45 13.5311 141.479 13.5471 141.503 13.5577C141.556 13.5802 141.613 13.5994 141.668 13.6207C141.749 13.6528 141.828 13.6795 141.94 13.6624C142.037 13.6485 142.141 13.6442 142.241 13.6346C142.34 13.625 142.432 13.6197 142.521 13.6602C142.625 13.7061 142.735 13.7499 142.852 13.7841C142.936 13.8086 143.046 13.767 143.135 13.8001C143.19 13.8204 143.243 13.8439 143.302 13.8609C143.326 13.8684 143.365 13.8631 143.397 13.8609C143.464 13.8567 143.533 13.8535 143.598 13.8428C143.674 13.8311 143.73 13.8332 143.787 13.8578C143.84 13.8802 143.893 13.9111 143.954 13.9175C144.045 13.9271 144.147 13.8844 144.238 13.9335C144.285 13.9581 144.344 13.9816 144.405 13.9891C144.466 13.9965 144.537 13.9805 144.602 13.9816C144.631 13.9816 144.665 13.9987 144.681 14.0126C144.692 14.02 144.677 14.0403 144.663 14.051C144.645 14.0638 144.618 14.0809 144.592 14.083C144.391 14.1022 144.19 14.1183 143.988 14.1364C143.869 14.1471 143.869 14.1471 143.627 14.0798C143.57 14.0638 143.507 14.067 143.436 14.0745C143.34 14.0841 143.243 14.1022 143.143 14.083C143.013 14.0104 142.852 14.004 142.682 14.0318C142.611 14.0435 142.546 14.0435 142.493 14.0232C142.381 13.9827 142.263 13.9453 142.163 13.8973C142.086 13.8599 142.05 13.8567 142.017 13.9079C142.007 13.9239 141.997 13.941 141.999 13.956C142.011 14.0093 142.033 14.0617 142.046 14.115C142.05 14.13 142.033 14.1471 142.023 14.1631C141.991 14.2079 141.948 14.2047 141.877 14.1674C141.806 14.13 141.72 14.1054 141.607 14.1225C141.509 14.1375 141.403 14.1353 141.306 14.1513C141.155 14.1748 141.05 14.1407 140.942 14.0948C140.92 14.0852 140.881 14.0798 140.853 14.082C140.55 14.1065 140.249 14.1343 139.946 14.1588C139.881 14.1642 139.822 14.1481 139.771 14.1193C139.719 14.0905 139.66 14.0755 139.595 14.0809C139.326 14.1033 139.058 14.1236 138.79 14.1513C138.68 14.1631 138.593 14.1492 138.518 14.1118C138.461 14.0841 138.408 14.0755 138.337 14.0787C138.259 14.0819 138.205 14.0926 138.166 14.1236C138.129 14.1535 138.156 14.1716 138.237 14.1951C138.324 14.2207 138.406 14.2538 138.489 14.2837C138.556 14.2795 138.623 14.2709 138.688 14.272C138.717 14.272 138.743 14.2912 138.772 14.3019C138.853 14.3328 138.928 14.3638 139.044 14.3467C139.141 14.3318 139.245 14.3286 139.345 14.319C139.483 14.3072 139.483 14.3072 139.706 14.3745C139.763 14.3916 139.824 14.3905 139.897 14.3809C139.96 14.3734 140.025 14.3883 140.07 14.4204C140.089 14.4332 140.082 14.4546 140.044 14.525C140.044 14.5773 140.086 14.5538 140.101 14.5197C140.123 14.4706 140.08 14.4545 139.999 14.4812C139.942 14.5005 139.914 14.5282 139.928 14.5506C139.936 14.5624 139.975 14.5773 140.044 14.525C140.223 14.461 140.359 14.4535 140.489 14.4364C140.566 14.4268 140.615 14.4311 140.676 14.4588C140.749 14.4919 140.822 14.5272 140.942 14.5101C141.072 14.4909 141.21 14.4887 141.342 14.4727C141.464 14.4577 141.527 14.5047 141.605 14.5325C141.698 14.5656 141.802 14.5282 141.887 14.5474C141.977 14.5667 142.04 14.6136 142.143 14.6222C142.294 14.5933 142.389 14.6467 142.503 14.682C142.592 14.7086 142.698 14.6851 142.793 14.6734C142.901 14.6606 142.991 14.6723 143.066 14.7108C143.151 14.7546 143.247 14.7449 143.344 14.7353C143.572 14.714 143.58 14.7108 143.712 14.7695C143.808 14.8122 143.899 14.793 143.995 14.7876C144.078 14.8165 144.159 14.8474 144.247 14.8731C144.269 14.8795 144.312 14.8688 144.346 14.8656C144.446 14.857 144.547 14.8485 144.647 14.84C144.714 14.8346 144.785 14.8186 144.846 14.825C144.907 14.8325 144.958 14.8635 145.013 14.8837C145.068 14.904 145.125 14.9243 145.177 14.9457C145.259 14.9777 145.336 15.0044 145.45 14.9884C145.547 14.9745 145.649 14.9702 145.75 14.9606C145.879 14.9489 145.874 14.9521 146.112 15.0161C146.24 15.0514 146.372 15.0086 146.502 15.0044C146.567 15.0022 146.63 15.014 146.675 15.0449C146.693 15.0578 146.687 15.0791 146.693 15.0973C146.358 15.1261 146.021 15.1506 145.689 15.1859C145.561 15.1997 145.494 15.1613 145.425 15.1293C145.312 15.078 145.161 15.1528 145.053 15.0866C144.988 15.0471 144.895 15.0247 144.783 15.0439C144.718 15.0546 144.649 15.0535 144.582 15.0631C144.411 15.0866 144.255 15.0877 144.119 15.014C144.072 14.9884 144.005 14.9745 143.956 14.9499C143.899 14.9232 143.844 14.9083 143.777 14.9136C143.474 14.9392 143.174 14.9649 142.873 14.9926C142.846 14.9948 142.82 15.0108 142.798 15.0225C142.741 15.0524 142.759 15.0759 142.85 15.0951C142.881 15.1015 142.905 15.1154 142.934 15.1261C142.989 15.1464 143.039 15.1784 143.1 15.1859C143.161 15.1933 143.232 15.1784 143.3 15.1731C143.367 15.1677 143.438 15.1517 143.499 15.1581C143.56 15.1656 143.61 15.1965 143.667 15.2158C143.694 15.2254 143.726 15.2414 143.753 15.2403C143.887 15.2339 144.019 15.2222 144.153 15.2126C144.236 15.2414 144.308 15.283 144.407 15.2926C144.47 15.299 144.537 15.2873 144.602 15.2894C144.631 15.2905 144.667 15.3065 144.681 15.3204C144.69 15.3289 144.663 15.3503 144.643 15.361C144.566 15.4015 144.46 15.3941 144.364 15.4069C144.261 15.4207 144.167 15.4165 144.088 15.3748C144.035 15.3471 143.976 15.3321 143.911 15.3375C143.743 15.3514 143.576 15.3674 143.407 15.3791C143.379 15.3813 143.344 15.3716 143.318 15.3642C143.104 15.299 143.104 15.2969 142.954 15.3108C142.733 15.3311 142.733 15.3311 142.584 15.2745C142.556 15.2638 142.525 15.2435 142.501 15.2446C142.265 15.2617 142.031 15.2788 141.798 15.3033C141.72 15.3108 141.668 15.3108 141.611 15.283C141.562 15.2595 141.505 15.2328 141.444 15.2264C141.381 15.22 141.312 15.2361 141.245 15.2414C141.178 15.2467 141.107 15.2606 141.048 15.2521C140.987 15.2435 140.934 15.2136 140.881 15.1923C140.826 15.1699 140.767 15.1709 140.692 15.1795C140.46 15.204 140.458 15.2008 140.229 15.1346C140.202 15.1272 140.168 15.1186 140.139 15.1207C139.971 15.1336 139.804 15.1496 139.635 15.1624C139.57 15.1677 139.507 15.1538 139.463 15.1229C139.444 15.1101 139.45 15.0887 139.438 15.0471C139.424 15.0375 139.44 15.0546 139.444 15.0706C139.475 15.0684 139.511 15.0706 139.534 15.062C139.591 15.0417 139.619 15.015 139.605 14.9926C139.597 14.9809 139.558 14.9659 139.534 14.9659C139.489 14.9659 139.45 14.9894 139.438 15.0471C139.31 15.0823 139.174 15.0898 139.042 15.1069C138.965 15.1175 138.916 15.1122 138.855 15.0845C138.782 15.0503 138.707 15.0172 138.587 15.0343C138.457 15.0535 138.318 15.0567 138.184 15.0716C138.03 15.0887 137.963 14.9926 137.833 14.9948C137.699 14.9969 137.564 15.0151 137.43 15.0279C137.312 15.0385 137.312 15.0385 137.068 14.9691C136.979 14.9435 136.873 14.9809 136.786 14.9542C136.727 14.9371 136.676 14.9115 136.619 14.8933C136.595 14.8859 136.556 14.8859 136.526 14.888C136.357 14.9008 136.187 14.9094 136.024 14.9328C135.839 14.9606 135.699 14.9307 135.567 14.8677C135.4 14.8795 135.231 14.8859 135.067 14.9062C134.947 14.9211 134.878 14.8859 134.796 14.857C134.768 14.8474 134.744 14.8314 134.713 14.8272C134.683 14.8229 134.646 14.8314 134.613 14.8346C134.479 14.8464 134.341 14.8517 134.211 14.8709C134.051 14.8955 133.99 14.8079 133.866 14.7973C133.782 14.8496 133.738 14.9211 133.573 14.9264C133.439 14.9307 133.305 14.9478 133.171 14.9595C133.104 14.9649 133.036 14.9713 132.969 14.9766C132.862 14.9862 132.811 15.0279 132.833 15.0919C132.845 15.1272 132.856 15.1624 132.866 15.1976C132.886 15.2606 132.835 15.314 132.75 15.3215C132.514 15.3417 132.28 15.3631 132.045 15.3812C131.982 15.3866 131.921 15.3684 131.87 15.3396C131.817 15.3108 131.758 15.298 131.693 15.3033C131.457 15.3236 131.224 15.3449 130.988 15.3631C130.961 15.3652 130.927 15.3546 130.9 15.346C130.844 15.3268 130.789 15.3044 130.734 15.2841C130.6 15.2937 130.468 15.3001 130.336 15.3129C130.122 15.3321 130.122 15.3332 129.966 15.2745C129.937 15.2638 129.909 15.2435 129.882 15.2446C129.781 15.2489 129.681 15.2595 129.579 15.2691C129.281 15.2969 129.281 15.2969 129.193 15.2649C129.114 15.235 129.043 15.1987 128.923 15.2158C128.793 15.235 128.655 15.2414 128.521 15.2521C128.421 15.2595 128.321 15.2681 128.222 15.2702C128.195 15.2713 128.167 15.251 128.139 15.2403C128.057 15.2072 127.978 15.1805 127.866 15.1987C127.801 15.2094 127.732 15.2115 127.665 15.2168C127.49 15.2318 127.49 15.2318 127.204 15.1677C127.175 15.1613 127.141 15.1538 127.112 15.157C126.877 15.1763 126.643 15.1976 126.407 15.2158C126.379 15.2179 126.344 15.2115 126.316 15.2061C125.995 15.1442 125.995 15.1442 125.653 15.1741C125.523 15.1848 125.519 15.1891 125.383 15.1325C125.322 15.1079 125.271 15.0962 125.2 15.1037C124.932 15.1293 124.661 15.1464 124.395 15.1763C124.275 15.1891 124.206 15.157 124.125 15.1282C124.096 15.1186 124.066 15.0973 124.041 15.0983C123.773 15.1186 123.505 15.1432 123.237 15.1635C123.212 15.1656 123.182 15.1442 123.153 15.1346C123.098 15.1154 123.046 15.0866 122.985 15.0802C122.922 15.0738 122.853 15.0898 122.783 15.0951C122.615 15.109 122.615 15.1079 122.42 15.0449C122.393 15.0364 122.359 15.0247 122.332 15.0268C122.064 15.0481 121.794 15.0663 121.528 15.0973C121.375 15.1143 121.271 15.0834 121.164 15.0385C121.141 15.0289 121.103 15.0247 121.074 15.0268C120.771 15.0514 120.471 15.0791 120.168 15.1037C120.105 15.109 120.044 15.0908 119.993 15.0631C119.912 15.0193 119.816 15.0247 119.715 15.0343C119.481 15.0567 119.479 15.0556 119.341 15.0044C119.312 14.9937 119.288 14.9798 119.257 14.9745C119.229 14.9691 119.192 14.9723 119.162 14.9745C119.028 14.9852 118.894 14.9969 118.76 15.0086C118.625 15.0204 118.489 15.0268 118.357 15.0449C118.195 15.0674 118.117 14.998 118.003 14.9659C117.837 14.9798 117.666 14.9884 117.502 15.0108C117.376 15.0279 117.317 14.9809 117.233 14.9563C117.205 14.9478 117.174 14.9296 117.148 14.9318C116.845 14.9553 116.542 14.9809 116.241 15.0097C116.168 15.0161 116.12 15.0076 116.059 14.9819C115.922 14.9243 115.916 14.9264 115.689 14.9478C115.589 14.9574 115.494 14.9659 115.408 14.9222C115.333 14.8827 115.242 14.873 115.134 14.8859C115.002 14.9019 114.866 14.9104 114.731 14.9211C114.597 14.9328 114.463 14.9489 114.329 14.9542C114.221 14.9595 114.156 14.9094 114.071 14.8837C114.045 14.8763 114.008 14.8752 113.978 14.8773C113.843 14.8869 113.705 14.8944 113.575 14.9126C113.417 14.935 113.329 14.8763 113.217 14.8421C113.193 14.8346 113.152 14.8389 113.122 14.8421C112.886 14.8613 112.652 14.8827 112.417 14.9029C112.333 14.8741 112.248 14.8464 112.165 14.8175C112.031 14.8282 111.896 14.84 111.762 14.8506C111.661 14.8592 111.557 14.8624 111.462 14.8784C111.338 14.8997 111.277 14.8496 111.193 14.825C111.165 14.8165 111.134 14.7983 111.108 14.8005C110.939 14.8122 110.771 14.825 110.604 14.8432C110.445 14.8613 110.382 14.7652 110.252 14.7663C110.118 14.7674 109.98 14.7812 109.85 14.8005C109.7 14.8229 109.594 14.7887 109.486 14.7428C109.464 14.7332 109.425 14.7279 109.397 14.73C109.228 14.7428 109.061 14.7588 108.893 14.7716C108.864 14.7738 108.83 14.7684 108.801 14.762C108.48 14.699 108.48 14.698 108.34 14.7108C108.24 14.7193 108.139 14.73 108.037 14.7353C108.009 14.7375 107.974 14.7279 107.948 14.7193C107.736 14.6542 107.736 14.6531 107.584 14.6659C107.45 14.6777 107.316 14.6894 107.181 14.7012C107.098 14.6723 107.013 14.6446 106.929 14.6158C106.763 14.6296 106.592 14.6403 106.427 14.6595C106.35 14.6681 106.299 14.6649 106.241 14.6382C106.167 14.6061 106.094 14.5688 105.972 14.5869C105.842 14.6062 105.704 14.6083 105.572 14.6243C105.413 14.6435 105.348 14.5464 105.22 14.5474C105.086 14.5485 104.948 14.5624 104.818 14.5816C104.668 14.604 104.562 14.5699 104.454 14.5239C104.432 14.5143 104.393 14.509 104.365 14.5111C103.995 14.5421 103.627 14.573 103.257 14.6061C103.03 14.6264 103.03 14.6275 102.597 14.5688C102.566 14.5645 102.534 14.5602 102.503 14.5624C102.369 14.572 102.231 14.5795 102.101 14.5976C101.942 14.62 101.855 14.5624 101.743 14.5271C101.719 14.5197 101.68 14.5239 101.648 14.5261C101.546 14.5335 101.446 14.5432 101.345 14.5517C101.211 14.5635 101.076 14.5752 100.942 14.5869C100.859 14.5592 100.774 14.5303 100.69 14.5026C100.524 14.5165 100.353 14.5239 100.188 14.5464C100.062 14.5634 100.003 14.5186 99.9201 14.493C99.8916 14.4844 99.8612 14.4663 99.8347 14.4674C99.5319 14.4908 99.2291 14.5154 98.9283 14.5453C98.8044 14.5581 98.7474 14.5101 98.6641 14.4855C98.6357 14.478 98.6032 14.4642 98.5767 14.4663C98.3755 14.4812 98.1744 14.4994 97.9732 14.5175C97.8594 14.5282 97.8593 14.5282 97.6114 14.462C97.583 14.4545 97.5504 14.4471 97.522 14.4492C96.8839 14.5026 96.2477 14.5592 95.6096 14.6126C95.5445 14.6179 95.4856 14.6019 95.4348 14.5731C95.382 14.5442 95.323 14.5293 95.258 14.5346C94.9897 14.557 94.7194 14.5773 94.4532 14.6051C94.3435 14.6168 94.2561 14.6029 94.1809 14.5656C94.1239 14.5378 94.0711 14.5271 94 14.5336C93.8659 14.5464 93.7317 14.557 93.5976 14.5688C93.4635 14.5805 93.3294 14.5923 93.1952 14.604C93.0611 14.6158 92.9249 14.6222 92.7928 14.6403C92.6302 14.6627 92.551 14.5965 92.4392 14.5634C92.238 14.5795 92.0368 14.5955 91.8376 14.6126C91.5693 14.635 91.3011 14.6595 91.0328 14.6809C91.0084 14.683 90.978 14.6638 90.9495 14.6542C90.8662 14.6275 90.8052 14.5901 90.6812 14.6019C90.0797 14.6585 89.4741 14.7065 88.8705 14.762C88.7445 14.7738 88.6896 14.7279 88.6042 14.7033C88.5758 14.6958 88.5433 14.6809 88.5169 14.683C88.1815 14.7097 87.8462 14.7396 87.5109 14.7684C87.3747 14.7802 87.3747 14.7802 87.1471 14.714C87.1207 14.7065 87.0861 14.6969 87.0576 14.699C86.6207 14.7353 86.1858 14.7738 85.7488 14.8111C85.6838 14.8165 85.6249 14.8015 85.5721 14.7727C85.5212 14.7439 85.4603 14.7279 85.3973 14.7332C84.9949 14.7674 84.5904 14.8005 84.1901 14.8378C84.0824 14.8485 83.9929 14.8389 83.9157 14.8005C83.8608 14.7727 83.806 14.761 83.7369 14.7674C83.1333 14.8197 82.5297 14.8699 81.9261 14.9254C81.8102 14.9361 81.729 14.9158 81.6558 14.8805C81.5969 14.8528 81.546 14.8474 81.4729 14.8517C81.3956 14.857 81.3489 14.8688 81.3063 14.9008C81.2514 14.9424 81.2168 14.9948 81.0868 14.998C80.9526 15.0012 80.8165 15.014 80.6844 15.0321C80.5584 15.0503 80.4994 15.0022 80.4202 14.9734C80.3612 14.9531 80.3064 14.9499 80.2312 14.9595C80.1621 14.9681 80.1194 14.9862 80.0787 15.0204C79.9893 15.093 79.9812 15.093 79.8714 15.0471C79.8125 15.0225 79.7596 15.0033 79.6946 15.0076C79.4263 15.0289 79.1581 15.0524 78.8898 15.077C78.7354 15.0908 78.7334 15.093 78.6175 15.0396C78.5606 15.0129 78.5057 15.0001 78.4387 15.0065C77.7009 15.0706 76.9632 15.1325 76.2255 15.1997C76.1117 15.2104 76.0345 15.188 75.9532 15.156C75.9267 15.1453 75.9003 15.1303 75.8699 15.1261C75.8394 15.1218 75.8048 15.1261 75.7723 15.1282C75.2358 15.1741 74.6972 15.2179 74.1627 15.2691C74.0408 15.2809 73.9758 15.2467 73.8924 15.219C73.864 15.2094 73.8396 15.1944 73.8091 15.1901C73.7786 15.1869 73.742 15.1944 73.7095 15.1976C73.173 15.2435 72.6344 15.2873 72.0999 15.3385C71.9719 15.3503 71.917 15.3054 71.8337 15.282C71.8052 15.2734 71.7748 15.2574 71.7483 15.2595C71.5797 15.2713 71.413 15.2873 71.2443 15.3012C70.8419 15.3364 70.4395 15.3695 70.0371 15.4058C69.8827 15.4197 69.8156 15.3247 69.6855 15.3289C69.5169 15.3343 69.3502 15.3556 69.1815 15.3706C69.0474 15.3823 68.9133 15.393 68.7791 15.4058C68.647 15.4176 68.647 15.4175 68.3178 15.3556C68.2893 15.3503 68.2548 15.3428 68.2264 15.3449C67.7569 15.3844 67.2854 15.424 66.818 15.4667C66.7103 15.4763 66.6208 15.4709 66.5436 15.4314C66.4887 15.4037 66.4318 15.3898 66.3648 15.3962C65.6596 15.457 64.9564 15.5179 64.2512 15.5777C64.2247 15.5798 64.1902 15.5691 64.1638 15.5606C64.1069 15.5414 64.052 15.519 63.9971 15.4987C63.9565 15.5232 63.9037 15.5457 63.8773 15.5734C63.8407 15.6108 63.7919 15.6215 63.7147 15.6279C63.6374 15.6343 63.5887 15.6321 63.5277 15.6044C63.4545 15.5702 63.3793 15.5435 63.2594 15.5542C62.5217 15.6215 61.7839 15.6823 61.0462 15.7485C60.9243 15.7592 60.8674 15.7122 60.7821 15.6876C60.7536 15.6802 60.7211 15.6684 60.6946 15.6706C60.3918 15.6951 60.091 15.7218 59.7882 15.7474C58.9489 15.82 58.1096 15.8894 57.2723 15.9663C57.1199 15.9802 57.0162 15.9535 56.9085 15.9076C56.8861 15.898 56.8475 15.8926 56.8191 15.8948C55.6444 15.9951 54.4697 16.0966 53.2971 16.198C53.2341 16.2033 53.1731 16.1862 53.1223 16.1585C53.0694 16.1296 53.0105 16.1158 52.9455 16.1211C52.409 16.167 51.8725 16.2129 51.3359 16.2599C51.2018 16.2717 51.1997 16.2727 51.0616 16.2215C51.0331 16.2108 51.0026 16.1905 50.9803 16.1926C50.9335 16.198 50.8888 16.2247 50.8563 16.261C50.8238 16.2994 50.773 16.3101 50.6978 16.3175C50.6205 16.325 50.5697 16.3218 50.5108 16.2962C50.4356 16.2642 50.3665 16.2332 50.2446 16.2439C48.702 16.3805 47.1595 16.5119 45.617 16.6474C45.493 16.6581 45.4361 16.6133 45.3508 16.5887C45.3223 16.5813 45.2939 16.5706 45.2634 16.5684C45.2309 16.5663 45.1963 16.5727 45.1638 16.5759C42.6478 16.7926 40.1319 17.0104 37.6159 17.2272C37.4655 17.24 37.4675 17.24 37.3029 17.3382C37.2826 17.3499 37.2561 17.366 37.2277 17.3681C36.4574 17.4364 35.6852 17.5026 34.9129 17.5688C34.5776 17.5976 34.2422 17.6275 33.9069 17.6553C33.787 17.6649 33.787 17.6649 33.5005 17.7802C33.4761 17.7898 33.4476 17.8026 33.4191 17.8048C32.0778 17.9211 30.7365 18.0375 29.3931 18.1517C29.2875 18.1603 29.2021 18.1795 29.1533 18.2307C29.1188 18.267 29.0741 18.2884 29.007 18.2948C28.0681 18.3759 27.1292 18.4581 26.1882 18.5371C26.0765 18.5468 26.0094 18.5767 25.9545 18.6215C25.9362 18.6364 25.9199 18.6535 25.8935 18.6642C25.8691 18.6738 25.8326 18.677 25.8021 18.6802C24.9973 18.7496 24.1925 18.8211 23.3857 18.8873C23.2658 18.8969 23.217 18.9364 23.1581 18.9781C23.1377 18.992 23.1235 19.0112 23.0971 19.0208C23.0707 19.0293 23.032 19.0293 22.9995 19.0315C22.3289 19.0891 21.6582 19.1478 20.9876 19.2055C20.8575 19.2001 20.829 19.2621 20.766 19.2994C20.7437 19.3122 20.7275 19.3293 20.701 19.3379C20.6726 19.3464 20.636 19.3453 20.6014 19.3475C20.0649 19.3934 19.5284 19.4425 18.9898 19.4852C18.8658 19.4948 18.8414 19.5492 18.7744 19.5866C18.752 19.5984 18.7297 19.6165 18.7033 19.6197C18.3679 19.6507 18.0326 19.6795 17.6973 19.7073C17.5855 19.7169 17.5855 19.7158 17.3884 19.8215C17.366 19.8332 17.3396 19.8461 17.3111 19.8493C16.8091 19.8941 16.3051 19.9368 15.8011 19.9806C15.7361 19.9859 15.6914 20.0115 15.6589 20.0478C15.6264 20.0841 15.5796 20.1076 15.5146 20.113C15.1122 20.1482 14.7098 20.1845 14.3074 20.2165C14.1956 20.2251 14.1225 20.2518 14.0737 20.2998C14.0371 20.3361 13.9924 20.3542 13.9213 20.3606C13.5189 20.3948 13.1165 20.4322 12.712 20.4621C12.5942 20.4706 12.5332 20.5069 12.4844 20.5518C12.4458 20.5881 12.4011 20.6009 12.3259 20.6073C11.5882 20.6692 10.8484 20.7311 10.1127 20.7994C9.98876 20.8112 9.92574 20.7738 9.84445 20.7471C9.72861 20.7098 9.62093 20.6692 9.62093 20.5859C9.62093 20.5731 9.58637 20.5582 9.56198 20.5475C9.38111 20.4674 9.3811 20.4674 9.35265 20.382C9.33639 20.3297 9.3181 20.2763 9.30388 20.2229C9.27746 20.1354 9.2124 20.113 9.02543 20.129C8.95836 20.1343 8.8913 20.1418 8.82423 20.146C8.72465 20.1535 8.64947 20.1183 8.63117 20.0542C8.62101 20.019 8.60884 19.9838 8.59868 19.9485C8.70029 19.94 8.69823 19.9389 8.87708 19.8098C8.95227 19.7553 8.9523 19.7553 8.80801 19.7009C8.75314 19.6806 8.70028 19.6581 8.64135 19.6389C8.61493 19.6304 8.58039 19.625 8.55194 19.6272C8.38326 19.64 8.21661 19.6549 8.04996 19.6699C7.7817 19.6934 7.78167 19.6934 7.50934 19.5845C7.48699 19.5759 7.45243 19.5599 7.4565 19.5514C7.47885 19.5119 7.53372 19.4948 7.60282 19.4905C7.70443 19.4841 7.80401 19.4734 7.90359 19.4649C7.97066 19.4596 8.03772 19.4532 8.10479 19.4478C8.16779 19.4073 8.23286 19.3678 8.2918 19.3261C8.38528 19.2621 8.38525 19.2599 8.25721 19.2151C8.17592 19.1852 8.08853 19.1585 8.00521 19.1307C7.90563 19.1393 7.80402 19.1489 7.70443 19.1564C7.57843 19.166 7.52762 19.1457 7.4951 19.0763C7.46665 19.0154 7.5012 18.9631 7.59875 18.9503C7.69833 18.9375 7.79186 18.929 7.84267 18.8745C7.89144 18.8222 7.97678 18.8019 8.08246 18.7976C8.14953 18.7944 8.21659 18.787 8.28366 18.7806C8.37105 18.772 8.4178 18.7176 8.39951 18.6567C8.38935 18.6172 8.36902 18.5841 8.28976 18.5756C7.93817 18.5382 7.93409 18.5393 7.75931 18.4667C7.74305 18.4603 7.73089 18.4411 7.73698 18.4315C7.74714 18.4154 7.7695 18.3919 7.79389 18.3887C8.02761 18.3653 8.26131 18.3439 8.49503 18.3279C8.57225 18.3226 8.62917 18.3151 8.65559 18.2756C8.69217 18.2211 8.67591 18.1709 8.60478 18.1336C8.58242 18.1218 8.54581 18.1069 8.52142 18.108C8.25316 18.1272 7.98694 18.1517 7.71867 18.1709C7.69429 18.1731 7.6496 18.1549 7.63944 18.1411C7.61911 18.1154 7.64958 18.0813 7.72071 18.0695C7.81419 18.0535 7.90971 18.0524 7.97271 17.9991C8.0601 17.9233 8.1678 17.8539 8.26535 17.7813C8.28161 17.7685 8.30806 17.7439 8.30197 17.7418C8.25116 17.7183 8.19221 17.7001 8.13937 17.6777C8.04995 17.6403 8.04993 17.588 8.07026 17.5378C8.08652 17.4973 8.14748 17.4813 8.22268 17.4813C8.2552 17.4813 8.29584 17.4813 8.32226 17.4717C8.39136 17.4482 8.41372 17.4183 8.37917 17.3958C8.35885 17.383 8.32229 17.3649 8.2979 17.367C7.86299 17.4023 7.42601 17.4364 6.99313 17.4802C6.86509 17.493 6.8062 17.4524 6.72897 17.4236C6.67003 17.4012 6.61513 17.3926 6.54196 17.4087C6.47287 17.4236 6.40582 17.4151 6.36314 17.3798C6.3286 17.351 6.38955 17.3265 6.55417 17.2987C6.58465 17.2934 6.61919 17.2902 6.64154 17.2795C6.87729 17.1642 6.87728 17.1631 7.03987 17.1482C7.19839 17.1343 7.19842 17.1332 7.28175 17.0713C7.32036 17.0425 7.36301 17.0136 7.39959 16.9837C7.41381 16.972 7.43823 16.9506 7.4301 16.9442C7.38539 16.9111 7.3244 16.9037 7.25327 16.9112C7.09475 16.9293 6.90781 16.9144 6.82448 17.0158C6.79196 17.0542 6.74115 17.0649 6.66799 17.0713C5.9323 17.1332 5.19658 17.1994 4.45886 17.2592C4.33895 17.2688 4.28411 17.3083 4.23737 17.3521C4.19672 17.3884 4.152 17.3991 4.07477 17.4055C3.99755 17.4119 3.93655 17.4151 3.89184 17.3798C3.86542 17.3585 3.88778 17.3286 3.94875 17.2987C4.03614 17.256 4.01987 17.2026 3.99142 17.1524C3.97109 17.1193 3.90809 17.0959 3.84103 17.098C3.74145 17.1023 3.64595 17.114 3.56263 17.0713C3.51385 17.0467 3.45287 17.0297 3.398 17.0083C3.29232 16.9645 3.18664 16.9197 3.03828 16.9485C2.93666 16.9378 2.86553 16.8994 2.78424 16.8695C2.64808 16.8204 2.63588 16.8129 2.73343 16.7606C2.84318 16.7019 2.75781 16.625 2.81877 16.5674C2.88381 16.5054 2.97326 16.451 3.05252 16.3934C3.07284 16.3784 3.09114 16.3645 3.11146 16.3496C3.06472 16.3282 3.02205 16.3015 2.96718 16.2866C2.89605 16.2674 2.85946 16.2439 2.86353 16.1777C2.8493 16.1681 2.85536 16.1926 2.87162 16.199C2.88991 16.2055 2.93465 16.2001 2.95701 16.1926C3.01391 16.1724 3.04233 16.1457 3.02811 16.1232C3.01998 16.1115 2.98139 16.0966 2.95701 16.0966C2.9123 16.0966 2.87369 16.12 2.8615 16.1777C2.63388 16.2215 2.39809 16.2428 2.16235 16.2599C2.13796 16.262 2.10749 16.2407 2.07904 16.23C1.98555 16.1937 1.98554 16.1948 1.71118 16.1841C1.68273 16.183 1.64414 16.1681 1.62991 16.1531C1.57097 16.088 1.57302 16.0165 1.54457 15.9471C1.59741 15.9022 1.65021 15.8585 1.70508 15.8147C1.81482 15.7261 1.95712 15.6482 2.04247 15.551C2.02418 15.4987 1.99979 15.4464 2.08921 15.4037C2.34325 15.3503 2.34123 15.3503 2.41033 15.299C2.60746 15.1538 2.80255 15.0076 3.00781 14.8645C3.06269 14.8271 3.06269 14.8069 2.96514 14.7909C2.93466 14.7866 2.9021 14.7855 2.86958 14.7876C2.76797 14.7951 2.66635 14.8143 2.56677 14.8101C2.46719 14.8069 2.39403 14.7599 2.31273 14.7311C2.22941 14.7012 2.14609 14.6702 2.06277 14.6392C1.96725 14.6424 1.87175 14.6723 1.77623 14.6243C1.70307 14.5869 1.61162 14.5602 1.52829 14.5293C1.5913 14.4481 1.70919 14.3862 1.80064 14.3147C1.88396 14.2496 1.88595 14.2506 2.1095 14.2005C2.21518 14.177 2.25177 14.0563 2.16235 14.0211C2.05463 13.9784 1.94085 13.9389 1.8311 13.8983C1.73559 13.9015 1.63806 13.9303 1.5466 13.8823C1.47547 13.846 1.39416 13.8214 1.27629 13.8353C1.07713 13.8588 0.873901 13.8706 0.672703 13.8898C0.603605 13.8962 0.528388 13.8919 0.497904 13.8556C0.477581 13.83 0.536521 13.7948 0.603587 13.7873C0.705202 13.7766 0.796646 13.7638 0.847453 13.7104C0.896229 13.657 0.98564 13.641 1.09132 13.6335C1.11977 13.6314 1.15231 13.6186 1.16654 13.6058C1.2397 13.5439 1.321 13.4905 1.47749 13.4926C1.54252 13.4713 1.57705 13.4446 1.55672 13.4189C1.54453 13.4051 1.50187 13.3869 1.47749 13.3891C1.30881 13.3997 1.14013 13.4104 0.975514 13.4296C0.898287 13.4382 0.839318 13.4403 0.790543 13.4083C0.755994 13.3869 0.774283 13.3581 0.839316 13.3271C0.896221 13.3004 0.912497 13.2695 0.908432 13.2332C0.898271 13.1488 0.83729 13.1243 0.642189 13.1296C0.50196 13.1339 0.467409 13.12 0.436925 13.0474C0.428796 13.0303 0.408508 13.0068 0.422734 12.9951C0.510123 12.9225 0.567032 12.8328 0.731648 12.7987C0.796682 12.7859 0.865752 12.7859 0.906398 12.7581C0.947044 12.7303 0.983643 12.6983 1.02632 12.6716C1.07916 12.6396 1.11571 12.6097 1.09132 12.5894C1.05067 12.5531 0.985662 12.5499 0.910467 12.5627C0.845433 12.5734 0.776337 12.5745 0.709271 12.5809C0.589365 12.5926 0.491837 12.5649 0.47761 12.5179C0.438997 12.394 0.398339 12.2713 0.36379 12.1474C0.359725 12.1325 0.369859 12.1132 0.386117 12.1004C0.443022 12.0556 0.504014 12.0129 0.562951 11.9691C0.632049 11.9189 0.741812 11.9286 0.835297 11.9189C0.967397 11.9051 0.967351 11.9061 1.14416 11.8036C1.21326 11.7631 1.33317 11.7791 1.4043 11.7428C1.42666 11.731 1.46121 11.7118 1.45511 11.7011C1.44698 11.6873 1.40636 11.6766 1.37587 11.6702C1.34742 11.6638 1.31288 11.6606 1.28239 11.6638C0.912515 11.6947 0.544678 11.7278 0.1748 11.7577C0.111798 11.7631 0.0426982 11.7396 0.0203429 11.7065C-0.00201245 11.6755 0.0040646 11.6381 0 11.6029C0.0589367 11.5591 0.125977 11.5186 0.176784 11.4716C0.215398 11.4353 0.260117 11.4193 0.337344 11.4172C0.438959 11.4139 0.538552 11.4011 0.652361 11.3915C0.86372 11.2357 1.071 11.0723 1.29862 10.9164C1.39007 10.8535 1.36775 10.7894 1.38604 10.7221C1.40433 10.6602 1.54049 10.6698 1.63194 10.6517C1.70511 10.6367 1.72946 10.6026 1.70101 10.5791C1.68475 10.5652 1.64819 10.5492 1.61974 10.5492C1.55267 10.5492 1.48561 10.5588 1.41854 10.5641C1.35148 10.5695 1.27425 10.5663 1.21938 10.5844C1.16654 10.6015 1.13197 10.6378 1.09742 10.6687C1.05881 10.7029 1.00804 10.7147 0.930809 10.7168C0.831227 10.7189 0.73165 10.7285 0.632067 10.736C0.522323 10.6944 0.40849 10.6538 0.302811 10.61C0.282488 10.6015 0.278401 10.5769 0.280434 10.5609C0.284498 10.5193 0.254022 10.4937 0.186956 10.4734C0.130051 10.4563 0.0833045 10.4317 0.0304647 10.4104C0.0711107 10.3816 0.115837 10.3538 0.148354 10.3228C0.219484 10.2577 0.308916 10.2107 0.46337 10.2129C0.524339 10.1712 0.573101 10.12 0.652361 10.0912C0.727556 10.0634 0.855597 10.0912 0.912501 10.0282C0.940953 9.99721 0.983655 9.96198 1.03853 9.94917C1.12592 9.92888 1.23972 9.93957 1.29053 9.87978C1.32102 9.84562 1.36571 9.81465 1.42464 9.80611C1.49171 9.7965 1.56079 9.79437 1.60957 9.77409C1.63599 9.76341 1.66444 9.74633 1.66444 9.73138C1.66444 9.72177 1.62383 9.70682 1.59538 9.70042C1.56896 9.69294 1.53437 9.68761 1.50388 9.68974C1.40227 9.69615 1.30269 9.70789 1.20107 9.7143C1.17262 9.71643 1.14011 9.70896 1.10963 9.70255C1.02021 9.68547 1.02629 9.66412 1.09742 9.62569C1.16855 9.58832 1.21939 9.54027 1.27832 9.4965C1.34336 9.48902 1.42464 9.49223 1.46935 9.47194C1.54454 9.43885 1.59737 9.3908 1.65834 9.34916C1.72541 9.34276 1.7945 9.34063 1.8575 9.32888C1.88392 9.32461 1.89612 9.30112 1.91848 9.28725C1.95913 9.26055 1.9937 9.22212 2.04857 9.20931C2.138 9.19009 2.24774 9.19756 2.30058 9.13884C2.33106 9.10468 2.37779 9.06839 2.43469 9.06625C2.59321 9.06198 2.66028 9.00325 2.74157 8.94773C2.80254 8.9061 2.93261 8.92745 2.99968 8.88582C3.04439 8.85913 3.07692 8.82603 3.12164 8.8004C3.13993 8.78973 3.17853 8.7844 3.20901 8.78119C3.37566 8.76518 3.54433 8.75343 3.71098 8.73635C3.7374 8.73314 3.76181 8.71714 3.78213 8.70433C3.82481 8.67657 3.8512 8.63813 3.90404 8.61998C3.95688 8.60183 4.03207 8.60183 4.0971 8.5965C4.30643 8.58048 4.3227 8.58474 4.41822 8.49399C4.49545 8.42033 4.68447 8.47265 4.74748 8.39151C4.78406 8.34453 4.85109 8.3061 4.971 8.30076C5.13968 8.29329 5.30632 8.273 5.47501 8.25912C5.6254 8.24631 5.62337 8.24631 5.78595 8.14702C5.85912 8.10218 5.96685 8.10859 6.06237 8.10005C6.16398 8.09151 6.25746 8.0787 6.30623 8.02532C6.35501 7.97301 6.44442 7.95591 6.54807 7.94844C6.64358 7.94097 6.75132 7.94631 6.82652 7.90361C7.00942 7.80112 7.00739 7.80004 7.13543 7.78937C7.33663 7.77228 7.53782 7.7552 7.73902 7.73705C7.87315 7.72531 8.01337 7.72318 8.13937 7.69969C8.23083 7.68261 8.27146 7.62282 8.3304 7.58118C8.49705 7.56517 8.66369 7.54915 8.83034 7.5342C9.06405 7.51285 9.29979 7.49364 9.53554 7.47335C9.63715 7.43278 9.65141 7.3431 9.82212 7.33883C9.92374 7.3367 10.0233 7.32282 10.1249 7.31428C10.2936 7.29933 10.4603 7.28011 10.6289 7.27264C10.757 7.2673 10.7793 7.20964 10.8464 7.17334C10.8687 7.16053 10.8891 7.14239 10.9155 7.13919C11.1797 7.10929 11.452 7.10289 11.7101 7.05911C11.7365 7.05484 11.7609 7.03242 11.767 7.01641C11.7711 7.00787 11.7365 6.99186 11.7142 6.98439C11.6877 6.97584 11.6532 6.9673 11.6247 6.96944C10.7854 7.04097 9.94609 7.11357 9.10675 7.1851C8.98888 7.19578 8.98888 7.1947 8.70232 7.31214C8.67794 7.32175 8.64945 7.33242 8.61897 7.33562C8.48484 7.34844 8.34868 7.35592 8.21658 7.37193C8.10886 7.38475 8.01947 7.37192 7.94225 7.33349C7.88737 7.30573 7.83044 7.29719 7.76134 7.29933C7.68412 7.30253 7.63334 7.31428 7.58863 7.34311C7.52969 7.38261 7.4992 7.43385 7.37523 7.44452C6.80415 7.49043 6.23304 7.54168 5.664 7.59079C5.58474 7.57584 5.54613 7.55342 5.56645 7.52673C5.57864 7.51072 5.60304 7.48937 5.62743 7.48723C5.86114 7.46481 6.09688 7.4456 6.3306 7.42425C6.36311 7.42104 6.40782 7.42317 6.42611 7.41249C6.51553 7.36445 6.54808 7.28651 6.71676 7.28118C6.81431 7.27797 6.91388 7.26196 7.00737 7.24702C7.03379 7.24275 7.05818 7.22032 7.06428 7.20431C7.06631 7.19577 7.03379 7.17975 7.0094 7.17228C6.91998 7.14131 6.81636 7.17869 6.72693 7.15734C6.69645 7.14987 6.65374 7.13919 6.64765 7.12638C6.64358 7.11463 6.67814 7.09541 6.70252 7.08367C6.72488 7.07299 6.75535 7.06339 6.78583 7.06018C7.05409 7.03563 7.3224 7.01 7.59066 6.99078C7.70041 6.98331 7.77762 6.95662 7.82639 6.90751C7.86297 6.87121 7.90768 6.852 7.97678 6.84666C8.44624 6.80716 8.91569 6.76338 9.38718 6.72708C9.50506 6.71854 9.56605 6.68332 9.61483 6.63741C9.65344 6.60111 9.69816 6.58829 9.77335 6.58189C10.446 6.52637 11.1147 6.46445 11.7873 6.41107C11.9113 6.40146 11.9479 6.35555 12.0109 6.31605C12.0333 6.30217 12.0475 6.28509 12.0759 6.27655C12.1044 6.26801 12.1409 6.26907 12.1755 6.26693C12.712 6.22102 13.2486 6.17192 13.7871 6.12922C13.9131 6.11961 13.9375 6.06622 14.0025 6.02885C14.0249 6.01711 14.0452 5.9979 14.0716 5.9947C14.474 5.9584 14.8764 5.92423 15.2788 5.889C15.5471 5.86551 15.8153 5.84202 16.0836 5.8196C16.2157 5.80893 16.2157 5.80785 16.3946 5.70643C16.4149 5.69469 16.4434 5.6808 16.4698 5.6776C17.242 5.60927 18.0123 5.54416 18.7845 5.4769C18.8496 5.47156 18.8963 5.44699 18.9288 5.4107C18.9613 5.3744 19.0081 5.34984 19.0711 5.3445C19.6747 5.29112 20.2783 5.23881 20.8839 5.18863C20.9937 5.18009 21.0709 5.15447 21.1197 5.10642C21.1562 5.07013 21.2009 5.05091 21.27 5.04558C21.8736 4.99433 22.4773 4.93987 23.0829 4.89076C23.1987 4.88115 23.2556 4.84486 23.3125 4.80215C23.3328 4.78721 23.3491 4.76265 23.3735 4.76052C23.6743 4.73062 23.973 4.69966 24.2758 4.67938C24.4018 4.67083 24.4445 4.62599 24.4953 4.58329C24.536 4.54912 24.5827 4.53738 24.66 4.53311C24.8286 4.5235 24.9953 4.50536 25.1599 4.48721C25.1843 4.48401 25.2148 4.46052 25.2168 4.44557C25.2209 4.41781 25.1741 4.39859 25.0969 4.38898C24.2921 4.45838 23.4853 4.52777 22.6805 4.59717C22.5484 4.60891 22.5484 4.60892 22.3695 4.71034C22.3492 4.72208 22.3207 4.73597 22.2923 4.73917C21.52 4.80643 20.7498 4.87262 19.9775 4.93988C19.9125 4.94522 19.8658 4.96978 19.8332 5.00607C19.8007 5.04237 19.7539 5.06693 19.6909 5.07227C18.9532 5.13632 18.2155 5.20145 17.4757 5.26231C17.366 5.27085 17.2888 5.29539 17.24 5.3445C17.2034 5.3808 17.1587 5.40003 17.0896 5.40536C16.3844 5.46515 15.6812 5.52814 14.974 5.58579C14.9028 5.59113 14.85 5.56016 14.8541 5.53134C14.8561 5.51639 14.8866 5.49185 14.911 5.48971C15.2788 5.45448 15.6447 5.41818 16.0145 5.39149C16.1385 5.38294 16.1751 5.33597 16.2381 5.29647C16.2584 5.28259 16.2747 5.26444 16.3011 5.25696C16.3295 5.24842 16.3661 5.24949 16.4007 5.24736C17.2725 5.17156 18.1444 5.09469 19.0183 5.02316C19.1443 5.01248 19.1686 4.96016 19.2337 4.9228C19.256 4.90999 19.2764 4.89077 19.3028 4.88864C19.5711 4.86302 19.8393 4.84059 20.1076 4.81817C20.577 4.7776 21.0465 4.73703 21.518 4.69646C21.6541 4.68472 21.6541 4.68471 21.8289 4.58436C21.8492 4.57261 21.8777 4.55768 21.9041 4.55554C23.1459 4.44771 24.3876 4.33988 25.6294 4.23312C25.6944 4.22778 25.7411 4.20322 25.7736 4.16692C25.8062 4.13169 25.8529 4.10607 25.9159 4.09966C27.5946 3.95447 29.2712 3.80926 30.9499 3.6662C31.0597 3.65659 31.1369 3.63417 31.1856 3.58399C31.2202 3.54769 31.2669 3.52848 31.336 3.52207C33.1814 3.363 35.0267 3.20392 36.8741 3.04378C38.1158 2.93702 39.3575 2.82812 40.5993 2.72349C40.7131 2.71388 40.774 2.68078 40.8309 2.63701C40.8492 2.62206 40.8675 2.59751 40.8919 2.59537C41.1581 2.56868 41.4244 2.54413 41.6906 2.51957C41.7739 2.5484 41.8572 2.57616 41.9406 2.60499C42.0036 2.56442 42.0646 2.52278 42.1276 2.48221C42.53 2.45125 42.9262 2.4032 43.3327 2.38826C43.3591 2.38719 43.3876 2.40748 43.416 2.41815C43.605 2.48541 43.7127 2.48008 43.8326 2.39039C43.8753 2.35837 43.9119 2.32954 43.9769 2.3242C44.1781 2.30499 44.3814 2.29217 44.5806 2.26975C44.6883 2.25801 44.7777 2.26868 44.8549 2.30712C44.9098 2.33488 44.9667 2.34663 45.0338 2.34022C45.4036 2.30819 45.7715 2.27723 46.1414 2.24306C46.1678 2.24093 46.1921 2.22277 46.2125 2.20996C46.2551 2.1822 46.2917 2.15231 46.3324 2.12349C46.3873 2.14164 46.4482 2.15552 46.4929 2.17901C46.5498 2.20677 46.6027 2.20676 46.6799 2.19929C48.1553 2.0701 49.6328 1.94413 51.1083 1.81388C51.2343 1.8032 51.2892 1.84804 51.3745 1.87153C51.403 1.88007 51.4314 1.89074 51.4619 1.89288C51.4944 1.89501 51.529 1.88861 51.5615 1.88541C52.6691 1.78932 53.7767 1.6943 54.8843 1.59821C55.0306 1.5854 55.0307 1.5854 55.2481 1.65159C55.2745 1.66014 55.3091 1.66975 55.3375 1.66654C55.8415 1.6249 56.3455 1.58007 56.8475 1.53736C56.9125 1.53203 56.9674 1.5491 57.0264 1.57366C57.1422 1.6217 57.1503 1.62171 57.2357 1.55124C57.2763 1.51815 57.319 1.49785 57.386 1.48824C57.4592 1.47757 57.5182 1.48078 57.5751 1.5C57.6564 1.52669 57.7153 1.57152 57.8393 1.55978C58.3758 1.5096 58.9144 1.46797 59.4489 1.41672C59.5708 1.40498 59.6358 1.44128 59.7171 1.46797C59.7456 1.47757 59.772 1.49252 59.8025 1.49573C59.833 1.49893 59.8695 1.49145 59.9021 1.48824C60.5727 1.43059 61.2454 1.37402 61.914 1.3121C62.04 1.30035 62.0949 1.34625 62.1803 1.36974C62.2087 1.37828 62.2412 1.39324 62.2676 1.3911C62.67 1.358 63.0745 1.32276 63.4769 1.28753C63.6212 1.27472 63.6211 1.27579 63.8406 1.34091C63.8671 1.34945 63.9016 1.358 63.9301 1.35586C64.3996 1.31636 64.871 1.27579 65.3405 1.23522C65.4848 1.22241 65.4848 1.22241 65.9014 1.27793C65.9319 1.2822 65.9644 1.28861 65.9949 1.28647C66.5314 1.24057 67.07 1.19572 67.6065 1.14661C67.7142 1.137 67.8036 1.14554 67.8809 1.18397C67.9357 1.21173 67.9926 1.22348 68.0597 1.21708C68.6633 1.16476 69.2689 1.11459 69.8705 1.05907C69.9863 1.04839 70.0615 1.07187 70.1428 1.10283C70.1692 1.11351 70.1957 1.12846 70.2262 1.13273C70.2566 1.137 70.2912 1.13273 70.3237 1.12952C70.9273 1.07721 71.5329 1.0281 72.1345 0.971518C72.2564 0.959774 72.3214 0.996071 72.4027 1.02276C72.4312 1.03237 72.4617 1.05159 72.486 1.05052C72.7218 1.03237 72.9575 1.01636 73.1912 0.989672C73.3173 0.974725 73.3721 1.02383 73.4575 1.04732C73.4859 1.05479 73.5184 1.07081 73.5449 1.06868C74.0489 1.02704 74.5529 0.983268 75.0549 0.938428C75.126 0.932023 75.1788 0.941622 75.2358 0.96938C75.311 1.00675 75.3984 1.02169 75.5081 1.00995C75.7418 0.985395 75.9776 0.968318 76.2133 0.948033C76.3515 0.936289 76.3515 0.936293 76.7742 0.991809C76.8047 0.99608 76.8372 1.00248 76.8677 1.00035C77.2701 0.966182 77.6745 0.933088 78.0749 0.895721C78.1826 0.885044 78.272 0.89465 78.3493 0.933085C78.4041 0.960843 78.459 0.972593 78.5281 0.966188C78.8979 0.934159 79.2658 0.902127 79.6357 0.870099C79.7699 0.858355 79.904 0.838065 80.0381 0.838065C80.1357 0.839132 80.2068 0.890376 80.2942 0.915999C80.3186 0.923473 80.3592 0.914942 80.3917 0.912806C80.8612 0.872237 81.3327 0.834866 81.8001 0.788958C81.922 0.777214 81.9871 0.813512 82.0684 0.840202C82.0968 0.849811 82.1273 0.869029 82.1517 0.867961C82.3204 0.856218 82.487 0.840202 82.6557 0.826322C82.8569 0.80924 83.0601 0.796429 83.2593 0.772941C83.4219 0.753724 83.4828 0.846604 83.6129 0.849807C83.7125 0.85301 83.8141 0.834863 83.9137 0.826322C84.1149 0.80924 84.3161 0.790025 84.5173 0.775079C84.5884 0.76974 84.6433 0.752651 84.6657 0.714217C84.6697 0.706743 84.6352 0.690736 84.6128 0.681127C84.3425 0.572229 84.3425 0.572224 84.0702 0.595712C83.9015 0.610659 83.7348 0.625608 83.5662 0.63842C83.5377 0.640555 83.5052 0.632014 83.4767 0.625609C83.3955 0.607459 83.4036 0.586109 83.4727 0.547674C83.5418 0.50924 83.5946 0.462268 83.6535 0.418496C83.7369 0.446254 83.8182 0.474002 83.9015 0.50176C83.9686 0.496422 84.0356 0.490026 84.1027 0.484688C84.438 0.45693 84.7734 0.428102 85.1087 0.402479C85.1331 0.400343 85.1635 0.421699 85.192 0.432375C85.2733 0.463336 85.3465 0.49002 85.4643 0.478276C85.7651 0.447315 86.0679 0.424895 86.3687 0.398204C86.5008 0.38646 86.5008 0.386461 86.7325 0.452654C86.7589 0.460127 86.7934 0.468669 86.8219 0.466534C87.1247 0.441978 87.4255 0.415291 87.7283 0.389668C87.7933 0.38433 87.8564 0.398208 87.9031 0.429169C87.9214 0.441981 87.9173 0.463329 87.9945 0.63842C88.2344 0.780414 88.399 0.765474 88.5656 0.752663C88.6368 0.747324 88.6997 0.741981 88.7465 0.720629C88.7709 0.708885 88.8014 0.6918 88.8014 0.677921C88.8014 0.667245 88.7567 0.65016 88.7282 0.648024C88.527 0.626672 88.336 0.671518 88.1388 0.681127C88.0474 0.685398 87.9681 0.64803 87.9519 0.587176C87.9478 0.570094 87.9417 0.551945 87.9356 0.534863C87.9295 0.517781 87.9255 0.499633 87.9194 0.482551C87.8401 0.477212 87.7934 0.496427 87.7588 0.532726C87.7304 0.562619 87.6897 0.596783 87.6348 0.612798C87.5799 0.62988 87.5048 0.626682 87.4377 0.632021C87.3727 0.637359 87.3015 0.651236 87.2406 0.643763C87.1796 0.635222 87.1308 0.604256 87.0739 0.585038C87.0475 0.57543 87.015 0.561556 86.9886 0.563691C86.7549 0.581841 86.5232 0.599983 86.2915 0.623471C86.1696 0.636283 86.1086 0.591449 86.0314 0.563691C85.9704 0.542339 85.9094 0.54767 85.8992 0.596781C85.8728 0.714219 85.9663 0.763327 86.1736 0.740907C86.3443 0.72169 86.4988 0.718497 86.6329 0.791096C86.6512 0.800704 86.6939 0.804973 86.7203 0.802838C86.8869 0.790026 87.0515 0.77401 87.2182 0.761199C87.2487 0.759064 87.2812 0.763327 87.3097 0.767598C87.7243 0.82525 87.7243 0.826323 87.8645 0.813511C87.9316 0.807106 87.9966 0.801767 87.9905 0.639488C88.1185 0.465465 88.3218 0.453724 88.5189 0.428101C88.6469 0.412086 88.7018 0.459064 88.7851 0.483619C88.8135 0.49216 88.8441 0.509239 88.8705 0.507104C89.3074 0.471872 89.7423 0.4345 90.1772 0.394998C90.2504 0.388592 90.3032 0.394999 90.3601 0.422757C90.4333 0.457989 90.5146 0.480414 90.6304 0.467602C90.8621 0.441979 91.0979 0.425969 91.3336 0.404616C91.4535 0.39394 91.4535 0.393929 91.6954 0.460122C91.7218 0.467595 91.7563 0.476136 91.7848 0.474001C92.0205 0.455852 92.2543 0.433438 92.488 0.414221C92.553 0.408883 92.6119 0.423828 92.6627 0.452654C92.7135 0.48148 92.7745 0.496425 92.8375 0.491087C93.0733 0.47187 93.307 0.450524 93.5407 0.431307C93.5692 0.429171 93.6037 0.436644 93.6301 0.444118C93.8781 0.51031 93.8781 0.510299 93.9919 0.499623C94.1585 0.483609 94.3292 0.476144 94.4938 0.454791C94.6544 0.433439 94.7377 0.495356 94.8475 0.52952C95.1482 0.504964 95.451 0.484685 95.7498 0.454791C95.8717 0.44198 95.9368 0.477208 96.0181 0.504966C96.0465 0.514575 96.075 0.534862 96.1014 0.533794C96.203 0.529524 96.3026 0.517782 96.4022 0.509241C96.5018 0.5007 96.6034 0.49216 96.703 0.483619C96.8168 0.51458 96.892 0.587178 97.0546 0.562622C97.1521 0.547676 97.2558 0.544473 97.3553 0.535932C97.4549 0.527391 97.5565 0.518851 97.6561 0.51031C97.7232 0.504972 97.7923 0.501764 97.8573 0.492155C97.9772 0.476141 98.0362 0.528461 98.1215 0.551949C98.15 0.559422 98.1825 0.572225 98.2089 0.57009C98.4101 0.555143 98.6133 0.542333 98.8104 0.517777C98.9629 0.49856 99.0665 0.530593 99.1742 0.575433C99.1966 0.585042 99.2352 0.59038 99.2636 0.588244C99.4994 0.570095 99.7331 0.547668 99.9668 0.528451C100.03 0.523113 100.091 0.540194 100.142 0.567953C100.194 0.596779 100.253 0.610668 100.318 0.60533C100.552 0.586113 100.788 0.564754 101.022 0.545537C101.05 0.543401 101.085 0.551944 101.111 0.560485C101.339 0.626678 101.339 0.627746 101.473 0.614935C101.505 0.611732 101.54 0.609588 101.572 0.606386C101.739 0.591439 101.912 0.586108 102.074 0.560485C102.261 0.531659 102.397 0.56796 102.53 0.628815C102.696 0.616003 102.867 0.608528 103.03 0.587176C103.151 0.571161 103.216 0.611729 103.298 0.63842C103.326 0.648028 103.357 0.667245 103.381 0.66511C103.617 0.64696 103.853 0.630952 104.084 0.604261C104.21 0.589315 104.265 0.637349 104.35 0.661904C104.379 0.670445 104.409 0.6854 104.436 0.683264C104.57 0.674723 104.704 0.661906 104.838 0.650162C104.995 0.636283 104.995 0.637349 105.202 0.702474C105.3 0.733435 105.397 0.708879 105.493 0.701406C105.594 0.692865 105.69 0.686461 105.771 0.730234C105.822 0.757992 105.883 0.775074 105.946 0.770804C106.08 0.761195 106.216 0.751591 106.348 0.735577C106.454 0.722766 106.545 0.731302 106.623 0.770804C106.677 0.798562 106.734 0.81245 106.801 0.806044C107.102 0.780421 107.405 0.75372 107.706 0.729165C107.732 0.72703 107.769 0.736642 107.793 0.746251C107.85 0.765468 107.905 0.786816 107.96 0.808168C108.092 0.79856 108.228 0.7943 108.358 0.779353C108.496 0.764407 108.622 0.759067 108.73 0.817786C108.752 0.830598 108.785 0.848737 108.811 0.84767C108.913 0.843399 109.013 0.832726 109.112 0.824185C109.212 0.815644 109.313 0.807104 109.413 0.798563C109.529 0.825254 109.602 0.902122 109.765 0.877566C109.862 0.86262 109.966 0.859417 110.065 0.850876C110.165 0.842335 110.267 0.832727 110.366 0.825254C110.399 0.823119 110.435 0.817777 110.464 0.822048C110.494 0.826318 110.521 0.841268 110.547 0.851944C110.628 0.882906 110.703 0.91387 110.819 0.895721C110.917 0.880774 111.021 0.87757 111.12 0.867961C111.256 0.856218 111.256 0.85622 111.482 0.92348C111.573 0.951238 111.677 0.914941 111.764 0.938428C111.823 0.954443 111.874 0.981128 111.931 0.999277C111.955 1.00675 111.994 1.00995 112.022 1.00781C112.157 0.998205 112.293 0.988601 112.425 0.972587C112.533 0.959775 112.622 0.972585 112.697 1.01102C112.752 1.03878 112.807 1.05053 112.876 1.04412C113.211 1.01423 113.547 0.988597 113.88 0.955501C113.994 0.943757 114.085 0.961911 114.148 1.00035C114.256 1.06654 114.408 0.988603 114.52 1.04198C114.589 1.07508 114.658 1.11352 114.784 1.0975C115.016 1.06975 115.252 1.05479 115.485 1.03557C115.569 1.0644 115.652 1.09323 115.737 1.12206C115.872 1.11031 116.006 1.09856 116.14 1.08789C116.239 1.07934 116.341 1.06974 116.441 1.06226C116.473 1.06013 116.508 1.05586 116.538 1.06119C116.569 1.06653 116.593 1.08042 116.622 1.09109C116.762 1.1434 116.762 1.14448 116.993 1.12313C117.093 1.11352 117.189 1.10711 117.272 1.14982C117.349 1.18932 117.441 1.19679 117.546 1.18504C117.745 1.16369 117.947 1.14768 118.15 1.13273C118.213 1.12739 118.272 1.14554 118.325 1.1733C118.404 1.21707 118.501 1.2128 118.601 1.20106C118.733 1.18611 118.863 1.17117 118.975 1.23096C118.997 1.24377 119.032 1.26191 119.056 1.26084C119.223 1.2523 119.392 1.2459 119.554 1.22561C119.717 1.20533 119.796 1.27152 119.908 1.30355C120.074 1.28967 120.243 1.27579 120.41 1.26191C120.442 1.25871 120.481 1.2491 120.509 1.25444C120.629 1.27686 120.698 1.35693 120.863 1.33238C120.958 1.3185 121.062 1.31423 121.162 1.31103C121.188 1.30996 121.223 1.3281 121.241 1.34198C121.251 1.34945 121.241 1.36974 121.229 1.38041C121.192 1.41031 121.147 1.43807 121.115 1.46903C121.111 1.4733 121.149 1.49251 121.172 1.50106C121.227 1.52027 121.29 1.51708 121.363 1.50854C121.426 1.50106 121.491 1.51601 121.536 1.54804C121.554 1.56085 121.548 1.5822 121.509 1.65266C121.509 1.70498 121.552 1.68148 121.566 1.64732C121.588 1.59821 121.546 1.5822 121.464 1.60889C121.408 1.6281 121.379 1.65586 121.393 1.67828C121.402 1.69003 121.44 1.70498 121.509 1.65266C121.688 1.58861 121.822 1.57687 121.956 1.56512C121.991 1.56192 122.032 1.55124 122.056 1.55764C122.143 1.58327 122.225 1.61423 122.31 1.64306C122.408 1.63665 122.499 1.62063 122.594 1.66227C122.729 1.72099 122.735 1.71565 122.865 1.70391C122.932 1.6975 122.999 1.69217 123.066 1.68683C123.133 1.6815 123.186 1.69751 123.245 1.72206C123.365 1.77224 123.375 1.77223 123.454 1.70391C123.501 1.66227 123.533 1.64839 123.592 1.66761C123.787 1.73274 123.789 1.737 123.956 1.71779C124.094 1.70177 124.224 1.6975 124.326 1.75836C124.395 1.80106 124.417 1.79145 124.472 1.74661C124.619 1.62811 124.686 1.63024 124.96 1.71565C125.088 1.75622 125.22 1.71245 125.35 1.70711C125.46 1.70284 125.537 1.72846 125.545 1.79572C125.551 1.83736 125.57 1.86726 125.643 1.88114C125.671 1.88647 125.706 1.89394 125.734 1.89181C125.903 1.879 126.07 1.86405 126.238 1.8491C126.324 1.84163 126.37 1.79146 126.354 1.72527C126.336 1.6548 126.368 1.62917 126.49 1.60889C126.564 1.59714 126.623 1.59929 126.681 1.6185C126.746 1.63986 126.728 1.65907 126.671 1.69751C126.535 1.79146 126.551 1.8491 126.726 1.91423C126.787 1.93665 126.836 1.95694 126.85 1.99004C126.858 2.00712 126.85 2.02954 126.868 2.04235C126.968 2.11388 127.106 2.15979 127.261 2.19396C127.409 2.16513 127.511 2.21316 127.624 2.2516C127.714 2.28149 127.819 2.25588 127.915 2.2452C128.023 2.23346 128.112 2.24199 128.189 2.2815C128.244 2.30925 128.301 2.32206 128.368 2.31672C128.502 2.30498 128.639 2.29751 128.771 2.28043C128.884 2.26548 128.97 2.28683 129.041 2.32313C129.13 2.36904 129.23 2.33808 129.323 2.34448C129.449 2.35195 129.512 2.44697 129.677 2.42135C129.775 2.4064 129.876 2.40106 129.978 2.39679C130.004 2.39573 130.037 2.41388 130.059 2.42669C130.167 2.48541 130.293 2.48221 130.431 2.46512C130.527 2.45338 130.62 2.44271 130.713 2.48328C130.868 2.55161 131.039 2.6114 131.201 2.67439C131.224 2.7235 131.207 2.78114 131.323 2.80996C131.384 2.82491 131.441 2.84734 131.488 2.87189C131.545 2.90072 131.598 2.9082 131.671 2.90072C131.803 2.88578 131.941 2.88256 132.071 2.86335C132.191 2.84626 132.266 2.88151 132.339 2.9146C132.398 2.94129 132.453 2.9541 132.524 2.93488C132.597 2.91673 132.65 2.92847 132.709 2.9573C132.793 2.9968 132.799 2.99253 133.075 3.00428C133.104 3.00535 133.138 3.02135 133.154 3.03523C133.162 3.0427 133.144 3.06407 133.13 3.07475C133.112 3.08756 133.083 3.10249 133.057 3.1057C132.756 3.13346 132.453 3.15801 132.152 3.18577C132.122 3.18897 132.089 3.19645 132.067 3.20713C132.043 3.21887 132.012 3.23488 132.012 3.24982C132.012 3.2605 132.053 3.27332 132.081 3.28079C132.171 3.30535 132.276 3.26798 132.364 3.29574C132.423 3.31389 132.471 3.33951 132.53 3.35659C132.555 3.36406 132.593 3.363 132.624 3.36086C132.725 3.35339 132.825 3.34271 132.927 3.33631C132.955 3.33524 132.988 3.34592 133.014 3.35446C133.209 3.41852 133.209 3.41852 133.378 3.40464C133.445 3.3993 133.516 3.38328 133.579 3.38969C133.64 3.3961 133.693 3.42492 133.748 3.44307C133.862 3.48151 133.969 3.51887 133.977 3.60215C133.981 3.63417 134.048 3.66193 134.116 3.66406C134.181 3.6662 134.25 3.65447 134.317 3.64806C134.475 3.63525 134.475 3.63525 134.681 3.70037C134.737 3.71852 134.798 3.72065 134.872 3.70998C134.9 3.70571 134.935 3.70998 134.965 3.71532C135.065 3.73133 135.065 3.75161 135 3.79005C134.908 3.84663 134.916 3.85197 135.172 3.90002C135.27 3.91817 135.345 3.95233 135.426 3.98223C135.558 4.03027 135.556 4.03026 135.469 4.09325C135.449 4.10713 135.43 4.12208 135.41 4.13703C135.351 4.17866 135.304 4.2235 135.183 4.22777C135.048 4.23204 134.914 4.24913 134.78 4.26087C134.65 4.27262 134.616 4.29823 134.628 4.37083C134.642 4.45838 134.668 4.46799 134.902 4.46692C134.969 4.46692 135.028 4.47546 135.079 4.50428C135.054 4.53845 135.01 4.56514 134.945 4.57154C134.778 4.58756 134.609 4.60144 134.443 4.61532C134.309 4.62706 134.175 4.6388 134.04 4.65055C133.957 4.65802 133.904 4.71354 133.927 4.77546C133.939 4.8107 133.949 4.84593 133.959 4.88116C133.981 4.95162 134.024 4.96978 134.16 4.96657C134.195 4.96551 134.227 4.95696 134.26 4.95909C134.392 4.96657 134.455 5.05518 134.613 5.03703C134.746 5.02208 134.884 5.01888 135.014 4.99966C135.134 4.98258 135.201 5.02103 135.284 5.04985C135.313 5.05946 135.343 5.07973 135.367 5.07867C135.536 5.06692 135.705 5.05519 135.869 5.0349C135.947 5.02636 135.993 5.03276 136.054 5.05839C136.201 5.12031 136.205 5.11711 136.422 5.09789C136.581 5.08294 136.583 5.08508 136.786 5.1502C136.843 5.16835 136.904 5.16835 136.977 5.15981C137.073 5.14913 137.172 5.13205 137.272 5.14806C137.302 5.15233 137.341 5.16515 137.351 5.17903C137.357 5.18864 137.329 5.21213 137.304 5.2196C137.125 5.27512 136.916 5.26551 136.721 5.28793C136.66 5.29433 136.599 5.27405 136.548 5.24522C136.495 5.2164 136.438 5.20466 136.369 5.20999C136.235 5.22174 136.099 5.22921 135.967 5.24629C135.853 5.26124 135.774 5.23668 135.695 5.20358C135.668 5.19291 135.638 5.17262 135.611 5.17369C135.311 5.19504 135.008 5.2164 134.709 5.24629C134.589 5.2591 134.52 5.22494 134.439 5.19612C134.41 5.18651 134.382 5.16622 134.355 5.16729C134.254 5.17156 134.154 5.1833 134.053 5.19184C133.683 5.22387 133.315 5.2559 132.945 5.28579C132.921 5.28793 132.89 5.2655 132.862 5.2559C132.807 5.23668 132.75 5.21853 132.693 5.20038C132.591 5.20892 132.492 5.21959 132.39 5.226C132.317 5.23027 132.252 5.24522 132.242 5.28579C132.236 5.31248 132.303 5.33703 132.374 5.3349C132.443 5.33276 132.512 5.31995 132.569 5.33383C132.852 5.40216 132.852 5.40323 133.028 5.38935C133.183 5.37654 133.166 5.36586 133.303 5.42457C133.362 5.4502 133.414 5.46515 133.482 5.45875C133.648 5.4438 133.817 5.42885 133.986 5.41604C134.012 5.4139 134.046 5.42458 134.073 5.43312C134.272 5.49718 134.272 5.49931 134.437 5.4833C134.652 5.46408 134.66 5.45874 134.805 5.52387C134.904 5.56871 134.996 5.53775 135.091 5.53561C135.201 5.57725 135.321 5.61462 135.42 5.6616C135.538 5.71711 135.662 5.7075 135.796 5.69148C135.896 5.67974 135.993 5.67547 136.075 5.71924C136.152 5.75981 136.245 5.76409 136.351 5.75341C136.447 5.7438 136.544 5.72351 136.644 5.747C136.67 5.75341 136.711 5.76942 136.709 5.77903C136.707 5.79398 136.68 5.81534 136.654 5.82174C136.467 5.86551 136.262 5.86444 136.065 5.88473C136.038 5.88793 136.004 5.87618 135.977 5.86764C135.92 5.84842 135.865 5.82601 135.811 5.80572C135.711 5.81213 135.609 5.81426 135.512 5.82707C135.437 5.83668 135.38 5.83562 135.325 5.81C135.274 5.78651 135.219 5.75768 135.158 5.75021C135.097 5.74273 135.026 5.75875 134.959 5.76515C134.892 5.77156 134.815 5.76835 134.762 5.78543C134.709 5.80251 134.676 5.83989 134.642 5.86978C134.603 5.90288 134.55 5.91356 134.473 5.91676C134.402 5.91996 134.345 5.91569 134.292 5.8858C134.27 5.87298 134.24 5.86337 134.209 5.85483C134.181 5.84736 134.148 5.83561 134.122 5.83775C133.819 5.8623 133.518 5.889 133.215 5.91462C133.065 5.92744 133.067 5.92743 132.754 5.86444C132.725 5.8591 132.691 5.85163 132.662 5.85376C132.494 5.86657 132.327 5.88152 132.158 5.89647C131.988 5.91142 131.99 5.90928 131.699 5.84202C131.646 5.82921 131.569 5.84629 131.506 5.84416C131.374 5.83882 131.309 5.74914 131.155 5.76622C131.022 5.78117 130.884 5.78437 130.752 5.80359C130.632 5.82067 130.563 5.78331 130.482 5.75448C130.453 5.74487 130.423 5.72352 130.398 5.72565C130.096 5.74914 129.795 5.77583 129.393 5.77903C129.293 5.77903 129.338 5.80146 129.403 5.80893C129.496 5.82067 129.527 5.79825 129.476 5.75555C129.439 5.72566 129.386 5.7107 129.344 5.71817C129.321 5.72244 129.293 5.74273 129.393 5.77903C129.498 5.8196 129.492 5.84202 129.51 5.85483C129.555 5.88579 129.618 5.8986 129.683 5.89433C129.785 5.88686 129.884 5.87618 129.986 5.86978C130.014 5.86764 130.049 5.87512 130.075 5.88366C130.299 5.94985 130.301 5.95413 130.539 5.9285C130.614 5.92103 130.669 5.92103 130.728 5.94131C130.809 5.96907 130.868 6.01604 130.992 6.00109C131.157 5.98081 131.325 5.96908 131.494 5.95733C131.52 5.9552 131.549 5.97441 131.579 5.98295C131.663 6.00858 131.724 6.05662 131.848 6.03633C131.943 6.02032 132.047 6.01604 132.148 6.01284C132.175 6.01177 132.215 6.02885 132.228 6.04273C132.252 6.06729 132.221 6.09612 132.152 6.11641C132.124 6.12495 132.085 6.12281 132.053 6.12601C131.919 6.13776 131.785 6.15056 131.65 6.16017C131.579 6.16551 131.512 6.18153 131.504 6.22103C131.498 6.24772 131.571 6.2712 131.64 6.26907C131.742 6.26587 131.843 6.25733 131.941 6.24345C132.114 6.21996 132.264 6.22636 132.404 6.29362C132.504 6.3406 132.498 6.32352 132.604 6.46232C132.63 6.49755 132.709 6.50075 132.778 6.49861C132.945 6.49327 133.022 6.50929 133.008 6.54239C132.99 6.58296 132.931 6.59576 132.856 6.6011C132.721 6.60964 132.587 6.62353 132.453 6.63527C132.421 6.63847 132.384 6.64487 132.354 6.64274C132.323 6.6406 132.295 6.62779 132.268 6.61818C132.211 6.5979 132.163 6.56693 132.102 6.55946C132.041 6.55199 131.969 6.568 131.902 6.57441C131.835 6.57975 131.764 6.59576 131.703 6.58829C131.642 6.58081 131.591 6.54879 131.537 6.52958C131.51 6.51997 131.478 6.50501 131.451 6.50608C131.317 6.51462 131.183 6.52851 131.049 6.53918C130.884 6.55306 130.884 6.55306 130.685 6.48687C130.628 6.46765 130.569 6.46872 130.494 6.47726C130.331 6.49435 130.329 6.49114 130.033 6.42921C130.004 6.42281 129.97 6.41534 129.941 6.41854C129.638 6.44309 129.338 6.46978 129.037 6.49541C128.779 6.51783 128.779 6.51783 128.636 6.6246C128.531 6.7036 128.529 6.7036 128.632 6.7399C128.716 6.76979 128.791 6.81356 128.882 6.82957C128.968 6.84452 129.073 6.79648 129.167 6.84559C129.214 6.87014 129.275 6.89684 129.334 6.90111C129.427 6.90645 129.527 6.87548 129.616 6.92246C129.661 6.94594 129.728 6.97051 129.785 6.97157C129.884 6.97371 129.986 6.95662 130.086 6.94915C130.116 6.94701 130.151 6.94701 130.179 6.95235C130.21 6.95876 130.236 6.97157 130.262 6.98225C130.344 7.01855 130.431 7.03562 130.537 7.01748C130.709 6.98758 130.864 7.00253 130.998 7.07086C131.016 7.08047 131.061 7.08154 131.089 7.07727C131.163 7.06659 131.226 7.06552 131.281 7.0858C131.303 7.09435 131.335 7.10929 131.331 7.11889C131.325 7.13491 131.301 7.15626 131.274 7.1616C131.083 7.1979 130.878 7.20218 130.681 7.22139C130.655 7.22353 130.622 7.20964 130.596 7.20004C130.539 7.18082 130.49 7.1488 130.429 7.14132C130.368 7.13385 130.297 7.14773 130.23 7.15307C130.163 7.1584 130.092 7.17442 130.031 7.16801C129.97 7.16054 129.913 7.13385 129.864 7.11036C129.807 7.08367 129.752 7.08047 129.677 7.09115C129.579 7.10503 129.478 7.10716 129.378 7.11463C129.323 7.09435 129.269 7.07192 129.212 7.0527C129.185 7.04309 129.153 7.03136 129.124 7.03242C128.99 7.04096 128.856 7.05377 128.722 7.06551C128.588 7.07726 128.588 7.07727 128.36 7.01108C128.334 7.0036 128.299 6.99506 128.271 6.9972C128.102 7.01001 127.935 7.02601 127.767 7.03882C127.702 7.04416 127.643 7.02922 127.59 7.00039C127.539 6.97156 127.478 6.95555 127.415 6.96089C127.147 6.98331 126.879 7.00466 126.61 7.03135C126.503 7.04203 126.411 7.03242 126.338 6.99399C126.253 6.95022 126.157 6.9609 126.058 6.96944C125.832 6.99079 125.83 6.98972 125.686 6.93527C125.657 6.92459 125.629 6.9043 125.602 6.90537C125.369 6.92138 125.133 6.93633 124.901 6.96196C124.779 6.97584 124.714 6.93847 124.633 6.91071C124.604 6.9011 124.574 6.88082 124.55 6.88295C124.381 6.8947 124.212 6.90538 124.048 6.92673C123.883 6.94808 123.82 6.8488 123.696 6.84986C123.527 6.85093 123.361 6.87549 123.194 6.89043C123.06 6.90218 122.926 6.91392 122.792 6.92566C122.657 6.93741 122.523 6.94701 122.389 6.96089C122.318 6.96836 122.265 6.95875 122.206 6.93206C122.131 6.89683 122.042 6.86908 121.96 6.83705C121.836 6.79115 121.836 6.79114 121.686 6.80395C121.654 6.80715 121.619 6.80928 121.586 6.81249C121.341 6.83597 121.341 6.83385 121.028 6.76659C121.013 6.76338 120.977 6.77513 120.963 6.78367C120.92 6.81143 120.881 6.84132 120.843 6.87014C120.788 6.85306 120.721 6.84345 120.684 6.8189C120.58 6.7495 120.418 6.84452 120.312 6.77619C120.274 6.75057 120.206 6.72815 120.146 6.72174C120.083 6.71534 120.011 6.73028 119.946 6.73669C119.778 6.7527 119.778 6.75164 119.633 6.84666C119.56 6.89363 119.455 6.88509 119.359 6.89576C119.259 6.90751 119.164 6.91392 119.081 6.87014C119.005 6.83064 118.914 6.82104 118.806 6.83385C118.674 6.84986 118.538 6.85947 118.404 6.86907C118.375 6.87121 118.341 6.86587 118.312 6.85947C118.001 6.79648 118.001 6.79541 117.851 6.80929C117.784 6.8157 117.715 6.81783 117.65 6.82744C117.54 6.84452 117.457 6.8221 117.378 6.78793C117.351 6.77726 117.321 6.75698 117.294 6.75805C117.16 6.76339 117.028 6.77299 116.896 6.7826C116.794 6.79008 116.693 6.79435 116.595 6.80929C116.433 6.83385 116.353 6.76444 116.241 6.73241C116.075 6.74629 115.906 6.75591 115.74 6.77512C115.662 6.78366 115.611 6.78047 115.553 6.75484C115.477 6.72282 115.408 6.68652 115.286 6.70253C115.124 6.72388 114.953 6.73136 114.786 6.74417C114.675 6.71107 114.593 6.6438 114.433 6.66836C114.335 6.68331 114.232 6.68651 114.132 6.69505C113.998 6.70679 113.864 6.71748 113.73 6.73029C113.585 6.7431 113.587 6.7399 113.366 6.67691C113.238 6.63954 113.106 6.68118 112.976 6.68758C112.874 6.69292 112.823 6.74203 112.848 6.80502C112.872 6.86801 112.817 6.91712 112.724 6.92566C112.49 6.94595 112.254 6.96729 112.02 6.98544C111.992 6.98758 111.957 6.9801 111.931 6.97263C111.681 6.90537 111.681 6.90645 111.569 6.91606C111.403 6.93207 111.232 6.9406 111.067 6.96089C110.953 6.97477 110.87 6.95236 110.797 6.91606C110.74 6.8883 110.687 6.88189 110.614 6.8883C109.809 6.95983 109.004 7.02602 108.202 7.09968C108.082 7.11036 108.013 7.0794 107.931 7.05058C107.903 7.04097 107.877 7.02068 107.848 7.02068C107.781 7.02068 107.714 7.03029 107.647 7.0367C107.346 7.06232 107.045 7.09328 106.743 7.1125C106.614 7.12104 106.58 7.17015 106.525 7.21072C106.482 7.24168 106.434 7.25449 106.358 7.25876C106.285 7.26303 106.232 7.25769 106.175 7.22993C106.102 7.19363 106.019 7.17121 105.905 7.18616C105.773 7.20324 105.639 7.21072 105.503 7.22246C105.434 7.2278 105.381 7.24701 105.359 7.28545C105.354 7.29186 105.397 7.30788 105.422 7.31748C105.503 7.34951 105.58 7.38688 105.671 7.4093C105.765 7.43172 105.867 7.40609 105.964 7.39968C105.999 7.39754 106.031 7.39114 106.064 7.39221C106.094 7.39328 106.131 7.39862 106.153 7.40823C106.259 7.45627 106.371 7.48937 106.517 7.46054C106.643 7.47442 106.708 7.56303 106.869 7.53954C106.966 7.52567 107.068 7.51926 107.169 7.51392C107.196 7.51286 107.224 7.53207 107.253 7.54168C107.334 7.56837 107.399 7.61108 107.521 7.59293C107.651 7.57371 107.789 7.57051 107.921 7.55556C107.994 7.54702 108.047 7.55449 108.104 7.58225C108.177 7.61748 108.261 7.64417 108.374 7.62708C108.472 7.61214 108.576 7.60893 108.675 7.59933C108.805 7.58758 108.805 7.58865 109.037 7.65484C109.063 7.66232 109.098 7.67086 109.126 7.66872C109.295 7.65591 109.462 7.6399 109.63 7.62708C109.695 7.62175 109.758 7.63562 109.803 7.66659C109.821 7.6794 109.815 7.70076 109.821 7.71891C109.486 7.74774 109.151 7.77229 108.817 7.80752C108.691 7.8214 108.635 7.77763 108.551 7.75307C108.523 7.74453 108.492 7.72638 108.466 7.72852C108.23 7.74667 107.996 7.76588 107.763 7.78937C107.69 7.79684 107.635 7.79257 107.58 7.76161C107.44 7.6794 107.269 7.72424 107.11 7.73598C106.988 7.74452 106.95 7.77763 106.964 7.84809C106.982 7.93136 107.055 7.95699 107.242 7.94204C107.31 7.9367 107.377 7.92923 107.444 7.92496C107.509 7.92069 107.568 7.93456 107.62 7.96339C107.671 7.99221 107.732 8.00716 107.795 8.00289C107.929 7.99328 108.066 7.98368 108.196 7.96766C108.303 7.95485 108.393 7.96553 108.468 8.00503C108.551 8.0488 108.649 8.03919 108.746 8.02958C108.974 8.00823 108.976 8.0093 109.118 8.06268C109.147 8.07336 109.175 8.09365 109.202 8.09258C109.435 8.07657 109.671 8.06268 109.901 8.03706C110.021 8.02425 110.09 8.05841 110.169 8.08617C110.197 8.09578 110.226 8.11713 110.252 8.115C110.421 8.10325 110.59 8.0915 110.754 8.07122C110.832 8.06161 110.878 8.06801 110.941 8.09364C111.092 8.15663 111.096 8.15449 111.309 8.13421C111.374 8.1278 111.445 8.11606 111.506 8.1246C111.567 8.13314 111.616 8.16411 111.673 8.18333C111.699 8.19187 111.732 8.2036 111.76 8.20147C111.894 8.19293 112.029 8.18012 112.163 8.16838C112.289 8.15663 112.289 8.1577 112.524 8.2239C112.62 8.25165 112.72 8.22816 112.815 8.21962C112.919 8.21001 113.012 8.21002 113.091 8.25166C113.171 8.29329 113.266 8.29115 113.368 8.28261C113.463 8.27407 113.561 8.25059 113.658 8.27941C113.882 8.34561 113.882 8.34666 114.02 8.33385C114.221 8.3157 114.421 8.29862 114.624 8.28261C114.65 8.28047 114.685 8.29329 114.711 8.30183C114.768 8.32105 114.817 8.35307 114.878 8.36054C114.939 8.36908 115.01 8.35627 115.075 8.34987C115.284 8.32958 115.299 8.32211 115.439 8.39258C115.557 8.45023 115.703 8.36695 115.813 8.43315C115.876 8.47051 115.961 8.5004 116.079 8.48225C116.176 8.46731 116.278 8.46303 116.38 8.45449C116.54 8.44061 116.54 8.44169 116.743 8.50575C116.77 8.51429 116.804 8.52496 116.831 8.52282C116.965 8.51428 117.101 8.50681 117.231 8.4876C117.384 8.46518 117.481 8.50575 117.595 8.54525C117.684 8.57621 117.79 8.55058 117.886 8.53991C117.989 8.52923 118.083 8.53243 118.16 8.57407C118.241 8.61677 118.337 8.61144 118.438 8.60289C118.534 8.59542 118.631 8.57086 118.729 8.60076C118.938 8.66695 118.938 8.66695 119.091 8.65414C119.225 8.64239 119.359 8.62959 119.493 8.62105C119.52 8.61891 119.552 8.63279 119.579 8.6424C119.635 8.66161 119.684 8.69365 119.745 8.70112C119.806 8.70859 119.877 8.69472 119.944 8.68938C120.011 8.68404 120.083 8.66802 120.143 8.67443C120.204 8.68084 120.261 8.70753 120.31 8.73102C120.367 8.75878 120.42 8.76197 120.497 8.7513C120.595 8.73742 120.696 8.73422 120.796 8.72674C120.851 8.74703 120.908 8.76731 120.96 8.78973C121.015 8.81322 121.074 8.81108 121.149 8.80361C121.399 8.77799 121.401 8.78119 121.611 8.84738C121.706 8.87728 121.806 8.85272 121.901 8.84525C122.003 8.83671 122.099 8.83244 122.178 8.87514C122.255 8.91571 122.351 8.92105 122.452 8.90823C122.517 8.89969 122.586 8.89436 122.653 8.89116C122.684 8.89009 122.72 8.89436 122.743 8.9029C122.851 8.94774 122.956 8.98832 123.105 8.95949C123.235 8.96803 123.3 9.05558 123.456 9.03849C123.588 9.02355 123.726 9.02033 123.857 9.00112C123.976 8.98403 124.062 9.01394 124.123 9.0513C124.232 9.1175 124.387 9.02782 124.497 9.09294C124.56 9.13031 124.641 9.1602 124.763 9.14419C124.897 9.12711 124.94 9.14952 124.978 9.21678C125.001 9.25521 124.997 9.28618 124.956 9.31607C124.915 9.34703 124.871 9.3417 124.806 9.30647C124.73 9.26697 124.641 9.25948 124.533 9.26802C124.428 9.27656 124.363 9.22106 124.275 9.19971C124.188 9.17729 124.084 9.21465 123.993 9.18583C123.777 9.11857 123.777 9.11856 123.631 9.13138C123.531 9.13992 123.428 9.14419 123.33 9.15914C123.214 9.17729 123.139 9.14418 123.06 9.11429C123.031 9.10361 123.003 9.08333 122.979 9.08439C122.745 9.10041 122.509 9.11536 122.277 9.14205C122.155 9.15593 122.09 9.1175 122.009 9.09081C121.981 9.0812 121.95 9.06198 121.926 9.06412C121.725 9.07906 121.525 9.09828 121.324 9.11643C121.286 9.14525 121.243 9.17301 121.206 9.20397C121.168 9.236 121.115 9.24988 121.038 9.24881C120.91 9.24881 120.784 9.29365 120.656 9.23707C120.524 9.17942 120.513 9.18262 120.385 9.1965C120.223 9.21465 120.05 9.21038 119.898 9.25202C119.871 9.25949 119.843 9.27977 119.843 9.29471C119.841 9.30432 119.883 9.31821 119.91 9.32675C119.999 9.35237 120.103 9.315 120.192 9.34169C120.251 9.35878 120.3 9.38439 120.359 9.40254C120.383 9.41002 120.42 9.40895 120.452 9.40789C120.487 9.40682 120.519 9.39935 120.552 9.40042C120.582 9.40149 120.615 9.40788 120.639 9.41749C120.751 9.45806 120.869 9.49543 120.969 9.54348C121.066 9.59045 121.158 9.55842 121.255 9.55629C121.645 9.63102 121.645 9.63209 121.908 9.6086C121.973 9.60326 122.04 9.59686 122.107 9.59793C122.135 9.59793 122.162 9.61714 122.19 9.62781C122.271 9.65984 122.349 9.68867 122.462 9.67159C122.56 9.65664 122.664 9.65344 122.763 9.64383C122.897 9.63208 122.897 9.63209 123.125 9.69935C123.182 9.71643 123.243 9.7143 123.316 9.70576C123.379 9.69829 123.444 9.7143 123.489 9.74526C123.507 9.75807 123.501 9.77942 123.507 9.79757C123.306 9.81466 123.103 9.8264 122.907 9.85202C122.781 9.86804 122.725 9.82213 122.641 9.79757C122.613 9.78903 122.582 9.77088 122.556 9.77302C122.357 9.78903 122.158 9.80717 121.958 9.82853C121.934 9.83066 121.903 9.85522 121.901 9.87016C121.897 9.89792 121.948 9.92461 122.021 9.92354C122.119 9.92248 122.214 9.90433 122.302 9.9481C122.375 9.98653 122.466 10.0036 122.574 9.98654C122.639 9.97694 122.708 9.97693 122.773 9.96839C122.946 9.94277 123.103 9.9481 123.233 10.0207C123.332 10.0399 123.43 10.0218 123.525 10.0122C123.596 10.0047 123.665 9.99721 123.716 10.0175C123.824 10.0602 123.93 10.1029 124.078 10.0741C124.239 10.104 124.361 10.167 124.495 10.2182C124.558 10.2428 124.606 10.2567 124.68 10.2406C124.71 10.2342 124.747 10.2342 124.779 10.231C124.846 10.2257 124.917 10.2097 124.978 10.2161C125.039 10.2235 125.09 10.2545 125.145 10.2737C125.171 10.2833 125.202 10.2993 125.228 10.2983C125.33 10.2929 125.43 10.2823 125.529 10.2737C125.629 10.2663 125.728 10.2588 125.828 10.2513C125.911 10.2791 125.997 10.3068 126.08 10.3346C126.214 10.3228 126.348 10.3111 126.48 10.3004C126.629 10.2876 126.629 10.2887 126.842 10.3549C126.937 10.3848 127.039 10.3655 127.131 10.3517C127.283 10.3292 127.385 10.3698 127.492 10.4125C127.515 10.4211 127.555 10.4264 127.582 10.4221C127.687 10.4072 127.779 10.4189 127.856 10.4584C127.911 10.4862 127.966 10.499 128.033 10.4937C128.267 10.4734 128.5 10.452 128.734 10.4339C128.762 10.4317 128.795 10.4413 128.821 10.4499C129.029 10.515 129.031 10.5182 129.183 10.5011C129.319 10.4862 129.445 10.4798 129.553 10.5385C129.575 10.5513 129.61 10.5695 129.634 10.5684C129.801 10.5577 129.97 10.546 130.134 10.5278C130.21 10.5193 130.262 10.5225 130.321 10.547C130.396 10.578 130.464 10.6154 130.588 10.6015C130.931 10.562 130.933 10.5684 131.339 10.6421C131.368 10.6474 131.407 10.6389 131.439 10.6346C131.508 10.6239 131.559 10.6389 131.62 10.6634C131.756 10.7189 131.76 10.7157 131.89 10.704C131.99 10.6944 132.093 10.6922 132.191 10.6762C132.341 10.6527 132.441 10.6944 132.553 10.7339C132.642 10.7648 132.746 10.7392 132.841 10.7296C132.945 10.7189 133.038 10.7221 133.116 10.7627C133.169 10.7905 133.225 10.8054 133.292 10.8001C133.526 10.7809 133.76 10.7595 133.994 10.7403C134.022 10.7381 134.057 10.7467 134.083 10.7542C134.315 10.8204 134.315 10.8236 134.544 10.799C134.618 10.7915 134.679 10.7894 134.733 10.8118C134.786 10.8332 134.843 10.8534 134.898 10.8737C134.998 10.8663 135.099 10.8641 135.197 10.8513C135.272 10.8417 135.325 10.846 135.384 10.8684C135.461 10.8972 135.526 10.9474 135.648 10.9228C135.711 10.9111 135.784 10.9143 135.847 10.9036C135.922 10.8898 135.973 10.8983 136.032 10.926C136.105 10.9591 136.18 10.9933 136.298 10.9762C136.428 10.957 136.567 10.9538 136.699 10.9389C136.772 10.9303 136.823 10.9389 136.882 10.9666C136.955 11.0018 137.038 11.0243 137.152 11.0104C137.384 10.9837 137.386 10.989 137.611 11.0563C137.668 11.0734 137.729 11.0712 137.802 11.0627C137.865 11.0552 137.93 11.0712 137.975 11.1022C138.018 11.1364 138.014 11.1577 138.018 11.1759ZM119.908 1.54697C119.841 1.55231 119.774 1.55871 119.676 1.46583C119.67 1.44981 119.674 1.4306 119.66 1.41672C119.627 1.3879 119.577 1.36761 119.516 1.36441C119.406 1.36014 119.274 1.39643 119.276 1.42419C119.278 1.44768 119.312 1.46796 119.379 1.48718C119.408 1.49465 119.43 1.50746 119.457 1.516C119.534 1.54056 119.595 1.58861 119.707 1.56405C119.686 1.49786 119.696 1.53096 119.707 1.56405C119.696 1.60462 119.727 1.63345 119.8 1.6452C119.82 1.6484 119.851 1.64626 119.867 1.63985C119.93 1.61636 119.94 1.58434 119.894 1.5C119.885 1.51388 119.892 1.53843 119.91 1.54483C119.928 1.55124 119.973 1.54591 119.995 1.53843C120.052 1.51815 120.081 1.49145 120.066 1.46903C120.058 1.45729 120.02 1.44234 119.995 1.44234C119.952 1.44234 119.914 1.46583 119.908 1.54697ZM136.341 13.9282C136.193 13.9485 136.022 13.941 135.874 13.9827C135.847 13.9901 135.821 14.0093 135.819 14.0243C135.817 14.0339 135.857 14.0478 135.882 14.0553C135.937 14.0723 135.997 14.067 136.069 14.0617C136.176 14.0542 136.239 14.1033 136.323 14.1279C136.349 14.1353 136.384 14.1407 136.412 14.1385C136.577 14.1257 136.739 14.1118 136.904 14.0969C136.932 14.0937 136.963 14.0862 136.987 14.0766C137.069 14.0456 137.06 14.0254 136.981 14.0019C136.894 13.9763 136.825 13.9335 136.735 13.9133C136.607 13.8844 136.477 13.9229 136.341 13.9282ZM124.8 14.7076C124.7 14.7161 124.602 14.7247 124.503 14.7332C124.47 14.7364 124.436 14.7375 124.405 14.7417C124.342 14.7492 124.295 14.7716 124.265 14.8069C124.312 14.8346 124.369 14.8506 124.432 14.8474C124.531 14.841 124.629 14.8271 124.728 14.8239C124.836 14.8197 124.899 14.8677 124.982 14.8923C125.009 14.8997 125.041 14.9008 125.072 14.9019C125.222 14.9061 125.314 14.8506 125.285 14.7727C125.265 14.7118 125.188 14.6755 125.094 14.683C124.997 14.6905 124.897 14.699 124.8 14.7076ZM137.036 12.3503C137.06 12.3321 137.087 12.3193 137.099 12.3033C137.136 12.2488 137.121 12.2083 137.054 12.1656C136.973 12.1132 136.873 12.1485 136.782 12.1538C136.76 12.1549 136.735 12.1773 136.723 12.1912C136.715 12.2008 136.715 12.2211 136.727 12.2264C136.827 12.2691 136.932 12.3086 137.036 12.3503ZM119.406 9.1965C119.308 9.20504 119.209 9.21145 119.111 9.22319C119.087 9.22639 119.064 9.24668 119.05 9.26055C119.024 9.28618 119.052 9.32141 119.135 9.32461C119.231 9.32888 119.331 9.31073 119.43 9.30219C119.556 9.29152 119.631 9.25201 119.585 9.21785C119.54 9.18475 119.479 9.17835 119.406 9.1965ZM12.4275 6.91499C12.4925 6.90965 12.5596 6.90538 12.6246 6.8979C12.6856 6.89043 12.7324 6.86694 12.7629 6.83171C12.712 6.80395 12.6551 6.78901 12.5921 6.79221C12.4925 6.79861 12.395 6.80715 12.2975 6.81783C12.2365 6.82424 12.1776 6.84772 12.1633 6.88402C12.1491 6.91178 12.2852 6.9278 12.4275 6.91499ZM110.811 6.75057C110.838 6.76018 110.864 6.7794 110.89 6.7794C110.955 6.7794 111.023 6.77299 111.084 6.76231C111.11 6.75804 111.13 6.73883 111.142 6.72388C111.151 6.71427 111.149 6.69719 111.136 6.68865C111.077 6.63741 110.842 6.65555 110.803 6.71427C110.799 6.72495 110.809 6.73883 110.811 6.75057ZM104.399 0.904257C104.405 0.921339 104.407 0.938419 104.416 0.955501C104.432 0.98753 104.476 1.01102 104.542 1.02704C104.592 1.00035 104.619 0.970457 104.617 0.938428C104.615 0.921346 104.609 0.904253 104.6 0.887171C104.584 0.855143 104.54 0.831663 104.474 0.815649C104.424 0.841272 104.399 0.871161 104.399 0.904257ZM141.733 14.8933C141.714 14.9072 141.696 14.9211 141.676 14.9339C141.731 14.9649 141.781 14.9745 141.82 14.9574C141.844 14.9467 141.859 14.9307 141.877 14.9168C141.822 14.8859 141.773 14.8773 141.733 14.8933ZM140.469 15.0385C140.495 15.0481 140.519 15.061 140.548 15.0674C140.595 15.078 140.637 15.0599 140.67 15.0215C140.643 15.0118 140.619 14.999 140.59 14.9926C140.544 14.9819 140.501 15.0001 140.469 15.0385ZM141.269 14.8432C141.255 14.8688 141.284 14.8901 141.359 14.9083C141.377 14.8944 141.401 14.8816 141.414 14.8667C141.434 14.8421 141.399 14.8197 141.326 14.8026C141.306 14.8154 141.288 14.8293 141.269 14.8432ZM136.979 13.6923C136.965 13.7179 136.993 13.7392 137.068 13.7574C137.087 13.7435 137.111 13.7307 137.123 13.7157C137.144 13.6912 137.109 13.6688 137.036 13.6517C137.016 13.6645 136.997 13.6784 136.979 13.6923ZM131.134 6.13775C131.116 6.15163 131.098 6.16551 131.077 6.17832C131.132 6.20929 131.183 6.21889 131.222 6.20181C131.246 6.19113 131.26 6.17512 131.278 6.16124C131.224 6.13028 131.175 6.12174 131.134 6.13775ZM125.535 2.12989C125.584 2.13736 125.625 2.12242 125.659 2.08292C125.633 2.07331 125.608 2.0605 125.58 2.05409C125.533 2.04341 125.491 2.06157 125.458 2.1C125.484 2.11068 125.511 2.12028 125.535 2.12989ZM122.562 1.879C122.544 1.89288 122.525 1.90676 122.505 1.91957C122.56 1.95053 122.611 1.96014 122.649 1.94305C122.674 1.93238 122.688 1.91636 122.706 1.90248C122.651 1.87152 122.603 1.86405 122.562 1.879ZM102.4 0.903188C102.381 0.917067 102.363 0.930947 102.343 0.943759C102.397 0.97472 102.448 0.984325 102.487 0.967243C102.511 0.956567 102.526 0.940552 102.544 0.926673C102.489 0.895712 102.44 0.888242 102.4 0.903188ZM2.00585 9.58938C1.97943 9.57977 1.95304 9.57017 1.92865 9.55949C1.86971 9.58832 1.85143 9.61501 1.88395 9.63529C1.90427 9.6481 1.93473 9.65558 1.96115 9.66519C2.02212 9.63636 2.03634 9.61073 2.00585 9.58938Z" fill="#FFE492"/>
<path d="M36.0228 11.6718C35.7891 11.692 35.5575 11.7177 35.3237 11.7305C35.1998 11.7369 35.1551 11.7828 35.1043 11.8255C35.0636 11.8597 35.0169 11.8703 34.9417 11.8767C34.3076 11.9291 33.6756 11.9846 33.0435 12.039C32.9643 12.0251 32.9256 12.0027 32.9439 11.976C32.9541 11.96 32.9785 11.9376 33.0029 11.9355C33.4358 11.896 33.8666 11.8554 34.3015 11.8244C34.4255 11.8159 34.46 11.7689 34.523 11.7305C34.5434 11.7177 34.5596 11.6984 34.586 11.691C34.6125 11.6824 34.6511 11.6835 34.6856 11.6814C35.3847 11.6205 36.0839 11.5607 36.783 11.4999C36.8622 11.5138 36.9008 11.5362 36.8826 11.5629C36.8724 11.5789 36.848 11.6013 36.8236 11.6034C36.5553 11.6259 36.2891 11.6483 36.0228 11.6718Z" fill="#FFE492"/>
<path d="M163.642 17.3569C163.537 17.3697 163.403 17.3878 163.293 17.3259C163.24 17.296 163.183 17.2864 163.114 17.2928C163.014 17.3035 162.913 17.312 162.811 17.3184C162.785 17.3195 162.75 17.3078 162.724 17.2981C162.667 17.2789 162.618 17.2469 162.557 17.2384C162.496 17.2298 162.423 17.2533 162.36 17.248C162.277 17.2405 162.242 17.2117 162.264 17.185C162.277 17.17 162.301 17.1487 162.327 17.1455C162.703 17.106 162.705 17.106 162.811 17.1444C162.892 17.1743 162.968 17.2074 163.083 17.1892C163.181 17.1743 163.285 17.1711 163.384 17.1615C163.522 17.1487 163.522 17.1497 163.746 17.217C163.803 17.2341 163.864 17.233 163.937 17.2234C164 17.2159 164.061 17.233 164.112 17.2619C164.079 17.2982 164.033 17.3216 163.97 17.328C163.868 17.3387 163.768 17.3462 163.642 17.3569Z" fill="#FFE492"/>
<path d="M160.328 17.0279C160.584 17.0055 160.842 16.9863 161.098 16.9607C161.204 16.95 161.287 16.9618 161.361 16.9981C161.44 17.0376 161.529 17.0344 161.627 17.0269C161.688 17.0226 161.747 17.0397 161.787 17.0696C161.804 17.0813 161.8 17.1027 161.806 17.1198C161.582 17.139 161.357 17.1593 161.131 17.1763C161.105 17.1785 161.072 17.1678 161.048 17.1593C160.993 17.1411 160.946 17.1091 160.887 17.1027C160.761 17.0877 160.635 17.1166 160.507 17.1219C160.446 17.124 160.387 17.108 160.346 17.0792C160.33 17.0653 160.334 17.045 160.328 17.0279Z" fill="#FFE492"/>
<path d="M67.2559 7.8488C67.5221 7.82532 67.7883 7.80291 68.0545 7.77942C68.1338 7.79437 68.1704 7.81571 68.1541 7.84241C68.144 7.85842 68.1196 7.88084 68.0952 7.88298C67.5627 7.93102 67.0303 7.97692 66.4999 8.02283C66.4206 8.00788 66.384 7.98653 66.4003 7.95984C66.4104 7.94383 66.4348 7.92141 66.4592 7.91927C66.7234 7.89472 66.9896 7.87229 67.2559 7.8488Z" fill="#FFE492"/>
<path d="M26.3004 13.7811C26.1805 13.7832 26.0546 13.8227 25.9204 13.7928C25.894 13.7875 25.8574 13.7704 25.8595 13.7608C25.8635 13.7448 25.8879 13.7245 25.9143 13.7181C26.0302 13.6914 26.1745 13.6882 26.2334 13.6135C26.2619 13.575 26.3147 13.5622 26.3858 13.5548C26.461 13.5462 26.5139 13.5494 26.5728 13.5718C26.65 13.6007 26.7151 13.654 26.837 13.6263C26.8431 13.6434 26.8573 13.6626 26.8512 13.6786C26.8451 13.6946 26.8187 13.7096 26.7943 13.7213C26.772 13.732 26.7415 13.7416 26.713 13.7448C26.5789 13.7576 26.4447 13.7683 26.3004 13.7811Z" fill="#FFE492"/>
<path d="M132.329 13.567C132.428 13.5584 132.532 13.5542 132.629 13.5392C132.707 13.5275 132.755 13.535 132.816 13.5606C132.92 13.6054 132.926 13.6012 133.18 13.6076C133.209 13.6086 133.243 13.6246 133.259 13.6385C133.27 13.646 133.255 13.6663 133.243 13.677C133.225 13.6908 133.198 13.709 133.174 13.709C133.014 13.7122 132.851 13.7752 132.694 13.7026C132.615 13.6663 132.528 13.6492 132.42 13.6652C132.355 13.6748 132.286 13.6791 132.219 13.6834C132.154 13.6876 132.087 13.6759 132.046 13.6439C131.987 13.5969 132.022 13.5787 132.127 13.5819C132.195 13.5841 132.262 13.5723 132.329 13.567Z" fill="#FFE492"/>
<path d="M168.989 20.9261C169.117 20.9154 169.245 20.9026 169.375 20.8941C169.401 20.8919 169.434 20.9037 169.458 20.9111C169.556 20.9432 169.541 20.9976 169.545 21.0456C169.547 21.0958 169.322 21.1364 169.226 21.1022C169.121 21.0638 169.025 21.02 168.879 21.0435C168.822 21.0521 168.755 21.0328 168.718 21.0019C168.663 20.957 168.694 20.9389 168.798 20.9421C168.859 20.9442 168.924 20.9325 168.989 20.9261Z" fill="#FFE492"/>
<path d="M104.171 6.39462C104.303 6.38288 104.435 6.36474 104.567 6.36367C104.644 6.3626 104.683 6.39783 104.664 6.42345C104.654 6.43947 104.63 6.46189 104.606 6.46402C104.341 6.48964 104.077 6.511 103.813 6.53449C103.736 6.51954 103.697 6.49713 103.715 6.4715C103.726 6.45549 103.75 6.43413 103.774 6.43093C103.906 6.41599 104.039 6.40637 104.171 6.39462Z" fill="#FFE492"/>
<path d="M166.418 17.451C166.546 17.4403 166.677 17.4243 166.805 17.419C166.872 17.4168 166.924 17.4414 166.933 17.4691C166.937 17.4819 166.904 17.5044 166.878 17.5097C166.695 17.546 166.498 17.5503 166.307 17.5684C166.246 17.5738 166.181 17.5567 166.144 17.5268C166.089 17.4809 166.12 17.4638 166.223 17.467C166.288 17.4681 166.353 17.4563 166.418 17.451Z" fill="#FFE492"/>
<path d="M135.497 13.7109C135.562 13.7056 135.629 13.6917 135.692 13.696C135.759 13.7013 135.802 13.7323 135.822 13.7633C135.844 13.7985 135.842 13.8316 135.822 13.8615C135.79 13.9127 135.757 13.9106 135.682 13.8764C135.566 13.823 135.558 13.8294 135.328 13.8316C135.302 13.8316 135.269 13.8156 135.249 13.8017C135.219 13.7803 135.235 13.7472 135.306 13.728C135.359 13.7141 135.432 13.7163 135.497 13.7109Z" fill="#FFE492"/>
<path d="M161.815 17.1007C161.91 17.0922 162.006 17.0783 162.101 17.0783C162.168 17.0772 162.221 17.1018 162.227 17.1285C162.229 17.1413 162.199 17.1626 162.174 17.169C162.058 17.1979 161.928 17.2 161.802 17.2096C161.743 17.2139 161.678 17.1968 161.642 17.1669C161.587 17.122 161.619 17.1018 161.719 17.1082C161.749 17.1103 161.782 17.1039 161.815 17.1007Z" fill="#FFE492"/>
<path d="M146.441 15.7907C146.298 15.8035 146.164 15.7875 146.174 15.7597C146.189 15.7234 146.248 15.6999 146.308 15.6935C146.406 15.6829 146.504 15.6743 146.603 15.6679C146.666 15.6637 146.723 15.6797 146.774 15.7074C146.743 15.7416 146.697 15.7661 146.636 15.7736C146.573 15.7811 146.506 15.7854 146.441 15.7907Z" fill="#FFE492"/>
<path d="M145.731 15.6539C145.826 15.6454 145.922 15.6315 146.017 15.6315C146.084 15.6304 146.137 15.655 146.143 15.6817C146.145 15.6945 146.115 15.7158 146.09 15.7222C145.974 15.7511 145.844 15.7532 145.718 15.7628C145.659 15.7671 145.594 15.75 145.558 15.7201C145.503 15.6753 145.535 15.655 145.635 15.6614C145.665 15.6635 145.698 15.6571 145.731 15.6539Z" fill="#FFE492"/>
<path d="M134.147 13.7025C134.242 13.6939 134.338 13.6801 134.433 13.679C134.5 13.6779 134.553 13.7025 134.559 13.7292C134.561 13.742 134.531 13.7623 134.506 13.7697C134.39 13.7986 134.26 13.8007 134.134 13.8103C134.075 13.8146 134.01 13.7975 133.974 13.7676C133.919 13.7228 133.951 13.7025 134.051 13.7089C134.081 13.711 134.114 13.7046 134.147 13.7025Z" fill="#FFE492"/>
<path d="M133.561 13.6394C133.662 13.6308 133.695 13.6255 133.728 13.6255C133.788 13.6255 133.851 13.6383 133.888 13.6693C133.943 13.7141 133.91 13.7269 133.811 13.7291C133.683 13.7312 133.557 13.7536 133.429 13.7579C133.362 13.76 133.309 13.7344 133.305 13.7077C133.303 13.6949 133.333 13.6725 133.358 13.6682C133.443 13.6522 133.536 13.6426 133.561 13.6394Z" fill="#FFE492"/>
<path d="M145.181 7.35825C145.116 7.36359 145.047 7.37854 144.986 7.3732C144.905 7.36573 144.872 7.33691 144.893 7.31022C144.905 7.29527 144.927 7.27392 144.952 7.27071C145.082 7.25577 145.214 7.24615 145.344 7.23547C145.421 7.25149 145.456 7.27391 145.435 7.3006C145.423 7.31554 145.401 7.33583 145.376 7.3401C145.313 7.35077 145.246 7.35291 145.181 7.35825Z" fill="#FFE492"/>
<path d="M65.9818 7.97454C66.0448 7.97348 66.1017 7.98736 66.1504 8.01405C66.12 8.04821 66.0753 8.07063 66.0143 8.08024C65.9838 8.08451 65.9493 8.08771 65.9167 8.08877C65.8537 8.09091 65.7968 8.07596 65.748 8.04927C65.7785 8.01511 65.8253 7.99269 65.8842 7.98308C65.9147 7.97881 65.9493 7.97775 65.9818 7.97454Z" fill="#FFE492"/>
<path d="M165.475 17.4466C165.473 17.4157 165.597 17.3804 165.708 17.3815C165.767 17.3826 165.828 17.3975 165.863 17.4263C165.916 17.4701 165.885 17.4872 165.786 17.484C165.725 17.4818 165.66 17.5 165.599 17.4968C165.529 17.4957 165.489 17.4722 165.475 17.4466Z" fill="#FFE492"/>
<path d="M135.887 13.8401C135.885 13.8284 135.875 13.8145 135.881 13.8038C135.919 13.7451 136.153 13.727 136.214 13.7782C136.224 13.7878 136.228 13.8038 136.22 13.8134C136.208 13.8284 136.186 13.8476 136.161 13.8519C136.098 13.8625 136.033 13.8679 135.968 13.8689C135.94 13.8689 135.913 13.8508 135.887 13.8401Z" fill="#FFE492"/>
<path d="M27.3684 13.6107C27.1286 13.6332 27.1245 13.631 27.1672 13.5776C27.2058 13.5296 27.277 13.5008 27.3806 13.5008C27.4111 13.5008 27.4436 13.4986 27.47 13.5029C27.4985 13.5083 27.5391 13.5189 27.5452 13.5317C27.5574 13.5563 27.5229 13.583 27.4619 13.6011C27.4355 13.6097 27.4009 13.6075 27.3684 13.6107Z" fill="#FFE492"/>
<path d="M69.1551 7.82406C69.0839 7.84221 69.023 7.83581 68.9783 7.80164C68.9336 7.76748 69.0047 7.7269 69.1287 7.7173C69.1612 7.71516 69.1957 7.70663 69.2262 7.7109C69.2567 7.7141 69.2872 7.7269 69.3055 7.73971C69.338 7.76106 69.3177 7.7899 69.2527 7.81445C69.2262 7.82406 69.1876 7.82192 69.1551 7.82406Z" fill="#FFE492"/>
<path d="M165.479 17.3667C165.498 17.3529 165.516 17.339 165.537 17.3262C165.614 17.3443 165.648 17.3657 165.627 17.3902C165.614 17.4052 165.589 17.418 165.571 17.4319C165.494 17.4137 165.462 17.3913 165.479 17.3667Z" fill="#FFE492"/>
<path d="M30.3652 25.7642C30.3652 25.7514 30.3937 25.7312 30.416 25.7269C30.4587 25.7194 30.5115 25.7344 30.5481 25.7642C30.5989 25.8069 30.5685 25.8294 30.475 25.8176C30.41 25.8091 30.3652 25.7877 30.3652 25.7642Z" fill="#FFE492"/>
<path d="M136.645 12.8461C136.672 12.8557 136.698 12.8653 136.723 12.876C136.688 12.9155 136.645 12.9326 136.601 12.9219C136.572 12.9155 136.548 12.9027 136.521 12.8931C136.556 12.8536 136.597 12.8386 136.645 12.8461Z" fill="#FFE492"/>
<path d="M135.934 12.7983C135.974 12.7823 136.023 12.7908 136.08 12.8218C136.062 12.8357 136.046 12.8517 136.023 12.8624C135.985 12.8795 135.934 12.8709 135.879 12.8389C135.895 12.8261 135.913 12.8122 135.934 12.7983Z" fill="#FFE492"/>
<path d="M135.358 12.8451C135.385 12.8547 135.411 12.8644 135.436 12.875C135.401 12.9145 135.36 12.9316 135.314 12.9209C135.285 12.9145 135.261 12.9017 135.234 12.8921C135.269 12.8526 135.31 12.8366 135.358 12.8451Z" fill="#FFE492"/>
<path d="M135.376 12.7887C135.407 12.81 135.391 12.8357 135.33 12.8645C135.303 12.8549 135.272 12.8474 135.251 12.8346C135.218 12.8143 135.235 12.7876 135.297 12.7588C135.322 12.7695 135.349 12.7791 135.376 12.7887Z" fill="#FFE492"/>
</svg>
